<svg width="20" height="18" viewBox="0 0 20 18" fill="none" xmlns="http://www.w3.org/2000/svg">
<path fill-rule="evenodd" clip-rule="evenodd" d="M14.939 0C16.28 0 17.57 0.501116 18.519 1.40029C19.469 2.29757 20 3.50781 20 4.77479V12.2443C20 14.8822 17.73 17.019 14.939 17.019H5.06C2.269 17.019 0 14.8822 0 12.2443V4.77479C0 2.13684 2.259 0 5.06 0H14.939ZM16.5299 6.18358L16.6099 6.10794C16.8489 5.83375 16.8489 5.43664 16.5989 5.16244C16.4599 5.02156 16.2689 4.93552 16.0699 4.91661C15.8599 4.90621 15.6599 4.97334 15.5089 5.10571L10.9999 8.50952C10.4199 8.96431 9.58893 8.96431 8.99993 8.50952L4.49993 5.10571C4.18893 4.88824 3.75893 4.91661 3.49993 5.1719C3.22993 5.42718 3.19993 5.83375 3.42893 6.1174L3.55993 6.24031L8.10993 9.59685C8.66993 10.0129 9.34893 10.2398 10.0599 10.2398C10.7689 10.2398 11.4599 10.0129 12.0189 9.59685L16.5299 6.18358Z" fill="#1C0C44"/>
</svg>
