<svg width="262" height="57" viewBox="0 0 262 57" fill="none" xmlns="http://www.w3.org/2000/svg">
<g clip-path="url(#clip0_128:4)">
<path fill-rule="evenodd" clip-rule="evenodd" d="M31.4961 0.155457C25.606 -0.461203 19.6683 0.750451 14.4991 3.62387C9.32993 6.4973 5.18307 10.8914 2.62852 16.2023C0.0739741 21.5132 -0.76286 27.48 0.233045 33.2828C1.22895 39.0855 4.0087 44.4393 8.19022 48.6081C12.3717 52.777 17.7498 55.5563 23.585 56.564C29.4203 57.5718 35.4264 56.7585 40.7778 54.236C46.1292 51.7135 50.5631 47.6056 53.4702 42.4769C56.3772 37.3482 57.6147 31.4505 57.0125 25.5945C56.3498 19.0851 53.4505 13.0015 48.803 8.36803C44.1554 3.73456 38.0434 0.834248 31.4961 0.155457ZM30.5672 43.5702C27.3993 43.9926 24.1779 43.4178 21.3556 41.9265C18.5334 40.4353 16.2523 38.1026 14.8329 35.2563C13.4134 32.41 12.927 29.1932 13.4421 26.0579C13.9571 22.9227 15.4476 20.0267 17.7042 17.7768C19.9607 15.527 22.8699 14.0365 26.0228 13.5149C29.1756 12.9932 32.4137 13.4665 35.282 14.8684C38.1502 16.2702 40.5044 18.5301 42.0136 21.3304C43.5228 24.1307 44.1112 27.3307 43.6962 30.4805C43.2606 33.7936 41.7382 36.8716 39.3648 39.2379C36.9914 41.6043 33.8993 43.1269 30.5672 43.5702ZM72.3459 1.28267C71.3516 1.28504 70.3703 1.50769 69.4735 1.93442C68.5766 2.36116 67.7868 2.98124 67.1614 3.74956C66.5361 4.51787 66.0909 5.41508 65.8584 6.37591C65.6258 7.33673 65.6117 8.337 65.8171 9.30393C66.4462 12.4365 69.3901 14.5768 72.5971 14.5768H91.2078L62.2452 52.6708C62.031 52.952 61.8999 53.287 61.8665 53.6382C61.8331 53.9893 61.8987 54.3428 62.0561 54.6589C62.2135 54.9751 62.4564 55.2414 62.7575 55.428C63.0586 55.6147 63.4061 55.7143 63.761 55.7156H109.192C112.397 55.7156 115.343 53.5758 115.972 50.4427C116.177 49.476 116.163 48.4758 115.931 47.5151C115.698 46.5544 115.253 45.6572 114.628 44.8889C114.003 44.1205 113.214 43.5003 112.317 43.0733C111.421 42.6463 110.44 42.4232 109.446 42.4204H86.7698L115.71 4.35602C115.926 4.07206 116.059 3.73381 116.093 3.37923C116.126 3.02465 116.06 2.66776 115.901 2.3486C115.742 2.02944 115.496 1.76064 115.192 1.57236C114.888 1.38408 114.537 1.28377 114.179 1.28267H72.3459ZM253.884 1.43602C252.38 1.79148 251.043 2.64648 250.094 3.85964C249.145 5.07279 248.641 6.57146 248.666 8.10784V30.2422L212.58 1.70074C212.297 1.47748 211.956 1.33815 211.597 1.29878C211.238 1.25942 210.875 1.32161 210.549 1.47822C210.224 1.63482 209.95 1.87947 209.759 2.18402C209.567 2.48857 209.466 2.84064 209.467 3.19975V48.9023C209.443 50.4387 209.947 51.9374 210.895 53.1506C211.844 54.3638 213.181 55.2188 214.685 55.5741C215.662 55.7877 216.675 55.7807 217.648 55.5535C218.622 55.3263 219.532 54.8848 220.311 54.2615C221.09 53.6382 221.718 52.849 222.149 51.9522C222.58 51.0554 222.803 50.0738 222.802 49.0799V26.754L258.889 55.296C259.172 55.5191 259.512 55.6583 259.871 55.6977C260.23 55.737 260.593 55.6748 260.918 55.5183C261.243 55.3617 261.517 55.1172 261.708 54.8128C261.9 54.5084 262.001 54.1564 262 53.7975V7.92813C262.001 6.93442 261.778 5.95315 261.346 5.05665C260.915 4.16016 260.287 3.37131 259.508 2.74826C258.729 2.12522 257.819 1.68387 256.846 1.45676C255.873 1.22964 254.86 1.22256 253.884 1.43602ZM159.925 13.3043C175.189 13.3043 186.593 21.3213 186.593 28.4924C186.593 35.6636 175.189 43.6805 159.925 43.6805C144.661 43.6805 133.257 35.6636 133.257 28.4924C133.257 21.3213 144.661 13.3043 159.925 13.3043ZM159.925 0.0107216C137.832 0.0107216 119.922 12.7625 119.922 28.4924C119.922 44.2223 137.832 56.9741 159.925 56.9741C182.018 56.9741 199.927 44.2223 199.927 28.4924C199.927 12.7625 182.018 0.0107216 159.925 0.0107216Z" fill="#0069FF"/>
</g>
<defs>
<clipPath id="clip0_128:4">
<rect width="262" height="57" fill="white"/>
</clipPath>
</defs>
</svg>
