<svg width="100" height="68" viewBox="0 0 100 68" fill="none" xmlns="http://www.w3.org/2000/svg">
<path d="M90.0668 7.32481C90.0668 7.32481 86.394 2.59048 76.1269 0C76.0434 0.089327 76.1269 10.2726 76.1269 10.2726L65.9432 9.11135L54.1736 24.3863L60.7679 8.39674L53.005 8.12875L50 25.9048L47.0785 8.12875L39.3155 8.30741L45.8264 24.2969L34.0568 9.11135L23.8731 10.2726C23.8731 10.2726 24.0401 0.089327 23.8731 0C13.606 2.50116 9.84975 7.23549 9.84975 7.23549C1.83639 20.5452 0 33.9443 0 33.8549C16.778 60.5637 48.0801 67.4419 48.0801 67.4419V59.9384L43.6561 54.9361L43.99 53.6855L47.0785 50.827H49.9165H52.7546L55.8431 53.7748L56.177 54.9361L51.8364 59.9384V67.4419C51.8364 67.4419 83.1386 60.653 100 33.9442C99.9165 34.0336 98.0801 20.6345 90.0668 7.32481ZM42.9048 37.964C42.9048 37.964 40.9015 39.9292 38.8982 41.0011C34.7245 43.0556 32.1369 42.7876 30.3005 42.5196C20.1169 40.1971 15.1085 33.9442 14.4407 32.8723C13.6895 31.8004 12.7713 30.5498 13.5225 29.8352C15.5259 27.3341 20.0334 24.7436 22.1202 23.9396C24.6244 22.957 26.2104 23.3143 27.212 23.761C32.4708 26.1728 37.6461 31.3538 40.985 34.5695C43.7396 37.2493 42.9048 37.964 42.9048 37.964ZM85.5593 32.9617C84.808 34.0336 79.8831 40.2865 69.6995 42.5196C67.8631 42.7876 65.192 43.0556 61.1018 41.0011C59.0985 40.0185 57.0952 37.964 57.0952 37.964C57.0952 37.964 56.2604 37.2493 59.015 34.5695L72.788 23.761C73.8731 23.3143 75.4591 22.957 77.8798 23.9396C79.9666 24.8329 84.4741 27.4234 86.4775 29.9245C87.2287 30.6392 86.3105 31.8897 85.5593 32.9617Z" fill="#33418D"/>
</svg>
