<svg width="126" height="126" viewBox="0 0 126 126" fill="none" xmlns="http://www.w3.org/2000/svg">
<path d="M76.5234 55.2808C76.5234 55.2808 75.2379 53.8066 71.6444 53C71.6152 53.0278 71.6444 56.1987 71.6444 56.1987L68.0801 55.8371L63.9608 60.5934L66.2688 55.6146L63.5518 55.5311L62.5 61.0662L61.4775 55.5311L58.7604 55.5868L61.0392 60.5656L56.9199 55.8371L53.3556 56.1987C53.3556 56.1987 53.414 53.0278 53.3556 53C49.7621 53.7788 48.4474 55.253 48.4474 55.253C45.6427 59.3974 45 63.5695 45 63.5417C50.8723 71.8583 61.828 74 61.828 74V71.6636L60.2796 70.106L60.3965 69.7166L61.4775 68.8265H62.4708H63.4641L64.5451 69.7444L64.6619 70.106L63.1427 71.6636V74C63.1427 74 74.0985 71.8861 80 63.5695C79.9708 63.5974 79.328 59.4252 76.5234 55.2808ZM60.0167 64.8212C60.0167 64.8212 59.3155 65.4331 58.6144 65.7669C57.1536 66.4066 56.2479 66.3232 55.6052 66.2397C52.0409 65.5166 50.288 63.5695 50.0543 63.2358C49.7913 62.902 49.47 62.5126 49.7329 62.2901C50.4341 61.5113 52.0117 60.7046 52.7421 60.4543C53.6185 60.1483 54.1736 60.2596 54.5242 60.3987C56.3648 61.1497 58.1761 62.7629 59.3447 63.7642C60.3088 64.5987 60.0167 64.8212 60.0167 64.8212ZM74.9457 63.2636C74.6828 63.5974 72.9591 65.5444 69.3948 66.2397C68.7521 66.3232 67.8172 66.4066 66.3856 65.7669C65.6845 65.4609 64.9833 64.8212 64.9833 64.8212C64.9833 64.8212 64.6912 64.5987 65.6553 63.7642L70.4758 60.3987C70.8556 60.2596 71.4107 60.1483 72.2579 60.4543C72.9883 60.7325 74.5659 61.5391 75.2671 62.3179C75.5301 62.5404 75.2087 62.9298 74.9457 63.2636Z" fill="#3F6CB3"/>
<path d="M45.1698 0H42.7924H40.415V2.37736H42.7924H45.1698H47.5471V0H45.1698Z" fill="#3F6CB3"/>
<path d="M52.3017 0H49.9243V2.37736H52.3017V0Z" fill="#3F6CB3"/>
<path d="M57.0566 0H54.6792V2.37736H57.0566V0Z" fill="#3F6CB3"/>
<path d="M76.0756 0H73.6982V2.37736H76.0756V0Z" fill="#3F6CB3"/>
<path d="M49.9247 2.37732H47.5474V4.75468H49.9247V2.37732Z" fill="#3F6CB3"/>
<path d="M90.3397 2.37736V0H87.9623H85.585V2.37736H87.9623V4.75472V7.13208H90.3397V4.75472V2.37736Z" fill="#3F6CB3"/>
<path d="M95.0941 2.37732H92.7168V4.75468H95.0941V2.37732Z" fill="#3F6CB3"/>
<path d="M52.3017 4.75476H49.9243V7.13212H52.3017H54.679V4.75476H52.3017Z" fill="#3F6CB3"/>
<path d="M73.6982 4.75476H71.3208V7.13212H73.6982V4.75476Z" fill="#3F6CB3"/>
<path d="M78.453 4.75468H80.8304V2.37732H78.453H76.0757V4.75468V7.13204H78.453V4.75468Z" fill="#3F6CB3"/>
<path d="M104.604 4.75472V2.37736H102.226V0H99.8491V2.37736V4.75472H102.226V7.13208H104.604V4.75472Z" fill="#3F6CB3"/>
<path d="M30.9054 9.50943H33.2828V7.13208H38.0375V0H30.9054V2.37736H23.7734V0H21.396V9.50943H23.7734V7.13208H26.1507V4.75472H30.9054V7.13208H26.1507V11.8868H28.5281V9.50943H30.9054ZM33.2828 2.37736H35.6601V4.75472H33.2828V2.37736Z" fill="#3F6CB3"/>
<path d="M78.4526 7.13212V9.50948H80.83H83.2074V11.8868V14.2642H85.5847V16.6416H87.9621V14.2642H90.3394V16.6416H87.9621V19.0189H90.3394H92.7168V16.6416V14.2642V11.8868V9.50948V7.13212H90.3394V9.50948V11.8868H87.9621V9.50948H85.5847V7.13212H83.2074V4.75476H80.83V7.13212H78.4526Z" fill="#3F6CB3"/>
<path d="M106.981 7.13208H104.604V9.50944H106.981V7.13208Z" fill="#3F6CB3"/>
<path d="M21.3964 9.5094H19.019V11.8868H21.3964V9.5094Z" fill="#3F6CB3"/>
<path d="M35.6606 9.5094H33.2832V11.8868H35.6606V9.5094Z" fill="#3F6CB3"/>
<path d="M42.7924 9.50944H45.1698V7.13208H42.7924H40.415V9.50944V11.8868H42.7924V9.50944Z" fill="#3F6CB3"/>
<path d="M54.6791 9.5094H52.3018V11.8868H54.6791V9.5094Z" fill="#3F6CB3"/>
<path d="M99.849 11.8868V14.2642V16.6415H102.226V14.2642V11.8868V9.50944V7.13208H99.849H97.4717V9.50944H99.849V11.8868Z" fill="#3F6CB3"/>
<path d="M30.9057 11.8868H28.5283V14.2642V16.6416H30.9057V14.2642V11.8868Z" fill="#3F6CB3"/>
<path d="M38.0375 11.8868H35.6602V14.2642H38.0375V11.8868Z" fill="#3F6CB3"/>
<path d="M26.1508 14.2642H23.7734V16.6415H26.1508V14.2642Z" fill="#3F6CB3"/>
<path d="M42.7925 16.6416H45.1698V14.2642V11.8868H42.7925V14.2642V16.6416Z" fill="#3F6CB3"/>
<path d="M64.1889 14.2642H61.8115V16.6415H64.1889V14.2642Z" fill="#3F6CB3"/>
<path d="M73.6982 14.2642H71.3208V16.6415H73.6982V14.2642Z" fill="#3F6CB3"/>
<path d="M76.0756 16.6415H78.453V14.2642V11.8868H76.0756V9.50944V7.13208H73.6982V9.50944V11.8868V14.2642H76.0756V16.6415Z" fill="#3F6CB3"/>
<path d="M83.2074 14.2642H80.8301V16.6415H83.2074V14.2642Z" fill="#3F6CB3"/>
<path d="M106.981 14.2642H104.604V16.6415H106.981V14.2642Z" fill="#3F6CB3"/>
<path d="M38.0375 19.0189V21.3962H35.6602V23.7736V26.151H38.0375V28.5283H40.4149H42.7922V30.9057V33.283H45.1696V30.9057V28.5283V26.151V23.7736H42.7922V26.151H40.4149V23.7736V21.3962H42.7922V19.0189H40.4149V16.6415V14.2642H38.0375V16.6415V19.0189Z" fill="#3F6CB3"/>
<path d="M85.5849 16.6415H83.2075V19.0188H85.5849V16.6415Z" fill="#3F6CB3"/>
<path d="M104.604 16.6415H102.227V19.0188H104.604V16.6415Z" fill="#3F6CB3"/>
<path d="M76.0756 19.0189H73.6982V21.3963H76.0756V19.0189Z" fill="#3F6CB3"/>
<path d="M106.981 21.3963H109.359H111.736V19.0189H109.359H106.981H104.604V21.3963H106.981Z" fill="#3F6CB3"/>
<path d="M2.37736 21.3962H0V23.7736H2.37736V21.3962Z" fill="#3F6CB3"/>
<path d="M26.1508 21.3962H23.7734V23.7736H26.1508V21.3962Z" fill="#3F6CB3"/>
<path d="M28.5282 23.7736H30.9056H33.283V21.3962V19.0189H35.6603V16.6415V14.2642H33.283V16.6415H30.9056V19.0189H28.5282H26.1509V21.3962H28.5282V23.7736Z" fill="#3F6CB3"/>
<path d="M90.3398 21.3962H87.9624V23.7736H90.3398V21.3962Z" fill="#3F6CB3"/>
<path d="M116.491 21.3963V19.0189H114.113V21.3963V23.7736H116.491V21.3963Z" fill="#3F6CB3"/>
<path d="M7.13216 26.151V28.5284H9.50952V26.151V23.7736H11.8869V21.3963H9.50952V19.0189H7.13216H4.7548V21.3963H7.13216V23.7736H4.7548H2.37744V26.151H4.7548H7.13216Z" fill="#3F6CB3"/>
<path d="M19.0189 26.1509H21.3962V23.7736V21.3962H23.7736V19.0189V16.6415H21.3962V14.2642H19.0189V16.6415V19.0189H16.6415H14.2642V21.3962H16.6415V23.7736H14.2642V26.1509H16.6415H19.0189Z" fill="#3F6CB3"/>
<path d="M47.5473 26.1509H49.9246V28.5283H47.5473V30.9057H52.302V19.0189H54.6794V21.3962H57.0567V26.1509H54.6794V28.5283H59.4341V30.9057H64.1888V28.5283H66.5662V30.9057H68.9435V33.283H71.3209V28.5283H68.9435V26.1509H66.5662V23.7736H64.1888V26.1509H59.4341V21.3962H61.8114V23.7736H64.1888V21.3962H66.5662V23.7736H68.9435V21.3962H71.3209V16.6415H68.9435V14.2642H71.3209V9.50943H68.9435V7.13208H66.5662V9.50943H61.8114V4.75472H68.9435V2.37736H66.5662V0H64.1888V2.37736H59.4341V4.75472H57.0567V7.13208H54.6794V9.50943H57.0567V16.6415H54.6794V14.2642H52.302V16.6415H49.9246V11.8868H47.5473V19.0189H49.9246V21.3962H45.1699V23.7736H47.5473V26.1509ZM59.4341 14.2642V11.8868H66.5662V19.0189H59.4341V14.2642Z" fill="#3F6CB3"/>
<path d="M114.113 26.1509V23.7736H111.736H109.358V26.1509V28.5283H111.736V26.1509H114.113Z" fill="#3F6CB3"/>
<path d="M118.868 23.7736H116.491V26.1509H118.868V23.7736Z" fill="#3F6CB3"/>
<path d="M2.37736 26.151H0V28.5284V30.9057H2.37736V28.5284V26.151Z" fill="#3F6CB3"/>
<path d="M35.6606 26.151H33.2832V28.5284H35.6606V26.151Z" fill="#3F6CB3"/>
<path d="M73.6981 26.151V23.7736V21.3962H71.3207V23.7736H68.9434V26.151H71.3207V28.5283H73.6981V26.151Z" fill="#3F6CB3"/>
<path d="M104.604 26.151V23.7736H102.226V21.3963H99.849V23.7736H97.4717V21.3963H99.849V19.0189H97.4717V11.8868H95.0943V19.0189H92.7169V21.3963H95.0943V23.7736H92.7169V26.151H95.0943V33.2831H97.4717V35.6604H95.0943V33.2831H92.7169V30.9057H90.3396V28.5284H87.9622V23.7736H85.5849V21.3963H83.2075V19.0189H80.8302V16.6416H78.4528V21.3963H76.0754V28.5284H78.4528V30.9057H80.8302V33.2831H78.4528V35.6604H76.0754V40.4151H83.2075V35.6604H87.9622V33.2831H90.3396V35.6604H92.7169V38.0378H90.3396V40.4151H92.7169V42.7925H95.0943V45.1699H92.7169V42.7925H90.3396V47.5472H92.7169V52.3019H87.9622V54.6793H95.0943V52.3019H97.4717V59.434H99.849V54.6793H102.226V57.0567H104.604V59.434H102.226V61.8114H104.604V68.9435H102.226V66.5661H99.849V64.1887H95.0943V66.5661H97.4717V68.9435H95.0943V66.5661H92.7169V71.3208H90.3396V73.6982H85.5849V76.0755H87.9622V78.4529H85.5849V76.0755H83.2075V83.2076H85.5849V85.585H78.4528V90.3397H68.9434V92.717H83.2075V87.9623H85.5849V90.3397H87.9622V92.717H83.2075V95.0944H90.3396V92.717H92.7169V95.0944H99.849V92.717H95.0943V87.9623H90.3396V85.585H87.9622V80.8302H90.3396V76.0755H92.7169V78.4529H95.0943V80.8302H92.7169V83.2076H90.3396V85.585H95.0943V83.2076H97.4717V90.3397H99.849V85.585H102.226V80.8302H104.604V78.4529H106.981V76.0755H104.604V73.6982H102.226V71.3208H106.981V68.9435H116.491V71.3208H121.245V73.6982H116.491V76.0755H118.868V78.4529H116.491V76.0755H114.113V71.3208H111.736V73.6982H106.981V76.0755H109.358V78.4529H106.981V83.2076H109.358V80.8302H111.736V83.2076H114.113V80.8302H121.245V85.585H123.623V80.8302H126V78.4529H123.623V68.9435H121.245V66.5661H116.491V54.6793H114.113V57.0567H109.358V54.6793H106.981V52.3019H104.604V49.9246H106.981V47.5472H102.226V45.1699H104.604V42.7925H99.849V40.4151H95.0943V38.0378H99.849V35.6604H102.226V33.2831H99.849V30.9057H104.604V26.151ZM78.4528 26.151V23.7736H83.2075V26.151H85.5849V28.5284H80.8302V26.151H78.4528ZM83.2075 33.2831V30.9057H85.5849V33.2831H83.2075ZM97.4717 80.8302V76.0755H99.849V80.8302H97.4717ZM99.849 73.6982H95.0943V71.3208H99.849V73.6982ZM111.736 59.434H114.113V66.5661H106.981V59.434H111.736ZM99.849 47.5472V49.9246H97.4717V45.1699H99.849V47.5472ZM99.849 28.5284V26.151H102.226V28.5284H99.849Z" fill="#3F6CB3"/>
<path d="M123.622 26.151V23.7736H126V21.3962H123.622H121.245V23.7736V26.151V28.5283H118.868V30.9057H116.49V28.5283V26.151H114.113V28.5283H111.736V30.9057V33.283H109.358H106.981V35.6604H109.358H111.736V38.0377H114.113V35.6604H116.49V38.0377H118.868V35.6604V33.283H121.245V30.9057H123.622V28.5283V26.151Z" fill="#3F6CB3"/>
<path d="M7.13216 28.5283H4.7548V30.9057H2.37744V33.283H4.7548H7.13216H9.50952V30.9057H7.13216V28.5283Z" fill="#3F6CB3"/>
<path d="M14.264 28.5284V26.151H11.8866V28.5284H9.50928V30.9057H11.8866H14.264H16.6414V28.5284H14.264Z" fill="#3F6CB3"/>
<path d="M38.0375 28.5283H35.6602V30.9057H38.0375V28.5283Z" fill="#3F6CB3"/>
<path d="M76.0756 28.5283H73.6982V30.9057H76.0756V28.5283Z" fill="#3F6CB3"/>
<path d="M19.019 30.9056H16.6416V33.283H19.019V30.9056Z" fill="#3F6CB3"/>
<path d="M23.7738 30.9056V28.5283H26.1511H28.5285V26.1509V23.7736H26.1511V26.1509H23.7738H21.3964V28.5283H19.019V30.9056H21.3964V33.283H23.7738H26.1511V30.9056H23.7738Z" fill="#3F6CB3"/>
<path d="M40.415 30.9056H38.0376V33.283H40.415V30.9056Z" fill="#3F6CB3"/>
<path d="M78.453 30.9056H76.0757V33.283H78.453V30.9056Z" fill="#3F6CB3"/>
<path d="M106.981 30.9056H104.604V33.283H106.981V30.9056Z" fill="#3F6CB3"/>
<path d="M16.6414 35.6603V33.283H14.2641H11.8867V35.6603H14.2641H16.6414Z" fill="#3F6CB3"/>
<path d="M52.3017 33.283H49.9243V35.6603H52.3017V33.283Z" fill="#3F6CB3"/>
<path d="M76.0756 33.283H73.6982V35.6603H76.0756V33.283Z" fill="#3F6CB3"/>
<path d="M123.623 35.6604H126V33.283V30.9056H123.623V33.283V35.6604Z" fill="#3F6CB3"/>
<path d="M21.3963 38.0378H23.7737V40.4151H26.151V42.7925H28.5284V38.0378H33.2831V40.4151H30.9058V45.1698H33.2831V42.7925H35.6605V40.4151H38.0378V42.7925H40.4152V47.5472H42.7925V40.4151H40.4152V38.0378H38.0378V35.6604H35.6605V30.9057H33.2831V28.5283H28.5284V33.283H26.151V35.6604H16.6416V38.0378H21.3963ZM33.2831 33.283V35.6604H30.9058V33.283H33.2831Z" fill="#3F6CB3"/>
<path d="M45.1699 38.0377V40.4151V42.7924H47.5473V40.4151H49.9246H52.302H54.6794H57.0567H59.4341V42.7924H61.8114H64.1888H66.5662H68.9435H71.3209V40.4151H68.9435V38.0377H71.3209V35.6604H68.9435H66.5662V38.0377V40.4151H64.1888H61.8114V38.0377H59.4341V35.6604H61.8114H64.1888H66.5662V33.283V30.9056H64.1888V33.283H61.8114H59.4341V30.9056H57.0567H54.6794H52.302V33.283H54.6794H57.0567V35.6604V38.0377H54.6794H52.302H49.9246V35.6604H47.5473V33.283H45.1699V35.6604V38.0377Z" fill="#3F6CB3"/>
<path d="M90.3398 35.6604H87.9624V38.0378H90.3398V35.6604Z" fill="#3F6CB3"/>
<path d="M7.13224 38.0377H4.75488V40.4151H7.13224V38.0377Z" fill="#3F6CB3"/>
<path d="M9.50968 40.4151H7.13232V42.7925H9.50968H11.887V45.1698H14.2644H16.6418V42.7925H14.2644V40.4151H16.6418V38.0378H14.2644H11.887V35.6604H9.50968H7.13232V38.0378H9.50968V40.4151Z" fill="#3F6CB3"/>
<path d="M123.622 38.0377H121.245V40.4151H123.622V38.0377Z" fill="#3F6CB3"/>
<path d="M2.37736 40.415H0V42.7924H2.37736H4.75472V40.415H2.37736Z" fill="#3F6CB3"/>
<path d="M21.3963 40.415H19.019V42.7924V45.1698H16.6416V47.5471H19.019H21.3963V45.1698V42.7924H23.7737V40.415H21.3963Z" fill="#3F6CB3"/>
<path d="M76.0756 40.415H73.6982V42.7924H76.0756V40.415Z" fill="#3F6CB3"/>
<path d="M121.246 40.415H118.868V42.7924H121.246V40.415Z" fill="#3F6CB3"/>
<path d="M7.13224 42.7925H4.75488V45.1698H7.13224V42.7925Z" fill="#3F6CB3"/>
<path d="M26.1508 42.7925H23.7734V45.1698H26.1508V42.7925Z" fill="#3F6CB3"/>
<path d="M83.2075 45.1698H85.5849H87.9622V42.7924H85.5849V40.415H83.2075V42.7924V45.1698Z" fill="#3F6CB3"/>
<path d="M16.6415 47.5471H14.2642V49.9245H16.6415V47.5471Z" fill="#3F6CB3"/>
<path d="M40.415 49.9245V47.5472H38.0377V45.1698H35.6603V47.5472V49.9245H33.283V47.5472H30.9056H28.5282V45.1698H26.1509V47.5472V49.9245V52.3019H28.5282V54.6792H30.9056V52.3019H33.283V54.6792H35.6603V52.3019H38.0377V49.9245H40.415Z" fill="#3F6CB3"/>
<path d="M116.49 49.9245H118.868H121.245V52.3018H118.868H116.49V54.6792H118.868H121.245H123.622H126V52.3018H123.622V49.9245H126V47.5471H123.622V45.1698H121.245H118.868V42.7924H116.49V40.415H114.113V42.7924H111.736V40.415H109.358H106.981V42.7924H109.358V45.1698H111.736H114.113V47.5471H116.49V49.9245Z" fill="#3F6CB3"/>
<path d="M2.37736 49.9246H0V52.3019V54.6793H2.37736V52.3019H4.75472V49.9246H2.37736Z" fill="#3F6CB3"/>
<path d="M19.019 49.9246H16.6416V52.3019H19.019V49.9246Z" fill="#3F6CB3"/>
<path d="M85.5849 49.9246H83.2075V52.3019V54.6793H85.5849V52.3019H87.9622V49.9246H85.5849Z" fill="#3F6CB3"/>
<path d="M116.491 52.3018V49.9245H114.113V47.5471H111.736V49.9245V52.3018H114.113H116.491Z" fill="#3F6CB3"/>
<path d="M7.13224 52.3019H4.75488V54.6792H7.13224V52.3019Z" fill="#3F6CB3"/>
<path d="M14.2644 54.6792H16.6418V52.3019H14.2644H11.887V49.9245V47.5472V45.1698H9.50968H7.13232V47.5472H9.50968V49.9245V52.3019V54.6792H11.887H14.2644Z" fill="#3F6CB3"/>
<path d="M111.736 52.3019H109.358V54.6792H111.736V52.3019Z" fill="#3F6CB3"/>
<path d="M9.50968 54.6792H7.13232V57.0566H9.50968V54.6792Z" fill="#3F6CB3"/>
<path d="M23.7734 54.6793V52.3019V49.9246H21.396V52.3019V54.6793V57.0566H23.7734V54.6793Z" fill="#3F6CB3"/>
<path d="M85.5849 57.0566H83.2075V59.4339H85.5849V61.8113H87.9622V64.1886H90.3396V66.566H92.7169V64.1886H95.0943V61.8113V59.4339H92.7169V57.0566H90.3396H87.9622V54.6792H85.5849V57.0566Z" fill="#3F6CB3"/>
<path d="M121.246 57.0566H118.868V59.434V61.8114H121.246V59.434V57.0566Z" fill="#3F6CB3"/>
<path d="M123.622 59.434V61.8114H121.245V64.1887H123.622V66.5661H126V64.1887V61.8114V59.434V57.0566H123.622V59.434Z" fill="#3F6CB3"/>
<path d="M16.6415 61.8113H14.2642V64.1886H16.6415V61.8113Z" fill="#3F6CB3"/>
<path d="M102.226 61.8113H99.8491V64.1886H102.226V61.8113Z" fill="#3F6CB3"/>
<path d="M111.736 61.8113H109.358V64.1886H111.736V61.8113Z" fill="#3F6CB3"/>
<path d="M83.2075 64.1887V66.5661H85.5849H87.9622V64.1887H85.5849H83.2075Z" fill="#3F6CB3"/>
<path d="M4.75472 68.9434V71.3207H7.13208V76.0755H11.8868V78.4528H9.50943V80.8302H14.2642V78.4528H16.6415V76.0755H14.2642V73.6981H9.50943V71.3207H14.2642V68.9434H16.6415V71.3207H19.0189V68.9434H23.7736V64.1887H21.3962V61.8113H23.7736V64.1887H26.1509V61.8113H30.9057V59.434H35.6604V61.8113H40.4151V64.1887H42.7924V59.434H40.4151V57.0566H42.7924V52.3019H38.0377V57.0566H28.5283V59.434H21.3962V57.0566H9.50943V59.434H7.13208V61.8113H4.75472V57.0566H0V61.8113H2.37736V66.566H4.75472V68.9434ZM14.2642 59.434H19.0189V66.566H11.8868V59.434H14.2642ZM7.13208 64.1887H9.50943V68.9434H7.13208V64.1887Z" fill="#3F6CB3"/>
<path d="M85.5849 68.9434H83.2075V71.3207V73.6981H85.5849V71.3207V68.9434Z" fill="#3F6CB3"/>
<path d="M16.6415 71.3208H14.2642V73.6982H16.6415V71.3208Z" fill="#3F6CB3"/>
<path d="M4.75472 73.6981V71.3208H2.37736V68.9434V66.566H0V68.9434V71.3208V73.6981H2.37736V76.0755V78.4528H4.75472V76.0755V73.6981Z" fill="#3F6CB3"/>
<path d="M19.019 73.6981H16.6416V76.0755H19.019V73.6981Z" fill="#3F6CB3"/>
<path d="M23.7734 73.6981H21.396V76.0755H23.7734V73.6981Z" fill="#3F6CB3"/>
<path d="M30.9057 73.6981H28.5283V76.0755H30.9057V73.6981Z" fill="#3F6CB3"/>
<path d="M40.4151 76.0754V73.6981H42.7925V68.9434H40.4151V64.1886H33.283V61.8113H30.9057V64.1886H28.5283V66.566H30.9057V71.3207H35.6604V76.0754H40.4151ZM33.283 68.9434V66.566H35.6604V68.9434H33.283Z" fill="#3F6CB3"/>
<path d="M35.6606 76.0754H33.2832V78.4528H35.6606V76.0754Z" fill="#3F6CB3"/>
<path d="M42.7924 76.0754H40.415V78.4528H42.7924V76.0754Z" fill="#3F6CB3"/>
<path d="M2.37736 78.4529H0V80.8302H2.37736V78.4529Z" fill="#3F6CB3"/>
<path d="M7.13224 78.4529H4.75488V80.8302H7.13224V78.4529Z" fill="#3F6CB3"/>
<path d="M19.019 80.8302V83.2075H16.6416V85.5849H19.019H21.3963H23.7737H26.151V83.2075H23.7737V80.8302H21.3963V78.4528V76.0754H19.019V78.4528V80.8302Z" fill="#3F6CB3"/>
<path d="M23.7734 80.8302H26.1508V78.4528H28.5282V76.0754H26.1508H23.7734V78.4528V80.8302Z" fill="#3F6CB3"/>
<path d="M40.4149 80.8302V78.4529H38.0375H35.6602V80.8302H38.0375H40.4149Z" fill="#3F6CB3"/>
<path d="M16.6415 80.8302H14.2642V83.2076H16.6415V80.8302Z" fill="#3F6CB3"/>
<path d="M35.6606 80.8302H33.2832V83.2076H35.6606V80.8302Z" fill="#3F6CB3"/>
<path d="M42.7924 80.8302H40.415V83.2076H42.7924V80.8302Z" fill="#3F6CB3"/>
<path d="M52.3017 83.2075H49.9243V85.5849H52.3017V83.2075Z" fill="#3F6CB3"/>
<path d="M64.1889 83.2075H61.8115V85.5849H64.1889V83.2075Z" fill="#3F6CB3"/>
<path d="M71.3208 83.2075V85.5849V87.9622H73.6982H76.0755V85.5849V83.2075H73.6982H71.3208Z" fill="#3F6CB3"/>
<path d="M106.981 83.2075H104.604V85.5849H106.981V83.2075Z" fill="#3F6CB3"/>
<path d="M16.6415 87.9623V85.5849H14.2642H11.8868V83.2076H9.50943V80.8302H7.13208V83.2076H4.75472H2.37736V85.5849H0V87.9623V90.3396H2.37736V87.9623H4.75472V85.5849H7.13208V87.9623V90.3396H9.50943H11.8868H14.2642V87.9623H16.6415Z" fill="#3F6CB3"/>
<path d="M66.5658 87.9623H68.9432V85.585H66.5658H64.1885V87.9623H66.5658Z" fill="#3F6CB3"/>
<path d="M114.113 85.585H111.736V87.9623H114.113V85.585Z" fill="#3F6CB3"/>
<path d="M116.491 85.585V87.9623H118.868H121.245V85.585H118.868H116.491Z" fill="#3F6CB3"/>
<path d="M30.9057 87.9622H33.283V85.5849H30.9057V83.2075H28.5283V85.5849V87.9622V90.3396H30.9057V87.9622Z" fill="#3F6CB3"/>
<path d="M52.3018 90.3396H54.6791V87.9622H57.0565V90.3396H59.4338V87.9622H61.8112V85.5849H59.4338V83.2075H57.0565V85.5849H54.6791H52.3018V87.9622V90.3396Z" fill="#3F6CB3"/>
<path d="M121.245 87.9623V90.3397H118.868V92.717H123.623V95.0944H121.245V97.4718H118.868V99.8491H116.49V102.226H114.113V104.604H111.736V102.226H109.358V104.604H104.604V102.226H106.981V97.4718H104.604V99.8491H102.226V102.226H99.849V104.604H102.226V106.981H104.604V111.736H102.226V106.981H99.849V104.604H95.0942V106.981H97.4716V109.359H99.849V111.736H97.4716V116.491H99.849V114.113H104.604V123.623H106.981V121.245H111.736V123.623H114.113V126H116.49V123.623H118.868V121.245H114.113V118.868H106.981V116.491H114.113V118.868H118.868V116.491H116.49V114.113H118.868V111.736H121.245V114.113H123.623V116.491H126V111.736H123.623V109.359H126V104.604H123.623V106.981H121.245V109.359H118.868V106.981H116.49V104.604H118.868V106.981H121.245V104.604H123.623V102.226H121.245V99.8491H123.623V97.4718H126V85.585H123.623V87.9623H121.245ZM114.113 109.359V114.113H106.981V106.981H114.113V109.359Z" fill="#3F6CB3"/>
<path d="M16.6415 90.3396H14.2642V92.717H16.6415V90.3396Z" fill="#3F6CB3"/>
<path d="M33.2831 90.3396H30.9058V92.717H33.2831V90.3396Z" fill="#3F6CB3"/>
<path d="M47.5469 92.7169V90.3396H49.9243V87.9622V85.5849H47.5469H45.1696V83.2075H42.7922V85.5849H40.4149V83.2075H38.0375H35.6602V85.5849H38.0375V87.9622H40.4149H42.7922H45.1696V90.3396H42.7922H40.4149H38.0375H35.6602V92.7169H38.0375H40.4149H42.7922V95.0943H45.1696V92.7169H47.5469Z" fill="#3F6CB3"/>
<path d="M52.3017 90.3396H49.9243V92.717H52.3017V90.3396Z" fill="#3F6CB3"/>
<path d="M61.8114 90.3396H59.4341V92.717H61.8114V90.3396Z" fill="#3F6CB3"/>
<path d="M0 92.717V95.0943H2.37736H4.75472V92.717V90.3396H2.37736V92.717H0Z" fill="#3F6CB3"/>
<path d="M19.019 92.717H16.6416V95.0944H19.019V92.717Z" fill="#3F6CB3"/>
<path d="M30.9057 92.717H28.5283V95.0944H30.9057V92.717Z" fill="#3F6CB3"/>
<path d="M49.9246 92.717H47.5473V95.0944H45.1699V97.4717H47.5473H49.9246V95.0944V92.717Z" fill="#3F6CB3"/>
<path d="M54.6792 92.717V95.0944V97.4717H57.0566V95.0944H59.4339V92.717H57.0566H54.6792Z" fill="#3F6CB3"/>
<path d="M64.1889 95.0943V97.4717H66.5662V99.849H68.9436V102.226H71.321V99.849H73.6983H76.0757H78.453H80.8304V97.4717H78.453V95.0943H76.0757H73.6983H71.321H68.9436H66.5662V92.717V90.3396H64.1889V92.717H61.8115V95.0943H64.1889Z" fill="#3F6CB3"/>
<path d="M102.226 95.0944H104.604H106.981V92.717H104.604V90.3396H106.981V92.717H109.359V95.0944H106.981V97.4717H109.359V99.8491H111.736H114.113H116.491V97.4717H114.113V95.0944H116.491V97.4717H118.868V95.0944V92.717H116.491H114.113H111.736V90.3396H109.359V87.9623H106.981H104.604H102.226V90.3396H99.8491V92.717H102.226V95.0944Z" fill="#3F6CB3"/>
<path d="M14.264 97.4717H16.6414V95.0944H14.264H11.8866V92.717H9.50928V95.0944V97.4717H11.8866H14.264Z" fill="#3F6CB3"/>
<path d="M21.3964 95.0944H19.019V97.4717H21.3964V95.0944Z" fill="#3F6CB3"/>
<path d="M33.2831 95.0944H30.9058V97.4717H33.2831V95.0944Z" fill="#3F6CB3"/>
<path d="M92.7172 95.0944H90.3398V97.4717H92.7172V95.0944Z" fill="#3F6CB3"/>
<path d="M102.226 95.0944H99.8491V97.4717H102.226V95.0944Z" fill="#3F6CB3"/>
<path d="M28.5283 99.849V102.226H30.9057V99.849V97.4717H28.5283V99.849Z" fill="#3F6CB3"/>
<path d="M59.434 97.4717H57.0566V99.849H59.434V97.4717Z" fill="#3F6CB3"/>
<path d="M64.1889 97.4717H61.8115V99.849H64.1889V97.4717Z" fill="#3F6CB3"/>
<path d="M95.0941 97.4717H92.7168V99.849H95.0941V97.4717Z" fill="#3F6CB3"/>
<path d="M54.6794 99.849H52.302V97.4717H49.9246V99.849H47.5473H45.1699V102.226H47.5473H49.9246H52.302V104.604H54.6794V102.226V99.849Z" fill="#3F6CB3"/>
<path d="M97.4716 99.849H95.0942V102.226H97.4716H99.849V99.849H97.4716Z" fill="#3F6CB3"/>
<path d="M33.2831 104.604V106.981V109.358V111.736H35.6605V109.358H38.0378V106.981V104.604H35.6605V102.226H38.0378V99.849H35.6605H33.2831V102.226H30.9058V104.604H33.2831Z" fill="#3F6CB3"/>
<path d="M40.415 102.226H38.0376V104.604H40.415V102.226Z" fill="#3F6CB3"/>
<path d="M73.6982 102.226H71.3208V104.604V106.981H73.6982V104.604V102.226Z" fill="#3F6CB3"/>
<path d="M9.50968 104.604H7.13232V106.981H9.50968V104.604Z" fill="#3F6CB3"/>
<path d="M16.6415 104.604H14.2642V106.981H16.6415V104.604Z" fill="#3F6CB3"/>
<path d="M26.1509 104.604V102.226V99.8491V97.4717V95.0944V92.717H28.5283V90.3396H26.1509V87.9623H23.7736H21.3962V90.3396V92.717H23.7736V95.0944V97.4717V99.8491V102.226H21.3962V99.8491H19.0189V97.4717H16.6415V99.8491H14.2642H11.8868H9.50943V97.4717H7.13208H4.75472H2.37736V99.8491H0V102.226H2.37736V104.604H4.75472H7.13208V102.226H4.75472V99.8491H7.13208V102.226H9.50943H11.8868H14.2642H16.6415V104.604H19.0189V106.981V109.359V111.736H21.3962V114.113H23.7736V111.736V109.359H21.3962V106.981V104.604H23.7736V106.981V109.359H26.1509V106.981V104.604Z" fill="#3F6CB3"/>
<path d="M52.3017 104.604H49.9243V106.981V109.358H52.3017V111.736H54.679V109.358V106.981H52.3017V104.604Z" fill="#3F6CB3"/>
<path d="M47.5472 109.358V106.981H45.1698V104.604H42.7925V106.981V109.358H45.1698H47.5472Z" fill="#3F6CB3"/>
<path d="M64.1889 109.359H61.8115V111.736H64.1889V109.359Z" fill="#3F6CB3"/>
<path d="M80.83 109.358H78.4526V106.981H73.6979V109.358H76.0753V111.736H73.6979V109.358H68.9432V104.604H61.8111V99.849H59.4338V102.226H57.0564V104.604H54.679V106.981H57.0564V111.736H54.679V114.113H57.0564V116.491H54.679V118.868H52.3017V116.491H49.9243V121.245H52.3017V126H57.0564V123.623H54.679V121.245H59.4338V118.868H64.1885V116.491H66.5658V118.868H64.1885V121.245H66.5658V126H68.9432V118.868H71.3205V114.113H68.9432V111.736H71.3205V114.113H76.0753V116.491H78.4526V114.113H80.83V109.358ZM66.5658 114.113H59.4338V106.981H66.5658V114.113Z" fill="#3F6CB3"/>
<path d="M111.736 109.359H109.358V111.736H111.736V109.359Z" fill="#3F6CB3"/>
<path d="M35.6602 111.736V114.113V116.491H38.0375H40.4149V114.113H42.7922V111.736H40.4149V109.359H38.0375V111.736H35.6602Z" fill="#3F6CB3"/>
<path d="M47.5473 111.736H45.1699V114.113H47.5473H49.9246H52.302V111.736H49.9246H47.5473Z" fill="#3F6CB3"/>
<path d="M30.9056 116.491V118.868H33.283V116.491V114.113H30.9056V111.736V109.359H28.5282H26.1509V111.736H28.5282V114.113H26.1509V116.491H28.5282H30.9056Z" fill="#3F6CB3"/>
<path d="M95.0941 114.113V111.736H92.7168V114.113V116.491H95.0941V114.113Z" fill="#3F6CB3"/>
<path d="M121.246 114.113H118.868V116.491H121.246V114.113Z" fill="#3F6CB3"/>
<path d="M26.1511 118.868V116.491H23.7738H21.3964H19.019V118.868V121.245H21.3964H23.7738V118.868H26.1511Z" fill="#3F6CB3"/>
<path d="M47.5473 116.491H45.1699V118.868H47.5473V116.491Z" fill="#3F6CB3"/>
<path d="M97.4716 116.491H95.0942V118.868H97.4716V116.491Z" fill="#3F6CB3"/>
<path d="M121.246 118.868H118.868V121.245H121.246V123.623V126H123.623V123.623V121.245H126V118.868H123.623V116.491H121.246V118.868Z" fill="#3F6CB3"/>
<path d="M28.5282 118.868H26.1508V121.245H23.7734V123.623H26.1508H28.5282V121.245H30.9055V118.868H28.5282Z" fill="#3F6CB3"/>
<path d="M45.1698 118.868H42.7925V121.245H45.1698V118.868Z" fill="#3F6CB3"/>
<path d="M76.0756 118.868H73.6982V121.245H76.0756V118.868Z" fill="#3F6CB3"/>
<path d="M102.227 118.868H99.8493V121.245H95.0946V118.868H92.7172V116.491H90.3398V114.113H87.9625V109.358H90.3398V104.604H95.0946V102.226H92.7172V99.849H90.3398V102.226H85.5851V97.4717H83.2078V102.226H76.0757V104.604H78.453V106.981H83.2078V109.358H85.5851V114.113H80.8304V121.245H78.453V126H83.2078V116.491H87.9625V118.868H90.3398V121.245H85.5851V126H87.9625V123.623H102.227V118.868ZM85.5851 104.604H87.9625V106.981H85.5851V104.604Z" fill="#3F6CB3"/>
<path d="M33.2831 121.245H30.9058V123.623H33.2831H35.6605V121.245H33.2831Z" fill="#3F6CB3"/>
<path d="M49.9247 121.245H47.5474V123.623H49.9247V121.245Z" fill="#3F6CB3"/>
<path d="M59.4341 121.245V123.623V126H61.8114H64.1888V123.623V121.245H61.8114H59.4341Z" fill="#3F6CB3"/>
<path d="M73.6982 121.245H71.3208V123.623H73.6982V121.245Z" fill="#3F6CB3"/>
<path d="M42.7922 123.623V121.245H40.4149V118.868H38.0375V121.245V123.623H35.6602V126H38.0375H40.4149H42.7922H45.1696H47.5469V123.623H45.1696H42.7922Z" fill="#3F6CB3"/>
<path d="M76.0756 123.623H73.6982V126H76.0756V123.623Z" fill="#3F6CB3"/>
<path d="M104.604 123.623H102.227V126H104.604V123.623Z" fill="#3F6CB3"/>
<path d="M111.736 123.623H109.358V126H111.736V123.623Z" fill="#3F6CB3"/>
<path d="M14.1453 0H0V16.6415H16.6415V0H14.1453ZM14.1453 14.1453H2.50248V2.50248H14.1515L14.1453 14.1453Z" fill="#3F6CB3"/>
<path d="M123.504 0H109.358V16.6415H126V0H123.504ZM123.504 14.1453H111.861V2.50248H123.51L123.504 14.1453Z" fill="#3F6CB3"/>
<path d="M14.1453 109.359H0V126H16.6415V109.359H14.1453ZM14.1453 123.498H2.50248V111.861H14.1515L14.1453 123.498Z" fill="#3F6CB3"/>
<path d="M11.887 4.75476H4.75488V11.8868H11.887V4.75476Z" fill="#3F6CB3"/>
<path d="M121.245 4.75476H114.113V11.8868H121.245V4.75476Z" fill="#3F6CB3"/>
<path d="M11.887 114.113H4.75488V121.245H11.887V114.113Z" fill="#3F6CB3"/>
</svg>
