<svg width="123" height="124" viewBox="0 0 123 124" fill="none" xmlns="http://www.w3.org/2000/svg">
<path d="M78.3781 52.9286C78.3781 52.9286 76.8296 51.0788 72.5008 50.0666C72.4656 50.1015 72.5008 54.0803 72.5008 54.0803L68.2072 53.6266L63.245 59.5948L66.0253 53.3474L62.7523 53.2427L61.4853 60.1882L60.2536 53.2427L56.9806 53.3125L59.7257 59.5599L54.7635 53.6266L50.4699 54.0803C50.4699 54.0803 50.5403 50.1015 50.4699 50.0666C46.1411 51.0439 44.5575 52.8937 44.5575 52.8937C41.1789 58.094 40.4047 63.3293 40.4047 63.2944C47.4785 73.7301 60.6759 76.4175 60.6759 76.4175V73.4857L58.8107 71.5312L58.9514 71.0426L60.2536 69.9258H61.4502H62.6467L63.9489 71.0775L64.0896 71.5312L62.2596 73.4857V76.4175C62.2596 76.4175 75.457 73.765 82.566 63.3293C82.5308 63.3642 81.7566 58.129 78.3781 52.9286ZM58.4939 64.8999C58.4939 64.8999 57.6493 65.6677 56.8047 66.0866C55.045 66.8893 53.954 66.7846 53.1798 66.6799C48.8862 65.7724 46.7746 63.3293 46.4931 62.9105C46.1763 62.4917 45.7892 62.0031 46.106 61.7238C46.9506 60.7466 48.851 59.7344 49.7308 59.4203C50.7866 59.0364 51.4553 59.176 51.8776 59.3505C54.0948 60.2929 56.2768 62.3172 57.6845 63.5736C58.8459 64.6207 58.4939 64.8999 58.4939 64.8999ZM76.4776 62.9454C76.1609 63.3642 74.0845 65.8073 69.7909 66.6799C69.0167 66.7846 67.8905 66.8893 66.166 66.0866C65.3214 65.7026 64.4768 64.8999 64.4768 64.8999C64.4768 64.8999 64.1248 64.6207 65.2862 63.5736L71.0931 59.3505C71.5506 59.176 72.2193 59.0364 73.2399 59.4203C74.1197 59.7693 76.0201 60.7815 76.8647 61.7587C77.1815 62.038 76.7944 62.5266 76.4776 62.9454Z" fill="#3F6CB3"/>
<path d="M49.2146 3.72638H55.0578C55.267 3.72638 55.4676 3.64325 55.6156 3.49526C55.7635 3.34727 55.8466 3.14655 55.8466 2.93727V0.789116C55.8466 0.579829 55.7635 0.379115 55.6156 0.231127C55.4676 0.0831392 55.267 0 55.0578 0H49.2146C49.0054 0 48.8047 0.0831392 48.6568 0.231127C48.5088 0.379115 48.4257 0.579829 48.4257 0.789116V2.93727C48.4257 3.14655 48.5088 3.34727 48.6568 3.49526C48.8047 3.64325 49.0054 3.72638 49.2146 3.72638Z" fill="#3F6CB3"/>
<path d="M60.3898 3.72638H62.5372C62.7464 3.72638 62.9471 3.80952 63.095 3.95751C63.2429 4.1055 63.326 4.30621 63.326 4.5155V6.66365C63.326 6.87294 63.4092 7.07365 63.5571 7.22164C63.705 7.36963 63.9057 7.45277 64.1149 7.45277H66.2623C66.4715 7.45277 66.6721 7.53591 66.8201 7.68389C66.968 7.83188 67.0511 8.0326 67.0511 8.24188V10.3754C67.0511 10.5847 66.968 10.7854 66.8201 10.9334C66.6721 11.0814 66.4715 11.1645 66.2623 11.1645H64.1149C63.9057 11.1645 63.705 11.2477 63.5571 11.3957C63.4092 11.5437 63.326 11.7444 63.326 11.9537V14.1018C63.326 14.3111 63.2429 14.5118 63.095 14.6598C62.9471 14.8078 62.7464 14.8909 62.5372 14.8909H60.3898C60.1806 14.8909 59.98 14.9741 59.832 15.1221C59.6841 15.27 59.601 15.4708 59.601 15.68V17.8282C59.601 18.0375 59.6841 18.2382 59.832 18.3862C59.98 18.5342 60.1806 18.6173 60.3898 18.6173H66.233C66.4423 18.6173 66.6429 18.7004 66.7908 18.8484C66.9388 18.9964 67.0219 19.1971 67.0219 19.4064V25.2517C67.0219 25.461 67.105 25.6617 67.2529 25.8097C67.4009 25.9577 67.6015 26.0408 67.8107 26.0408H69.9581C70.1673 26.0408 70.368 25.9577 70.5159 25.8097C70.6638 25.6617 70.7469 25.461 70.7469 25.2517V15.6947C70.7469 15.4854 70.8301 15.2846 70.978 15.1367C71.1259 14.9887 71.3266 14.9055 71.5358 14.9055H73.6832C73.8924 14.9055 74.093 14.8224 74.241 14.6744C74.3889 14.5264 74.472 14.3257 74.472 14.1164V11.9683C74.472 11.759 74.3889 11.5583 74.241 11.4103C74.093 11.2623 73.8924 11.1792 73.6832 11.1792H71.5358C71.3266 11.1792 71.1259 11.096 70.978 10.948C70.8301 10.8 70.7469 10.5993 70.7469 10.39V8.24188C70.7469 8.0326 70.8301 7.83188 70.978 7.68389C71.1259 7.53591 71.3266 7.45277 71.5358 7.45277H77.379C77.5882 7.45277 77.7889 7.36963 77.9368 7.22164C78.0847 7.07365 78.1678 6.87294 78.1678 6.66365V4.53011C78.1678 4.32083 78.0847 4.12011 77.9368 3.97212C77.7889 3.82414 77.5882 3.741 77.379 3.741H75.2316C75.0224 3.741 74.8218 3.65786 74.6738 3.50987C74.5259 3.36188 74.4428 3.16117 74.4428 2.95188V0.789116C74.4428 0.579829 74.3597 0.379115 74.2117 0.231127C74.0638 0.0831392 73.8632 0 73.6539 0H71.5066C71.2973 0 71.0967 0.0831392 70.9488 0.231127C70.8008 0.379115 70.7177 0.579829 70.7177 0.789116V2.93727C70.7177 3.14655 70.6346 3.34727 70.4867 3.49526C70.3387 3.64324 70.1381 3.72638 69.9289 3.72638H67.7815C67.5723 3.72638 67.3716 3.64324 67.2237 3.49526C67.0758 3.34727 66.9927 3.14655 66.9927 2.93727V0.789116C66.9927 0.579829 66.9096 0.379115 66.7616 0.231127C66.6137 0.0831392 66.413 0 66.2038 0H60.3606C60.1514 0 59.9508 0.0831392 59.8028 0.231127C59.6549 0.379115 59.5718 0.579829 59.5718 0.789116V2.93727C59.5717 3.0434 59.593 3.14846 59.6345 3.24616C59.6759 3.34385 59.7367 3.43218 59.813 3.50585C59.8894 3.57952 59.9799 3.63702 60.079 3.67492C60.1781 3.71281 60.2838 3.73031 60.3898 3.72638Z" fill="#3F6CB3"/>
<path d="M79.0151 3.72638H81.1624C81.3717 3.72638 81.5723 3.80952 81.7202 3.95751C81.8682 4.1055 81.9513 4.30621 81.9513 4.5155V10.3608C81.9513 10.5701 82.0344 10.7708 82.1823 10.9188C82.3303 11.0668 82.5309 11.1499 82.7401 11.1499H88.5833C88.6881 11.1538 88.7927 11.1368 88.8908 11.0998C88.989 11.0628 89.0787 11.0066 89.1549 10.9345C89.2311 10.8624 89.2921 10.7758 89.3344 10.6798C89.3767 10.5838 89.3995 10.4803 89.4014 10.3754V8.24188C89.4014 8.0326 89.3183 7.83188 89.1703 7.68389C89.0224 7.53591 88.8218 7.45277 88.6126 7.45277H86.4798C86.2706 7.45277 86.0699 7.36963 85.922 7.22164C85.7741 7.07365 85.6909 6.87294 85.6909 6.66365V4.53011C85.6909 4.32083 85.7741 4.12011 85.922 3.97212C86.0699 3.82414 86.2706 3.741 86.4798 3.741H92.323C92.5322 3.741 92.7329 3.65786 92.8808 3.50987C93.0287 3.36188 93.1118 3.16117 93.1118 2.95188V0.789116C93.1118 0.579829 93.0287 0.379115 92.8808 0.231127C92.7329 0.0831392 92.5322 0 92.323 0H79.0005C78.7912 0 78.5906 0.0831392 78.4427 0.231127C78.2947 0.379115 78.2116 0.579829 78.2116 0.789116V2.93727C78.2116 3.04214 78.2325 3.14596 78.273 3.24266C78.3136 3.33937 78.373 3.42702 78.4478 3.50049C78.5226 3.57396 78.6113 3.63178 78.7087 3.67056C78.8061 3.70935 78.9102 3.72833 79.0151 3.72638Z" fill="#3F6CB3"/>
<path d="M47.6369 3.72636H45.4895C45.0539 3.72636 44.7007 4.07966 44.7007 4.51548V6.66363C44.7007 7.09945 45.0539 7.45275 45.4895 7.45275H47.6369C48.0726 7.45275 48.4257 7.09945 48.4257 6.66363V4.51548C48.4257 4.07966 48.0726 3.72636 47.6369 3.72636Z" fill="#3F6CB3"/>
<path d="M30.5892 11.1792H36.4324C36.6416 11.1792 36.8423 11.096 36.9902 10.948C37.1382 10.8 37.2213 10.5993 37.2213 10.39V8.24189C37.2213 8.0326 37.1382 7.83188 36.9902 7.6839C36.8423 7.53591 36.6416 7.45277 36.4324 7.45277H34.285C34.0758 7.45277 33.8752 7.36963 33.7273 7.22164C33.5793 7.07365 33.4962 6.87294 33.4962 6.66365V4.53011C33.4962 4.32083 33.5793 4.12011 33.7273 3.97212C33.8752 3.82414 34.0758 3.741 34.285 3.741H36.4324C36.6416 3.741 36.8423 3.82414 36.9902 3.97212C37.1382 4.12011 37.2213 4.32083 37.2213 4.53011V6.67827C37.2213 6.88755 37.3044 7.08827 37.4523 7.23626C37.6002 7.38424 37.8009 7.46738 38.0101 7.46738H40.1575C40.3667 7.46738 40.5673 7.38424 40.7153 7.23626C40.8632 7.08827 40.9463 6.88755 40.9463 6.67827V4.53011C40.9463 4.32083 41.0294 4.12011 41.1774 3.97212C41.3253 3.82414 41.5259 3.741 41.7351 3.741H43.8825C44.0917 3.741 44.2924 3.65786 44.4403 3.50987C44.5883 3.36188 44.6714 3.16117 44.6714 2.95188V0.789116C44.6714 0.579829 44.5883 0.379115 44.4403 0.231127C44.2924 0.0831392 44.0917 0 43.8825 0H30.56C30.3508 0 30.1501 0.0831392 30.0022 0.231127C29.8543 0.379115 29.7711 0.579829 29.7711 0.789116V10.3754C29.7691 10.4828 29.7889 10.5894 29.8295 10.6888C29.8701 10.7883 29.9305 10.8783 30.0071 10.9536C30.0837 11.0288 30.1748 11.0876 30.2749 11.1264C30.375 11.1652 30.4819 11.1832 30.5892 11.1792Z" fill="#3F6CB3"/>
<path d="M51.3619 7.45278H49.2146C48.7789 7.45278 48.4257 7.80608 48.4257 8.2419V10.39C48.4257 10.8259 48.7789 11.1792 49.2146 11.1792H51.3619C51.7976 11.1792 52.1508 10.8259 52.1508 10.39V8.2419C52.1508 7.80608 51.7976 7.45278 51.3619 7.45278Z" fill="#3F6CB3"/>
<path d="M55.8758 11.1791V14.1018C55.8758 14.3111 55.9589 14.5118 56.1068 14.6598C56.2548 14.8078 56.4554 14.8909 56.6646 14.8909H58.812C59.0212 14.8909 59.2219 14.8078 59.3698 14.6598C59.5177 14.5118 59.6009 14.3111 59.6009 14.1018V8.25648C59.6009 8.04719 59.5177 7.84648 59.3698 7.69849C59.2219 7.5505 59.0212 7.46736 58.812 7.46736H56.6646C56.4554 7.46736 56.2548 7.5505 56.1068 7.69849C55.9589 7.84648 55.8758 8.04719 55.8758 8.25648V11.1791Z" fill="#3F6CB3"/>
<path d="M81.1624 11.1791H79.015C78.8058 11.1791 78.6052 11.2623 78.4572 11.4103C78.3093 11.5583 78.2262 11.759 78.2262 11.9683V17.8136C78.2262 18.0229 78.3093 18.2236 78.4572 18.3716C78.6052 18.5195 78.8058 18.6027 79.015 18.6027H81.1624C81.3716 18.6027 81.5723 18.5195 81.7202 18.3716C81.8681 18.2236 81.9512 18.0229 81.9512 17.8136V11.9683C81.9512 11.759 81.8681 11.5583 81.7202 11.4103C81.5723 11.2623 81.3716 11.1791 81.1624 11.1791Z" fill="#3F6CB3"/>
<path d="M92.3375 11.1791H90.1901C89.7545 11.1791 89.4013 11.5324 89.4013 11.9683V14.1164C89.4013 14.5522 89.7545 14.9055 90.1901 14.9055H92.3375C92.7732 14.9055 93.1264 14.5522 93.1264 14.1164V11.9683C93.1264 11.5324 92.7732 11.1791 92.3375 11.1791Z" fill="#3F6CB3"/>
<path d="M85.6763 18.6319H82.7546C82.5454 18.6319 82.3448 18.7151 82.1969 18.8631C82.0489 19.011 81.9658 19.2118 81.9658 19.421V25.2664C81.9658 25.4756 82.0489 25.6764 82.1969 25.8243C82.3448 25.9723 82.5454 26.0555 82.7546 26.0555H84.902C85.1112 26.0555 85.3119 25.9723 85.4598 25.8243C85.6078 25.6764 85.6909 25.4756 85.6909 25.2664V23.1474C85.6909 22.9381 85.774 22.7374 85.9219 22.5894C86.0699 22.4415 86.2705 22.3583 86.4797 22.3583H88.6271C88.8363 22.3583 89.0369 22.4415 89.1849 22.5894C89.3328 22.7374 89.4159 22.9381 89.4159 23.1474V25.2956C89.4159 25.5049 89.499 25.7056 89.647 25.8536C89.7949 26.0016 89.9956 26.0847 90.2048 26.0847H92.3229C92.5321 26.0847 92.7328 26.0016 92.8807 25.8536C93.0287 25.7056 93.1118 25.5049 93.1118 25.2956V19.4503C93.1118 19.241 93.0287 19.0403 92.8807 18.8923C92.7328 18.7443 92.5321 18.6612 92.3229 18.6612H85.6617L85.6763 18.6319Z" fill="#3F6CB3"/>
<path d="M47.6369 22.3583H45.4895C45.0539 22.3583 44.7007 22.7116 44.7007 23.1474V25.2956C44.7007 25.7314 45.0539 26.0847 45.4895 26.0847H47.6369C48.0726 26.0847 48.4257 25.7314 48.4257 25.2956V23.1474C48.4257 22.7116 48.0726 22.3583 47.6369 22.3583Z" fill="#3F6CB3"/>
<path d="M62.5371 22.3583H60.3897C59.9541 22.3583 59.6009 22.7116 59.6009 23.1474V25.2956C59.6009 25.7314 59.9541 26.0847 60.3897 26.0847H62.5371C62.9728 26.0847 63.3259 25.7314 63.3259 25.2956V23.1474C63.3259 22.7116 62.9728 22.3583 62.5371 22.3583Z" fill="#3F6CB3"/>
<path d="M66.2621 26.0847H64.1148C63.6791 26.0847 63.3259 26.438 63.3259 26.8738V29.0219C63.3259 29.4578 63.6791 29.8111 64.1148 29.8111H66.2621C66.6978 29.8111 67.051 29.4578 67.051 29.0219V26.8738C67.051 26.438 66.6978 26.0847 66.2621 26.0847Z" fill="#3F6CB3"/>
<path d="M71.5649 29.8111H77.4081C77.6173 29.8111 77.818 29.7279 77.9659 29.5799C78.1138 29.432 78.1969 29.2312 78.1969 29.022V23.1767C78.1969 22.9674 78.1138 22.7667 77.9659 22.6187C77.818 22.4707 77.6173 22.3875 77.4081 22.3875H75.2607C75.0515 22.3875 74.8509 22.4707 74.7029 22.6187C74.555 22.7667 74.4719 22.9674 74.4719 23.1767V25.3248C74.4719 25.5341 74.3888 25.7348 74.2408 25.8828C74.0929 26.0308 73.8923 26.1139 73.6831 26.1139H71.5357C71.3265 26.1139 71.1258 26.1971 70.9779 26.345C70.83 26.493 70.7468 26.6937 70.7468 26.903V29.0512C70.7506 29.1548 70.7747 29.2567 70.8179 29.351C70.8611 29.4453 70.9224 29.5302 70.9984 29.6008C71.0744 29.6714 71.1635 29.7263 71.2607 29.7623C71.3579 29.7984 71.4613 29.815 71.5649 29.8111Z" fill="#3F6CB3"/>
<path d="M25.2866 29.8111H23.1392C22.7036 29.8111 22.3504 30.1644 22.3504 30.6002V32.7483C22.3504 33.1842 22.7036 33.5375 23.1392 33.5375H25.2866C25.7223 33.5375 26.0755 33.1842 26.0755 32.7483V30.6002C26.0755 30.1644 25.7223 29.8111 25.2866 29.8111Z" fill="#3F6CB3"/>
<path d="M30.5894 33.5375H36.4326C36.6418 33.5375 36.8424 33.6206 36.9904 33.7686C37.1383 33.9166 37.2214 34.1173 37.2214 34.3266V36.4747C37.2214 36.684 37.3045 36.8847 37.4524 37.0327C37.6004 37.1807 37.801 37.2638 38.0103 37.2638H40.1576C40.3668 37.2638 40.5675 37.1807 40.7154 37.0327C40.8634 36.8847 40.9465 36.684 40.9465 36.4747V34.3266C40.9465 34.1173 41.0296 33.9166 41.1775 33.7686C41.3254 33.6206 41.5261 33.5375 41.7353 33.5375H51.4204C51.6297 33.5375 51.8303 33.6206 51.9782 33.7686C52.1262 33.9166 52.2093 34.1173 52.2093 34.3266V36.4747C52.2093 36.684 52.2924 36.8847 52.4403 37.0327C52.5883 37.1807 52.7889 37.2638 52.9981 37.2638H55.1455C55.3547 37.2638 55.5554 37.1807 55.7033 37.0327C55.8512 36.8847 55.9343 36.684 55.9343 36.4747V30.6294C55.9343 30.4201 56.0175 30.2194 56.1654 30.0714C56.3133 29.9234 56.514 29.8403 56.7232 29.8403H58.8706C59.0798 29.8403 59.2804 29.7572 59.4284 29.6092C59.5763 29.4612 59.6594 29.2605 59.6594 29.0512V26.8738C59.6594 26.6645 59.5763 26.4638 59.4284 26.3158C59.2804 26.1678 59.0798 26.0847 58.8706 26.0847H56.7232C56.514 26.0847 56.3133 26.0015 56.1654 25.8536C56.0175 25.7056 55.9343 25.5049 55.9343 25.2956V23.1474C55.9343 22.9381 56.0175 22.7374 56.1654 22.5894C56.3133 22.4414 56.514 22.3583 56.7232 22.3583H58.8706C59.0798 22.3583 59.2804 22.2752 59.4284 22.1272C59.5763 21.9792 59.6594 21.7785 59.6594 21.5692V19.421C59.6594 19.2117 59.5763 19.011 59.4284 18.863C59.2804 18.7151 59.0798 18.6319 58.8706 18.6319H56.7232C56.514 18.6319 56.3133 18.5488 56.1654 18.4008C56.0175 18.2528 55.9343 18.0521 55.9343 17.8428V15.6946C55.9343 15.4854 55.8512 15.2846 55.7033 15.1367C55.5554 14.9887 55.3547 14.9055 55.1455 14.9055H49.3023C49.0931 14.9055 48.8924 14.9887 48.7445 15.1367C48.5966 15.2846 48.5134 15.4854 48.5134 15.6946V21.54C48.5134 21.7492 48.5966 21.95 48.7445 22.0979C48.8924 22.2459 49.0931 22.3291 49.3023 22.3291H51.4204C51.6297 22.3291 51.8303 22.4122 51.9782 22.5602C52.1262 22.7082 52.2093 22.9089 52.2093 23.1182V25.2663C52.2093 25.4756 52.1262 25.6763 51.9782 25.8243C51.8303 25.9723 51.6297 26.0555 51.4204 26.0555H49.2731C49.0638 26.0555 48.8632 26.1386 48.7153 26.2866C48.5673 26.4346 48.4842 26.6353 48.4842 26.8446V28.9927C48.4842 29.202 48.4011 29.4027 48.2532 29.5507C48.1052 29.6987 47.9046 29.7818 47.6954 29.7818H41.8522C41.6429 29.7818 41.4423 29.6987 41.2944 29.5507C41.1464 29.4027 41.0633 29.202 41.0633 28.9927V23.1474C41.0633 22.9381 41.1464 22.7374 41.2944 22.5894C41.4423 22.4414 41.6429 22.3583 41.8522 22.3583H43.9995C44.2088 22.3583 44.4094 22.2752 44.5573 22.1272C44.7053 21.9792 44.7884 21.7785 44.7884 21.5692V19.421C44.7884 19.2117 44.7053 19.011 44.5573 18.863C44.4094 18.7151 44.2088 18.6319 43.9995 18.6319H41.8522C41.6429 18.6319 41.4423 18.5488 41.2944 18.4008C41.1464 18.2528 41.0633 18.0521 41.0633 17.8428V15.6946C41.0633 15.4854 41.1464 15.2846 41.2944 15.1367C41.4423 14.9887 41.6429 14.9055 41.8522 14.9055H47.6954C47.9046 14.9055 48.1052 14.8224 48.2532 14.6744C48.4011 14.5264 48.4842 14.3257 48.4842 14.1164V11.9683C48.4842 11.759 48.4011 11.5583 48.2532 11.4103C48.1052 11.2623 47.9046 11.1791 47.6954 11.1791H38.0979C37.8887 11.1791 37.688 11.2623 37.5401 11.4103C37.3922 11.5583 37.309 11.759 37.309 11.9683V14.1164C37.309 14.3257 37.2259 14.5264 37.078 14.6744C36.9301 14.8224 36.7294 14.9055 36.5202 14.9055H34.3728C34.1636 14.9055 33.963 14.9887 33.815 15.1367C33.6671 15.2846 33.584 15.4854 33.584 15.6946V17.8428C33.584 18.0521 33.6671 18.2528 33.815 18.4008C33.963 18.5488 34.1636 18.6319 34.3728 18.6319H36.5202C36.7294 18.6319 36.9301 18.7151 37.078 18.863C37.2259 19.011 37.309 19.2117 37.309 19.421V25.2663C37.309 25.4756 37.2259 25.6763 37.078 25.8243C36.9301 25.9723 36.7294 26.0555 36.5202 26.0555H34.3728C34.1636 26.0555 33.963 25.9723 33.815 25.8243C33.6671 25.6763 33.584 25.4756 33.584 25.2663V19.421C33.584 19.2117 33.5009 19.011 33.353 18.863C33.205 18.7151 33.0044 18.6319 32.7952 18.6319H30.6478C30.4386 18.6319 30.2379 18.7151 30.09 18.863C29.9421 19.011 29.859 19.2117 29.859 19.421V32.7483C29.8584 32.9479 29.9334 33.1402 30.069 33.2866C30.2045 33.4331 30.3904 33.5227 30.5894 33.5375Z" fill="#3F6CB3"/>
<path d="M93.1264 32.7483C93.1264 32.9576 93.2095 33.1583 93.3574 33.3063C93.5054 33.4543 93.706 33.5375 93.9152 33.5375H103.513C103.722 33.5375 103.923 33.4543 104.071 33.3063C104.218 33.1583 104.302 32.9576 104.302 32.7483V30.6002C104.302 30.3909 104.218 30.1902 104.071 30.0422C103.923 29.8942 103.722 29.8111 103.513 29.8111H93.9152C93.706 29.8111 93.5054 29.8942 93.3574 30.0422C93.2095 30.1902 93.1264 30.3909 93.1264 30.6002V32.7483Z" fill="#3F6CB3"/>
<path d="M122.138 29.8111H112.541C112.331 29.8111 112.131 29.8942 111.983 30.0422C111.835 30.1902 111.752 30.3909 111.752 30.6002V32.7484C111.752 32.9576 111.669 33.1584 111.521 33.3063C111.373 33.4543 111.172 33.5375 110.963 33.5375H108.816C108.606 33.5375 108.406 33.6206 108.258 33.7686C108.11 33.9166 108.027 34.1173 108.027 34.3266V36.4747C108.027 36.684 107.944 36.8847 107.796 37.0327C107.648 37.1807 107.447 37.2639 107.238 37.2639H105.09C104.881 37.2639 104.681 37.347 104.533 37.495C104.385 37.643 104.302 37.8437 104.302 38.053V40.2011C104.302 40.4104 104.385 40.6111 104.533 40.7591C104.681 40.9071 104.881 40.9902 105.09 40.9902H110.934C111.143 40.9902 111.344 40.9071 111.492 40.7591C111.639 40.6111 111.723 40.4104 111.723 40.2011V38.053C111.723 37.8437 111.806 37.643 111.954 37.495C112.102 37.347 112.302 37.2639 112.511 37.2639H114.659C114.868 37.2639 115.069 37.347 115.217 37.495C115.365 37.643 115.448 37.8437 115.448 38.053V40.2011C115.448 40.4104 115.531 40.6111 115.679 40.7591C115.827 40.9071 116.027 40.9902 116.236 40.9902H118.384C118.593 40.9902 118.794 41.0734 118.942 41.2214C119.09 41.3693 119.173 41.5701 119.173 41.7794V43.986C119.173 44.1952 119.256 44.396 119.404 44.5439C119.552 44.6919 119.752 44.7751 119.961 44.7751H122.109C122.221 44.7897 122.334 44.7802 122.442 44.7471C122.55 44.7141 122.65 44.6583 122.734 44.5835C122.818 44.5087 122.886 44.4167 122.932 44.3136C122.978 44.2105 123.001 44.0988 123 43.986V30.6002C123 30.4901 122.978 30.3812 122.934 30.2803C122.89 30.1795 122.825 30.089 122.744 30.0147C122.663 29.9404 122.567 29.8839 122.462 29.8488C122.358 29.8137 122.248 29.8009 122.138 29.8111Z" fill="#3F6CB3"/>
<path d="M2.93622 33.5375H0.788835C0.353174 33.5375 0 33.8908 0 34.3266V36.4747C0 36.9105 0.353174 37.2638 0.788835 37.2638H2.93622C3.37188 37.2638 3.72506 36.9105 3.72506 36.4747V34.3266C3.72506 33.8908 3.37188 33.5375 2.93622 33.5375Z" fill="#3F6CB3"/>
<path d="M10.3864 37.2639H8.23899C8.02978 37.2639 7.82914 37.347 7.68121 37.495C7.53327 37.643 7.45015 37.8437 7.45015 38.053V55.1067C7.45015 55.3159 7.53327 55.5167 7.68121 55.6646C7.82914 55.8126 8.02978 55.8958 8.23899 55.8958H10.3864C10.5956 55.8958 10.7962 55.8126 10.9442 55.6646C11.0921 55.5167 11.1752 55.3159 11.1752 55.1067V45.4473C11.1752 45.238 11.2583 45.0373 11.4063 44.8893C11.5542 44.7413 11.7548 44.6582 11.9641 44.6582H17.8073C18.0165 44.6582 18.2171 44.575 18.3651 44.427C18.513 44.2791 18.5961 44.0783 18.5961 43.8691V41.7794C18.5781 41.5855 18.4891 41.4051 18.3462 41.2729C18.2032 41.1407 18.0165 41.0661 17.8219 41.0633H15.6745C15.4653 41.0633 15.2646 40.9802 15.1167 40.8322C14.9688 40.6842 14.8857 40.4835 14.8857 40.2742V38.053C14.8857 37.8437 14.9688 37.643 15.1167 37.495C15.2646 37.347 15.4653 37.2639 15.6745 37.2639H17.8219C18.0311 37.2639 18.2317 37.1807 18.3797 37.0327C18.5276 36.8847 18.6107 36.684 18.6107 36.4747V30.6294C18.6107 30.4201 18.5276 30.2194 18.3797 30.0714C18.2317 29.9235 18.0311 29.8403 17.8219 29.8403H8.22437C8.01516 29.8403 7.81452 29.9235 7.66658 30.0714C7.51865 30.2194 7.43555 30.4201 7.43555 30.6294V32.7776C7.43555 32.9869 7.51865 33.1876 7.66658 33.3356C7.81452 33.4836 8.01516 33.5667 8.22437 33.5667H10.3718C10.581 33.5667 10.7816 33.6498 10.9296 33.7978C11.0775 33.9458 11.1606 34.1465 11.1606 34.3558V36.504C11.1532 36.7056 11.0688 36.8968 10.9248 37.0381C10.7807 37.1795 10.5881 37.2603 10.3864 37.2639Z" fill="#3F6CB3"/>
<path d="M26.0754 36.4747C26.0754 36.684 25.9923 36.8847 25.8444 37.0327C25.6965 37.1807 25.4958 37.2638 25.2866 37.2638H23.1392C22.93 37.2638 22.7294 37.347 22.5814 37.495C22.4335 37.643 22.3504 37.8437 22.3504 38.053V40.2011C22.3504 40.4104 22.4335 40.6111 22.5814 40.7591C22.7294 40.9071 22.93 40.9902 23.1392 40.9902H25.2866C25.4958 40.9902 25.6965 41.0734 25.8444 41.2214C25.9923 41.3693 26.0754 41.5701 26.0754 41.7793V43.9859C26.0754 44.1952 26.1586 44.3959 26.3065 44.5439C26.4544 44.6919 26.6551 44.7751 26.8643 44.7751H29.0117C29.2209 44.7751 29.4215 44.6919 29.5695 44.5439C29.7174 44.3959 29.8005 44.1952 29.8005 43.9859V41.7793C29.8005 41.5701 29.8836 41.3693 30.0316 41.2214C30.1795 41.0734 30.3801 40.9902 30.5894 40.9902H32.7367C32.946 40.9902 33.1466 40.9071 33.2945 40.7591C33.4425 40.6111 33.5256 40.4104 33.5256 40.2011V38.053C33.5256 37.8437 33.4425 37.643 33.2945 37.495C33.1466 37.347 32.946 37.2638 32.7367 37.2638H30.5894C30.3801 37.2638 30.1795 37.1807 30.0316 37.0327C29.8836 36.8847 29.8005 36.684 29.8005 36.4747V34.3266C29.8005 34.1173 29.7174 33.9166 29.5695 33.7686C29.4215 33.6206 29.2209 33.5375 29.0117 33.5375H26.8643C26.6551 33.5375 26.4544 33.6206 26.3065 33.7686C26.1586 33.9166 26.0754 34.1173 26.0754 34.3266V36.4747Z" fill="#3F6CB3"/>
<path d="M64.1148 37.2638H66.2622C66.4714 37.2638 66.672 37.1807 66.82 37.0327C66.9679 36.8847 67.051 36.684 67.051 36.4747V34.3266C67.051 34.1173 66.9679 33.9166 66.82 33.7686C66.672 33.6206 66.4714 33.5375 66.2622 33.5375H64.1148C63.9056 33.5375 63.7049 33.4543 63.557 33.3063C63.4091 33.1583 63.3259 32.9576 63.3259 32.7483V30.6002C63.3259 30.3909 63.2428 30.1902 63.0949 30.0422C62.947 29.8942 62.7463 29.8111 62.5371 29.8111H60.3897C60.1805 29.8111 59.9799 29.8942 59.8319 30.0422C59.684 30.1902 59.6009 30.3909 59.6009 30.6002V36.4455C59.6009 36.6548 59.684 36.8555 59.8319 37.0035C59.9799 37.1515 60.1805 37.2346 60.3897 37.2346H64.1148V37.2638Z" fill="#3F6CB3"/>
<path d="M2.93622 40.9902H0.788835C0.353174 40.9902 0 41.3435 0 41.7793V43.9275C0 44.3633 0.353174 44.7166 0.788835 44.7166H2.93622C3.37188 44.7166 3.72506 44.3633 3.72506 43.9275V41.7793C3.72506 41.3435 3.37188 40.9902 2.93622 40.9902Z" fill="#3F6CB3"/>
<path d="M25.2865 44.7166H19.4433C19.2341 44.7166 19.0335 44.7997 18.8855 44.9477C18.7376 45.0957 18.6545 45.2964 18.6545 45.5057V51.351C18.6545 51.5603 18.7376 51.761 18.8855 51.909C19.0335 52.057 19.2341 52.1402 19.4433 52.1402H21.5907C21.7999 52.1402 22.0005 52.057 22.1485 51.909C22.2964 51.761 22.3795 51.5603 22.3795 51.351V49.2321C22.3795 49.0228 22.4626 48.8221 22.6106 48.6741C22.7585 48.5261 22.9592 48.443 23.1684 48.443H25.3158C25.525 48.443 25.7256 48.3599 25.8735 48.2119C26.0215 48.0639 26.1046 47.8632 26.1046 47.6539V45.4473C26.0896 45.2431 25.9959 45.0528 25.8432 44.9165C25.6906 44.7801 25.491 44.7085 25.2865 44.7166Z" fill="#3F6CB3"/>
<path d="M36.4617 44.7166H34.3143C33.8787 44.7166 33.5255 45.0699 33.5255 45.5057V47.6539C33.5255 48.0897 33.8787 48.443 34.3143 48.443H36.4617C36.8974 48.443 37.2506 48.0897 37.2506 47.6539V45.5057C37.2506 45.0699 36.8974 44.7166 36.4617 44.7166Z" fill="#3F6CB3"/>
<path d="M93.1264 48.443V51.3656C93.1264 51.5749 93.2095 51.7756 93.3575 51.9236C93.5054 52.0716 93.706 52.1548 93.9152 52.1548H103.513C103.722 52.1548 103.923 52.0716 104.071 51.9236C104.218 51.7756 104.302 51.5749 104.302 51.3656V49.2321C104.302 49.0228 104.218 48.8221 104.071 48.6741C103.923 48.5261 103.722 48.443 103.513 48.443H97.6695C97.4603 48.443 97.2597 48.3598 97.1117 48.2119C96.9638 48.0639 96.8807 47.8632 96.8807 47.6539V45.4473C96.8807 45.238 96.9638 45.0373 97.1117 44.8893C97.2597 44.7413 97.4603 44.6581 97.6695 44.6581H99.8169C100.026 44.6581 100.227 44.575 100.375 44.427C100.523 44.279 100.606 44.0783 100.606 43.869V41.7793C100.606 41.57 100.523 41.3693 100.375 41.2213C100.227 41.0734 100.026 40.9902 99.8169 40.9902H97.6695C97.4603 40.9902 97.2597 40.9071 97.1117 40.7591C96.9638 40.6111 96.8807 40.4104 96.8807 40.2011V38.0529C96.8807 37.8437 96.7976 37.6429 96.6496 37.495C96.5017 37.347 96.3011 37.2638 96.0919 37.2638H90.2486C90.0394 37.2638 89.8388 37.1807 89.6908 37.0327C89.5429 36.8847 89.4598 36.684 89.4598 36.4747V26.8738C89.4598 26.6645 89.3767 26.4638 89.2287 26.3158C89.0808 26.1678 88.8802 26.0847 88.671 26.0847H86.4797C86.2705 26.0847 86.0699 26.1678 85.922 26.3158C85.774 26.4638 85.6909 26.6645 85.6909 26.8738V29.0219C85.6909 29.2312 85.6078 29.4319 85.4599 29.5799C85.3119 29.7279 85.1113 29.8111 84.9021 29.8111H79.0588C78.8496 29.8111 78.649 29.8942 78.5011 30.0422C78.3531 30.1902 78.27 30.3909 78.27 30.6002V32.7483C78.27 32.9576 78.1869 33.1583 78.039 33.3063C77.891 33.4543 77.6904 33.5374 77.4812 33.5374H71.6379C71.4287 33.5374 71.2281 33.6206 71.0802 33.7686C70.9322 33.9166 70.8491 34.1173 70.8491 34.3266V36.4747C70.8491 36.684 70.9322 36.8847 71.0802 37.0327C71.2281 37.1807 71.4287 37.2638 71.6379 37.2638H84.9605C85.1697 37.2638 85.3704 37.347 85.5183 37.495C85.6662 37.6429 85.7493 37.8437 85.7493 38.0529V43.8983C85.7493 44.1075 85.8324 44.3083 85.9804 44.4562C86.1283 44.6042 86.329 44.6874 86.5382 44.6874H88.6856C88.8676 44.6715 89.0385 44.5929 89.1691 44.465C89.2996 44.337 89.3817 44.1677 89.4014 43.9859V41.7793C89.4014 41.57 89.4845 41.3693 89.6324 41.2213C89.7803 41.0734 89.981 40.9902 90.1902 40.9902H92.323C92.5322 40.9902 92.7328 41.0734 92.8808 41.2213C93.0287 41.3693 93.1118 41.57 93.1118 41.7793V48.443H93.1264Z" fill="#3F6CB3"/>
<path d="M2.93622 48.443H0.788835C0.353174 48.443 0 48.7963 0 49.2321V51.3803C0 51.8161 0.353174 52.1694 0.788835 52.1694H2.93622C3.37188 52.1694 3.72506 51.8161 3.72506 51.3803V49.2321C3.72506 48.7963 3.37188 48.443 2.93622 48.443Z" fill="#3F6CB3"/>
<path d="M29.0116 48.443H26.8642C26.4286 48.443 26.0754 48.7963 26.0754 49.2321V51.3803C26.0754 51.8161 26.4286 52.1694 26.8642 52.1694H29.0116C29.4473 52.1694 29.8004 51.8161 29.8004 51.3803V49.2321C29.8004 48.7963 29.4473 48.443 29.0116 48.443Z" fill="#3F6CB3"/>
<path d="M25.2866 52.1694H23.1392C22.7036 52.1694 22.3504 52.5227 22.3504 52.9585V55.1067C22.3504 55.5425 22.7036 55.8958 23.1392 55.8958H25.2866C25.7223 55.8958 26.0755 55.5425 26.0755 55.1067V52.9585C26.0755 52.5227 25.7223 52.1694 25.2866 52.1694Z" fill="#3F6CB3"/>
<path d="M37.2505 52.9585C37.2505 52.7492 37.1674 52.5485 37.0195 52.4005C36.8716 52.2525 36.6709 52.1694 36.4617 52.1694H30.6185C30.4093 52.1694 30.2086 52.2525 30.0607 52.4005C29.9128 52.5485 29.8297 52.7492 29.8297 52.9585V55.1067C29.8297 55.3159 29.9128 55.5167 30.0607 55.6646C30.2086 55.8126 30.4093 55.8958 30.6185 55.8958H36.4617C36.6709 55.8958 36.8716 55.8126 37.0195 55.6646C37.1674 55.5167 37.2505 55.3159 37.2505 55.1067V52.9585Z" fill="#3F6CB3"/>
<path d="M92.3375 52.1694H90.1901C89.7545 52.1694 89.4013 52.5227 89.4013 52.9585V55.1067C89.4013 55.5425 89.7545 55.8958 90.1901 55.8958H92.3375C92.7732 55.8958 93.1264 55.5425 93.1264 55.1067V52.9585C93.1264 52.5227 92.7732 52.1694 92.3375 52.1694Z" fill="#3F6CB3"/>
<path d="M21.5615 55.8958H19.4141C18.9785 55.8958 18.6253 56.2491 18.6253 56.6849V58.833C18.6253 59.2688 18.9785 59.6221 19.4141 59.6221H21.5615C21.9972 59.6221 22.3504 59.2688 22.3504 58.833V56.6849C22.3504 56.2491 21.9972 55.8958 21.5615 55.8958Z" fill="#3F6CB3"/>
<path d="M88.6126 55.8958H86.4652C86.0295 55.8958 85.6763 56.2491 85.6763 56.6849V58.833C85.6763 59.2688 86.0295 59.6221 86.4652 59.6221H88.6126C89.0482 59.6221 89.4014 59.2688 89.4014 58.833V56.6849C89.4014 56.2491 89.0482 55.8958 88.6126 55.8958Z" fill="#3F6CB3"/>
<path d="M122.138 55.8958H119.991C119.781 55.8958 119.581 55.9789 119.433 56.1269C119.285 56.2749 119.202 56.4756 119.202 56.6849V62.5302C119.202 62.7395 119.285 62.9402 119.433 63.0882C119.581 63.2361 119.781 63.3193 119.991 63.3193H122.138C122.347 63.3193 122.548 63.2361 122.696 63.0882C122.844 62.9402 122.927 62.7395 122.927 62.5302V56.6849C122.927 56.4756 122.844 56.2749 122.696 56.1269C122.548 55.9789 122.347 55.8958 122.138 55.8958Z" fill="#3F6CB3"/>
<path d="M2.93622 63.3485H0.788835C0.353174 63.3485 0 63.7018 0 64.1377V66.2858C0 66.7216 0.353174 67.0749 0.788835 67.0749H2.93622C3.37188 67.0749 3.72506 66.7216 3.72506 66.2858V64.1377C3.72506 63.7018 3.37188 63.3485 2.93622 63.3485Z" fill="#3F6CB3"/>
<path d="M34.3142 67.0749H36.4616C36.6708 67.0749 36.8715 66.9918 37.0194 66.8438C37.1674 66.6958 37.2505 66.4951 37.2505 66.2858V60.4405C37.2505 60.2312 37.1674 60.0305 37.0194 59.8825C36.8715 59.7345 36.6708 59.6514 36.4616 59.6514H30.6184C30.4092 59.6514 30.2086 59.5682 30.0606 59.4202C29.9127 59.2722 29.8296 59.0715 29.8296 58.8622V56.6849C29.8296 56.4756 29.7465 56.2749 29.5985 56.1269C29.4506 55.9789 29.2499 55.8958 29.0407 55.8958H26.8934C26.6842 55.8958 26.4835 55.9789 26.3356 56.1269C26.1876 56.2749 26.1045 56.4756 26.1045 56.6849V58.833C26.1045 59.0423 26.0214 59.243 25.8735 59.391C25.7255 59.539 25.5249 59.6221 25.3157 59.6221H23.1683C22.9591 59.6221 22.7585 59.7053 22.6105 59.8533C22.4626 60.0012 22.3795 60.202 22.3795 60.4113V62.5594C22.3795 62.7687 22.4626 62.9694 22.6105 63.1174C22.7585 63.2654 22.9591 63.3485 23.1683 63.3485H25.3157C25.5249 63.3485 25.7255 63.4317 25.8735 63.5796C26.0214 63.7276 26.1045 63.9283 26.1045 64.1376V66.2858C26.1045 66.4951 26.1876 66.6958 26.3356 66.8438C26.4835 66.9918 26.6842 67.0749 26.8934 67.0749H29.0407C29.2499 67.0749 29.4506 66.9918 29.5985 66.8438C29.7465 66.6958 29.8296 66.4951 29.8296 66.2858V64.1376C29.8296 63.9283 29.9127 63.7276 30.0606 63.5796C30.2086 63.4317 30.4092 63.3485 30.6184 63.3485H32.7658C32.975 63.3485 33.1756 63.4317 33.3236 63.5796C33.4715 63.7276 33.5546 63.9283 33.5546 64.1376V66.2858C33.5545 66.4901 33.6336 66.6865 33.7752 66.8337C33.9169 66.9809 34.1101 67.0673 34.3142 67.0749Z" fill="#3F6CB3"/>
<path d="M25.2866 67.0749H23.1392C22.7036 67.0749 22.3504 67.4282 22.3504 67.864V70.0122C22.3504 70.448 22.7036 70.8013 23.1392 70.8013H25.2866C25.7223 70.8013 26.0755 70.448 26.0755 70.0122V67.864C26.0755 67.4282 25.7223 67.0749 25.2866 67.0749Z" fill="#3F6CB3"/>
<path d="M122.138 67.0749H116.295C116.086 67.0749 115.885 66.9918 115.737 66.8438C115.589 66.6958 115.506 66.4951 115.506 66.2858V56.6849C115.506 56.4756 115.589 56.2749 115.737 56.1269C115.885 55.9789 116.086 55.8958 116.295 55.8958H118.442C118.651 55.8958 118.852 55.8126 119 55.6646C119.148 55.5166 119.231 55.3159 119.231 55.1066V52.9585C119.231 52.7492 119.148 52.5485 119 52.4005C118.852 52.2525 118.651 52.1694 118.442 52.1694H116.295C116.086 52.1694 115.885 52.0862 115.737 51.9382C115.589 51.7903 115.506 51.5895 115.506 51.3803V41.7793C115.506 41.5701 115.423 41.3693 115.275 41.2213C115.127 41.0734 114.926 40.9902 114.717 40.9902H112.57C112.36 40.9902 112.16 41.0734 112.012 41.2213C111.864 41.3693 111.781 41.5701 111.781 41.7793V51.3803C111.781 51.5895 111.698 51.7903 111.55 51.9382C111.402 52.0862 111.201 52.1694 110.992 52.1694H108.845C108.635 52.1694 108.435 52.2525 108.287 52.4005C108.139 52.5485 108.056 52.7492 108.056 52.9585V55.1066C108.056 55.3159 108.139 55.5166 108.287 55.6646C108.435 55.8126 108.635 55.8958 108.845 55.8958H110.992C111.201 55.8958 111.402 55.9789 111.55 56.1269C111.698 56.2749 111.781 56.4756 111.781 56.6849V58.833C111.781 59.0423 111.698 59.243 111.55 59.391C111.402 59.539 111.201 59.6221 110.992 59.6221H108.845C108.635 59.6221 108.435 59.7053 108.287 59.8533C108.139 60.0013 108.056 60.202 108.056 60.4113V62.5594C108.056 62.7687 108.139 62.9694 108.287 63.1174C108.435 63.2654 108.635 63.3485 108.845 63.3485H110.992C111.201 63.3485 111.402 63.4317 111.55 63.5796C111.698 63.7276 111.781 63.9284 111.781 64.1376V66.2858C111.781 66.4951 111.698 66.6958 111.55 66.8438C111.402 66.9918 111.201 67.0749 110.992 67.0749H101.395C101.185 67.0749 100.985 66.9918 100.837 66.8438C100.689 66.6958 100.606 66.4951 100.606 66.2858V60.4405C100.606 60.2312 100.689 60.0305 100.837 59.8825C100.985 59.7345 101.185 59.6514 101.395 59.6514H103.542C103.751 59.6514 103.952 59.5682 104.1 59.4202C104.248 59.2722 104.331 59.0715 104.331 58.8622V56.6849C104.331 56.4756 104.248 56.2749 104.1 56.1269C103.952 55.9789 103.751 55.8958 103.542 55.8958H97.6987C97.4895 55.8958 97.2888 55.9789 97.1409 56.1269C96.993 56.2749 96.9099 56.4756 96.9099 56.6849V58.833C96.9099 59.0423 96.8268 59.243 96.6788 59.391C96.5309 59.539 96.3302 59.6221 96.121 59.6221H90.2778C90.0686 59.6221 89.8679 59.7053 89.72 59.8533C89.5721 60.0013 89.489 60.202 89.489 60.4113V66.2566C89.489 66.4659 89.5721 66.6666 89.72 66.8146C89.8679 66.9625 90.0686 67.0457 90.2778 67.0457H92.3229C92.5321 67.0457 92.7328 66.9625 92.8807 66.8146C93.0287 66.6666 93.1118 66.4659 93.1118 66.2566V64.1376C93.1118 63.9284 93.1949 63.7276 93.3428 63.5796C93.4908 63.4317 93.6914 63.3485 93.9006 63.3485H96.048C96.2572 63.3485 96.4578 63.4317 96.6058 63.5796C96.7537 63.7276 96.8368 63.9284 96.8368 64.1376V66.2858C96.8368 66.4951 96.7537 66.6958 96.6058 66.8438C96.4578 66.9918 96.2572 67.0749 96.048 67.0749H93.9006C93.6914 67.0749 93.4908 67.158 93.3428 67.306C93.1949 67.454 93.1118 67.6547 93.1118 67.864V70.0122C93.1118 70.2215 93.1949 70.4222 93.3428 70.5702C93.4908 70.7182 93.6914 70.8013 93.9006 70.8013H96.048C96.2572 70.8013 96.4578 70.8844 96.6058 71.0324C96.7537 71.1804 96.8368 71.3811 96.8368 71.5904V73.7386C96.8368 73.9478 96.7537 74.1486 96.6058 74.2965C96.4578 74.4445 96.2572 74.5277 96.048 74.5277H93.9006C93.6914 74.5277 93.4908 74.6108 93.3428 74.7588C93.1949 74.9068 93.1118 75.1075 93.1118 75.3168V77.4649C93.1118 77.6742 93.1949 77.8749 93.3428 78.0229C93.4908 78.1709 93.6914 78.2541 93.9006 78.2541H99.7438C99.953 78.2541 100.154 78.1709 100.302 78.0229C100.45 77.8749 100.533 77.6742 100.533 77.4649V71.6196C100.533 71.4103 100.616 71.2096 100.764 71.0616C100.912 70.9137 101.112 70.8305 101.322 70.8305H107.165C107.374 70.8305 107.575 70.9137 107.723 71.0616C107.87 71.2096 107.954 71.4103 107.954 71.6196V73.7678C107.954 73.9771 107.87 74.1778 107.723 74.3258C107.575 74.4738 107.374 74.5569 107.165 74.5569H105.017C104.808 74.5569 104.607 74.64 104.46 74.788C104.312 74.936 104.228 75.1367 104.228 75.346V77.4942C104.228 77.7035 104.312 77.9042 104.46 78.0522C104.607 78.2001 104.808 78.2833 105.017 78.2833H107.165C107.374 78.2833 107.575 78.3664 107.723 78.5144C107.87 78.6624 107.954 78.8631 107.954 79.0724V81.2206C107.954 81.4298 107.87 81.6306 107.723 81.7785C107.575 81.9265 107.374 82.0097 107.165 82.0097H105.017C104.808 82.0097 104.607 82.0928 104.46 82.2408C104.312 82.3888 104.228 82.5895 104.228 82.7988V84.9031C104.228 85.1124 104.312 85.3131 104.46 85.4611C104.607 85.6091 104.808 85.6922 105.017 85.6922H107.165C107.374 85.6922 107.575 85.7754 107.723 85.9233C107.87 86.0713 107.954 86.272 107.954 86.4813V88.6295C107.954 88.8388 107.87 89.0395 107.723 89.1875C107.575 89.3355 107.374 89.4186 107.165 89.4186H101.322C101.112 89.4186 100.912 89.3355 100.764 89.1875C100.616 89.0395 100.533 88.8388 100.533 88.6295V86.4959C100.533 86.2867 100.45 86.0859 100.302 85.938C100.154 85.79 99.953 85.7068 99.7438 85.7068H97.5964C97.3872 85.7068 97.1866 85.6237 97.0387 85.4757C96.8907 85.3277 96.8076 85.127 96.8076 84.9177V82.7696C96.8076 82.6659 96.7872 82.5633 96.7476 82.4676C96.7079 82.3718 96.6498 82.2849 96.5766 82.2116C96.5033 82.1383 96.4163 82.0802 96.3206 82.0405C96.2249 82.0009 96.1224 81.9804 96.0188 81.9804H93.8714C93.7678 81.9804 93.6652 82.0009 93.5695 82.0405C93.4738 82.0802 93.3868 82.1383 93.3136 82.2116C93.2403 82.2849 93.1822 82.3718 93.1426 82.4676C93.103 82.5633 93.0826 82.6659 93.0826 82.7696V84.9031C93.0826 85.1124 92.9994 85.3131 92.8515 85.4611C92.7036 85.6091 92.5029 85.6922 92.2937 85.6922H90.1463C89.9371 85.6922 89.7365 85.7754 89.5885 85.9233C89.4406 86.0713 89.3575 86.272 89.3575 86.4813V92.3266C89.3575 92.5359 89.2744 92.7366 89.1265 92.8846C88.9785 93.0326 88.7779 93.1158 88.5686 93.1158H86.4797C86.2705 93.1158 86.0699 93.1989 85.9219 93.3469C85.774 93.4949 85.6909 93.6956 85.6909 93.9049V96.053C85.6909 96.1566 85.6705 96.2593 85.6308 96.355C85.5912 96.4507 85.5331 96.5377 85.4598 96.611C85.3866 96.6843 85.2996 96.7424 85.2039 96.7821C85.1082 96.8217 85.0056 96.8421 84.902 96.8421H82.7546C82.5454 96.8421 82.3448 96.9253 82.1969 97.0733C82.0489 97.2213 81.9658 97.422 81.9658 97.6313V99.7794C81.9658 99.9887 82.0489 100.189 82.1969 100.337C82.3448 100.485 82.5454 100.569 82.7546 100.569H88.5979C88.8071 100.569 89.0077 100.652 89.1557 100.8C89.3036 100.948 89.3867 101.148 89.3867 101.358V107.203C89.3867 107.412 89.4698 107.613 89.6178 107.761C89.7657 107.909 89.9663 107.992 90.1755 107.992H92.3229C92.5321 107.992 92.7328 108.075 92.8807 108.223C93.0287 108.371 93.1118 108.572 93.1118 108.781V110.929C93.1118 111.139 93.1949 111.339 93.3428 111.487C93.4908 111.635 93.6914 111.718 93.9006 111.718H96.048C96.2572 111.718 96.4578 111.635 96.6058 111.487C96.7537 111.339 96.8368 111.139 96.8368 110.929V108.854C96.8368 108.645 96.9199 108.444 97.0679 108.296C97.2158 108.148 97.4165 108.065 97.6257 108.065H99.7731C99.9823 108.065 100.183 108.148 100.331 108.296C100.479 108.444 100.562 108.645 100.562 108.854V118.514C100.562 118.723 100.645 118.924 100.793 119.072C100.941 119.22 101.141 119.303 101.351 119.303H110.948C111.157 119.303 111.358 119.22 111.506 119.072C111.654 118.924 111.737 118.723 111.737 118.514V116.307C111.737 116.098 111.654 115.897 111.506 115.749C111.358 115.601 111.157 115.518 110.948 115.518H108.801C108.592 115.518 108.391 115.435 108.243 115.287C108.095 115.139 108.012 114.938 108.012 114.729V112.581C108.012 112.371 107.929 112.171 107.781 112.023C107.633 111.875 107.432 111.792 107.223 111.792H105.076C104.867 111.792 104.666 111.708 104.518 111.56C104.37 111.412 104.287 111.212 104.287 111.002V108.854C104.287 108.645 104.37 108.444 104.518 108.296C104.666 108.148 104.867 108.065 105.076 108.065H107.223C107.432 108.065 107.633 107.982 107.781 107.834C107.929 107.686 108.012 107.485 108.012 107.276V105.128C108.012 104.919 108.095 104.718 108.243 104.57C108.391 104.422 108.592 104.339 108.801 104.339H110.948C111.157 104.339 111.358 104.256 111.506 104.108C111.654 103.96 111.737 103.759 111.737 103.55V101.401C111.737 101.192 111.654 100.991 111.506 100.843C111.358 100.696 111.157 100.612 110.948 100.612H108.801C108.697 100.612 108.595 100.592 108.499 100.552C108.403 100.513 108.316 100.455 108.243 100.381C108.17 100.308 108.112 100.221 108.072 100.125C108.032 100.029 108.012 99.9269 108.012 99.8232V97.6751C108.012 97.4658 108.095 97.2651 108.243 97.1171C108.391 96.9691 108.592 96.886 108.801 96.886H114.644C114.853 96.886 115.054 96.9691 115.202 97.1171C115.35 97.2651 115.433 97.4658 115.433 97.6751V99.8232C115.433 99.9269 115.453 100.029 115.493 100.125C115.533 100.221 115.591 100.308 115.664 100.381C115.737 100.455 115.824 100.513 115.92 100.552C116.016 100.592 116.118 100.612 116.222 100.612H118.369C118.578 100.612 118.779 100.696 118.927 100.843C119.075 100.991 119.158 101.192 119.158 101.401V103.55C119.158 103.759 119.241 103.96 119.389 104.108C119.537 104.256 119.738 104.339 119.947 104.339H122.094C122.303 104.339 122.504 104.256 122.652 104.108C122.8 103.96 122.883 103.759 122.883 103.55V93.9487C122.883 93.7394 122.8 93.5387 122.652 93.3907C122.504 93.2427 122.303 93.1596 122.094 93.1596H119.947C119.843 93.1596 119.741 93.1392 119.645 93.0995C119.549 93.0599 119.462 93.0017 119.389 92.9285C119.316 92.8552 119.258 92.7682 119.218 92.6725C119.178 92.5767 119.158 92.4741 119.158 92.3705V90.2223C119.158 90.1187 119.138 90.0161 119.098 89.9203C119.058 89.8246 119 89.7376 118.927 89.6643C118.854 89.5911 118.767 89.5329 118.671 89.4933C118.575 89.4536 118.473 89.4332 118.369 89.4332H116.222C116.118 89.4332 116.016 89.4536 115.92 89.4933C115.824 89.5329 115.737 89.5911 115.664 89.6643C115.591 89.7376 115.533 89.8246 115.493 89.9203C115.453 90.0161 115.433 90.1187 115.433 90.2223V92.3705C115.433 92.5798 115.35 92.7805 115.202 92.9285C115.054 93.0765 114.853 93.1596 114.644 93.1596H112.497C112.287 93.1596 112.087 93.0765 111.939 92.9285C111.791 92.7805 111.708 92.5798 111.708 92.3705V90.2223C111.708 90.1187 111.728 90.0161 111.768 89.9203C111.808 89.8246 111.866 89.7376 111.939 89.6643C112.012 89.5911 112.099 89.5329 112.195 89.4933C112.29 89.4536 112.393 89.4332 112.497 89.4332H114.644C114.748 89.4332 114.85 89.4128 114.946 89.3731C115.042 89.3335 115.129 89.2754 115.202 89.2021C115.275 89.1288 115.333 89.0418 115.373 88.9461C115.412 88.8503 115.433 88.7477 115.433 88.6441V86.4959C115.433 86.2867 115.35 86.0859 115.202 85.938C115.054 85.79 114.853 85.7068 114.644 85.7068H112.497C112.287 85.7068 112.087 85.6237 111.939 85.4757C111.791 85.3277 111.708 85.127 111.708 84.9177V82.7696C111.708 82.6659 111.728 82.5633 111.768 82.4676C111.808 82.3718 111.866 82.2849 111.939 82.2116C112.012 82.1383 112.099 82.0802 112.195 82.0405C112.29 82.0009 112.393 81.9804 112.497 81.9804H114.644C114.748 81.9804 114.85 82.0009 114.946 82.0405C115.042 82.0802 115.129 82.1383 115.202 82.2116C115.275 82.2849 115.333 82.3718 115.373 82.4676C115.412 82.5633 115.433 82.6659 115.433 82.7696V84.9031C115.433 85.1124 115.516 85.3131 115.664 85.4611C115.812 85.6091 116.013 85.6922 116.222 85.6922H118.369C118.578 85.6922 118.779 85.7754 118.927 85.9233C119.075 86.0713 119.158 86.272 119.158 86.4813V88.6295C119.158 88.8388 119.241 89.0395 119.389 89.1875C119.537 89.3355 119.738 89.4186 119.947 89.4186H122.094C122.303 89.4186 122.504 89.3355 122.652 89.1875C122.8 89.0395 122.883 88.8388 122.883 88.6295V82.7842C122.883 82.5749 122.8 82.3742 122.652 82.2262C122.504 82.0782 122.303 81.9951 122.094 81.9951H119.947C119.738 81.9951 119.537 81.9119 119.389 81.7639C119.241 81.6159 119.158 81.4152 119.158 81.2059V79.0578C119.158 78.8485 119.241 78.6478 119.389 78.4998C119.537 78.3518 119.738 78.2687 119.947 78.2687H122.094C122.303 78.2687 122.504 78.1855 122.652 78.0375C122.8 77.8896 122.883 77.6888 122.883 77.4796V67.864C122.883 67.6621 122.806 67.4678 122.668 67.321C122.529 67.1742 122.34 67.0861 122.138 67.0749ZM96.8514 104.339H93.9298C93.7206 104.339 93.52 104.256 93.372 104.108C93.2241 103.96 93.141 103.759 93.141 103.55V93.9487C93.141 93.7394 93.2241 93.5387 93.372 93.3907C93.52 93.2427 93.7206 93.1596 93.9298 93.1596H103.527C103.737 93.1596 103.937 93.2427 104.085 93.3907C104.233 93.5387 104.316 93.7394 104.316 93.9487V103.55C104.316 103.759 104.233 103.96 104.085 104.108C103.937 104.256 103.737 104.339 103.527 104.339H96.8514ZM112.54 78.2541C112.331 78.2541 112.131 78.1709 111.983 78.0229C111.835 77.8749 111.752 77.6742 111.752 77.4649V75.3168C111.752 75.1075 111.835 74.9068 111.983 74.7588C112.131 74.6108 112.331 74.5277 112.54 74.5277H114.688C114.897 74.5277 115.098 74.4445 115.246 74.2965C115.394 74.1486 115.477 73.9478 115.477 73.7386V71.5904C115.477 71.3811 115.56 71.1804 115.708 71.0324C115.856 70.8844 116.056 70.8013 116.266 70.8013H118.413C118.622 70.8013 118.823 70.8844 118.971 71.0324C119.119 71.1804 119.202 71.3811 119.202 71.5904V73.7386C119.202 73.9478 119.119 74.1486 118.971 74.2965C118.823 74.4445 118.622 74.5277 118.413 74.5277H116.266C116.056 74.5277 115.856 74.6108 115.708 74.7588C115.56 74.9068 115.477 75.1075 115.477 75.3168V77.4649C115.477 77.6742 115.394 77.8749 115.246 78.0229C115.098 78.1709 114.897 78.2541 114.688 78.2541H112.54Z" fill="#3F6CB3"/>
<path d="M18.6253 70.8013V60.4113C18.6253 60.202 18.5422 60.0013 18.3943 59.8533C18.2463 59.7053 18.0457 59.6221 17.8365 59.6221H4.51392C4.30471 59.6221 4.10407 59.7053 3.95613 59.8533C3.8082 60.0013 3.7251 60.202 3.7251 60.4113V62.5594C3.7251 62.7687 3.8082 62.9694 3.95613 63.1174C4.10407 63.2654 4.30471 63.3485 4.51392 63.3485H10.3571C10.5664 63.3485 10.767 63.4317 10.9149 63.5797C11.0629 63.7276 11.146 63.9284 11.146 64.1376V69.983C11.146 70.1922 11.2291 70.393 11.377 70.5409C11.525 70.6889 11.7256 70.7721 11.9348 70.7721H14.0822C14.2914 70.7721 14.4921 70.8552 14.64 71.0032C14.7879 71.1512 14.871 71.3519 14.871 71.5612V73.7093C14.871 73.9186 14.9542 74.1193 15.1021 74.2673C15.25 74.4153 15.4507 74.4985 15.6599 74.4985H17.8219C18.0311 74.4985 18.2317 74.4153 18.3797 74.2673C18.5276 74.1193 18.6107 73.9186 18.6107 73.7093L18.6253 70.8013Z" fill="#3F6CB3"/>
<path d="M88.6126 70.8013H86.4652C86.0295 70.8013 85.6763 71.1546 85.6763 71.5904V73.7386C85.6763 74.1744 86.0295 74.5277 86.4652 74.5277H88.6126C89.0482 74.5277 89.4014 74.1744 89.4014 73.7386V71.5904C89.4014 71.1546 89.0482 70.8013 88.6126 70.8013Z" fill="#3F6CB3"/>
<path d="M7.45014 74.5277V67.864C7.45014 67.6548 7.36703 67.454 7.2191 67.3061C7.07116 67.1581 6.87052 67.0749 6.66131 67.0749H4.51392C4.30471 67.0749 4.10407 67.1581 3.95613 67.3061C3.8082 67.454 3.7251 67.6548 3.7251 67.864V77.465C3.7251 77.6742 3.8082 77.875 3.95613 78.0229C4.10407 78.1709 4.30471 78.2541 4.51392 78.2541H6.66131C6.87052 78.2541 7.07116 78.1709 7.2191 78.0229C7.36703 77.875 7.45014 77.6742 7.45014 77.465V74.5277Z" fill="#3F6CB3"/>
<path d="M29.8004 78.2541H32.722C32.9312 78.2541 33.1319 78.1709 33.2798 78.023C33.4278 77.875 33.5109 77.6743 33.5109 77.465V75.3168C33.5109 75.1075 33.4278 74.9068 33.2798 74.7588C33.1319 74.6108 32.9312 74.5277 32.722 74.5277H30.5746C30.3654 74.5277 30.1648 74.4446 30.0169 74.2966C29.8689 74.1486 29.7858 73.9479 29.7858 73.7386V71.5904C29.7858 71.3811 29.7027 71.1804 29.5548 71.0324C29.4068 70.8845 29.2062 70.8013 28.997 70.8013H26.8496C26.6404 70.8013 26.4397 70.8845 26.2918 71.0324C26.1439 71.1804 26.0608 71.3811 26.0608 71.5904V73.7386C26.0608 73.9479 25.9777 74.1486 25.8297 74.2966C25.6818 74.4446 25.4811 74.5277 25.2719 74.5277H23.1245C22.9153 74.5277 22.7147 74.6108 22.5668 74.7588C22.4188 74.9068 22.3357 75.1075 22.3357 75.3168V77.465C22.3357 77.6743 22.4188 77.875 22.5668 78.023C22.7147 78.1709 22.9153 78.2541 23.1245 78.2541H29.7858H29.8004Z" fill="#3F6CB3"/>
<path d="M21.5615 78.254H19.4141C18.9785 78.254 18.6253 78.6073 18.6253 79.0432V81.1913C18.6253 81.6271 18.9785 81.9804 19.4141 81.9804H21.5615C21.9972 81.9804 22.3504 81.6271 22.3504 81.1913V79.0432C22.3504 78.6073 21.9972 78.254 21.5615 78.254Z" fill="#3F6CB3"/>
<path d="M92.3375 78.254H90.1901C89.7545 78.254 89.4013 78.6073 89.4013 79.0432V81.1913C89.4013 81.6271 89.7545 81.9804 90.1901 81.9804H92.3375C92.7732 81.9804 93.1264 81.6271 93.1264 81.1913V79.0432C93.1264 78.6073 92.7732 78.254 92.3375 78.254Z" fill="#3F6CB3"/>
<path d="M15.689 85.7068H17.8218C18.031 85.7068 18.2316 85.6237 18.3796 85.4757C18.5275 85.3277 18.6106 85.127 18.6106 84.9177V82.7696C18.6106 82.6659 18.5902 82.5633 18.5506 82.4676C18.5109 82.3718 18.4528 82.2849 18.3796 82.2116C18.3063 82.1383 18.2194 82.0802 18.1236 82.0405C18.0279 82.0009 17.9254 81.9805 17.8218 81.9805H15.6744C15.4652 81.9805 15.2645 81.8973 15.1166 81.7493C14.9687 81.6013 14.8856 81.4006 14.8856 81.1913V79.0578C14.8856 78.8485 14.8024 78.6478 14.6545 78.4998C14.5066 78.3518 14.3059 78.2687 14.0967 78.2687H8.25349C8.04427 78.2687 7.84363 78.3518 7.6957 78.4998C7.54776 78.6478 7.46466 78.8485 7.46466 79.0578V84.9031C7.46466 85.1124 7.54776 85.3131 7.6957 85.4611C7.84363 85.6091 8.04427 85.6922 8.25349 85.6922H15.7036L15.689 85.7068Z" fill="#3F6CB3"/>
<path d="M25.2866 81.9805H23.1392C22.7036 81.9805 22.3504 82.3338 22.3504 82.7696V84.9177C22.3504 85.3536 22.7036 85.7069 23.1392 85.7069H25.2866C25.7223 85.7069 26.0755 85.3536 26.0755 84.9177V82.7696C26.0755 82.3338 25.7223 81.9805 25.2866 81.9805Z" fill="#3F6CB3"/>
<path d="M0.788826 93.1596H2.93621C3.14542 93.1596 3.34607 93.0765 3.494 92.9285C3.64194 92.7805 3.72506 92.5798 3.72506 92.3705V79.0578C3.72506 78.8485 3.64194 78.6478 3.494 78.4998C3.34607 78.3518 3.14542 78.2687 2.93621 78.2687H0.788826C0.685234 78.2687 0.582656 78.2891 0.48695 78.3287C0.391244 78.3684 0.304287 78.4265 0.231037 78.4998C0.157787 78.5731 0.0996812 78.6601 0.0600385 78.7558C0.0203958 78.8516 0 78.9542 0 79.0578V92.3851C0.00382788 92.5919 0.0886192 92.7888 0.236142 92.9337C0.383664 93.0785 0.58212 93.1596 0.788826 93.1596Z" fill="#3F6CB3"/>
<path d="M8.23892 93.1596H14.0821C14.2914 93.1596 14.492 93.0765 14.6399 92.9285C14.7879 92.7805 14.871 92.5798 14.871 92.3705V90.2223C14.871 90.1187 14.8506 90.0161 14.8109 89.9203C14.7713 89.8246 14.7132 89.7376 14.6399 89.6643C14.5667 89.5911 14.4797 89.5329 14.384 89.4933C14.2883 89.4536 14.1857 89.4332 14.0821 89.4332H8.23892C8.13533 89.4332 8.03275 89.4536 7.93705 89.4933C7.84134 89.5329 7.75438 89.5911 7.68113 89.6643C7.60788 89.7376 7.54977 89.8246 7.51012 89.9203C7.47048 90.0161 7.45007 90.1187 7.45007 90.2223V92.3705C7.45007 92.5798 7.5332 92.7805 7.68113 92.9285C7.82907 93.0765 8.02971 93.1596 8.23892 93.1596Z" fill="#3F6CB3"/>
<path d="M51.3619 89.4332H49.2146C48.7789 89.4332 48.4257 89.7865 48.4257 90.2223V92.3705C48.4257 92.8063 48.7789 93.1596 49.2146 93.1596H51.3619C51.7976 93.1596 52.1508 92.8063 52.1508 92.3705V90.2223C52.1508 89.7865 51.7976 89.4332 51.3619 89.4332Z" fill="#3F6CB3"/>
<path d="M60.3898 93.1596H62.5371C62.7464 93.1596 62.947 93.0765 63.0949 92.9285C63.2429 92.7805 63.326 92.5798 63.326 92.3705V90.2223C63.326 90.013 63.2429 89.8123 63.0949 89.6643C62.947 89.5164 62.7464 89.4332 62.5371 89.4332H56.6939C56.5903 89.4332 56.4877 89.4536 56.392 89.4933C56.2963 89.5329 56.2094 89.5911 56.1361 89.6643C56.0629 89.7376 56.0048 89.8246 55.9651 89.9203C55.9255 90.0161 55.9051 90.1187 55.9051 90.2223V92.3705C55.9051 92.5798 55.9882 92.7805 56.1361 92.9285C56.2841 93.0765 56.4847 93.1596 56.6939 93.1596H60.419H60.3898Z" fill="#3F6CB3"/>
<path d="M81.9512 89.4332V86.5106C81.9512 86.3013 81.8681 86.1006 81.7202 85.9526C81.5722 85.8046 81.3716 85.7215 81.1624 85.7215H64.1148C63.9056 85.7215 63.7049 85.8046 63.557 85.9526C63.4091 86.1006 63.3259 86.3013 63.3259 86.5106V88.6587C63.3259 88.7624 63.3463 88.865 63.386 88.9607C63.4256 89.0564 63.4837 89.1434 63.557 89.2167C63.6302 89.29 63.7172 89.3481 63.8129 89.3878C63.9086 89.4274 64.0112 89.4478 64.1148 89.4478H73.7123C73.9215 89.4478 74.1221 89.531 74.2701 89.679C74.418 89.827 74.5011 90.0277 74.5011 90.237V96.0823C74.5011 96.2915 74.5842 96.4923 74.7321 96.6402C74.8801 96.7882 75.0807 96.8714 75.2899 96.8714H77.4373C77.6465 96.8714 77.8472 96.7882 77.9951 96.6402C78.143 96.4923 78.2262 96.2915 78.2262 96.0823V93.9487C78.2262 93.7394 78.3093 93.5387 78.4572 93.3907C78.6051 93.2427 78.8058 93.1596 79.015 93.1596H81.1624C81.266 93.1596 81.3686 93.1392 81.4643 93.0995C81.56 93.0599 81.6469 93.0018 81.7202 92.9285C81.7934 92.8552 81.8515 92.7682 81.8912 92.6725C81.9308 92.5767 81.9512 92.4741 81.9512 92.3705V89.4332Z" fill="#3F6CB3"/>
<path d="M99.7877 96.886H97.6404C97.2047 96.886 96.8515 97.2393 96.8515 97.6751V99.8233C96.8515 100.259 97.2047 100.612 97.6404 100.612H99.7877C100.223 100.612 100.577 100.259 100.577 99.8233V97.6751C100.577 97.2393 100.223 96.886 99.7877 96.886Z" fill="#3F6CB3"/>
<path d="M58.812 100.612H56.6646C56.229 100.612 55.8758 100.966 55.8758 101.402V103.55C55.8758 103.985 56.229 104.339 56.6646 104.339H58.812C59.2477 104.339 59.6008 103.985 59.6008 103.55V101.402C59.6008 100.966 59.2477 100.612 58.812 100.612Z" fill="#3F6CB3"/>
<path d="M70.7761 107.276C70.7761 107.38 70.7965 107.482 70.8362 107.578C70.8758 107.674 70.9339 107.761 71.0071 107.834C71.0804 107.907 71.1673 107.965 71.2631 108.005C71.3588 108.045 71.4613 108.065 71.5649 108.065H73.7123C73.8159 108.065 73.9185 108.045 74.0142 108.005C74.1099 107.965 74.1969 107.907 74.2701 107.834C74.3434 107.761 74.4015 107.674 74.4411 107.578C74.4808 107.482 74.5012 107.38 74.5012 107.276V97.6751C74.5012 97.4658 74.418 97.2651 74.2701 97.1171C74.1222 96.9691 73.9215 96.8859 73.7123 96.8859H67.8691C67.6599 96.8859 67.4592 96.9691 67.3113 97.1171C67.1634 97.2651 67.0803 97.4658 67.0803 97.6751V99.8232C67.0803 99.9268 67.1007 100.029 67.1403 100.125C67.18 100.221 67.238 100.308 67.3113 100.381C67.3845 100.454 67.4715 100.513 67.5672 100.552C67.6629 100.592 67.7655 100.612 67.8691 100.612H70.0165C70.2257 100.612 70.4263 100.695 70.5743 100.843C70.7222 100.991 70.8053 101.192 70.8053 101.401V107.247L70.7761 107.276Z" fill="#3F6CB3"/>
<path d="M79.015 104.339C78.8058 104.339 78.6052 104.422 78.4572 104.57C78.3093 104.718 78.2262 104.919 78.2262 105.128V107.276C78.2262 107.38 78.2466 107.482 78.2862 107.578C78.3259 107.674 78.384 107.761 78.4572 107.834C78.5305 107.907 78.6174 107.965 78.7131 108.005C78.8089 108.045 78.9114 108.065 79.015 108.065H84.8582C84.9618 108.065 85.0644 108.045 85.1601 108.005C85.2558 107.965 85.3428 107.907 85.416 107.834C85.4893 107.761 85.5474 107.674 85.587 107.578C85.6267 107.482 85.6471 107.38 85.6471 107.276V105.128C85.6471 104.919 85.564 104.718 85.416 104.57C85.2681 104.422 85.0675 104.339 84.8582 104.339H79.015Z" fill="#3F6CB3"/>
<path d="M114.688 104.339H112.541C112.105 104.339 111.752 104.692 111.752 105.128V107.276C111.752 107.712 112.105 108.065 112.541 108.065H114.688C115.124 108.065 115.477 107.712 115.477 107.276V105.128C115.477 104.692 115.124 104.339 114.688 104.339Z" fill="#3F6CB3"/>
<path d="M44.7006 108.065V101.402C44.7006 101.192 44.7838 100.992 44.9317 100.844C45.0796 100.696 45.2803 100.612 45.4895 100.612H47.6369C47.8461 100.612 48.0467 100.696 48.1947 100.844C48.3426 100.992 48.4257 101.192 48.4257 101.402V111.002C48.4257 111.212 48.3426 111.412 48.1947 111.56C48.0467 111.708 47.8461 111.792 47.6369 111.792H45.4895C45.3859 111.792 45.2833 111.812 45.1876 111.852C45.0919 111.891 45.0049 111.949 44.9317 112.023C44.8584 112.096 44.8003 112.183 44.7607 112.279C44.721 112.374 44.7006 112.477 44.7006 112.581V114.729C44.7006 114.938 44.7838 115.139 44.9317 115.287C45.0796 115.435 45.2803 115.518 45.4895 115.518H51.3327C51.5419 115.518 51.7426 115.435 51.8905 115.287C52.0384 115.139 52.1215 114.938 52.1215 114.729V108.884C52.1215 108.674 52.2047 108.473 52.3526 108.326C52.5005 108.178 52.7012 108.094 52.9104 108.094H55.0578C55.267 108.094 55.4676 108.011 55.6156 107.863C55.7635 107.715 55.8466 107.515 55.8466 107.305V105.128C55.8466 104.919 55.7635 104.718 55.6156 104.57C55.4676 104.422 55.267 104.339 55.0578 104.339H52.8812C52.6719 104.339 52.4713 104.256 52.3234 104.108C52.1754 103.96 52.0923 103.759 52.0923 103.55V101.402C52.0923 101.192 52.1754 100.992 52.3234 100.844C52.4713 100.696 52.6719 100.612 52.8812 100.612H55.0285C55.1321 100.612 55.2347 100.592 55.3304 100.552C55.4261 100.513 55.5131 100.455 55.5863 100.381C55.6596 100.308 55.7177 100.221 55.7573 100.125C55.797 100.03 55.8174 99.9269 55.8174 99.8233V93.978C55.8174 93.8743 55.797 93.7717 55.7573 93.676C55.7177 93.5802 55.6596 93.4932 55.5863 93.42C55.5131 93.3467 55.4261 93.2886 55.3304 93.2489C55.2347 93.2093 55.1321 93.1888 55.0285 93.1888H52.8812C52.7776 93.1888 52.675 93.2093 52.5793 93.2489C52.4836 93.2886 52.3966 93.3467 52.3234 93.42C52.2501 93.4932 52.192 93.5802 52.1524 93.676C52.1127 93.7717 52.0923 93.8743 52.0923 93.978V96.1261C52.0923 96.3354 52.0092 96.5361 51.8613 96.6841C51.7133 96.8321 51.5127 96.9152 51.3035 96.9152H45.4603C45.251 96.9152 45.0504 96.8321 44.9025 96.6841C44.7545 96.5361 44.6714 96.3354 44.6714 96.1261V93.9487C44.6714 93.7394 44.5883 93.5387 44.4404 93.3907C44.2924 93.2427 44.0918 93.1596 43.8826 93.1596H38.0394C37.9358 93.1596 37.8332 93.1392 37.7375 93.0995C37.6418 93.0599 37.5548 93.0018 37.4816 92.9285C37.4083 92.8552 37.3502 92.7682 37.3106 92.6725C37.2709 92.5767 37.2505 92.4741 37.2505 92.3705V82.7696C37.2505 82.5603 37.1674 82.3596 37.0195 82.2116C36.8715 82.0636 36.6709 81.9805 36.4617 81.9805H30.6185C30.5149 81.9805 30.4123 82.0009 30.3166 82.0405C30.2209 82.0802 30.1339 82.1383 30.0607 82.2116C29.9874 82.2849 29.9293 82.3719 29.8897 82.4676C29.85 82.5633 29.8296 82.666 29.8296 82.7696V84.9031C29.8296 85.1124 29.7465 85.3131 29.5986 85.4611C29.4507 85.6091 29.25 85.6922 29.0408 85.6922H26.8934C26.6842 85.6922 26.4836 85.7754 26.3356 85.9234C26.1877 86.0714 26.1046 86.2721 26.1046 86.4814V88.6295C26.1046 88.8388 26.0215 89.0395 25.8735 89.1875C25.7256 89.3355 25.525 89.4186 25.3158 89.4186H23.1684C22.9592 89.4186 22.7585 89.3355 22.6106 89.1875C22.4626 89.0395 22.3795 88.8388 22.3795 88.6295V86.496C22.3795 86.2867 22.2964 86.086 22.1485 85.938C22.0005 85.79 21.7999 85.7069 21.5907 85.7069H19.4433C19.2341 85.7069 19.0335 85.79 18.8855 85.938C18.7376 86.086 18.6545 86.2867 18.6545 86.496V92.3413C18.6545 92.5506 18.7376 92.7513 18.8855 92.8993C19.0335 93.0473 19.2341 93.1304 19.4433 93.1304H29.0408C29.25 93.1304 29.4507 93.2135 29.5986 93.3615C29.7465 93.5095 29.8296 93.7102 29.8296 93.9195V96.0677C29.8296 96.2769 29.9127 96.4777 30.0607 96.6256C30.2086 96.7736 30.4093 96.8568 30.6185 96.8568H40.216C40.3196 96.8568 40.4221 96.8772 40.5178 96.9168C40.6136 96.9565 40.7005 97.0146 40.7738 97.0879C40.847 97.1612 40.9051 97.2482 40.9447 97.3439C40.9844 97.4396 41.0048 97.5423 41.0048 97.6459V99.794C41.0048 100.003 40.9217 100.204 40.7738 100.352C40.6258 100.5 40.4252 100.583 40.216 100.583H34.3727C34.1635 100.583 33.9629 100.666 33.815 100.814C33.667 100.962 33.5839 101.163 33.5839 101.372V103.52C33.5839 103.73 33.5008 103.93 33.3529 104.078C33.2049 104.226 33.0043 104.31 32.7951 104.31H30.6477C30.4385 104.31 30.2378 104.393 30.0899 104.541C29.942 104.689 29.8589 104.889 29.8589 105.099V114.7C29.8589 114.909 29.942 115.11 30.0899 115.258C30.2378 115.406 30.4385 115.489 30.6477 115.489H32.7951C33.0043 115.489 33.2049 115.406 33.3529 115.258C33.5008 115.11 33.5839 114.909 33.5839 114.7V112.581C33.5839 112.371 33.667 112.171 33.815 112.023C33.9629 111.875 34.1635 111.792 34.3727 111.792H36.5201C36.7293 111.792 36.93 111.708 37.0779 111.56C37.2259 111.412 37.309 111.212 37.309 111.002V108.854C37.309 108.645 37.3921 108.444 37.54 108.296C37.688 108.148 37.8886 108.065 38.0978 108.065H40.2452C40.4544 108.065 40.655 108.148 40.803 108.296C40.9509 108.444 41.034 108.645 41.034 108.854V111.002C41.034 111.212 41.1171 111.412 41.2651 111.56C41.413 111.708 41.6136 111.792 41.8228 111.792H43.9702C44.1794 111.792 44.3801 111.708 44.528 111.56C44.676 111.412 44.7591 111.212 44.7591 111.002L44.7006 108.065Z" fill="#3F6CB3"/>
<path d="M110.963 108.065H108.815C108.38 108.065 108.027 108.418 108.027 108.854V111.002C108.027 111.438 108.38 111.791 108.815 111.791H110.963C111.399 111.791 111.752 111.438 111.752 111.002V108.854C111.752 108.418 111.399 108.065 110.963 108.065Z" fill="#3F6CB3"/>
<path d="M118.413 108.065H116.266C115.83 108.065 115.477 108.418 115.477 108.854V111.002C115.477 111.438 115.83 111.791 116.266 111.791H118.413C118.849 111.791 119.202 111.438 119.202 111.002V108.854C119.202 108.418 118.849 108.065 118.413 108.065Z" fill="#3F6CB3"/>
<path d="M40.1868 111.792H38.0394C37.6038 111.792 37.2506 112.145 37.2506 112.581V114.729C37.2506 115.165 37.6038 115.518 38.0394 115.518H40.1868C40.6225 115.518 40.9757 115.165 40.9757 114.729V112.581C40.9757 112.145 40.6225 111.792 40.1868 111.792Z" fill="#3F6CB3"/>
<path d="M75.2899 115.591H77.4373C77.6465 115.591 77.8472 115.508 77.9951 115.36C78.143 115.212 78.2261 115.011 78.2261 114.802V108.957C78.2261 108.747 78.143 108.547 77.9951 108.399C77.8472 108.251 77.6465 108.167 77.4373 108.167H75.2899C75.0807 108.167 74.8801 108.251 74.7321 108.399C74.5842 108.547 74.5011 108.747 74.5011 108.957V114.802C74.5011 115.011 74.5842 115.212 74.7321 115.36C74.8801 115.508 75.0807 115.591 75.2899 115.591Z" fill="#3F6CB3"/>
<path d="M92.323 111.792H82.7255C82.5163 111.792 82.3157 111.875 82.1677 112.023C82.0198 112.171 81.9367 112.371 81.9367 112.581V118.426C81.9367 118.635 81.8536 118.836 81.7057 118.984C81.5577 119.132 81.3571 119.215 81.1479 119.215H71.5504C71.3411 119.215 71.1405 119.298 70.9926 119.446C70.8446 119.594 70.7615 119.795 70.7615 120.004V122.152C70.7615 122.362 70.8446 122.562 70.9926 122.71C71.1405 122.858 71.3411 122.941 71.5504 122.941H88.598C88.8072 122.941 89.0078 122.858 89.1558 122.71C89.3037 122.562 89.3868 122.362 89.3868 122.152V119.975C89.3868 119.871 89.3664 119.769 89.3268 119.673C89.2871 119.577 89.229 119.49 89.1558 119.417C89.0825 119.344 88.9956 119.286 88.8998 119.246C88.8041 119.206 88.7016 119.186 88.598 119.186H86.4798C86.2706 119.186 86.07 119.103 85.922 118.955C85.7741 118.807 85.691 118.606 85.691 118.397V116.307C85.7092 116.111 85.8003 115.928 85.9463 115.796C86.0923 115.663 86.2827 115.59 86.4798 115.591H92.323C92.5322 115.591 92.7329 115.508 92.8808 115.36C93.0288 115.212 93.1119 115.011 93.1119 114.802V112.581C93.1119 112.371 93.0288 112.171 92.8808 112.023C92.7329 111.875 92.5322 111.792 92.323 111.792Z" fill="#3F6CB3"/>
<path d="M70.776 115.591V112.668C70.776 112.459 70.6929 112.258 70.545 112.11C70.3971 111.962 70.1964 111.879 69.9872 111.879H56.6647C56.4554 111.879 56.2548 111.962 56.1069 112.11C55.9589 112.258 55.8758 112.459 55.8758 112.668V114.816C55.8758 115.026 55.9589 115.226 56.1069 115.374C56.2548 115.522 56.4554 115.606 56.6647 115.606H62.5079C62.7171 115.606 62.9177 115.689 63.0657 115.837C63.2136 115.985 63.2967 116.185 63.2967 116.395V118.514C63.2967 118.723 63.2136 118.924 63.0657 119.072C62.9177 119.22 62.7171 119.303 62.5079 119.303H56.6647C56.4554 119.303 56.2548 119.22 56.1069 119.072C55.9589 118.924 55.8758 118.723 55.8758 118.514V116.307C55.8758 116.098 55.7927 115.897 55.6448 115.749C55.4968 115.601 55.2962 115.518 55.087 115.518H52.8812C52.672 115.518 52.4713 115.601 52.3234 115.749C52.1754 115.897 52.0923 116.098 52.0923 116.307V118.514C52.0923 118.723 52.0092 118.924 51.8613 119.072C51.7133 119.22 51.5127 119.303 51.3035 119.303H45.4603C45.2511 119.303 45.0504 119.386 44.9025 119.534C44.7545 119.682 44.6714 119.883 44.6714 120.092V122.24C44.6714 122.449 44.7545 122.65 44.9025 122.798C45.0504 122.946 45.2511 123.029 45.4603 123.029H66.2329C66.4421 123.029 66.6428 122.946 66.7907 122.798C66.9387 122.65 67.0218 122.449 67.0218 122.24V119.975C67.0218 119.871 67.0422 119.769 67.0818 119.673C67.1215 119.577 67.1796 119.49 67.2528 119.417C67.3261 119.344 67.413 119.286 67.5087 119.246C67.6044 119.206 67.707 119.186 67.8106 119.186H69.958C70.1672 119.186 70.3678 119.103 70.5158 118.955C70.6637 118.807 70.7468 118.606 70.7468 118.397L70.776 115.591Z" fill="#3F6CB3"/>
<path d="M122.138 115.591H116.295C116.191 115.591 116.089 115.611 115.993 115.651C115.897 115.691 115.81 115.749 115.737 115.822C115.664 115.895 115.606 115.982 115.566 116.078C115.526 116.174 115.506 116.276 115.506 116.38V118.514C115.506 118.723 115.423 118.924 115.275 119.072C115.127 119.22 114.926 119.303 114.717 119.303H112.57C112.36 119.303 112.16 119.386 112.012 119.534C111.864 119.682 111.781 119.883 111.781 120.092V122.24C111.781 122.449 111.864 122.65 112.012 122.798C112.16 122.946 112.36 123.029 112.57 123.029H118.413C118.622 123.029 118.823 122.946 118.971 122.798C119.119 122.65 119.202 122.449 119.202 122.24V119.975C119.202 119.871 119.222 119.769 119.262 119.673C119.301 119.577 119.36 119.49 119.433 119.417C119.506 119.344 119.593 119.286 119.689 119.246C119.784 119.206 119.887 119.186 119.991 119.186H122.138C122.341 119.207 122.543 119.148 122.704 119.023C122.865 118.898 122.971 118.715 123 118.514V116.307C122.991 116.203 122.961 116.102 122.913 116.01C122.864 115.918 122.798 115.836 122.718 115.769C122.638 115.703 122.545 115.653 122.446 115.622C122.346 115.591 122.242 115.581 122.138 115.591Z" fill="#3F6CB3"/>
<path d="M40.1867 119.244H34.3435C34.1343 119.244 33.9337 119.327 33.7857 119.475C33.6378 119.623 33.5547 119.824 33.5547 120.033V122.182C33.5547 122.391 33.6378 122.592 33.7857 122.74C33.9337 122.888 34.1343 122.971 34.3435 122.971H40.1867C40.396 122.971 40.5966 122.888 40.7445 122.74C40.8925 122.592 40.9756 122.391 40.9756 122.182V119.975C40.9608 119.776 40.8712 119.59 40.7248 119.454C40.5785 119.319 40.3862 119.244 40.1867 119.244Z" fill="#3F6CB3"/>
<path d="M99.7877 119.244H97.6404C97.2047 119.244 96.8515 119.598 96.8515 120.033V122.182C96.8515 122.617 97.2047 122.971 97.6404 122.971H99.7877C100.223 122.971 100.577 122.617 100.577 122.182V120.033C100.577 119.598 100.223 119.244 99.7877 119.244Z" fill="#3F6CB3"/>
<path d="M26.1193 0H0.0438843V26.0847H26.1193V0ZM22.3942 7.45277V22.3583H3.76894V3.72638H22.3942V7.45277Z" fill="#3F6CB3"/>
<path d="M14.9002 7.45278H11.1751C9.11784 7.45278 7.45007 9.12114 7.45007 11.1792V14.9055C7.45007 16.9636 9.11784 18.6319 11.1751 18.6319H14.9002C16.9575 18.6319 18.6252 16.9636 18.6252 14.9055V11.1792C18.6252 9.12114 16.9575 7.45278 14.9002 7.45278Z" fill="#3F6CB3"/>
<path d="M119.246 0H96.8953V26.0847H123V0H119.246ZM119.246 7.45277V22.3583H100.62V3.72638H119.246V7.45277Z" fill="#3F6CB3"/>
<path d="M111.752 7.45278H108.027C105.969 7.45278 104.302 9.12114 104.302 11.1792V14.9055C104.302 16.9636 105.969 18.6319 108.027 18.6319H111.752C113.809 18.6319 115.477 16.9636 115.477 14.9055V11.1792C115.477 9.12114 113.809 7.45278 111.752 7.45278Z" fill="#3F6CB3"/>
<path d="M0.0438843 96.8859V122.971H26.1193V96.8859H0.0438843ZM22.3942 104.339V119.244H3.76894V100.612H22.3942V104.339Z" fill="#3F6CB3"/>
<path d="M14.9002 104.339H11.1751C9.11784 104.339 7.45007 106.007 7.45007 108.065V111.791C7.45007 113.85 9.11784 115.518 11.1751 115.518H14.9002C16.9575 115.518 18.6252 113.85 18.6252 111.791V108.065C18.6252 106.007 16.9575 104.339 14.9002 104.339Z" fill="#3F6CB3"/>
</svg>
