<svg width="136" height="136" viewBox="0 0 136 136" fill="none" xmlns="http://www.w3.org/2000/svg">
<path d="M82.2803 60.1533C82.2803 60.1533 80.9019 58.5726 77.0488 57.7077C77.0175 57.7376 77.0488 61.1375 77.0488 61.1375L73.227 60.7498L68.81 65.8497L71.2848 60.5112L68.3715 60.4217L67.2437 66.3567L66.1473 60.4217L63.234 60.4814L65.6774 65.8199L61.2604 60.7498L57.4386 61.1375C57.4386 61.1375 57.5013 57.7376 57.4386 57.7077C53.5855 58.5428 52.1759 60.1235 52.1759 60.1235C49.1685 64.5673 48.4794 69.0409 48.4794 69.0111C54.7759 77.9285 66.5232 80.225 66.5232 80.225V77.7197L64.8629 76.0496L64.9882 75.632L66.1473 74.6777H67.2124H68.2775L69.4365 75.6619L69.5618 76.0496L67.9329 77.7197V80.225C67.9329 80.225 79.6802 77.9583 86.0081 69.0409C85.9767 69.0707 85.2876 64.5971 82.2803 60.1533ZM64.581 70.383C64.581 70.383 63.8292 71.0391 63.0773 71.397C61.511 72.083 60.5399 71.9935 59.8508 71.904C56.029 71.1286 54.1494 69.0409 53.8988 68.683C53.6169 68.3251 53.2723 67.9076 53.5542 67.669C54.306 66.8339 55.9976 65.969 56.7808 65.7006C57.7206 65.3725 58.3158 65.4918 58.6917 65.641C60.6652 66.4462 62.6075 68.176 63.8605 69.2497C64.8943 70.1444 64.581 70.383 64.581 70.383ZM80.5886 68.7129C80.3067 69.0707 78.4585 71.1584 74.6367 71.904C73.9475 71.9935 72.9451 72.083 71.4101 71.397C70.6583 71.069 69.9064 70.383 69.9064 70.383C69.9064 70.383 69.5932 70.1444 70.6269 69.2497L75.7957 65.641C76.203 65.4918 76.7982 65.3725 77.7066 65.7006C78.4898 65.9989 80.1814 66.8638 80.9332 67.6988C81.2152 67.9374 80.8706 68.355 80.5886 68.7129Z" fill="#3F6CB3"/>
<g clip-path="url(#clip0_1213:277)">
<path d="M48.6615 0.878342H46.1124H43.5632V3.42746H46.1124H48.6615H51.2106V0.878342H48.6615Z" fill="#3F6CB3"/>
<path d="M56.3088 0.878342H53.7597V3.42746H56.3088V0.878342Z" fill="#3F6CB3"/>
<path d="M61.407 0.878342H58.8579V3.42746H61.407V0.878342Z" fill="#3F6CB3"/>
<path d="M81.8 0.878342H79.2509V3.42746H81.8V0.878342Z" fill="#3F6CB3"/>
<path d="M53.7597 3.42746H51.2106V5.97658H53.7597V3.42746Z" fill="#3F6CB3"/>
<path d="M97.0947 3.42746V0.878342H94.5456H91.9965V3.42746H94.5456V5.97658V8.5257H97.0947V5.97658V3.42746Z" fill="#3F6CB3"/>
<path d="M102.193 3.42746H99.6439V5.97658H102.193V3.42746Z" fill="#3F6CB3"/>
<path d="M56.3088 5.97659H53.7597V8.52571H56.3088H58.8579V5.97659H56.3088Z" fill="#3F6CB3"/>
<path d="M79.2509 5.97659H76.7018V8.52571H79.2509V5.97659Z" fill="#3F6CB3"/>
<path d="M84.3492 5.97658H86.8983V3.42746H84.3492H81.8V5.97658V8.5257H84.3492V5.97658Z" fill="#3F6CB3"/>
<path d="M112.389 5.97658V3.42746H109.84V0.878342H107.291V3.42746V5.97658H109.84V8.5257H112.389V5.97658Z" fill="#3F6CB3"/>
<path d="M33.3668 11.0748H35.9159V8.5257H41.0141V0.878342H33.3668V3.42746H25.7194V0.878342H23.1703V11.0748H25.7194V8.5257H28.2685V5.97658H33.3668V8.5257H28.2685V13.6239H30.8176V11.0748H33.3668ZM35.9159 3.42746H38.465V5.97658H35.9159V3.42746Z" fill="#3F6CB3"/>
<path d="M84.3491 8.52571V11.0748H86.8982H89.4474V13.6239V16.1731H91.9965V18.7222H94.5456V16.1731H97.0947V18.7222H94.5456V21.2713H97.0947H99.6438V18.7222V16.1731V13.6239V11.0748V8.52571H97.0947V11.0748V13.6239H94.5456V11.0748H91.9965V8.52571H89.4474V5.97659H86.8982V8.52571H84.3491Z" fill="#3F6CB3"/>
<path d="M114.939 8.52571H112.389V11.0748H114.939V8.52571Z" fill="#3F6CB3"/>
<path d="M23.1703 11.0748H20.6212V13.624H23.1703V11.0748Z" fill="#3F6CB3"/>
<path d="M38.465 11.0748H35.9159V13.624H38.465V11.0748Z" fill="#3F6CB3"/>
<path d="M46.1124 11.0748H48.6615V8.52571H46.1124H43.5632V11.0748V13.6239H46.1124V11.0748Z" fill="#3F6CB3"/>
<path d="M58.858 11.0748H56.3088V13.624H58.858V11.0748Z" fill="#3F6CB3"/>
<path d="M107.291 13.6239V16.1731V18.7222H109.84V16.1731V13.6239V11.0748V8.52571H107.291H104.742V11.0748H107.291V13.6239Z" fill="#3F6CB3"/>
<path d="M33.3668 13.624H30.8176V16.1731V18.7222H33.3668V16.1731V13.624Z" fill="#3F6CB3"/>
<path d="M41.0141 13.624H38.465V16.1731H41.0141V13.624Z" fill="#3F6CB3"/>
<path d="M28.2685 16.1731H25.7194V18.7222H28.2685V16.1731Z" fill="#3F6CB3"/>
<path d="M46.1123 18.7222H48.6614V16.1731V13.624H46.1123V16.1731V18.7222Z" fill="#3F6CB3"/>
<path d="M69.0544 16.1731H66.5053V18.7222H69.0544V16.1731Z" fill="#3F6CB3"/>
<path d="M79.2509 16.1731H76.7018V18.7222H79.2509V16.1731Z" fill="#3F6CB3"/>
<path d="M81.8 18.7222H84.3491V16.1731V13.6239H81.8V11.0748V8.52571H79.2509V11.0748V13.6239V16.1731H81.8V18.7222Z" fill="#3F6CB3"/>
<path d="M89.4474 16.1731H86.8983V18.7222H89.4474V16.1731Z" fill="#3F6CB3"/>
<path d="M114.939 16.1731H112.389V18.7222H114.939V16.1731Z" fill="#3F6CB3"/>
<path d="M41.0141 21.2713V23.8204H38.465V26.3696V28.9187H41.0141V31.4678H43.5632H46.1123V34.0169V36.566H48.6614V34.0169V31.4678V28.9187V26.3696H46.1123V28.9187H43.5632V26.3696V23.8204H46.1123V21.2713H43.5632V18.7222V16.1731H41.0141V18.7222V21.2713Z" fill="#3F6CB3"/>
<path d="M91.9965 18.7222H89.4474V21.2713H91.9965V18.7222Z" fill="#3F6CB3"/>
<path d="M112.389 18.7222H109.84V21.2713H112.389V18.7222Z" fill="#3F6CB3"/>
<path d="M81.8 21.2713H79.2509V23.8205H81.8V21.2713Z" fill="#3F6CB3"/>
<path d="M114.939 23.8205H117.488H120.037V21.2713H117.488H114.939H112.389V23.8205H114.939Z" fill="#3F6CB3"/>
<path d="M2.77733 23.8204H0.22821V26.3696H2.77733V23.8204Z" fill="#3F6CB3"/>
<path d="M28.2685 23.8204H25.7194V26.3696H28.2685V23.8204Z" fill="#3F6CB3"/>
<path d="M30.8176 26.3696H33.3667H35.9158V23.8204V21.2713H38.465V18.7222V16.1731H35.9158V18.7222H33.3667V21.2713H30.8176H28.2685V23.8204H30.8176V26.3696Z" fill="#3F6CB3"/>
<path d="M97.0947 23.8204H94.5456V26.3696H97.0947V23.8204Z" fill="#3F6CB3"/>
<path d="M125.135 23.8204V21.2713H122.586V23.8204V26.3696H125.135V23.8204Z" fill="#3F6CB3"/>
<path d="M7.87558 28.9187V31.4678H10.4247V28.9187V26.3696H12.9738V23.8205H10.4247V21.2713H7.87558H5.32646V23.8205H7.87558V26.3696H5.32646H2.77734V28.9187H5.32646H7.87558Z" fill="#3F6CB3"/>
<path d="M20.6212 28.9187H23.1703V26.3696V23.8204H25.7194V21.2713V18.7222H23.1703V16.1731H20.6212V18.7222V21.2713H18.0721H15.5229V23.8204H18.0721V26.3696H15.5229V28.9187H18.0721H20.6212Z" fill="#3F6CB3"/>
<path d="M51.2106 28.9186H53.7597V31.4678H51.2106V34.0169H56.3088V21.2713H58.8579V23.8204H61.407V28.9186H58.8579V31.4678H63.9562V34.0169H69.0544V31.4678H71.6035V34.0169H74.1526V36.566H76.7018V31.4678H74.1526V28.9186H71.6035V26.3695H69.0544V28.9186H63.9562V23.8204H66.5053V26.3695H69.0544V23.8204H71.6035V26.3695H74.1526V23.8204H76.7018V18.7222H74.1526V16.1731H76.7018V11.0748H74.1526V8.5257H71.6035V11.0748H66.5053V5.97658H74.1526V3.42746H71.6035V0.878342H69.0544V3.42746H63.9562V5.97658H61.407V8.5257H58.8579V11.0748H61.407V18.7222H58.8579V16.1731H56.3088V18.7222H53.7597V13.6239H51.2106V21.2713H53.7597V23.8204H48.6614V26.3695H51.2106V28.9186ZM63.9562 16.1731V13.6239H71.6035V21.2713H63.9562V16.1731Z" fill="#3F6CB3"/>
<path d="M122.586 28.9186V26.3695H120.037H117.488V28.9186V31.4677H120.037V28.9186H122.586Z" fill="#3F6CB3"/>
<path d="M127.684 26.3695H125.135V28.9186H127.684V26.3695Z" fill="#3F6CB3"/>
<path d="M2.77733 28.9186H0.22821V31.4677V34.0169H2.77733V31.4677V28.9186Z" fill="#3F6CB3"/>
<path d="M38.465 28.9186H35.9159V31.4677H38.465V28.9186Z" fill="#3F6CB3"/>
<path d="M79.2509 28.9187V26.3696V23.8204H76.7018V26.3696H74.1526V28.9187H76.7018V31.4678H79.2509V28.9187Z" fill="#3F6CB3"/>
<path d="M112.389 28.9187V26.3696H109.84V23.8204H107.291V26.3696H104.742V23.8204H107.291V21.2713H104.742V13.624H102.193V21.2713H99.6438V23.8204H102.193V26.3696H99.6438V28.9187H102.193V36.566H104.742V39.1152H102.193V36.566H99.6438V34.0169H97.0947V31.4678H94.5456V26.3696H91.9965V23.8204H89.4474V21.2713H86.8982V18.7222H84.3491V23.8204H81.8V31.4678H84.3491V34.0169H86.8982V36.566H84.3491V39.1152H81.8V44.2134H89.4474V39.1152H94.5456V36.566H97.0947V39.1152H99.6438V41.6643H97.0947V44.2134H99.6438V46.7625H102.193V49.3116H99.6438V46.7625H97.0947V51.8607H99.6438V56.959H94.5456V59.5081H102.193V56.959H104.742V64.6063H107.291V59.5081H109.84V62.0572H112.389V64.6063H109.84V67.1555H112.389V74.8028H109.84V72.2537H107.291V69.7046H102.193V72.2537H104.742V74.8028H102.193V72.2537H99.6438V77.3519H97.0947V79.9011H91.9965V82.4502H94.5456V84.9993H91.9965V82.4502H89.4474V90.0975H91.9965V92.6467H84.3491V97.7449H74.1526V100.294H89.4474V95.1958H91.9965V97.7449H94.5456V100.294H89.4474V102.843H97.0947V100.294H99.6438V102.843H107.291V100.294H102.193V95.1958H97.0947V92.6467H94.5456V87.5484H97.0947V82.4502H99.6438V84.9993H102.193V87.5484H99.6438V90.0975H97.0947V92.6467H102.193V90.0975H104.742V97.7449H107.291V92.6467H109.84V87.5484H112.389V84.9993H114.939V82.4502H112.389V79.9011H109.84V77.3519H114.939V74.8028H125.135V77.3519H130.233V79.9011H125.135V82.4502H127.684V84.9993H125.135V82.4502H122.586V77.3519H120.037V79.9011H114.939V82.4502H117.488V84.9993H114.939V90.0975H117.488V87.5484H120.037V90.0975H122.586V87.5484H130.233V92.6467H132.782V87.5484H135.331V84.9993H132.782V74.8028H130.233V72.2537H125.135V59.5081H122.586V62.0572H117.488V59.5081H114.939V56.959H112.389V54.4099H114.939V51.8607H109.84V49.3116H112.389V46.7625H107.291V44.2134H102.193V41.6643H107.291V39.1152H109.84V36.566H107.291V34.0169H112.389V28.9187ZM84.3491 28.9187V26.3696H89.4474V28.9187H91.9965V31.4678H86.8982V28.9187H84.3491ZM89.4474 36.566V34.0169H91.9965V36.566H89.4474ZM104.742 87.5484V82.4502H107.291V87.5484H104.742ZM107.291 79.9011H102.193V77.3519H107.291V79.9011ZM120.037 64.6063H122.586V72.2537H114.939V64.6063H120.037ZM107.291 51.8607V54.4099H104.742V49.3116H107.291V51.8607ZM107.291 31.4678V28.9187H109.84V31.4678H107.291Z" fill="#3F6CB3"/>
<path d="M132.782 28.9187V26.3696H135.331V23.8204H132.782H130.233V26.3696V28.9187V31.4678H127.684V34.0169H125.135V31.4678V28.9187H122.586V31.4678H120.037V34.0169V36.566H117.488H114.939V39.1152H117.488H120.037V41.6643H122.586V39.1152H125.135V41.6643H127.684V39.1152V36.566H130.233V34.0169H132.782V31.4678V28.9187Z" fill="#3F6CB3"/>
<path d="M7.87558 31.4677H5.32646V34.0168H2.77734V36.566H5.32646H7.87558H10.4247V34.0168H7.87558V31.4677Z" fill="#3F6CB3"/>
<path d="M15.5229 31.4677V28.9186H12.9738V31.4677H10.4247V34.0169H12.9738H15.5229H18.072V31.4677H15.5229Z" fill="#3F6CB3"/>
<path d="M41.0141 31.4677H38.465V34.0169H41.0141V31.4677Z" fill="#3F6CB3"/>
<path d="M81.8 31.4677H79.2509V34.0169H81.8V31.4677Z" fill="#3F6CB3"/>
<path d="M20.6211 34.0168H18.072V36.566H20.6211V34.0168Z" fill="#3F6CB3"/>
<path d="M25.7194 34.0168V31.4677H28.2685H30.8176V28.9186V26.3695H28.2685V28.9186H25.7194H23.1703V31.4677H20.6212V34.0168H23.1703V36.566H25.7194H28.2685V34.0168H25.7194Z" fill="#3F6CB3"/>
<path d="M43.5632 34.0168H41.0141V36.566H43.5632V34.0168Z" fill="#3F6CB3"/>
<path d="M84.3492 34.0168H81.8V36.566H84.3492V34.0168Z" fill="#3F6CB3"/>
<path d="M114.939 34.0168H112.389V36.566H114.939V34.0168Z" fill="#3F6CB3"/>
<path d="M18.0721 39.1151V36.566H15.5229H12.9738V39.1151H15.5229H18.0721Z" fill="#3F6CB3"/>
<path d="M56.3088 36.566H53.7597V39.1151H56.3088V36.566Z" fill="#3F6CB3"/>
<path d="M81.8 36.566H79.2509V39.1151H81.8V36.566Z" fill="#3F6CB3"/>
<path d="M132.782 39.1151H135.331V36.5659V34.0168H132.782V36.5659V39.1151Z" fill="#3F6CB3"/>
<path d="M23.1703 41.6642H25.7194V44.2133H28.2685V46.7624H30.8176V41.6642H35.9159V44.2133H33.3667V49.3116H35.9159V46.7624H38.465V44.2133H41.0141V46.7624H43.5632V51.8607H46.1123V44.2133H43.5632V41.6642H41.0141V39.1151H38.465V34.0168H35.9159V31.4677H30.8176V36.566H28.2685V39.1151H18.072V41.6642H23.1703ZM35.9159 36.566V39.1151H33.3667V36.566H35.9159Z" fill="#3F6CB3"/>
<path d="M48.6614 41.6642V44.2133V46.7624H51.2106V44.2133H53.7597H56.3088H58.8579H61.407H63.9562V46.7624H66.5053H69.0544H71.6035H74.1526H76.7018V44.2133H74.1526V41.6642H76.7018V39.1151H74.1526H71.6035V41.6642V44.2133H69.0544H66.5053V41.6642H63.9562V39.1151H66.5053H69.0544H71.6035V36.5659V34.0168H69.0544V36.5659H66.5053H63.9562V34.0168H61.407H58.8579H56.3088V36.5659H58.8579H61.407V39.1151V41.6642H58.8579H56.3088H53.7597V39.1151H51.2106V36.5659H48.6614V39.1151V41.6642Z" fill="#3F6CB3"/>
<path d="M97.0947 39.1151H94.5456V41.6642H97.0947V39.1151Z" fill="#3F6CB3"/>
<path d="M7.87554 41.6642H5.32642V44.2133H7.87554V41.6642Z" fill="#3F6CB3"/>
<path d="M10.4247 44.2133H7.87555V46.7625H10.4247H12.9738V49.3116H15.5229H18.072V46.7625H15.5229V44.2133H18.072V41.6642H15.5229H12.9738V39.1151H10.4247H7.87555V41.6642H10.4247V44.2133Z" fill="#3F6CB3"/>
<path d="M132.782 41.6642H130.233V44.2133H132.782V41.6642Z" fill="#3F6CB3"/>
<path d="M2.77733 44.2133H0.22821V46.7625H2.77733H5.32645V44.2133H2.77733Z" fill="#3F6CB3"/>
<path d="M23.1703 44.2133H20.6211V46.7625V49.3116H18.072V51.8607H20.6211H23.1703V49.3116V46.7625H25.7194V44.2133H23.1703Z" fill="#3F6CB3"/>
<path d="M81.8 44.2133H79.2509V46.7625H81.8V44.2133Z" fill="#3F6CB3"/>
<path d="M130.233 44.2133H127.684V46.7625H130.233V44.2133Z" fill="#3F6CB3"/>
<path d="M7.87554 46.7625H5.32642V49.3116H7.87554V46.7625Z" fill="#3F6CB3"/>
<path d="M28.2685 46.7625H25.7194V49.3116H28.2685V46.7625Z" fill="#3F6CB3"/>
<path d="M89.4474 49.3116H91.9965H94.5456V46.7625H91.9965V44.2133H89.4474V46.7625V49.3116Z" fill="#3F6CB3"/>
<path d="M18.0721 51.8607H15.5229V54.4099H18.0721V51.8607Z" fill="#3F6CB3"/>
<path d="M43.5632 54.4098V51.8607H41.0141V49.3116H38.465V51.8607V54.4098H35.9158V51.8607H33.3667H30.8176V49.3116H28.2685V51.8607V54.4098V56.9589H30.8176V59.508H33.3667V56.9589H35.9158V59.508H38.465V56.9589H41.0141V54.4098H43.5632Z" fill="#3F6CB3"/>
<path d="M125.135 54.4098H127.684H130.233V56.9589H127.684H125.135V59.5081H127.684H130.233H132.782H135.331V56.9589H132.782V54.4098H135.331V51.8607H132.782V49.3116H130.233H127.684V46.7625H125.135V44.2133H122.586V46.7625H120.037V44.2133H117.488H114.939V46.7625H117.488V49.3116H120.037H122.586V51.8607H125.135V54.4098Z" fill="#3F6CB3"/>
<path d="M2.77733 54.4098H0.22821V56.9589V59.5081H2.77733V56.9589H5.32645V54.4098H2.77733Z" fill="#3F6CB3"/>
<path d="M20.6211 54.4098H18.072V56.9589H20.6211V54.4098Z" fill="#3F6CB3"/>
<path d="M91.9965 54.4098H89.4474V56.9589V59.5081H91.9965V56.9589H94.5456V54.4098H91.9965Z" fill="#3F6CB3"/>
<path d="M125.135 56.959V54.4099H122.586V51.8607H120.037V54.4099V56.959H122.586H125.135Z" fill="#3F6CB3"/>
<path d="M7.87554 56.9589H5.32642V59.5081H7.87554V56.9589Z" fill="#3F6CB3"/>
<path d="M15.5229 59.508H18.072V56.9589H15.5229H12.9738V54.4098V51.8607V49.3116H10.4247H7.87555V51.8607H10.4247V54.4098V56.9589V59.508H12.9738H15.5229Z" fill="#3F6CB3"/>
<path d="M120.037 56.9589H117.488V59.5081H120.037V56.9589Z" fill="#3F6CB3"/>
<path d="M10.4247 59.5081H7.87555V62.0572H10.4247V59.5081Z" fill="#3F6CB3"/>
<path d="M25.7194 59.5081V56.9589V54.4098H23.1703V56.9589V59.5081V62.0572H25.7194V59.5081Z" fill="#3F6CB3"/>
<path d="M91.9965 62.0572H89.4474V64.6063H91.9965V67.1555H94.5456V69.7046H97.0947V72.2537H99.6439V69.7046H102.193V67.1555V64.6063H99.6439V62.0572H97.0947H94.5456V59.5081H91.9965V62.0572Z" fill="#3F6CB3"/>
<path d="M130.233 62.0572H127.684V64.6063V67.1554H130.233V64.6063V62.0572Z" fill="#3F6CB3"/>
<path d="M132.782 64.6063V67.1554H130.233V69.7046H132.782V72.2537H135.331V69.7046V67.1554V64.6063V62.0572H132.782V64.6063Z" fill="#3F6CB3"/>
<path d="M18.0721 67.1555H15.5229V69.7046H18.0721V67.1555Z" fill="#3F6CB3"/>
<path d="M109.84 67.1555H107.291V69.7046H109.84V67.1555Z" fill="#3F6CB3"/>
<path d="M120.037 67.1555H117.488V69.7046H120.037V67.1555Z" fill="#3F6CB3"/>
<path d="M89.4474 69.7046V72.2537H91.9965H94.5456V69.7046H91.9965H89.4474Z" fill="#3F6CB3"/>
<path d="M5.32645 74.8028V77.3519H7.87557V82.4501H12.9738V84.9992H10.4247V87.5484H15.5229V84.9992H18.072V82.4501H15.5229V79.901H10.4247V77.3519H15.5229V74.8028H18.072V77.3519H20.6212V74.8028H25.7194V69.7045H23.1703V67.1554H25.7194V69.7045H28.2685V67.1554H33.3668V64.6063H38.465V67.1554H43.5632V69.7045H46.1123V64.6063H43.5632V62.0572H46.1123V56.9589H41.0141V62.0572H30.8176V64.6063H23.1703V62.0572H10.4247V64.6063H7.87557V67.1554H5.32645V62.0572H0.22821V67.1554H2.77733V72.2536H5.32645V74.8028ZM15.5229 64.6063H20.6212V72.2536H12.9738V64.6063H15.5229ZM7.87557 69.7045H10.4247V74.8028H7.87557V69.7045Z" fill="#3F6CB3"/>
<path d="M91.9965 74.8028H89.4474V77.3519V79.9011H91.9965V77.3519V74.8028Z" fill="#3F6CB3"/>
<path d="M18.0721 77.3519H15.5229V79.901H18.0721V77.3519Z" fill="#3F6CB3"/>
<path d="M5.32645 79.9011V77.352H2.77733V74.8028V72.2537H0.22821V74.8028V77.352V79.9011H2.77733V82.4502V84.9993H5.32645V82.4502V79.9011Z" fill="#3F6CB3"/>
<path d="M20.6211 79.901H18.072V82.4501H20.6211V79.901Z" fill="#3F6CB3"/>
<path d="M25.7194 79.901H23.1703V82.4501H25.7194V79.901Z" fill="#3F6CB3"/>
<path d="M33.3668 79.901H30.8176V82.4501H33.3668V79.901Z" fill="#3F6CB3"/>
<path d="M43.5632 82.4502V79.9011H46.1123V74.8028H43.5632V69.7046H35.9159V67.1555H33.3667V69.7046H30.8176V72.2537H33.3667V77.3519H38.465V82.4502H43.5632ZM35.9159 74.8028V72.2537H38.465V74.8028H35.9159Z" fill="#3F6CB3"/>
<path d="M38.465 82.4501H35.9159V84.9992H38.465V82.4501Z" fill="#3F6CB3"/>
<path d="M46.1124 82.4501H43.5632V84.9992H46.1124V82.4501Z" fill="#3F6CB3"/>
<path d="M2.77733 84.9992H0.22821V87.5483H2.77733V84.9992Z" fill="#3F6CB3"/>
<path d="M7.87554 84.9992H5.32642V87.5483H7.87554V84.9992Z" fill="#3F6CB3"/>
<path d="M20.6211 87.5484V90.0975H18.072V92.6466H20.6211H23.1703H25.7194H28.2685V90.0975H25.7194V87.5484H23.1703V84.9992V82.4501H20.6211V84.9992V87.5484Z" fill="#3F6CB3"/>
<path d="M25.7194 87.5483H28.2685V84.9992H30.8177V82.4501H28.2685H25.7194V84.9992V87.5483Z" fill="#3F6CB3"/>
<path d="M43.5632 87.5483V84.9992H41.0141H38.465V87.5483H41.0141H43.5632Z" fill="#3F6CB3"/>
<path d="M18.0721 87.5484H15.5229V90.0975H18.0721V87.5484Z" fill="#3F6CB3"/>
<path d="M38.465 87.5484H35.9159V90.0975H38.465V87.5484Z" fill="#3F6CB3"/>
<path d="M46.1124 87.5484H43.5632V90.0975H46.1124V87.5484Z" fill="#3F6CB3"/>
<path d="M56.3088 90.0975H53.7597V92.6466H56.3088V90.0975Z" fill="#3F6CB3"/>
<path d="M69.0544 90.0975H66.5053V92.6466H69.0544V90.0975Z" fill="#3F6CB3"/>
<path d="M76.7018 90.0975V92.6466V95.1957H79.2509H81.8V92.6466V90.0975H79.2509H76.7018Z" fill="#3F6CB3"/>
<path d="M114.939 90.0975H112.389V92.6466H114.939V90.0975Z" fill="#3F6CB3"/>
<path d="M18.072 95.1957V92.6466H15.5229H12.9738V90.0975H10.4247V87.5484H7.87557V90.0975H5.32645H2.77733V92.6466H0.22821V95.1957V97.7449H2.77733V95.1957H5.32645V92.6466H7.87557V95.1957V97.7449H10.4247H12.9738H15.5229V95.1957H18.072Z" fill="#3F6CB3"/>
<path d="M71.6036 95.1957H74.1527V92.6466H71.6036H69.0544V95.1957H71.6036Z" fill="#3F6CB3"/>
<path d="M122.586 92.6466H120.037V95.1957H122.586V92.6466Z" fill="#3F6CB3"/>
<path d="M125.135 92.6466V95.1957H127.684H130.233V92.6466H127.684H125.135Z" fill="#3F6CB3"/>
<path d="M33.3667 95.1957H35.9159V92.6466H33.3667V90.0975H30.8176V92.6466V95.1957V97.7448H33.3667V95.1957Z" fill="#3F6CB3"/>
<path d="M56.3088 97.7448H58.858V95.1957H61.4071V97.7448H63.9562V95.1957H66.5053V92.6466H63.9562V90.0975H61.4071V92.6466H58.858H56.3088V95.1957V97.7448Z" fill="#3F6CB3"/>
<path d="M130.233 95.1957V97.7448H127.684V100.294H132.782V102.843H130.233V105.392H127.684V107.941H125.135V110.49H122.586V113.04H120.037V110.49H117.488V113.04H112.389V110.49H114.939V105.392H112.389V107.941H109.84V110.49H107.291V113.04H109.84V115.589H112.389V120.687H109.84V115.589H107.291V113.04H102.193V115.589H104.742V118.138H107.291V120.687H104.742V125.785H107.291V123.236H112.389V133.432H114.939V130.883H120.037V133.432H122.586V135.982H125.135V133.432H127.684V130.883H122.586V128.334H114.939V125.785H122.586V128.334H127.684V125.785H125.135V123.236H127.684V120.687H130.233V123.236H132.782V125.785H135.331V120.687H132.782V118.138H135.331V113.04H132.782V115.589H130.233V118.138H127.684V115.589H125.135V113.04H127.684V115.589H130.233V113.04H132.782V110.49H130.233V107.941H132.782V105.392H135.331V92.6466H132.782V95.1957H130.233ZM122.586 118.138V123.236H114.939V115.589H122.586V118.138Z" fill="#3F6CB3"/>
<path d="M18.0721 97.7448H15.5229V100.294H18.0721V97.7448Z" fill="#3F6CB3"/>
<path d="M35.9159 97.7448H33.3668V100.294H35.9159V97.7448Z" fill="#3F6CB3"/>
<path d="M51.2106 100.294V97.7448H53.7597V95.1957V92.6466H51.2106H48.6614V90.0975H46.1123V92.6466H43.5632V90.0975H41.0141H38.465V92.6466H41.0141V95.1957H43.5632H46.1123H48.6614V97.7448H46.1123H43.5632H41.0141H38.465V100.294H41.0141H43.5632H46.1123V102.843H48.6614V100.294H51.2106Z" fill="#3F6CB3"/>
<path d="M56.3088 97.7448H53.7597V100.294H56.3088V97.7448Z" fill="#3F6CB3"/>
<path d="M66.5053 97.7448H63.9562V100.294H66.5053V97.7448Z" fill="#3F6CB3"/>
<path d="M0.22821 100.294V102.843H2.77733H5.32645V100.294V97.7448H2.77733V100.294H0.22821Z" fill="#3F6CB3"/>
<path d="M20.6211 100.294H18.072V102.843H20.6211V100.294Z" fill="#3F6CB3"/>
<path d="M33.3668 100.294H30.8176V102.843H33.3668V100.294Z" fill="#3F6CB3"/>
<path d="M53.7597 100.294H51.2106V102.843H48.6614V105.392H51.2106H53.7597V102.843V100.294Z" fill="#3F6CB3"/>
<path d="M58.8579 100.294V102.843V105.392H61.407V102.843H63.9562V100.294H61.407H58.8579Z" fill="#3F6CB3"/>
<path d="M69.0544 102.843V105.392H71.6035V107.941H74.1527V110.49H76.7018V107.941H79.2509H81.8H84.3491H86.8983V105.392H84.3491V102.843H81.8H79.2509H76.7018H74.1527H71.6035V100.294V97.7448H69.0544V100.294H66.5053V102.843H69.0544Z" fill="#3F6CB3"/>
<path d="M109.84 102.843H112.389H114.939V100.294H112.389V97.7449H114.939V100.294H117.488V102.843H114.939V105.392H117.488V107.941H120.037H122.586H125.135V105.392H122.586V102.843H125.135V105.392H127.684V102.843V100.294H125.135H122.586H120.037V97.7449H117.488V95.1957H114.939H112.389H109.84V97.7449H107.291V100.294H109.84V102.843Z" fill="#3F6CB3"/>
<path d="M15.5229 105.392H18.072V102.843H15.5229H12.9738V100.294H10.4247V102.843V105.392H12.9738H15.5229Z" fill="#3F6CB3"/>
<path d="M23.1703 102.843H20.6212V105.392H23.1703V102.843Z" fill="#3F6CB3"/>
<path d="M35.9159 102.843H33.3668V105.392H35.9159V102.843Z" fill="#3F6CB3"/>
<path d="M99.6439 102.843H97.0947V105.392H99.6439V102.843Z" fill="#3F6CB3"/>
<path d="M109.84 102.843H107.291V105.392H109.84V102.843Z" fill="#3F6CB3"/>
<path d="M30.8176 107.941V110.49H33.3668V107.941V105.392H30.8176V107.941Z" fill="#3F6CB3"/>
<path d="M63.9562 105.392H61.407V107.941H63.9562V105.392Z" fill="#3F6CB3"/>
<path d="M69.0544 105.392H66.5053V107.941H69.0544V105.392Z" fill="#3F6CB3"/>
<path d="M102.193 105.392H99.6439V107.941H102.193V105.392Z" fill="#3F6CB3"/>
<path d="M58.8579 107.941H56.3088V105.392H53.7597V107.941H51.2106H48.6614V110.49H51.2106H53.7597H56.3088V113.04H58.8579V110.49V107.941Z" fill="#3F6CB3"/>
<path d="M104.742 107.941H102.193V110.49H104.742H107.291V107.941H104.742Z" fill="#3F6CB3"/>
<path d="M35.9159 113.04V115.589V118.138V120.687H38.465V118.138H41.0141V115.589V113.04H38.465V110.49H41.0141V107.941H38.465H35.9159V110.49H33.3668V113.04H35.9159Z" fill="#3F6CB3"/>
<path d="M43.5632 110.49H41.0141V113.04H43.5632V110.49Z" fill="#3F6CB3"/>
<path d="M79.2509 110.49H76.7018V113.04V115.589H79.2509V113.04V110.49Z" fill="#3F6CB3"/>
<path d="M10.4247 113.04H7.87555V115.589H10.4247V113.04Z" fill="#3F6CB3"/>
<path d="M18.0721 113.04H15.5229V115.589H18.0721V113.04Z" fill="#3F6CB3"/>
<path d="M28.2685 113.04V110.49V107.941V105.392V102.843V100.294H30.8176V97.7449H28.2685V95.1957H25.7194H23.1703V97.7449V100.294H25.7194V102.843V105.392V107.941V110.49H23.1703V107.941H20.6212V105.392H18.072V107.941H15.5229H12.9738H10.4247V105.392H7.87557H5.32645H2.77733V107.941H0.22821V110.49H2.77733V113.04H5.32645H7.87557V110.49H5.32645V107.941H7.87557V110.49H10.4247H12.9738H15.5229H18.072V113.04H20.6212V115.589V118.138V120.687H23.1703V123.236H25.7194V120.687V118.138H23.1703V115.589V113.04H25.7194V115.589V118.138H28.2685V115.589V113.04Z" fill="#3F6CB3"/>
<path d="M56.3088 113.04H53.7597V115.589V118.138H56.3088V120.687H58.8579V118.138V115.589H56.3088V113.04Z" fill="#3F6CB3"/>
<path d="M51.2105 118.138V115.589H48.6614V113.04H46.1123V115.589V118.138H48.6614H51.2105Z" fill="#3F6CB3"/>
<path d="M69.0544 118.138H66.5053V120.687H69.0544V118.138Z" fill="#3F6CB3"/>
<path d="M86.8982 118.138H84.3491V115.589H79.2509V118.138H81.8V120.687H79.2509V118.138H74.1527V113.04H66.5053V107.941H63.9562V110.49H61.4071V113.04H58.8579V115.589H61.4071V120.687H58.8579V123.236H61.4071V125.785H58.8579V128.334H56.3088V125.785H53.7597V130.883H56.3088V135.982H61.4071V133.432H58.8579V130.883H63.9562V128.334H69.0544V125.785H71.6035V128.334H69.0544V130.883H71.6035V135.982H74.1527V128.334H76.7018V123.236H74.1527V120.687H76.7018V123.236H81.8V125.785H84.3491V123.236H86.8982V118.138ZM71.6035 123.236H63.9562V115.589H71.6035V123.236Z" fill="#3F6CB3"/>
<path d="M120.037 118.138H117.488V120.687H120.037V118.138Z" fill="#3F6CB3"/>
<path d="M38.465 120.687V123.236V125.785H41.0141H43.5632V123.236H46.1123V120.687H43.5632V118.138H41.0141V120.687H38.465Z" fill="#3F6CB3"/>
<path d="M51.2106 120.687H48.6614V123.236H51.2106H53.7597H56.3088V120.687H53.7597H51.2106Z" fill="#3F6CB3"/>
<path d="M33.3667 125.785V128.334H35.9159V125.785V123.236H33.3667V120.687V118.138H30.8176H28.2685V120.687H30.8176V123.236H28.2685V125.785H30.8176H33.3667Z" fill="#3F6CB3"/>
<path d="M102.193 123.236V120.687H99.6439V123.236V125.785H102.193V123.236Z" fill="#3F6CB3"/>
<path d="M130.233 123.236H127.684V125.785H130.233V123.236Z" fill="#3F6CB3"/>
<path d="M28.2685 128.334V125.785H25.7194H23.1703H20.6212V128.334V130.883H23.1703H25.7194V128.334H28.2685Z" fill="#3F6CB3"/>
<path d="M51.2106 125.785H48.6614V128.334H51.2106V125.785Z" fill="#3F6CB3"/>
<path d="M104.742 125.785H102.193V128.334H104.742V125.785Z" fill="#3F6CB3"/>
<path d="M130.233 128.334H127.684V130.883H130.233V133.433V135.982H132.782V133.433V130.883H135.331V128.334H132.782V125.785H130.233V128.334Z" fill="#3F6CB3"/>
<path d="M30.8177 128.334H28.2685V130.883H25.7194V133.432H28.2685H30.8177V130.883H33.3668V128.334H30.8177Z" fill="#3F6CB3"/>
<path d="M48.6614 128.334H46.1123V130.883H48.6614V128.334Z" fill="#3F6CB3"/>
<path d="M81.8 128.334H79.2509V130.883H81.8V128.334Z" fill="#3F6CB3"/>
<path d="M109.84 128.334H107.291V130.883H102.193V128.334H99.6439V125.785H97.0948V123.236H94.5456V118.138H97.0948V113.04H102.193V110.49H99.6439V107.941H97.0948V110.49H91.9965V105.392H89.4474V110.49H81.8V113.04H84.3492V115.589H89.4474V118.138H91.9965V123.236H86.8983V130.883H84.3492V135.982H89.4474V125.785H94.5456V128.334H97.0948V130.883H91.9965V135.982H94.5456V133.433H109.84V128.334ZM91.9965 113.04H94.5456V115.589H91.9965V113.04Z" fill="#3F6CB3"/>
<path d="M35.9159 130.883H33.3668V133.432H35.9159H38.465V130.883H35.9159Z" fill="#3F6CB3"/>
<path d="M53.7597 130.883H51.2106V133.432H53.7597V130.883Z" fill="#3F6CB3"/>
<path d="M63.9562 130.883V133.432V135.982H66.5053H69.0544V133.432V130.883H66.5053H63.9562Z" fill="#3F6CB3"/>
<path d="M79.2509 130.883H76.7018V133.432H79.2509V130.883Z" fill="#3F6CB3"/>
<path d="M46.1123 133.432V130.883H43.5632V128.334H41.0141V130.883V133.432H38.465V135.982H41.0141H43.5632H46.1123H48.6614H51.2106V133.432H48.6614H46.1123Z" fill="#3F6CB3"/>
<path d="M81.8 133.432H79.2509V135.982H81.8V133.432Z" fill="#3F6CB3"/>
<path d="M112.389 133.432H109.84V135.982H112.389V133.432Z" fill="#3F6CB3"/>
<path d="M120.037 133.432H117.488V135.982H120.037V133.432Z" fill="#3F6CB3"/>
<path d="M15.3955 0.878342H0.22821V18.7222H18.072V0.878342H15.3955ZM15.3955 16.0456H2.91149V3.56162H15.4022L15.3955 16.0456Z" fill="#3F6CB3"/>
<path d="M132.655 0.878342H117.488V18.7222H135.332V0.878342H132.655ZM132.655 16.0456H120.171V3.56162H132.662L132.655 16.0456Z" fill="#3F6CB3"/>
<path d="M15.3955 118.138H0.22821V135.982H18.072V118.138H15.3955ZM15.3955 133.298H2.91149V120.821H15.4022L15.3955 133.298Z" fill="#3F6CB3"/>
<path d="M12.9738 5.97659H5.32642V13.624H12.9738V5.97659Z" fill="#3F6CB3"/>
<path d="M130.233 5.97659H122.586V13.624H130.233V5.97659Z" fill="#3F6CB3"/>
<path d="M12.9738 123.236H5.32642V130.883H12.9738V123.236Z" fill="#3F6CB3"/>
</g>
<defs>
<clipPath id="clip0_1213:277">
<rect width="135.103" height="135.103" fill="white" transform="translate(0.22821 0.878342)"/>
</clipPath>
</defs>
</svg>
