<svg width="339" height="195" viewBox="0 0 339 195" fill="none" xmlns="http://www.w3.org/2000/svg">
<g opacity="0.5">
<mask id="mask0" style="mask-type:alpha" maskUnits="userSpaceOnUse" x="0" y="0" width="339" height="195">
<path d="M76.6898 194.756L0.243011 0.61792H338.542L307.788 194.756H76.6898Z" fill="#FFD733"/>
</mask>
<g mask="url(#mask0)">
<path d="M46.8829 -7.58996C46.4285 -7.52393 45.9964 -7.33706 45.6249 -7.04606C45.2534 -6.75505 44.9543 -6.36895 44.7541 -5.92223C44.554 -5.47552 44.459 -4.98215 44.4778 -4.48603C44.4967 -3.98992 44.6287 -3.50654 44.862 -3.07911C46.7425 1.01302 52.6823 -2.10849 50.6086 -6.12449C50.4555 -6.48821 50.2371 -6.81525 49.9661 -7.08648C49.695 -7.35771 49.3768 -7.5677 49.0299 -7.70415C48.683 -7.84061 48.3145 -7.90079 47.9459 -7.8812C47.5772 -7.8616 47.2158 -7.76255 46.8829 -7.58996Z" fill="#F8AC39"/>
<path d="M34.8801 0.21356C34.4245 0.271155 33.9911 0.458232 33.6238 0.755722C33.2565 1.05321 32.9686 1.45056 32.7889 1.90754C31.2951 7.12262 40.1699 5.52383 37.1648 1.07008C36.9012 0.670379 36.5496 -0.14807 34.8801 0.21356Z" fill="#F8AC39"/>
<path d="M22.543 8.18851C19.1337 8.9308 23.492 13.4416 24.4937 10.187C24.5525 9.90094 24.5418 9.60332 24.4626 9.32313C24.3834 9.04295 24.2385 8.78985 24.0419 8.58848C23.8454 8.38711 23.604 8.24432 23.3413 8.17422C23.0786 8.10412 22.8035 8.10908 22.543 8.18851Z" fill="#F8AC39"/>
<path d="M78.0065 -9.79789C72.91 -7.57101 76.2491 1.24138 81.5213 -1.5565C82.4574 -2.10871 83.1646 -3.02575 83.4996 -4.12175C83.8346 -5.21774 83.7722 -6.41074 83.3252 -7.45882C82.8782 -8.50691 82.0801 -9.33171 81.0924 -9.76606C80.1048 -10.2004 79.0016 -10.2118 78.0065 -9.79789Z" fill="#F8AC39"/>
<path d="M65.9157 -2.18454C60.2745 -0.0908957 64.8436 7.33206 68.9208 4.97194C69.7327 4.49804 70.3482 3.70782 70.6426 2.76113C70.937 1.81443 70.8882 0.781897 70.5064 -0.127419C70.1245 -1.03674 69.438 -1.755 68.5857 -2.13691C67.7334 -2.51883 66.7792 -2.53584 65.9157 -2.18454Z" fill="#F8AC39"/>
<path d="M54.1061 5.52378C51.5754 6.09478 51.0833 7.8269 51.4172 9.19729C52.665 14.184 60.2042 11.2909 56.9179 6.55165C56.5955 6.09843 56.1563 5.75888 55.6558 5.57594C55.1553 5.393 54.6161 5.37481 54.1061 5.52378Z" fill="#F8AC39"/>
<path d="M41.3122 13.5559C40.9878 13.6121 40.6805 13.7511 40.4155 13.9612C40.1504 14.1713 39.9351 14.4465 39.7875 14.7644C39.64 15.0822 39.5643 15.4335 39.5666 15.7892C39.5689 16.1449 39.6492 16.495 39.8008 16.8106C40.0525 17.4466 40.5272 17.9483 41.1204 18.2053C41.7136 18.4623 42.3768 18.4535 42.964 18.1809C43.5513 17.9083 44.0145 17.3943 44.2518 16.7518C44.4891 16.1093 44.481 15.391 44.2293 14.755C44.1239 14.457 43.9617 14.1866 43.7531 13.9614C43.5444 13.7362 43.2942 13.5611 43.0187 13.4479C42.7433 13.3347 42.4489 13.2859 42.1548 13.3045C41.8607 13.3231 41.5736 13.4087 41.3122 13.5559Z" fill="#F8AC39"/>
<path d="M29.8363 21.3404C29.0103 21.131 28.0789 22.254 28.0789 22.825C29.1157 26.9362 33.2105 21.8923 29.8363 21.3404Z" fill="#F8AC39"/>
<path d="M109.938 -12.234C101.749 -9.68357 108.181 2.74508 114.806 -2.71743C119.042 -6.29567 115 -13.7186 109.938 -12.234Z" fill="#F8AC39"/>
<path d="M97.0391 -4.39236C96.392 -4.20004 95.7949 -3.84785 95.2946 -3.36345C94.7944 -2.87906 94.4048 -2.27573 94.1561 -1.6007C93.9075 -0.925675 93.8067 -0.197365 93.8618 0.526937C93.9169 1.25124 94.1262 1.95182 94.4734 2.57372C97.4961 8.4169 105.879 3.39219 102.944 -2.26066C102.688 -2.82308 102.332 -3.32487 101.895 -3.73705C101.459 -4.14923 100.952 -4.4636 100.402 -4.66188C99.8533 -4.86015 99.2733 -4.93838 98.6959 -4.89212C98.1186 -4.84586 97.5554 -4.67601 97.0391 -4.39236Z" fill="#F8AC39"/>
<path d="M85.3171 3.01155C78.1645 5.18133 84.7724 15.7066 89.658 10.1109C91.679 7.80787 90.0796 1.60309 85.3171 3.01155Z" fill="#F8AC39"/>
<path d="M72.8749 10.8532C69.8873 11.7858 69.3601 14.1649 70.7133 16.3918C72.9628 20.3697 79.5003 17.0961 76.8818 12.3949C76.5194 11.6351 75.9037 11.0531 75.1596 10.7668C74.4155 10.4805 73.5987 10.5114 72.8749 10.8532Z" fill="#F8AC39"/>
<path d="M60.4327 18.6758C56.0216 20.0843 59.3254 26.0226 62.4887 24.3858C63.1091 24.0335 63.5878 23.446 63.8333 22.7355C64.0788 22.0249 64.0739 21.2413 63.8194 20.5345C63.5649 19.8277 63.0788 19.2473 62.4539 18.9044C61.8291 18.5615 61.1094 18.4801 60.4327 18.6758Z" fill="#F8AC39"/>
<path d="M48.447 26.4793C46.3732 26.841 46.1448 28.2304 46.4611 29.2773C47.4628 32.6271 51.7333 30.8189 50.9249 28.1733C50.3977 26.4223 49.6244 26.27 48.447 26.4793Z" fill="#F8AC39"/>
<path d="M140.552 -13.6806C139.795 -13.3861 139.106 -12.9144 138.536 -12.2991C137.965 -11.6839 137.527 -10.9403 137.252 -10.121C136.977 -9.30162 136.872 -8.42661 136.944 -7.55828C137.016 -6.68996 137.264 -5.84952 137.67 -5.09666C142.398 4.05829 154.541 -7.87558 146.141 -13.5094C145.299 -14.0474 144.344 -14.3453 143.367 -14.3752C142.39 -14.4052 141.421 -14.1662 140.552 -13.6806Z" fill="#F8AC39"/>
<path d="M128.373 -6.23861C127.667 -5.96187 127.025 -5.52166 126.492 -4.94867C125.959 -4.37569 125.547 -3.68373 125.286 -2.92094C125.025 -2.15815 124.921 -1.34282 124.981 -0.531919C125.041 0.278982 125.263 1.06601 125.632 1.77439C129.006 8.30276 138.707 2.66896 135.632 -3.68812C135.323 -4.3845 134.886 -5.00573 134.349 -5.51418C133.812 -6.02263 133.185 -6.40769 132.507 -6.64614C131.828 -6.88458 131.112 -6.97142 130.402 -6.90136C129.691 -6.8313 129.001 -6.60587 128.373 -6.23861Z" fill="#F8AC39"/>
<path d="M116.985 0.974923C108.409 3.29697 115.632 16.0492 121.748 9.74918C122.259 9.27249 122.665 8.67782 122.937 8.00885C123.208 7.33988 123.337 6.61354 123.316 5.8833C123.294 5.15307 123.121 4.43749 122.81 3.78901C122.499 3.14052 122.058 2.57566 121.52 2.13592C120.925 1.52643 120.196 1.09258 119.402 0.875947C118.608 0.659319 117.776 0.667129 116.985 0.898716" fill="#F8AC39"/>
<path d="M104.104 8.81658C100.73 10.0157 100.115 12.8706 101.327 15.421C104.051 21.131 112.293 16.7343 109.64 11.1386C109.431 10.5807 109.118 10.075 108.722 9.65265C108.325 9.23033 107.853 8.90025 107.335 8.68276C106.816 8.46527 106.262 8.36504 105.707 8.38804C105.151 8.41103 104.606 8.55687 104.104 8.81658Z" fill="#F8AC39"/>
<path d="M92.3645 16.2395C91.5536 16.3567 90.7878 16.7122 90.1501 17.2673C87.2328 19.97 91.1343 28.0781 96.0901 23.434C98.3045 21.3594 96.758 15.1165 92.3645 16.2395Z" fill="#F8AC39"/>
<path d="M79.9221 24.0622C74.0172 25.5849 78.6744 34.1117 83.0679 30.1528C84.8253 28.592 83.9113 23.0154 79.9221 24.0622Z" fill="#F8AC39"/>
<path d="M67.3039 31.98C65.072 32.6652 64.7382 34.3401 65.4411 35.9199C67.0579 39.441 72.4707 36.9476 70.4848 33.2742C70.3577 32.9601 70.1737 32.6767 69.9438 32.4408C69.7139 32.2049 69.4429 32.0213 69.1464 31.9006C68.85 31.78 68.5342 31.725 68.2177 31.7386C67.9013 31.7522 67.5905 31.8343 67.3039 31.98Z" fill="#F8AC39"/>
<path d="M55.3186 39.7835C54.0005 39.9548 53.0867 40.9446 53.3151 42.1246C54.0357 45.6267 59.2727 43.5902 57.0408 40.4687C56.8459 40.1758 56.5738 39.9536 56.2601 39.8313C55.9465 39.709 55.606 39.6923 55.2834 39.7835" fill="#F8AC39"/>
<path d="M172.589 -15.4506C164.453 -12.1198 170.006 0.860779 177.721 -3.30748C184.751 -7.11412 180.006 -18.534 172.589 -15.4506Z" fill="#F8AC39"/>
<path d="M160.762 -8.21806C159.446 -7.79426 158.241 -7.03755 157.248 -6.01026C154.805 -2.79366 156.738 4.93381 162.52 4.34378C167.37 3.82989 171.078 -3.06007 165.859 -7.3806C165.095 -7.94065 164.224 -8.30679 163.311 -8.45179C162.398 -8.59679 161.467 -8.51691 160.587 -8.21806" fill="#F8AC39"/>
<path d="M148.39 -0.680962C140.675 1.69818 144.876 13.0609 151.185 10.8911C155.367 9.46363 157.072 4.8576 154.014 0.898707C153.276 -0.0719841 153.206 0.0803182 153.1 -0.0148475C152.403 -0.478498 151.623 -0.777482 150.811 -0.892273C149.999 -1.00707 149.174 -0.935034 148.39 -0.680962Z" fill="#F8AC39"/>
<path d="M135.28 7.06545C128.778 10.0156 133.523 20.7122 139.99 17.0579C146.457 13.4035 141.255 4.36275 135.28 7.06545Z" fill="#F8AC39"/>
<path d="M123.681 14.3933C116.019 16.7534 121.924 28.3827 128.163 23.0724C131.379 20.3507 128.831 12.7945 123.681 14.3933Z" fill="#F8AC39"/>
<path d="M110.975 22.1208C110.204 22.2959 109.496 22.707 108.935 23.3053C108.373 23.9036 107.982 24.6639 107.808 25.4959C107.634 26.3279 107.684 27.1965 107.953 27.9984C108.222 28.8003 108.697 29.5018 109.323 30.0195C112.838 33.4455 120.289 27.7546 115.21 22.806C114.61 22.3258 113.91 22.0122 113.172 21.8928C112.433 21.7733 111.679 21.8516 110.975 22.1208Z" fill="#F8AC39"/>
<path d="M99.0601 29.6388C92.7159 31.5422 97.7245 40.659 102.575 36.4907C104.701 34.5874 103.682 28.2685 99.0601 29.6388Z" fill="#F8AC39"/>
<path d="M86.7935 37.3664C81.4158 38.6416 85.2469 46.5404 89.412 43.3047C91.2748 41.8392 90.6949 36.4528 86.7935 37.3664Z" fill="#F8AC39"/>
<path d="M73.9997 45.3983C73.6502 45.4647 73.3202 45.6197 73.0365 45.8507C72.7529 46.0816 72.5236 46.382 72.3676 46.7273C72.2117 47.0725 72.1334 47.4529 72.1391 47.8372C72.1449 48.2215 72.2343 48.5988 72.4004 48.9384C73.8942 52.2502 78.7799 49.7569 77.0928 46.4832C76.8017 45.9099 76.3194 45.4784 75.7447 45.2768C75.1699 45.0752 74.5459 45.1186 73.9997 45.3983Z" fill="#F8AC39"/>
<path d="M62.0142 53.2019C60.2568 53.4874 60.1161 54.6484 60.5554 55.6953C62.4183 60.13 66.3726 52.4787 62.0142 53.2019Z" fill="#F8AC39"/>
<path d="M204.258 -17.0305C203.344 -16.7754 202.497 -16.2919 201.787 -15.6188C201.076 -14.9457 200.521 -14.1018 200.165 -13.1545C199.81 -12.2072 199.665 -11.1829 199.74 -10.1637C199.816 -9.14456 200.112 -8.15887 200.603 -7.28551C204.715 0.670353 216.156 -5.95323 212.36 -13.7568C211.679 -15.3473 210.446 -16.5828 208.929 -17.1957C207.413 -17.8085 205.734 -17.7491 204.258 -17.0305Z" fill="#F8AC39"/>
<path d="M191.816 -9.68363C183.679 -6.35283 189.25 6.62781 196.947 2.47859C203.977 -1.32805 199.249 -12.748 191.816 -9.68363Z" fill="#F8AC39"/>
<path d="M180.164 -2.54627C170.252 0.346771 178.002 15.2688 185.805 8.35981C190.656 4.05832 185.629 -4.14506 180.164 -2.54627Z" fill="#F8AC39"/>
<path d="M167.353 5.00999C166.447 5.23645 165.609 5.70607 164.915 6.37556C164.222 7.04505 163.695 7.89288 163.383 8.8409C163.072 9.78892 162.985 10.8066 163.132 11.8002C163.279 12.7938 163.655 13.7315 164.224 14.5266C168.302 20.7504 176.526 14.4124 174.575 8.81662C174.349 8.04049 173.979 7.32239 173.488 6.70618C172.997 6.08996 172.395 5.5885 171.719 5.23234C171.043 4.87617 170.308 4.67276 169.557 4.63453C168.806 4.5963 168.056 4.72408 167.353 5.00999Z" fill="#F8AC39"/>
<path d="M154.998 12.547C145.965 15.5162 154.295 28.8395 160.674 21.7591C163.557 18.5425 160.85 10.6247 154.998 12.547Z" fill="#F8AC39"/>
<path d="M142.819 19.9891C134.648 22.5015 141.255 34.3591 147.494 29.0299C150.605 26.3843 148.531 18.219 142.819 19.9891Z" fill="#F8AC39"/>
<path d="M130.289 27.6214C123.541 29.7912 128.25 39.5362 133.698 36.4337C138.109 33.9214 135.456 25.9274 130.289 27.6214Z" fill="#F8AC39"/>
<path d="M117.39 35.463C116.859 35.6705 116.375 35.9987 115.971 36.4256C115.567 36.8525 115.252 37.3682 115.047 37.938C114.842 38.5078 114.752 39.1186 114.783 39.7291C114.815 40.3396 114.966 40.9357 115.228 41.4775C117.864 46.5593 125.245 42.2388 122.662 37.2331C122.16 36.2624 121.333 35.5375 120.352 35.208C119.371 34.8786 118.311 34.9699 117.39 35.463Z" fill="#F8AC39"/>
<path d="M105.492 42.9812C100.501 44.8845 103.928 52.0219 108.111 49.8521C111.626 47.9488 109.868 41.3443 105.492 42.9812Z" fill="#F8AC39"/>
<path d="M93.2256 50.6896C88.7969 52.098 92.1185 58.0554 95.2818 56.3995C95.871 56.0269 96.3181 55.4387 96.5426 54.741C96.767 54.0432 96.754 53.2815 96.5061 52.5931C96.2582 51.9047 95.7916 51.3348 95.1902 50.9858C94.5888 50.6368 93.8921 50.5318 93.2256 50.6896Z" fill="#F8AC39"/>
<path d="M81.5038 58.5882C77.7606 58.9879 79.5356 63.8985 81.7323 63.4798C84.4036 62.9849 84.5266 58.2647 81.5038 58.5882Z" fill="#F8AC39"/>
<path d="M68.991 66.6964C67.8311 66.6964 67.2336 67.6291 67.6906 68.5998C68.9735 71.9877 72.2422 66.5251 68.991 66.6964Z" fill="#F8AC39"/>
<path d="M224.046 -11.0921C215.259 -8.25617 220.531 4.51505 227.561 1.96461C235.733 -0.947467 231.726 -13.5664 224.046 -11.0921Z" fill="#F8AC39"/>
<path d="M211.586 -3.74536C207.281 -2.35594 205.172 2.63084 208.405 6.93234C212.834 12.7945 223.853 5.75223 218.036 -1.91813C217.256 -2.89128 216.226 -3.59169 215.078 -3.93053C213.93 -4.26937 212.715 -4.23138 211.586 -3.82145" fill="#F8AC39"/>
<path d="M199.32 3.52536C198.001 3.93464 196.795 4.68599 195.805 5.71422C193.362 8.93082 195.295 16.6773 201.077 16.0683C205.927 15.5734 209.636 8.68333 204.416 4.34377C203.65 3.78816 202.779 3.4262 201.866 3.28454C200.953 3.14287 200.023 3.22515 199.144 3.52536" fill="#F8AC39"/>
<path d="M186.684 10.9674C185.779 11.1938 184.94 11.6635 184.247 12.3329C183.553 13.0024 183.026 13.8503 182.715 14.7983C182.403 15.7463 182.317 16.7639 182.464 17.7576C182.611 18.7512 182.986 19.6888 183.556 20.484C187.615 26.6888 195.858 20.3507 193.907 14.774C193.68 13.9979 193.31 13.2798 192.819 12.6636C192.328 12.0473 191.726 11.5459 191.051 11.1897C190.375 10.8336 189.639 10.6301 188.888 10.5919C188.138 10.5537 187.388 10.6815 186.684 10.9674Z" fill="#F8AC39"/>
<path d="M174.505 18.4093C165.613 21.0549 172.748 34.1688 179.566 28.2114C182.853 25.3565 180.55 16.6012 174.505 18.4093Z" fill="#F8AC39"/>
<path d="M161.342 26.1558C160.653 26.3931 160.021 26.7945 159.494 27.3305C158.966 27.8664 158.556 28.5234 158.293 29.2533C158.03 29.9832 157.921 30.7676 157.975 31.5489C158.028 32.3303 158.242 33.0888 158.601 33.769C161.905 40.1642 170.78 34.2829 167.792 28.5159C167.509 27.9056 167.117 27.3618 166.639 26.9156C166.161 26.4695 165.607 26.1298 165.008 25.9159C164.409 25.702 163.777 25.618 163.148 25.669C162.519 25.72 161.905 25.9047 161.342 26.2128" fill="#F8AC39"/>
<path d="M149.164 33.5977C148.515 33.7877 147.916 34.1383 147.414 34.6217C146.911 35.1051 146.52 35.7083 146.269 36.3836C146.019 37.0589 145.916 37.788 145.97 38.5134C146.024 39.2388 146.233 39.9407 146.58 40.5639C149.603 46.4261 157.986 41.3822 155.068 35.7294C154.811 35.1687 154.453 34.6687 154.017 34.258C153.58 33.8472 153.073 33.5339 152.525 33.3358C151.976 33.1378 151.397 33.0589 150.82 33.1038C150.243 33.1488 149.68 33.3166 149.164 33.5977Z" fill="#F8AC39"/>
<path d="M137.424 41.0017C129.744 43.1715 136.545 54.3249 141.782 48.101C143.54 45.9503 142.046 39.7074 137.424 41.0017Z" fill="#F8AC39"/>
<path d="M124.736 48.7481C118.848 50.6514 123.312 58.2647 127.389 56.0949C131.027 54.1916 129.41 47.2635 124.736 48.7481Z" fill="#F8AC39"/>
<path d="M112.821 56.2663C108.251 57.4083 110.237 64.146 113.998 63.0231C117.759 61.9001 117.056 55.2005 112.821 56.2663Z" fill="#F8AC39"/>
<path d="M100.378 64.0889C98.6209 64.5076 97.6894 65.6687 98.1287 67.2865C99.2886 71.5499 106.055 68.6949 102.716 64.6599C102.403 64.3569 102.025 64.1454 101.615 64.0455C101.206 63.9455 100.781 63.9605 100.378 64.0889Z" fill="#F8AC39"/>
<path d="M87.8304 72.0257C86.6178 72.3683 85.8796 73.32 86.4596 74.6904C86.575 74.9491 86.7363 75.1807 86.9343 75.3718C87.1323 75.563 87.3632 75.71 87.6137 75.8046C87.8642 75.8991 88.1296 75.9394 88.3944 75.9229C88.6592 75.9065 88.9184 75.8336 89.1572 75.7086C89.3961 75.5836 89.6099 75.409 89.7865 75.1946C89.963 74.9801 90.0988 74.73 90.1861 74.4587C90.2734 74.1874 90.3105 73.9002 90.2953 73.6134C90.2801 73.3265 90.2129 73.0458 90.0975 72.7871C89.8874 72.3629 89.5367 72.0406 89.1161 71.8852C88.6954 71.7299 88.236 71.7529 87.8304 71.9496" fill="#F8AC39"/>
<path d="M76.7939 81.39C76.8252 81.0999 76.7607 80.807 76.6117 80.5634C76.4628 80.3198 76.2391 80.1411 75.9802 80.0591C75.7213 79.977 75.4438 79.9969 75.1971 80.1151C74.9504 80.2333 74.7504 80.4421 74.6323 80.7047C74.601 80.9949 74.6655 81.2878 74.8144 81.5314C74.9634 81.775 75.1871 81.9536 75.446 82.0357C75.7049 82.1178 75.9823 82.0979 76.229 81.9797C76.4757 81.8615 76.6758 81.6527 76.7939 81.39Z" fill="#F8AC39"/>
<path d="M255.837 -12.0057C251.532 -10.6163 249.423 -5.62963 252.657 -1.32813C257.085 4.53408 268.104 -2.52727 262.287 -10.1786C261.51 -11.1559 260.48 -11.8593 259.331 -12.1984C258.182 -12.5376 256.965 -12.497 255.837 -12.0819" fill="#F8AC39"/>
<path d="M243.29 -4.84919C242.228 -4.57245 241.256 -3.98578 240.48 -3.15277C239.705 -2.31976 239.155 -1.27234 238.89 -0.124473C238.626 1.02339 238.657 2.22787 238.98 3.35793C239.303 4.488 239.906 5.5004 240.724 6.28516C245.135 10.8912 252.393 5.54288 251.268 0.232631C251.081 -0.693512 250.716 -1.56684 250.198 -2.33076C249.679 -3.09468 249.019 -3.73224 248.258 -4.20224C247.498 -4.67225 246.655 -4.96416 245.784 -5.05922C244.913 -5.15429 244.033 -5.05031 243.202 -4.75405" fill="#F8AC39"/>
<path d="M231.023 2.47848C226.454 3.96306 224.45 9.50169 228.475 13.5177C233.29 18.3331 243.342 10.3011 236.629 3.58243C235.868 2.8796 234.948 2.40724 233.963 2.21338C232.979 2.01952 231.964 2.111 231.023 2.47848Z" fill="#F8AC39"/>
<path d="M217.579 10.0918C216.823 10.3914 216.136 10.8666 215.568 11.4841C214.999 12.1015 214.562 12.8463 214.288 13.6661C214.013 14.4859 213.907 15.3608 213.978 16.2296C214.049 17.0983 214.294 17.9397 214.697 18.6948C219.424 27.8307 231.55 15.8969 223.168 10.2631C222.325 9.72513 221.371 9.42715 220.394 9.39719C219.416 9.36723 218.448 9.60623 217.579 10.0918Z" fill="#F8AC39"/>
<path d="M206.279 17.0009C198.582 19.399 202.764 30.7618 209.056 28.592C213.256 27.1645 214.96 22.5585 211.92 18.5996C211.164 17.6289 211.094 17.7812 210.989 17.686C210.291 17.2225 209.512 16.9222 208.701 16.8042C207.89 16.6862 207.065 16.7532 206.279 17.0009Z" fill="#F8AC39"/>
<path d="M193.661 24.4618C184.628 27.431 192.94 40.7543 199.32 33.6739C202.219 30.4573 199.495 22.5395 193.661 24.4618Z" fill="#F8AC39"/>
<path d="M180.674 32.1132C179.982 32.3475 179.348 32.7472 178.819 33.2826C178.289 33.8181 177.878 34.4756 177.614 35.2066C177.351 35.9376 177.243 36.7234 177.298 37.5057C177.353 38.2881 177.57 39.047 177.932 39.7264C181.236 46.1216 190.111 40.2403 187.123 34.4733C186.84 33.8629 186.448 33.3192 185.97 32.873C185.493 32.4269 184.938 32.0871 184.339 31.8732C183.74 31.6592 183.108 31.5754 182.479 31.6264C181.85 31.6774 181.237 31.8621 180.674 32.1702" fill="#F8AC39"/>
<path d="M168.671 39.4409C161.43 41.82 167.124 52.4024 172.8 48.3484C177.264 45.1508 173.697 37.804 168.671 39.4409Z" fill="#F8AC39"/>
<path d="M156.474 46.8829C153.188 47.9297 152.555 50.5372 153.346 52.7641C155.596 59.1021 165.332 54.7816 161.202 48.5007C160.689 47.7033 159.948 47.1122 159.092 46.8195C158.237 46.5268 157.317 46.5491 156.474 46.8829Z" fill="#F8AC39"/>
<path d="M143.768 54.6294C138.391 56.6279 142.134 64.6599 146.791 62.2427C147.672 61.7726 148.352 60.9543 148.691 59.9569C149.031 58.9594 149.004 57.8588 148.617 56.8821C148.229 55.9054 147.51 55.1271 146.607 54.708C145.705 54.2888 144.689 54.2607 143.768 54.6294Z" fill="#F8AC39"/>
<path d="M131.871 62.1474C125.966 63.6701 130.605 72.1969 135.016 68.238C136.774 66.6773 135.843 61.1196 131.871 62.1474Z" fill="#F8AC39"/>
<path d="M118.989 69.9891C118.562 70.1954 118.182 70.5024 117.878 70.8876C117.574 71.2728 117.353 71.7267 117.232 72.2161C116.441 78.1164 125.439 75.5469 122.768 70.9789C122.396 70.3164 121.797 69.8404 121.102 69.6549C120.407 69.4694 119.673 69.5896 119.059 69.9891" fill="#F8AC39"/>
<path d="M107.337 77.5835C105.264 77.9641 105.035 79.3535 105.351 80.4003C106.353 83.7502 110.624 81.942 109.815 79.2773C109.306 77.5453 108.515 77.3741 107.337 77.5835Z" fill="#F8AC39"/>
<path d="M95.1763 85.5012C94.3328 85.2918 93.4189 86.4148 93.4189 86.9668C94.4558 91.097 98.5681 86.0532 95.1763 85.5012Z" fill="#F8AC39"/>
<path d="M82.1539 94.8465C84.7549 94.6372 81.0292 92.239 82.1539 94.8465V94.8465Z" fill="#F8AC39"/>
<path d="M275.257 -5.85803C265.345 -2.71756 274.325 11.8429 281.32 4.07734C281.836 3.45136 282.229 2.71731 282.474 1.92066C282.718 1.12401 282.81 0.281571 282.742 -0.55479C282.675 -1.39115 282.45 -2.20371 282.081 -2.9423C281.713 -3.68089 281.208 -4.3298 280.599 -4.84922C279.875 -5.49467 279.009 -5.92665 278.086 -6.10338C277.162 -6.28011 276.212 -6.19564 275.327 -5.85803" fill="#F8AC39"/>
<path d="M262.709 1.29845C258.263 2.7069 256.136 8.58811 260.617 12.3186C261.94 13.2399 263.529 13.6017 265.081 13.3349C266.634 13.068 268.042 12.1913 269.035 10.8721C269.507 10.2077 269.847 9.44546 270.035 8.63268C270.223 7.81989 270.254 6.97395 270.127 6.14747C270 5.32098 269.718 4.5316 269.297 3.82838C268.876 3.12517 268.327 2.52323 267.682 2.05982C266.961 1.53213 266.139 1.18932 265.277 1.0574C264.415 0.925484 263.537 1.00789 262.709 1.29845Z" fill="#F8AC39"/>
<path d="M250.161 8.47402C249.256 8.70048 248.418 9.1701 247.724 9.83959C247.03 10.5091 246.503 11.3568 246.192 12.3048C245.88 13.2528 245.794 14.2706 245.941 15.2642C246.088 16.2579 246.463 17.1955 247.033 17.9906C251.092 24.2144 259.335 17.8764 257.384 12.2807C257.157 11.5045 256.787 10.7864 256.296 10.1702C255.805 9.554 255.204 9.05253 254.528 8.69637C253.852 8.34021 253.116 8.1368 252.366 8.09857C251.615 8.06033 250.865 8.18812 250.161 8.47402Z" fill="#F8AC39"/>
<path d="M237.895 15.8018C236.672 16.0714 235.572 16.7842 234.774 17.8226C233.976 18.8609 233.529 20.1629 233.507 21.5135C233.484 22.8641 233.887 24.1826 234.65 25.2515C235.412 26.3204 236.489 27.0758 237.701 27.393C242.411 28.7063 247.543 22.4825 243.518 17.3625C242.79 16.5902 241.887 16.0392 240.9 15.7652C239.912 15.4912 238.876 15.5038 237.895 15.8018Z" fill="#F8AC39"/>
<path d="M224.45 23.415C223.746 23.6937 223.105 24.1354 222.574 24.7092C222.043 25.2831 221.633 25.9753 221.374 26.7379C221.115 27.5005 221.012 28.315 221.073 29.1249C221.134 29.9349 221.357 30.7208 221.726 31.428C225.101 37.9564 234.784 32.3226 231.726 25.9655C231.417 25.2666 230.98 24.643 230.442 24.1328C229.903 23.6226 229.275 23.2366 228.594 22.998C227.913 22.7594 227.195 22.6732 226.483 22.7449C225.77 22.8166 225.079 23.0446 224.45 23.415Z" fill="#F8AC39"/>
<path d="M212.184 30.6476C205.682 33.5978 210.426 44.2944 216.894 40.64C223.361 36.9857 218.159 27.9259 212.184 30.6476Z" fill="#F8AC39"/>
<path d="M200.532 37.7851C192.36 40.2975 198.951 52.1742 205.207 46.8258C208.318 44.1802 206.244 36.015 200.532 37.7851Z" fill="#F8AC39"/>
<path d="M187.633 45.6077C186.983 45.7991 186.384 46.1517 185.881 46.6374C185.379 47.1231 184.988 47.7287 184.739 48.4063C184.49 49.0839 184.39 49.8149 184.447 50.5415C184.504 51.2681 184.716 51.9705 185.067 52.5929C188.09 58.4361 196.473 53.4113 193.555 47.7584C193.031 46.6251 192.114 45.7627 191.004 45.3597C189.894 44.9566 188.682 45.0458 187.633 45.6077Z" fill="#F8AC39"/>
<path d="M175.454 53.0497C174.683 53.2206 173.973 53.6287 173.411 54.2251C172.848 54.8215 172.456 55.581 172.282 56.4126C172.107 57.2441 172.158 58.1123 172.428 58.9135C172.697 59.7146 173.175 60.4146 173.802 60.9295C177.317 64.3554 184.786 58.6835 179.707 53.7349C179.103 53.2545 178.4 52.9411 177.659 52.8217C176.918 52.7023 176.161 52.7805 175.454 53.0497Z" fill="#F8AC39"/>
<path d="M163.276 60.4916C160.763 61.348 159.304 63.6892 160.956 66.6012C163.557 71.2644 170.955 67.2674 167.722 62.0143C167.28 61.2158 166.585 60.6199 165.765 60.3394C164.946 60.0588 164.06 60.1129 163.276 60.4916Z" fill="#F8AC39"/>
<path d="M150.569 68.2191C145.543 70.2366 149.744 77.0695 153.557 74.8997C154.179 74.3606 154.613 73.6088 154.789 72.7674C154.964 71.9261 154.871 71.0451 154.524 70.2688C154.177 69.4924 153.596 68.8669 152.878 68.4945C152.16 68.1221 151.345 68.025 150.569 68.2191Z" fill="#F8AC39"/>
<path d="M138.795 75.6421C136.282 76.213 135.79 77.9451 136.124 79.3345C137.354 84.3021 144.911 81.4091 141.624 76.6698C141.301 76.213 140.858 75.8712 140.354 75.6881C139.85 75.505 139.307 75.489 138.795 75.6421Z" fill="#F8AC39"/>
<path d="M126.581 83.3695C126.123 83.4245 125.686 83.6079 125.313 83.9016C124.94 84.1953 124.644 84.5892 124.454 85.0444C122.978 90.2595 131.853 88.6607 128.848 84.226C128.584 83.8263 128.233 83.0078 126.581 83.3695Z" fill="#F8AC39"/>
<path d="M114.191 91.1921C112.434 91.4776 112.293 92.6386 112.733 93.6854C114.49 98.1201 118.532 90.4688 114.191 91.1921Z" fill="#F8AC39"/>
<path d="M102.909 100.48C102.955 100.181 102.898 99.8742 102.749 99.6175C102.6 99.3608 102.37 99.1722 102.101 99.0877C101.832 99.0031 101.544 99.0284 101.291 99.1589C101.038 99.2893 100.838 99.5157 100.73 99.7951C100.683 100.094 100.74 100.401 100.889 100.658C101.038 100.915 101.269 101.103 101.538 101.188C101.807 101.272 102.095 101.247 102.348 101.117C102.6 100.986 102.8 100.76 102.909 100.48Z" fill="#F8AC39"/>
<path d="M282.058 7.73173C273.025 10.7009 281.355 24.024 287.734 16.9437C290.616 13.7461 287.893 5.80938 282.058 7.73173Z" fill="#F8AC39"/>
<path d="M269.51 14.9072C261.268 17.5909 267.401 30.0005 274.22 24.8996C279.176 21.1882 274.993 13.1181 269.51 14.9072Z" fill="#F8AC39"/>
<path d="M256.786 22.1778C249.335 25.0899 254.888 35.9389 261.145 32.3797C266.821 29.125 262.902 19.7415 256.786 22.1778Z" fill="#F8AC39"/>
<path d="M244.678 29.3153C236.489 31.8848 242.921 44.2944 249.546 38.8319C253.781 35.2346 249.757 27.8117 244.678 29.3153Z" fill="#F8AC39"/>
<path d="M232.411 36.5669C223.818 38.889 231.058 51.6413 237.174 45.3413C237.685 44.8646 238.091 44.2699 238.363 43.601C238.634 42.932 238.763 42.2057 238.741 41.4754C238.719 40.7452 238.547 40.0296 238.236 39.3811C237.925 38.7326 237.484 38.1678 236.945 37.728C236.35 37.1201 235.621 36.6873 234.827 36.4707C234.033 36.2542 233.202 36.2611 232.411 36.4908" fill="#F8AC39"/>
<path d="M219.952 43.9138C212.289 46.2739 218.194 57.9222 224.433 52.6119C227.631 49.8902 225.101 42.334 219.952 43.9138Z" fill="#F8AC39"/>
<path d="M207.333 51.3747C200.602 53.5445 205.312 63.3085 210.743 60.2061C215.171 57.6747 212.5 49.6808 207.333 51.3747Z" fill="#F8AC39"/>
<path d="M195.137 58.8166C187.457 60.9674 194.258 72.1399 199.478 65.897C201.235 63.7273 199.759 57.5034 195.137 58.8166Z" fill="#F8AC39"/>
<path d="M182.15 66.468C176.772 68.4855 180.516 76.4985 185.173 74.0813C186.053 73.6112 186.733 72.793 187.073 71.7955C187.413 70.798 187.386 69.6973 186.998 68.7206C186.61 67.7439 185.891 66.9657 184.989 66.5465C184.087 66.1274 183.071 66.0993 182.15 66.468Z" fill="#F8AC39"/>
<path d="M169.795 74.0052C164.769 76.0227 168.987 82.8365 172.8 80.6668C173.416 80.124 173.843 79.3719 174.013 78.5327C174.184 77.6935 174.087 76.8165 173.738 76.0445C173.39 75.2725 172.811 74.6509 172.095 74.2806C171.379 73.9103 170.569 73.8132 169.795 74.0052Z" fill="#F8AC39"/>
<path d="M158.126 81.409C155.596 81.999 155.104 83.712 155.437 85.1014C156.685 90.0691 164.224 87.1951 160.938 82.4368C160.616 81.9836 160.177 81.6441 159.676 81.4611C159.176 81.2782 158.636 81.26 158.126 81.409Z" fill="#F8AC39"/>
<path d="M145.174 89.2508C144.824 89.3199 144.494 89.4774 144.211 89.7103C143.927 89.9433 143.698 90.2453 143.543 90.5918C143.387 90.9384 143.309 91.3197 143.314 91.7051C143.32 92.0904 143.409 92.4689 143.575 92.81C145.051 96.1027 149.954 93.6283 148.267 90.3737C147.979 89.797 147.499 89.3602 146.925 89.1518C146.351 88.9433 145.725 88.9788 145.174 89.2508Z" fill="#F8AC39"/>
<path d="M133.083 96.883C131.888 97.2256 131.15 98.1773 131.73 99.5667C131.963 100.089 132.378 100.49 132.884 100.681C133.39 100.872 133.945 100.837 134.428 100.585C134.91 100.333 135.28 99.883 135.457 99.3351C135.633 98.7872 135.601 98.1858 135.368 97.6634C135.161 97.2311 134.808 96.9014 134.383 96.7421C133.958 96.5827 133.493 96.6059 133.083 96.8069" fill="#F8AC39"/>
<path d="M121.098 104.687C118.62 105.01 120.219 108.132 121.801 106.914C121.994 106.757 122.136 106.538 122.207 106.288C122.278 106.038 122.275 105.771 122.197 105.523C122.119 105.276 121.97 105.062 121.773 104.912C121.575 104.761 121.339 104.683 121.098 104.687Z" fill="#F8AC39"/>
<path d="M108.655 112.509L107.952 112.909L108.339 113.651C109.019 113.436 109.124 113.055 108.655 112.509Z" fill="#F8AC39"/>
<path d="M288.49 21.5117C287.676 21.7488 286.938 22.2231 286.356 22.8831C285.774 23.543 285.371 24.3633 285.189 25.2545C285.008 26.1458 285.056 27.0737 285.328 27.9374C285.6 28.801 286.086 29.5673 286.733 30.1527C291.021 34.6065 298.63 27.4691 293.762 22.3491C293.043 21.6904 292.168 21.2629 291.236 21.1149C290.305 20.9668 289.353 21.1043 288.49 21.5117Z" fill="#F8AC39"/>
<path d="M275.872 28.7063C275.058 28.9433 274.32 29.4177 273.738 30.0776C273.156 30.7376 272.753 31.5578 272.571 32.449C272.39 33.3402 272.438 34.2682 272.71 35.1319C272.982 35.9956 273.468 36.7619 274.114 37.3473C278.402 41.801 285.994 34.6635 281.144 29.5436C280.425 28.8849 279.55 28.4573 278.618 28.3093C277.687 28.1613 276.735 28.2989 275.872 28.7063Z" fill="#F8AC39"/>
<path d="M264.203 35.6533C256.54 38.0134 262.445 49.6427 268.684 44.3324C271.883 41.6107 269.352 34.0545 264.203 35.6533Z" fill="#F8AC39"/>
<path d="M251.128 43.1142C250.479 43.3068 249.879 43.6597 249.377 44.145C248.875 44.6303 248.484 45.2351 248.233 45.9117C247.983 46.5884 247.881 47.3185 247.935 48.045C247.989 48.7716 248.197 49.4749 248.544 50.0995C251.567 55.9427 259.95 50.9179 257.033 45.265C256.512 44.133 255.598 43.2709 254.491 42.8677C253.384 42.4646 252.175 42.5532 251.128 43.1142Z" fill="#F8AC39"/>
<path d="M238.844 50.3659C238.195 50.4959 237.585 50.7936 237.066 51.2336C236.546 51.6736 236.133 52.243 235.86 52.8933C235.587 53.5436 235.464 54.2557 235.5 54.9689C235.536 55.6821 235.73 56.3753 236.067 56.9895C238.808 62.6995 247.051 58.3028 244.397 52.7071C244.185 52.1486 243.871 51.6425 243.474 51.2195C243.076 50.7966 242.603 50.4656 242.084 50.2466C241.565 50.0277 241.009 49.9253 240.452 49.9459C239.895 49.9664 239.348 50.1093 238.844 50.3659Z" fill="#F8AC39"/>
<path d="M226.665 57.6748C225.894 57.8498 225.186 58.2609 224.624 58.8592C224.063 59.4575 223.672 60.2178 223.498 61.0498C223.324 61.8818 223.374 62.7504 223.643 63.5523C223.911 64.3543 224.387 65.0559 225.013 65.5736C228.528 68.9805 235.979 63.3085 230.9 58.3599C230.299 57.8797 229.599 57.5662 228.861 57.4467C228.123 57.3273 227.369 57.4056 226.665 57.6748Z" fill="#F8AC39"/>
<path d="M213.765 65.1738C213.233 65.3787 212.747 65.7054 212.341 66.1319C211.935 66.5583 211.619 67.0745 211.414 67.6452C211.209 68.2159 211.119 68.8278 211.152 69.4392C211.185 70.0506 211.339 70.6471 211.604 71.1882C214.24 76.2891 221.621 71.9496 219.038 66.9439C218.533 65.9766 217.706 65.2547 216.726 64.9257C215.746 64.5967 214.687 64.6855 213.765 65.1738Z" fill="#F8AC39"/>
<path d="M201.762 72.5015C195.875 74.4048 200.321 82.0181 204.398 79.8483C208.054 77.945 206.437 71.0169 201.762 72.5015Z" fill="#F8AC39"/>
<path d="M189.759 79.8483C183.837 81.371 188.494 89.8977 192.905 85.9388C194.663 84.3781 193.731 78.8205 189.759 79.8483Z" fill="#F8AC39"/>
<path d="M177.458 87.3854C174.927 87.9564 174.452 89.6884 174.786 91.0588C176.034 96.0265 183.573 93.1525 180.269 88.4133C179.955 87.9498 179.517 87.6023 179.013 87.4184C178.51 87.2345 177.967 87.223 177.458 87.3854Z" fill="#F8AC39"/>
<path d="M164.506 95.208C164.154 95.2733 163.821 95.4285 163.535 95.6607C163.25 95.8929 163.019 96.1954 162.863 96.5432C162.707 96.8911 162.629 97.2742 162.637 97.6609C162.644 98.0476 162.737 98.427 162.906 98.7673C164.383 102.06 169.286 99.5857 167.599 96.331C167.317 95.7476 166.837 95.3049 166.261 95.0955C165.684 94.8862 165.055 94.9265 164.506 95.208Z" fill="#F8AC39"/>
<path d="M152.415 102.84C150.657 103.221 150.446 104.439 150.798 105.448C152.661 110.853 157.511 101.755 152.415 102.84Z" fill="#F8AC39"/>
<path d="M139.99 110.663C139.305 110.853 138.953 111.31 138.935 111.748C138.742 114.546 142.45 113.118 141.712 111.348C141.484 110.777 141.273 110.263 139.955 110.663" fill="#F8AC39"/>
<path d="M127.987 118.467L127.284 118.866L127.653 119.609C128.356 119.399 128.461 119.019 127.987 118.467Z" fill="#F8AC39"/>
<path d="M295.924 35.0252C292.62 36.0529 291.97 38.6605 292.76 40.8874C295.027 47.2254 304.763 42.9049 300.634 36.624C300.124 35.829 299.384 35.2403 298.532 34.9508C297.679 34.6613 296.761 34.6875 295.924 35.0252Z" fill="#F8AC39"/>
<path d="M299.983 10.5867C299.17 10.8238 298.432 11.2981 297.85 11.9581C297.268 12.618 296.864 13.4382 296.683 14.3294C296.502 15.2207 296.55 16.1487 296.822 17.0124C297.094 17.8761 297.58 18.6423 298.226 19.2277C302.514 23.6815 310.106 16.5441 305.256 11.4242C304.539 10.7614 303.663 10.3312 302.731 10.183C301.798 10.0349 300.846 10.1748 299.983 10.5867Z" fill="#F8AC39"/>
<path d="M307.4 24.0622C304.113 25.109 303.463 27.7165 304.254 29.9243C306.503 36.2814 316.257 31.9609 312.127 25.68C311.613 24.8851 310.871 24.2959 310.017 24.0034C309.162 23.711 308.242 23.7317 307.4 24.0622Z" fill="#F8AC39"/>
<path d="M311.477 -0.376398C310.663 -0.135851 309.926 0.341093 309.345 1.00288C308.764 1.66466 308.361 2.48609 308.18 3.37807C307.999 4.27006 308.047 5.19863 308.318 6.06332C308.589 6.92802 309.074 7.69587 309.719 8.28367C314.007 12.7184 321.617 5.60004 316.749 0.480118C316.032 -0.181753 315.158 -0.61279 314.226 -0.764171C313.294 -0.915551 312.342 -0.781244 311.477 -0.376398Z" fill="#F8AC39"/>
<path d="M318.893 13.1181C315.589 14.1649 314.956 16.7724 315.747 18.9802C317.997 25.3183 327.733 20.9977 323.62 14.7168C323.104 13.9253 322.361 13.3399 321.506 13.0509C320.652 12.762 319.734 12.7856 318.893 13.1181Z" fill="#F8AC39"/>
<path d="M283.2 42.2958C282.425 42.4533 281.708 42.85 281.136 43.4381C280.564 44.0262 280.161 44.7807 279.975 45.6109C279.79 46.4412 279.83 47.3118 280.09 48.1182C280.35 48.9246 280.82 49.6324 281.443 50.1565C284.958 53.5825 292.427 47.9107 287.348 42.9811C286.751 42.4932 286.05 42.1748 285.31 42.0551C284.571 41.9354 283.815 42.0181 283.112 42.2958" fill="#F8AC39"/>
<path d="M270.459 49.5475C265.38 51.7744 268.702 60.6058 273.974 57.7889C274.91 57.2367 275.617 56.3196 275.952 55.2237C276.287 54.1277 276.225 52.9347 275.778 51.8866C275.331 50.8385 274.533 50.0137 273.545 49.5793C272.557 49.145 271.454 49.1336 270.459 49.5475Z" fill="#F8AC39"/>
<path d="M258.544 56.5898C251.374 58.7405 257.999 69.2849 262.885 63.6891C264.906 61.3671 263.307 55.1623 258.544 56.5898Z" fill="#F8AC39"/>
<path d="M246.084 63.9556C240.812 65.5353 243.29 73.8148 248.052 72.1779C250.565 71.3024 252.885 67.7051 249.616 64.5647C249.117 64.1685 248.538 63.9066 247.927 63.8007C247.316 63.6948 246.69 63.7479 246.102 63.9556" fill="#F8AC39"/>
<path d="M233.817 71.2073C227.473 73.1106 232.464 82.2085 237.332 78.0402C239.441 76.1369 238.439 69.8178 233.817 71.2073Z" fill="#F8AC39"/>
<path d="M221.006 78.7635C216.015 80.6668 219.442 87.8042 223.642 85.6344C227.157 83.7311 225.399 77.1267 221.006 78.7635Z" fill="#F8AC39"/>
<path d="M209.091 86.0912C203.713 87.3664 207.544 95.2652 211.692 92.0105C213.555 90.564 212.975 85.1586 209.091 86.0912Z" fill="#F8AC39"/>
<path d="M196.789 93.5141C195.032 93.8948 193.819 95.3032 194.206 96.921C195.348 101.66 203.116 98.5769 199.144 94.0851C198.82 93.7965 198.438 93.5944 198.029 93.4952C197.62 93.396 197.195 93.4025 196.789 93.5141Z" fill="#F8AC39"/>
<path d="M184.276 101.165C183.823 101.223 183.392 101.408 183.025 101.702C182.658 101.996 182.369 102.388 182.185 102.84C180.691 108.055 189.566 106.457 186.561 102.022C186.298 101.641 185.946 100.804 184.276 101.165Z" fill="#F8AC39"/>
<path d="M171.57 108.893C170.375 109.254 169.637 110.206 170.217 111.596C170.45 112.116 170.865 112.514 171.369 112.703C171.873 112.892 172.426 112.857 172.906 112.604C173.386 112.352 173.754 111.903 173.928 111.357C174.103 110.811 174.07 110.212 173.837 109.692C173.633 109.261 173.285 108.931 172.864 108.768C172.443 108.606 171.98 108.623 171.57 108.817" fill="#F8AC39"/>
<path d="M159.128 116.677C158.46 116.887 158.109 117.325 158.091 117.762C157.898 120.56 161.606 119.152 160.85 117.363C160.622 116.792 160.429 116.297 159.093 116.677" fill="#F8AC39"/>
<path d="M146.809 125.661C149.41 125.452 145.684 123.054 146.809 125.661V125.661Z" fill="#F8AC39"/>
<path d="M134.77 131.6L134.068 131.999L134.437 132.741C135.122 132.532 135.227 132.152 134.77 131.6Z" fill="#F8AC39"/>
<path d="M302.883 48.5007C296.539 50.404 301.547 59.521 306.398 55.3527C308.524 53.5446 307.505 47.1493 302.883 48.5007Z" fill="#F8AC39"/>
<path d="M290.335 55.7714C284.466 57.6748 288.894 65.288 292.989 63.1182C296.627 61.2149 295.01 54.2678 290.335 55.7714Z" fill="#F8AC39"/>
<path d="M277.629 62.9469C271.988 65.0215 276.557 72.4635 280.634 70.0843C281.419 69.5951 282.007 68.8065 282.283 67.8728C282.56 66.9392 282.505 65.9275 282.129 65.0354C281.753 64.1433 281.084 63.4349 280.252 63.0487C279.42 62.6625 278.485 62.6262 277.629 62.9469Z" fill="#F8AC39"/>
<path d="M265.328 70.1985C262.358 71.1502 261.813 73.4912 263.166 75.7371C265.415 79.7341 271.953 76.4414 269.334 71.7402C268.975 70.9772 268.36 70.3921 267.614 70.1054C266.869 69.8186 266.051 69.852 265.328 70.1985Z" fill="#F8AC39"/>
<path d="M253.026 77.4502C247.121 78.9728 251.76 87.4997 256.171 83.5408C257.929 81.9801 256.997 76.4224 253.026 77.4502Z" fill="#F8AC39"/>
<path d="M240.724 84.7018C235.346 85.977 239.177 93.8757 243.325 90.6211C245.205 89.1746 244.625 83.7692 240.724 84.7018Z" fill="#F8AC39"/>
<path d="M227.965 92.2389C223.554 93.6473 226.858 99.6047 230.039 97.9488C230.633 97.5771 231.084 96.987 231.31 96.2857C231.536 95.5844 231.522 94.8185 231.271 94.1272C231.02 93.4359 230.548 92.8651 229.942 92.5186C229.335 92.1721 228.634 92.0728 227.965 92.2389Z" fill="#F8AC39"/>
<path d="M215.787 99.6809C214.029 100.1 213.115 101.261 213.555 102.878C214.697 107.142 221.481 104.287 218.141 100.252C217.825 99.9504 217.443 99.74 217.031 99.6403C216.62 99.5405 216.192 99.5545 215.787 99.6809Z" fill="#F8AC39"/>
<path d="M203.608 107.161C201.534 107.523 201.305 108.931 201.622 109.959C202.623 113.328 206.894 111.5 206.086 108.855C205.576 107.123 204.785 106.952 203.608 107.161Z" fill="#F8AC39"/>
<path d="M191.077 114.774C189.32 115.079 189.179 116.24 189.619 117.287C191.482 121.702 195.436 114.07 191.077 114.774Z" fill="#F8AC39"/>
<path d="M178.811 122.483C176.315 122.806 177.932 125.928 179.514 124.709C179.707 124.553 179.849 124.334 179.92 124.084C179.991 123.834 179.988 123.567 179.909 123.319C179.831 123.072 179.683 122.858 179.486 122.708C179.288 122.557 179.052 122.479 178.811 122.483Z" fill="#F8AC39"/>
<path d="M166.368 130.305L165.666 130.705C165.789 130.952 165.912 131.2 166.052 131.447C166.72 131.238 166.843 130.857 166.368 130.305Z" fill="#F8AC39"/>
<path d="M153.996 137.367L153.293 137.766C153.416 138.014 153.539 138.261 153.68 138.509C154.348 138.299 154.471 137.919 153.996 137.367Z" fill="#F8AC39"/>
<path d="M309.772 62.2998C309.158 62.3814 308.581 62.6666 308.122 63.1163C307.663 63.5661 307.343 64.1585 307.206 64.8125C307.07 65.4666 307.123 66.1503 307.359 66.7703C307.595 67.3903 308.002 67.9162 308.524 68.2762C310.862 70.3508 315.554 67.3816 313.146 63.4798C312.792 62.8962 312.265 62.461 311.651 62.2464C311.037 62.0317 310.374 62.0506 309.772 62.2998Z" fill="#F8AC39"/>
<path d="M297.224 69.4563C296.772 69.5267 296.342 69.7162 295.974 70.0081C295.605 70.3 295.307 70.6854 295.108 71.1306C294.908 71.5758 294.813 72.0672 294.829 72.5617C294.846 73.0562 294.974 73.5388 295.203 73.9671C297.101 78.0592 303.024 74.9378 300.95 70.9218C300.797 70.5581 300.578 70.2311 300.307 69.9598C300.036 69.6886 299.718 69.4786 299.371 69.3422C299.024 69.2057 298.656 69.1455 298.287 69.1651C297.918 69.1847 297.557 69.2837 297.224 69.4563Z" fill="#F8AC39"/>
<path d="M285.116 76.7078C282.603 77.2788 282.111 79.0108 282.444 80.3812C283.692 85.3679 291.231 82.475 287.945 77.7167C287.616 77.2672 287.173 76.932 286.67 76.7527C286.167 76.5734 285.627 76.5578 285.116 76.7078Z" fill="#F8AC39"/>
<path d="M272.217 83.9785C267.805 85.387 271.109 91.3253 274.29 89.6885C274.884 89.3167 275.335 88.7266 275.561 88.0253C275.787 87.324 275.774 86.5581 275.523 85.8668C275.272 85.1756 274.8 84.6048 274.193 84.2582C273.586 83.9117 272.885 83.8125 272.217 83.9785Z" fill="#F8AC39"/>
<path d="M259.774 91.3254C257.542 92.0106 257.191 93.7045 257.911 95.2653C259.511 98.8054 264.941 96.293 262.955 92.6196C262.828 92.3055 262.644 92.0221 262.414 91.7862C262.184 91.5503 261.913 91.3667 261.617 91.246C261.32 91.1254 261.004 91.0704 260.688 91.084C260.372 91.0976 260.061 91.1797 259.774 91.3254Z" fill="#F8AC39"/>
<path d="M247.314 98.6721C246.962 98.7374 246.63 98.8926 246.344 99.1248C246.058 99.357 245.828 99.6595 245.671 100.007C245.515 100.355 245.437 100.738 245.445 101.125C245.453 101.512 245.545 101.891 245.715 102.231C247.191 105.524 252.094 103.05 250.407 99.7951C250.122 99.2151 249.642 98.7754 249.067 98.5665C248.492 98.3576 247.865 98.3954 247.314 98.6721Z" fill="#F8AC39"/>
<path d="M235.452 105.905C231.708 106.324 233.466 111.215 235.68 110.815C238.351 110.32 238.457 105.581 235.452 105.905Z" fill="#F8AC39"/>
<path d="M222.5 113.575C221.305 113.918 220.567 114.869 221.147 116.259C221.38 116.781 221.795 117.182 222.301 117.373C222.807 117.564 223.362 117.529 223.844 117.277C224.327 117.025 224.697 116.575 224.873 116.027C225.049 115.479 225.018 114.878 224.784 114.355C224.486 113.765 223.923 113.08 222.5 113.499" fill="#F8AC39"/>
<path d="M210.848 120.979C210.005 120.789 209.091 121.893 209.091 122.464C210.128 126.575 214.24 121.531 210.848 120.979Z" fill="#F8AC39"/>
<path d="M199.179 130.001C199.218 129.704 199.156 129.402 199.006 129.151C198.855 128.9 198.625 128.717 198.359 128.635C198.092 128.554 197.808 128.58 197.558 128.709C197.308 128.837 197.11 129.06 197 129.335C196.961 129.631 197.023 129.933 197.173 130.184C197.324 130.435 197.554 130.619 197.821 130.7C198.087 130.781 198.371 130.755 198.621 130.627C198.871 130.498 199.069 130.276 199.179 130.001Z" fill="#F8AC39"/>
<path d="M185.7 136.263L184.997 136.662C185.12 136.91 185.243 137.157 185.383 137.405C186.051 137.195 186.174 136.815 185.7 136.263Z" fill="#F8AC39"/>
<path d="M329.49 69.0946C329.032 69.1496 328.595 69.333 328.222 69.6267C327.849 69.9204 327.553 70.3143 327.364 70.7695C325.887 75.9846 334.762 74.3858 331.757 69.9511C331.494 69.5514 331.142 68.7329 329.49 69.0946Z" fill="#F8AC39"/>
<path d="M316.925 76.1559C316.472 76.2136 316.04 76.3985 315.674 76.6923C315.307 76.9861 315.017 77.3786 314.834 77.8308C313.34 83.0459 322.215 81.4661 319.209 77.0123C318.946 76.6126 318.594 75.7943 316.925 76.1559Z" fill="#F8AC39"/>
<path d="M304.553 83.2172C304.098 83.2785 303.666 83.4669 303.3 83.764C302.933 84.061 302.644 84.4564 302.461 84.9111C300.968 90.1262 309.842 88.5274 306.837 84.0737C306.574 83.693 306.222 82.8555 304.553 83.2172Z" fill="#F8AC39"/>
<path d="M291.688 90.602C291.364 90.6583 291.057 90.7972 290.792 91.0073C290.527 91.2175 290.311 91.4927 290.164 91.8105C290.016 92.1284 289.941 92.4796 289.943 92.8354C289.945 93.1911 290.025 93.5412 290.177 93.8567C290.302 94.1717 290.482 94.4569 290.709 94.6962C290.935 94.9355 291.203 95.1242 291.497 95.2515C291.79 95.3787 292.105 95.4421 292.421 95.4379C292.737 95.4337 293.05 95.362 293.34 95.2271C293.631 95.0921 293.895 94.8964 294.116 94.6512C294.337 94.406 294.511 94.1161 294.628 93.798C294.746 93.4798 294.804 93.1398 294.8 92.7972C294.797 92.4546 294.73 92.1161 294.606 91.8011C294.5 91.5032 294.338 91.2328 294.129 91.0076C293.921 90.7823 293.67 90.6073 293.395 90.4941C293.12 90.3809 292.825 90.332 292.531 90.3506C292.237 90.3692 291.95 90.4549 291.688 90.602Z" fill="#F8AC39"/>
<path d="M279.562 97.7395C277.489 98.1201 277.26 99.5096 277.576 100.556C278.578 103.906 282.849 102.098 282.04 99.4335C281.513 97.7014 280.74 97.5301 279.562 97.7395Z" fill="#F8AC39"/>
<path d="M267.085 105.086C265.767 105.277 264.853 106.266 265.099 107.427C265.802 110.948 271.039 108.912 268.825 105.791C268.623 105.506 268.351 105.288 268.04 105.164C267.729 105.039 267.392 105.012 267.067 105.086" fill="#F8AC39"/>
<path d="M254.643 112.452C252.885 112.738 252.762 113.899 253.201 114.964C255.047 119.38 259.001 111.729 254.643 112.452Z" fill="#F8AC39"/>
<path d="M242.288 119.97C241.146 119.97 240.636 120.922 241.005 121.874C242.27 125.28 245.539 119.799 242.288 119.97Z" fill="#F8AC39"/>
<path d="M230.883 128.897C230.922 128.6 230.86 128.298 230.709 128.047C230.558 127.796 230.328 127.613 230.062 127.531C229.796 127.45 229.511 127.476 229.261 127.605C229.012 127.733 228.813 127.956 228.703 128.231C228.664 128.527 228.726 128.829 228.877 129.08C229.028 129.331 229.258 129.515 229.524 129.596C229.79 129.677 230.075 129.651 230.324 129.523C230.574 129.394 230.773 129.172 230.883 128.897Z" fill="#F8AC39"/>
<path d="M217.069 136.301C219.67 136.091 215.945 133.693 217.069 136.301V136.301Z" fill="#F8AC39"/>
<path d="M205.031 142.22L204.311 142.62C204.451 142.867 204.574 143.115 204.697 143.362C205.383 143.153 205.488 142.772 205.031 142.22Z" fill="#F8AC39"/>
<path d="M336.186 82.8745C332.794 83.6168 337.135 88.1277 338.136 84.7779C338.178 84.4987 338.154 84.2129 338.067 83.9463C337.98 83.6798 337.833 83.4411 337.639 83.2519C337.445 83.0627 337.21 82.9289 336.957 82.863C336.703 82.7971 336.438 82.8011 336.186 82.8745Z" fill="#F8AC39"/>
<path d="M323.638 90.031C320.246 90.7733 324.587 95.2842 325.589 91.9343C325.63 91.6552 325.606 91.3693 325.519 91.1028C325.432 90.8362 325.285 90.5975 325.091 90.4083C324.897 90.2191 324.663 90.0854 324.409 90.0195C324.155 89.9536 323.89 89.9576 323.638 90.031Z" fill="#F8AC39"/>
<path d="M311.266 97.1114C307.874 97.8537 312.215 102.365 313.217 99.0147C313.258 98.7356 313.234 98.4497 313.147 98.1832C313.06 97.9167 312.913 97.6779 312.719 97.4887C312.525 97.2995 312.29 97.1659 312.037 97.1C311.783 97.0341 311.518 97.038 311.266 97.1114Z" fill="#F8AC39"/>
<path d="M299.175 104.249C298.331 104.059 297.418 105.163 297.418 105.734C298.454 109.845 302.567 104.801 299.175 104.249Z" fill="#F8AC39"/>
<path d="M286.1 111.729C285.844 111.766 285.605 111.889 285.416 112.08C285.227 112.271 285.098 112.521 285.046 112.795C284.87 115.612 288.56 114.184 287.822 112.414C287.594 111.843 287.383 111.348 286.065 111.729" fill="#F8AC39"/>
<path d="M272.779 120.484C272.985 120.808 273.289 121.044 273.639 121.152C273.988 121.26 274.361 121.232 274.694 121.074C274.89 120.621 275.026 120.141 275.099 119.647C274.972 119.349 274.748 119.113 274.47 118.982C274.192 118.852 273.88 118.838 273.593 118.941C273.306 119.045 273.064 119.26 272.914 119.544C272.763 119.829 272.715 120.164 272.779 120.484Z" fill="#F8AC39"/>
<path d="M260.583 127.013L261.145 128.136C261.514 128.25 262.006 127.869 262.48 127.603C262.553 127.33 262.522 127.037 262.395 126.789C262.268 126.541 262.056 126.358 261.804 126.28C261.552 126.202 261.282 126.235 261.053 126.372C260.824 126.51 260.655 126.74 260.583 127.013Z" fill="#F8AC39"/>
<path d="M249.177 133.807L248.474 134.207C248.597 134.454 248.72 134.702 248.861 134.949C249.54 134.734 249.646 134.353 249.177 133.807Z" fill="#F8AC39"/>
<path d="M236.629 140.926L235.926 141.344C236.049 141.592 236.172 141.839 236.313 142.068C236.981 141.877 237.104 141.497 236.629 140.926Z" fill="#F8AC39"/>
<path d="M330.351 105.258C332.952 105.048 329.226 102.65 330.351 105.258V105.258Z" fill="#F8AC39"/>
<path d="M318.049 112.414C320.65 112.186 316.925 109.788 318.049 112.414V112.414Z" fill="#F8AC39"/>
<path d="M305.976 118.333L305.273 118.733C305.396 118.981 305.519 119.228 305.66 119.475C306.339 119.272 306.445 118.892 305.976 118.333Z" fill="#F8AC39"/>
<path d="M293.446 125.49L292.743 125.909L293.129 126.632C293.797 126.422 293.92 126.042 293.446 125.49Z" fill="#F8AC39"/>
<path d="M280.88 132.665L280.177 133.065C280.3 133.313 280.424 133.56 280.564 133.807C281.232 133.604 281.337 133.224 280.88 132.665Z" fill="#F8AC39"/>
</g>
</g>
</svg>
