<svg width="286" height="194" viewBox="0 0 286 194" fill="none" xmlns="http://www.w3.org/2000/svg">
<g opacity="0.5">
<mask id="mask0" style="mask-type:alpha" maskUnits="userSpaceOnUse" x="0" y="0" width="286" height="194">
<path d="M0.994385 193.857V0.67038H210.125L285.693 193.857H0.994385Z" fill="#FFD733"/>
</mask>
<g mask="url(#mask0)">
<path d="M103.538 -0.376419C103.767 2.49759 105.577 4.1535 107.51 5.71422C106.293 5.77879 105.115 6.20085 104.103 6.93515C103.091 7.66945 102.282 8.68831 101.763 9.88248C101.662 8.64912 101.308 7.45573 100.727 6.38904C100.147 5.32234 99.354 4.40915 98.4067 3.71576C99.4774 3.45648 100.487 2.95872 101.37 2.25423C102.253 1.54974 102.992 0.65387 103.538 -0.376419ZM105.788 -14.9748C105.949 -13.6583 106.416 -12.4076 107.144 -11.3392C107.872 -10.2708 108.839 -9.41967 109.953 -8.86525C108.745 -8.78599 107.574 -8.38484 106.544 -7.69752C105.514 -7.01019 104.657 -6.05795 104.048 -4.92537C103.887 -6.11864 103.503 -7.26381 102.92 -8.29126C102.336 -9.3187 101.566 -10.207 100.656 -10.9018C101.736 -11.1284 102.756 -11.6111 103.644 -12.3154C104.531 -13.0196 105.263 -13.9278 105.788 -14.9748ZM108.055 -29.5923C108.243 -28.2857 108.72 -27.0479 109.445 -25.9841C110.171 -24.9202 111.122 -24.0621 112.22 -23.4827C111.002 -23.4482 109.815 -23.0656 108.778 -22.3736C107.741 -21.6817 106.891 -20.7051 106.315 -19.5428C106.177 -20.7436 105.802 -21.8982 105.217 -22.9292C104.632 -23.9601 103.85 -24.8433 102.923 -25.5193C103.992 -25.7774 105 -26.2727 105.883 -26.9737C106.766 -27.6747 107.506 -28.5663 108.055 -29.5923ZM110.375 -44.6285C110.375 -41.3358 112.448 -39.5277 114.856 -38.005C111.745 -38.2715 110.093 -36.3111 108.565 -34.1984C108.403 -35.3916 108.019 -36.5368 107.436 -37.5643C106.853 -38.5917 106.083 -39.4799 105.173 -40.1747C106.319 -40.4118 107.397 -40.9436 108.314 -41.7252C109.231 -42.5068 109.962 -43.5156 110.445 -44.6666L110.375 -44.6285ZM101.447 13.594C101.605 17.0009 103.556 19.0184 106.491 20.3126C105 20.1796 103.509 20.5732 102.242 21.4343C100.975 22.2955 99.9991 23.5781 99.4611 25.09C99.4611 21.7782 97.616 19.8368 95.6653 17.9716C98.4771 17.9716 100.006 15.8208 101.43 13.594H101.447ZM112.536 -59.5125C112.583 -58.0334 113.027 -56.6013 113.813 -55.3911C114.6 -54.181 115.695 -53.2452 116.965 -52.6986C115.674 -52.6628 114.417 -52.2424 113.332 -51.4835C112.246 -50.7247 111.375 -49.6568 110.814 -48.397C110.55 -51.3472 108.74 -53.1173 106.913 -54.9065C108.15 -55.0402 109.33 -55.5408 110.322 -56.3534C111.314 -57.1659 112.08 -58.259 112.536 -59.5125ZM89.9186 -2.05135C90.4454 -0.0873566 91.5654 1.62836 93.0994 2.82114C92.1574 3.005 91.2602 3.39534 90.4624 3.96808C89.6646 4.54082 88.9832 5.28392 88.46 6.15195C88.0614 4.20541 87.0937 2.44997 85.7008 1.14621C87.349 0.515503 88.8073 -0.589981 89.9186 -2.05135ZM92.0977 -16.5546C92.5747 -14.5651 93.6979 -12.8285 95.2611 -11.6631C93.4401 -11.2398 91.8121 -10.1429 90.6568 -8.56065C90.126 -10.3907 89.1698 -12.0424 87.8799 -13.357C89.6169 -13.7869 91.1303 -14.9342 92.0977 -16.5546ZM94.3473 -31.153C94.8828 -29.1986 95.9935 -27.4875 97.5105 -26.2805C95.6734 -25.9019 94.0357 -24.7873 92.9237 -23.1591C92.579 -25.0801 91.582 -26.7915 90.1295 -27.9554C91.7709 -28.6003 93.226 -29.7034 94.3473 -31.153ZM96.6318 -45.9799C97.0494 -43.9162 98.1735 -42.1003 99.7776 -40.898C97.9546 -40.4683 96.3266 -39.3647 95.1732 -37.7766C94.6517 -39.6158 93.6873 -41.2713 92.379 -42.5729C94.1002 -43.1792 95.5926 -44.375 96.6318 -45.9799ZM87.6691 12.0712C87.8294 13.2046 88.2541 14.2749 88.903 15.1808C89.5519 16.0868 90.4034 16.7984 91.3772 17.2483C89.2057 17.9305 87.334 19.4373 86.105 21.4927C85.7124 19.2233 84.5612 17.1904 82.8714 15.7827C84.8417 15.1926 86.5659 13.8895 87.757 12.0903L87.6691 12.0712ZM99.0746 -61.1874C99.0746 -58.3324 101.096 -56.9049 102.589 -55.1728C101.532 -55.0631 100.511 -54.7006 99.5995 -54.1114C98.6878 -53.5222 97.9082 -52.7212 97.3172 -51.766C97.036 -54.2212 95.4368 -55.6678 94.0484 -57.2856C96.3155 -57.6472 97.5633 -59.4744 98.9692 -61.0922L99.0746 -61.1874ZM85.4899 26.1749C85.4899 29.3153 87.792 30.857 89.813 32.5509C88.4886 32.4736 87.1782 32.8772 86.0895 33.6978C85.0008 34.5183 84.1961 35.7089 83.8029 37.0808C83.6038 35.711 83.1391 34.4024 82.4394 33.2411C81.7397 32.0798 80.8207 31.0922 79.7432 30.3431C80.9158 30.1185 82.0324 29.6319 83.0218 28.9142C84.0112 28.1966 84.8517 27.2637 85.4899 26.1749ZM101.306 -76.6042C101.268 -75.1569 101.663 -73.7348 102.433 -72.5511C103.202 -71.3673 104.306 -70.4855 105.577 -70.0377C104.327 -69.8419 103.13 -69.3563 102.068 -68.614C101.007 -67.8716 100.106 -66.8901 99.4262 -65.7363C99.1974 -67.0202 98.7305 -68.2403 98.0538 -69.3232C97.3772 -70.406 96.505 -71.329 95.4896 -72.0363C98.3893 -72.0363 99.7776 -74.4535 101.306 -76.6042ZM76.2812 -3.84047C76.8976 -2.41145 77.7559 -1.12027 78.8117 -0.0338287C77.3627 0.46756 76.0684 1.38914 75.0687 2.63086C74.7523 0.994003 73.5923 -0.01474 72.9421 -1.40417C74.1925 -2.0041 75.3258 -2.8568 76.2812 -3.91656V-3.84047ZM78.4955 -18.3437C79.0528 -16.8951 79.9419 -15.6243 81.0788 -14.6513C79.704 -14.097 78.4395 -13.2637 77.3532 -12.1961C76.8771 -13.6099 76.1419 -14.9047 75.1916 -16.0027C76.6327 -16.2691 77.4059 -17.5253 78.4955 -18.3247V-18.3437ZM80.7976 -33.1325C81.4141 -31.7035 82.2726 -30.4123 83.3284 -29.3259C81.694 -29.2117 80.8505 -27.8604 79.6379 -27.08C79.1585 -28.4403 78.4155 -29.6734 77.4587 -30.6962C78.7091 -31.2962 79.8422 -32.1489 80.7976 -33.2086V-33.1325ZM83.0823 -48.0354C83.5635 -46.4453 84.4318 -45.0251 85.5955 -43.9243C84.2216 -43.3766 82.9571 -42.5496 81.8698 -41.488C81.6237 -43.1819 80.2528 -44.0195 79.7432 -45.5041C81.2194 -45.8086 81.9576 -47.198 83.0823 -48.0354ZM74.1196 10.0157C74.7224 11.8202 75.7599 13.4171 77.1247 14.6408C75.3614 15.1102 73.8026 16.2266 72.7136 17.8002C72.2168 15.9488 71.2485 14.2866 69.9194 13.004C71.5232 12.3932 72.9651 11.3674 74.1196 10.0157ZM85.4371 -63.2619C85.9008 -61.3364 86.9464 -59.6345 88.4073 -58.4276C86.7237 -57.9039 85.2084 -56.8823 84.0314 -55.4774C83.4376 -57.2232 82.4747 -58.7941 81.2196 -60.0644C82.8665 -60.6977 84.324 -61.8027 85.4371 -63.2619ZM71.958 24.0051C72.3271 26.4603 74.0317 27.8117 75.6309 29.4105C72.9949 29.4105 71.712 31.5422 70.1479 33.2172C70.0269 32.0673 69.6747 30.9601 69.116 29.9736C68.5573 28.9871 67.8059 28.1452 66.9143 27.5072C69.1638 27.2407 70.4291 25.6039 71.958 24.0432V24.0051ZM87.4406 -78.7359C88.0816 -76.3237 89.4962 -74.2384 91.4299 -72.8547C89.3336 -72.4949 87.4457 -71.2748 86.1577 -69.4477C85.5551 -71.5974 84.321 -73.4753 82.6429 -74.796C83.6754 -74.9628 84.6515 -75.4122 85.4788 -76.1017C86.306 -76.7911 86.9572 -77.6978 87.3705 -78.7359H87.4406ZM69.3745 37.766C69.7111 39.109 70.3064 40.3596 71.1212 41.4355C71.936 42.5115 72.9519 43.3886 74.102 44.0089C72.7477 44.0192 71.428 44.474 70.3173 45.3133C69.2066 46.1526 68.3571 47.337 67.8808 48.7101C67.8144 47.2986 67.4039 45.9314 66.6908 44.7478C65.9776 43.5642 64.9875 42.6065 63.8213 41.9724C65.0093 41.8716 66.1506 41.4285 67.1271 40.6888C68.1036 39.9492 68.8795 38.94 69.3745 37.766ZM90.0591 -94.9712C89.9933 -93.3524 90.3923 -91.7511 91.201 -90.3878C92.0098 -89.0245 93.1888 -87.9661 94.5757 -87.358C91.5354 -87.358 89.7428 -85.4547 88.0732 -83.342C87.8975 -86.3873 85.9996 -88.0812 83.9434 -89.68C87.0891 -89.7942 88.9168 -91.8878 90.0591 -95.0473V-94.9712ZM64.981 -20.228C65.2622 -19.105 66.1409 -18.458 66.7384 -17.5634C65.6137 -17.2589 64.981 -16.231 63.909 -15.7932C63.5738 -16.7789 63.0463 -17.6748 62.3625 -18.4198C63.417 -18.7434 64.1199 -19.695 64.9986 -20.3231L64.981 -20.228ZM66.8967 -35.2261C67.67 -34.2935 68.3025 -33.3228 68.9879 -32.276C67.8983 -32.1047 67.2306 -31.1911 66.4046 -30.6581C66.0707 -31.8191 65.192 -32.5615 64.6472 -33.5512C65.5514 -33.7933 66.3404 -34.3901 66.8615 -35.2261H66.8967ZM62.3449 -6.01028C63.1681 -5.05933 63.8661 -3.98961 64.4187 -2.83165C63.4124 -2.55251 62.5402 -1.87292 61.9759 -0.928329C61.1587 -1.87756 60.4615 -2.94006 59.9023 -4.08791C60.888 -4.4134 61.7466 -5.08252 62.3449 -5.99123V-6.01028ZM69.5504 -49.9578C69.8034 -48.8555 70.4309 -47.8972 71.3078 -47.2742C70.4393 -46.403 69.4634 -45.6663 68.4081 -45.0853C68.2323 -46.3986 67.0373 -46.9886 66.6507 -48.1877C67.916 -48.1877 68.2674 -49.7674 69.48 -49.9578H69.5504ZM60.4998 8.09337C60.7985 9.69215 62.099 10.5296 62.8898 11.7477C61.4388 12.2459 60.1392 13.1601 59.129 14.3933C58.6048 12.8967 57.8237 11.5211 56.8269 10.3393C58.391 10.0918 59.129 8.60725 60.4998 8.09337ZM71.6768 -65.4317C72.1554 -63.845 73.0171 -62.4256 74.1724 -61.3206C72.8687 -60.9635 71.7085 -60.1547 70.8685 -59.0176C69.814 -60.1596 69.2164 -61.6442 68.1092 -62.8242C69.422 -63.4877 70.6129 -64.4033 71.624 -65.5269L71.6768 -65.4317ZM58.1273 21.7592C58.7234 23.6391 59.8479 25.2698 61.3433 26.4223C60.4028 26.6039 59.5062 26.9912 58.7085 27.5607C57.9108 28.1301 57.2287 28.8696 56.7038 29.7341C56.2693 27.7472 55.2293 25.977 53.7514 24.7093C55.4258 24.1636 56.9361 23.1454 58.1273 21.7592ZM73.9439 -81.0199C74.3566 -78.9539 75.4816 -77.1363 77.0895 -75.9381C75.306 -75.5414 73.6935 -74.5176 72.5027 -73.026C71.9015 -74.8313 70.8637 -76.4286 69.4976 -77.651C71.2932 -78.187 72.8635 -79.3768 73.9439 -81.0199ZM55.9482 35.4821C56.1878 36.7257 56.6944 37.8906 57.4271 38.8826C58.1599 39.8746 59.0981 40.6659 60.1658 41.1921C57.143 41.1921 55.4912 43.3618 54.138 45.9503C54.3313 42.5815 52.4859 40.7732 50.4825 39.0793C51.5743 38.9238 52.6242 38.5236 53.5652 37.9042C54.5063 37.2849 55.3179 36.46 55.9482 35.4821ZM76.3691 -96.6652C76.4559 -95.3354 76.8634 -94.0536 77.5512 -92.948C78.2389 -91.8424 79.1828 -90.9518 80.2881 -90.3653C79.164 -90.266 78.0745 -89.8968 77.0987 -89.2844C76.1229 -88.6721 75.2852 -87.8318 74.6467 -86.825C74.396 -88.0096 73.9257 -89.1267 73.2641 -90.1083C72.6025 -91.0899 71.7635 -91.9154 70.7981 -92.5349C73.4518 -92.7253 74.9456 -94.6857 76.3691 -96.7413V-96.6652ZM51.414 -22.2645C51.414 -21.1606 52.5388 -20.818 52.82 -19.8664C51.8358 -19.7522 51.3438 -18.9148 50.6232 -18.3818C50.2785 -19.2546 49.8101 -20.0637 49.2348 -20.7799C50.0432 -21.1415 50.6056 -21.922 51.414 -22.2645ZM53.7338 -37.3008C53.8569 -36.2349 54.6476 -35.683 55.1396 -34.9026C54.3437 -34.5279 53.6034 -34.0276 52.9429 -33.418C52.609 -34.3125 51.8886 -34.9216 51.5547 -35.8162C52.5564 -35.8162 52.8727 -37.0153 53.7338 -37.3008ZM49.2348 -8.06577C49.4715 -7.07271 50.0338 -6.20686 50.8165 -5.62959C49.973 -4.81116 49.059 -4.14503 48.11 -3.40274C47.9519 -4.60183 47.0908 -5.30605 46.5987 -6.25771C47.6532 -6.58128 48.3561 -7.53294 49.2348 -8.16103V-8.06577ZM55.8778 -52.4511C56.1766 -51.233 57.1255 -50.5478 57.5473 -49.3678C56.6402 -49.0185 55.8173 -48.4525 55.1396 -47.7119C54.8233 -48.8729 53.927 -49.6152 53.3822 -50.605C54.4015 -50.8714 54.9991 -51.8231 55.8251 -52.5083L55.8778 -52.4511ZM46.8624 5.54286C47.433 6.91232 48.238 8.15239 49.2348 9.19731C47.9109 9.83144 46.7163 10.7435 45.72 11.8809C45.5794 10.1109 44.3317 9.17827 43.576 7.86497C44.8236 7.35675 45.9562 6.56491 46.8975 5.54286H46.8624ZM58.2327 -67.9441C58.7633 -66.4466 59.5504 -65.0711 60.5526 -63.8901C59.2527 -63.3887 58.0579 -62.6123 57.0378 -61.6061C56.7742 -63.1478 55.5967 -64.0233 54.8586 -65.2224C56.1782 -65.7957 57.3355 -66.7342 58.2151 -67.9441H58.2327ZM44.736 19.3229C45.3497 21.1261 46.3924 22.7217 47.7587 23.948C45.9662 24.4911 44.3979 25.6793 43.3124 27.3168C42.9218 25.3051 41.8734 23.5139 40.3601 22.2731C42.1189 21.9477 43.6899 20.8885 44.736 19.3229ZM60.5526 -83.4562C60.9834 -81.4625 62.0237 -79.6849 63.5049 -78.4124C61.8225 -77.886 60.3078 -76.8648 59.129 -75.4623C58.6858 -77.3565 57.6085 -79.0049 56.1063 -80.0873C57.921 -80.5787 59.5043 -81.7784 60.5526 -83.4562ZM42.5568 33.0458C42.8073 34.228 43.2757 35.3431 43.9341 36.3243C44.5924 37.3055 45.427 38.1326 46.3878 38.7558C45.1958 38.9395 44.0639 39.4385 43.0923 40.2087C42.1206 40.9789 41.339 41.9964 40.8168 43.1715C40.7576 41.8406 40.3841 40.5483 39.7317 39.4186C39.0794 38.2889 38.1701 37.3594 37.0911 36.7192C38.1899 36.5901 39.2491 36.201 40.1936 35.5793C41.1381 34.9577 41.945 34.1187 42.5568 33.1219V33.0458ZM62.9952 -99.2347C63.0897 -97.9158 63.4762 -96.641 64.1216 -95.5179C64.767 -94.3949 65.6526 -93.4566 66.7034 -92.7824C65.6151 -92.6232 64.5689 -92.2214 63.6312 -91.6022C62.6935 -90.9831 61.8845 -90.16 61.2553 -89.1851C61.0314 -90.3809 60.5717 -91.5103 59.9075 -92.4958C59.2432 -93.4813 58.3902 -94.2997 57.4067 -94.895C60.1307 -95.0473 61.6947 -96.9887 62.9952 -99.3107V-99.2347ZM37.4251 -25.2337C37.7591 -24.3392 38.497 -23.7301 38.8309 -22.8355C37.8117 -22.8355 37.5129 -21.6365 36.6342 -21.37C36.5112 -22.4169 35.7381 -22.9687 35.246 -23.7681C36.0374 -24.1329 36.7723 -24.6273 37.4251 -25.2337ZM39.7624 -40.27C40.1047 -39.3958 40.5735 -38.5863 41.1508 -37.8718C40.3248 -37.5292 39.7801 -36.7297 38.9541 -36.3871C38.9541 -37.4911 37.8293 -37.8337 37.5657 -38.7853C38.5322 -38.8995 39.0419 -39.7561 39.7624 -40.27ZM35.3337 -10.8447C35.6501 -9.68363 36.5288 -8.94132 37.0911 -7.97063C36.0543 -7.68513 35.4569 -6.73347 34.6485 -6.06731C34.3498 -7.30447 33.4008 -7.97064 32.8911 -9.16973C33.7953 -9.51635 34.6175 -10.0753 35.2988 -10.8065L35.3337 -10.8447ZM42.3284 -55.0207C42.5041 -53.8216 43.3476 -53.1173 43.8573 -52.1657C42.8028 -51.8421 42.0999 -50.8905 41.2212 -50.3766C41.2212 -51.6328 39.903 -52.0324 39.7096 -53.2125C40.8871 -53.3457 41.4672 -54.5638 42.3284 -55.1158V-55.0207ZM33.3655 2.93533C33.6466 4.47702 34.8241 5.35258 35.5622 6.55168C34.2346 7.1189 33.0702 8.05821 32.1881 9.27341C31.6683 7.77448 30.8865 6.39803 29.8858 5.21933C31.1865 4.71983 32.3816 3.94321 33.4006 2.93533H33.3655ZM44.7536 -70.5517C44.8942 -68.7816 46.1243 -67.849 46.88 -66.5357C45.6306 -66.0424 44.5009 -65.2484 43.576 -64.2136C43.0099 -65.5858 42.2044 -66.8268 41.2036 -67.868C42.519 -68.5183 43.711 -69.4283 44.7184 -70.5517H44.7536ZM31.2391 16.7153C31.6636 18.6137 32.7376 20.2667 34.2442 21.3404C32.4346 21.8327 30.8573 23.0327 29.8157 24.7093C29.3787 22.7236 28.339 20.9542 26.8632 19.6845C28.542 19.1394 30.0538 18.1136 31.2391 16.7153ZM47.0557 -86.0637C47.4411 -84.0549 48.4912 -82.2679 50.0082 -81.039C48.2469 -80.7067 46.6726 -79.6496 45.6147 -78.0888C45.003 -79.8882 43.9667 -81.4828 42.6094 -82.7139C44.3982 -83.2548 45.9653 -84.4355 47.0557 -86.0637ZM29.0599 30.4383C29.2807 31.6329 29.7375 32.7616 30.3988 33.7471C31.0601 34.7327 31.9103 35.5518 32.8911 36.1482C30.1672 36.3005 28.6206 38.2419 27.3025 40.5639C27.214 39.2431 26.8323 37.965 26.1898 36.8383C25.5472 35.7116 24.6629 34.7697 23.612 34.0926C24.7005 33.9414 25.7476 33.5449 26.686 32.9286C27.6243 32.3123 28.433 31.4898 29.0599 30.5144V30.4383ZM49.4985 -101.842C49.5542 -100.513 49.9245 -99.2211 50.5739 -98.0912C51.2232 -96.9613 52.1298 -96.0311 53.2065 -95.3899C52.1074 -95.2621 51.0479 -94.8736 50.1032 -94.2518C49.1585 -93.6301 48.352 -92.7905 47.7411 -91.7927C47.4954 -92.977 47.0288 -94.0943 46.37 -95.0761C45.7112 -96.058 44.8739 -96.8838 43.9098 -97.5027C45.1033 -97.6815 46.2377 -98.1763 47.2125 -98.9432C48.1872 -99.7101 48.9724 -100.725 49.4985 -101.899V-101.842ZM21.96 -13.7948C22.273 -12.7236 22.8875 -11.7853 23.7174 -11.1111C22.8443 -10.246 21.8692 -9.50993 20.8176 -8.92229C20.677 -10.2736 19.4996 -10.8256 19.0602 -12.0247C20.185 -12.3292 20.8178 -13.357 21.8722 -13.7948H21.96ZM23.9107 -28.241C24.2446 -27.099 25.1233 -26.3377 25.6681 -25.367C24.7582 -25.1161 23.9646 -24.5136 23.4363 -23.673C22.6631 -24.6056 22.0479 -25.5763 21.3449 -26.6422C22.4521 -26.8135 23.1023 -27.7081 23.9458 -28.241H23.9107ZM26.4238 -43.0297C26.7645 -42.0413 27.2912 -41.1404 27.9703 -40.3842C26.9159 -40.0416 26.213 -39.1089 25.3518 -38.4808C25.0707 -39.6038 24.192 -40.2699 23.5944 -41.1454C24.7368 -41.469 25.3518 -42.4777 26.4238 -42.9345V-43.0297ZM28.3217 -57.8185C29.2138 -56.8747 29.9772 -55.798 30.5889 -54.6209C29.6043 -54.2929 28.7462 -53.6243 28.146 -52.7176C27.3304 -53.6639 26.6384 -54.7269 26.0898 -55.8771C27.0911 -56.1571 27.9576 -56.837 28.515 -57.7804L28.3217 -57.8185ZM19.5523 0.251709C20.6244 1.41273 21.2044 2.89732 22.3116 4.05833C20.998 4.72032 19.8069 5.63617 18.7968 6.76102C18.3182 5.17422 17.4565 3.7549 16.3012 2.6499C17.6046 2.29315 18.7609 1.47601 19.5875 0.327805L19.5523 0.251709ZM31.327 -73.0831C31.8572 -71.5796 32.6441 -70.1978 33.6467 -69.01C32.0826 -68.7626 31.3446 -67.297 29.9562 -66.7641C29.675 -68.3629 28.3746 -69.2003 27.5838 -70.4184C29.0359 -70.9126 30.3322 -71.8354 31.327 -73.0831ZM17.8477 14.2029C18.4614 16.0061 19.5042 17.6018 20.8704 18.8281C19.0723 19.3584 17.5004 20.5493 16.4241 22.1969C16.0114 20.1308 14.8865 18.3133 13.2785 17.1151C15.0586 16.7227 16.6667 15.6977 17.8477 14.2029ZM33.6643 -88.5761C34.0866 -86.5833 35.1215 -84.8048 36.5992 -83.5323C34.9205 -82.9969 33.4079 -81.9772 32.2233 -80.5822C31.646 -82.4676 30.5247 -84.1023 29.0247 -85.2453C30.9133 -85.6573 32.5784 -86.8527 33.6643 -88.5761ZM15.6686 27.9259C15.9152 29.1097 16.3822 30.2266 17.0409 31.2084C17.6996 32.1901 18.5361 33.0161 19.4996 33.6358C16.8635 33.8262 15.3698 35.7676 13.9464 37.8422C13.8686 36.5073 13.4625 35.2192 12.7703 34.1114C12.0781 33.0037 11.1251 32.1167 10.0098 31.5422C11.1375 31.4396 12.23 31.067 13.2086 30.4515C14.1872 29.836 15.0274 28.9929 15.6686 27.983V27.9259ZM36.1775 -104.773C35.9666 -101.423 37.8118 -99.5963 39.8152 -97.9023C38.7237 -97.7457 37.6742 -97.345 36.7333 -96.7257C35.7924 -96.1065 34.9808 -95.2821 34.3497 -94.305C34.0942 -95.539 33.5833 -96.694 32.8557 -97.6831C32.1282 -98.6722 31.2029 -99.4695 30.1495 -100.015C33.1546 -100.015 34.8067 -102.166 36.1775 -104.754V-104.773ZM8.70934 -17.0495C8.9378 -15.3555 10.3261 -14.5181 10.8181 -13.0335C9.35949 -12.748 8.60379 -11.3395 7.49663 -10.5021C7.00695 -12.0878 6.14029 -13.5057 4.98367 -14.6132C6.35564 -15.165 7.6195 -15.9916 8.70934 -17.0495ZM10.9237 -31.4576C11.3993 -30.1572 12.1103 -28.9729 13.0149 -27.9745C11.7619 -27.3796 10.6278 -26.5262 9.67578 -25.4621C9.05573 -26.9169 8.19856 -28.2387 7.14523 -29.3639C8.77961 -29.4781 9.6231 -30.8105 10.8181 -31.5908L10.9237 -31.4576ZM13.1204 -46.4176C13.5972 -45.0085 14.3257 -43.715 15.2644 -42.611C13.8409 -42.3445 13.0501 -41.0883 11.9781 -40.308C11.4053 -41.7469 10.5187 -43.014 9.39454 -44.0004C10.7665 -44.5522 12.0306 -45.3788 13.1204 -46.4367V-46.4176ZM15.4049 -61.2635C15.7536 -59.8357 16.5177 -58.5677 17.5841 -57.6472C16.5472 -56.5053 15.1941 -55.8961 14.1924 -54.7161C13.5581 -56.1385 12.6951 -57.4275 11.6441 -58.5227C13.0982 -59.0236 14.3986 -59.945 15.4049 -61.1874V-61.2635ZM6.44223 -3.13625C7.02943 -1.38687 7.99333 0.185684 9.25402 1.45081C7.60036 2.06999 6.13942 3.17751 5.03623 4.64836C4.57307 2.71771 3.52014 1.01369 2.04874 -0.186127C3.73746 -0.70932 5.25861 -1.73072 6.44223 -3.13625ZM17.7598 -76.4139C18.261 -74.5693 19.2219 -72.9098 20.5366 -71.6175C18.9378 -71.0068 17.5016 -69.9807 16.354 -68.6293C15.751 -70.4386 14.7064 -72.0369 13.3313 -73.2543C15.0999 -73.7226 16.6643 -74.8389 17.7598 -76.4139ZM4.28067 10.8532C4.86415 13.0181 6.10189 14.9082 7.79546 16.2204C6.76416 16.3906 5.7894 16.8413 4.96265 17.5304C4.13589 18.2194 3.48403 19.1243 3.06795 20.1603C2.41273 17.7505 0.994099 15.668 -0.938751 14.2791C1.15961 13.9126 3.04737 12.6859 4.33344 10.8532H4.28067ZM20.3783 -91.8117C20.5072 -90.6643 20.8629 -89.5605 21.4209 -88.5752C21.9788 -87.5899 22.7262 -86.7463 23.612 -86.1017C21.345 -85.8353 20.0973 -84.1984 18.5683 -82.6377C17.9863 -84.8657 16.6742 -86.7876 14.8778 -88.0431C17.5315 -88.0431 18.8142 -90.1749 20.3783 -91.8498V-91.8117ZM22.575 -107.343C22.6383 -105.928 23.0476 -104.557 23.7609 -103.37C24.4742 -102.182 25.466 -101.222 26.6347 -100.586C25.4478 -100.481 24.308 -100.037 23.3321 -99.2975C22.3562 -98.5583 21.5793 -97.5513 21.0813 -96.3797C20.7437 -97.7222 20.1482 -98.9722 19.3335 -100.048C18.5189 -101.124 17.5035 -102.001 16.354 -102.622C17.7098 -102.637 19.0297 -103.096 20.1401 -103.938C21.2506 -104.781 22.0995 -105.968 22.575 -107.343ZM2.4705 24.6332C2.62866 27.6595 4.52659 29.3724 6.58274 30.9711C3.45458 30.9711 1.60934 33.1601 0.467037 36.3196C0.544628 34.7008 0.152512 33.0962 -0.654289 31.7309C-1.46109 30.3656 -2.64202 29.308 -4.03179 28.7063C-0.991489 28.7063 0.783394 26.8029 2.4705 24.6902V24.6332ZM-4.66464 -20.6277C-4.13853 -18.7908 -3.1746 -17.1364 -1.87022 -15.8313C-3.59438 -15.2313 -5.08876 -14.0343 -6.1232 -12.4244C-6.52984 -14.4882 -7.64882 -16.306 -9.25142 -17.5063C-7.43484 -17.94 -5.81366 -19.0433 -4.66464 -20.6277ZM-2.39753 -35.2452C-2.05939 -33.3213 -1.06106 -31.6076 0.396671 -30.4488C-1.25031 -29.8155 -2.70777 -28.7105 -3.82091 -27.2512C-4.3563 -29.2107 -5.47467 -30.9237 -7.0019 -32.1237C-5.15784 -32.4961 -3.51259 -33.6115 -2.39753 -35.2452ZM-0.14801 -49.8436C0.378601 -48.0124 1.34248 -46.3643 2.64619 -45.0662C0.917503 -44.6164 -0.58963 -43.4738 -1.5716 -41.8687C-2.04447 -43.8501 -3.1693 -45.576 -4.73479 -46.7221C-2.91989 -47.1603 -1.29998 -48.2627 -0.14801 -49.8436ZM2.13669 -64.6705C2.54594 -62.724 3.51875 -60.9701 4.9133 -59.6648C3.26436 -59.0348 1.80167 -57.937 0.677917 -56.4861C0.159653 -58.4443 -0.955135 -60.155 -2.48527 -61.3397C-0.602371 -61.7543 1.0563 -62.9496 2.13669 -64.6705ZM-6.8262 -6.63828C-6.54502 -4.18301 -4.92824 -2.73654 -3.55747 -1.09969C-5.80694 -0.738052 -7.07214 1.08913 -8.47805 2.70694C-8.47805 -0.167068 -10.4815 -1.57546 -11.9928 -3.30748C-10.9318 -3.40864 -9.90604 -3.76961 -8.9927 -4.36311C-8.07937 -4.95661 -7.30237 -5.76722 -6.72066 -6.73354L-6.8262 -6.63828ZM4.61447 -79.9922C4.99259 -77.7168 6.14698 -75.6786 7.84823 -74.2822C5.87388 -73.6799 4.14573 -72.3718 2.94503 -70.5707C2.69899 -73.1783 0.800884 -74.5106 -0.692905 -76.1665C0.404297 -76.2931 1.45694 -76.7054 2.37503 -77.3682C3.29313 -78.0311 4.04939 -78.9249 4.57929 -79.9731L4.61447 -79.9922ZM-8.89981 7.29401C-8.6767 8.57744 -8.21203 9.79736 -7.53478 10.8779C-6.85754 11.9585 -5.98224 12.8766 -4.96326 13.5749C-7.88054 13.5749 -9.26899 16.0111 -10.7803 18.1619C-10.6222 14.6598 -12.8539 12.9468 -14.9979 11.1767C-13.7565 11.2113 -12.5303 10.8743 -11.4544 10.2027C-10.3784 9.53101 -9.49446 8.55086 -8.89981 7.37009V7.29401ZM6.75844 -95.409C6.96679 -94.0399 7.43522 -92.7325 8.13398 -91.5695C8.83275 -90.4064 9.74675 -89.4131 10.8181 -88.6522C9.64875 -88.4243 8.53522 -87.9384 7.54661 -87.2246C6.558 -86.5108 5.7154 -85.5844 5.07141 -84.503C4.98354 -87.6244 2.78688 -89.1851 0.765873 -90.86C2.09028 -90.7849 3.39972 -91.192 4.48575 -92.0164C5.57179 -92.8408 6.37181 -94.035 6.75844 -95.409ZM-11.1317 -68.4009C-11.0185 -67.1683 -10.6598 -65.9769 -10.0803 -64.909C-9.50085 -63.8411 -8.71428 -62.922 -7.77505 -62.2151C-8.84657 -61.9583 -9.85743 -61.4637 -10.7437 -60.7627C-11.6299 -60.0616 -12.3724 -59.1693 -12.9243 -58.142C-13.1352 -60.997 -14.9629 -62.6529 -16.8785 -64.2136C-15.6591 -64.2779 -14.4793 -64.702 -13.4664 -65.44C-12.4536 -66.178 -11.6462 -67.2019 -11.1317 -68.4009ZM-15.6833 -38.9567C-15.5461 -37.7556 -15.1723 -36.6004 -14.5871 -35.5693C-14.0019 -34.5382 -13.2192 -33.6553 -12.2917 -32.9802C-13.3616 -32.7191 -14.3707 -32.2228 -15.2564 -31.5222C-16.1421 -30.8216 -16.8855 -29.9315 -17.4407 -28.9071C-17.6273 -30.2141 -18.1015 -31.4534 -18.8234 -32.5201C-19.5452 -33.5868 -20.4935 -34.4497 -21.5882 -35.0358C-20.3723 -35.0684 -19.1862 -35.4481 -18.1493 -36.1365C-17.1125 -36.825 -16.2617 -37.7979 -15.6833 -38.9567ZM-13.434 -53.5741C-13.2697 -52.3818 -12.8844 -51.2378 -12.3016 -50.2108C-11.7187 -49.1838 -10.9502 -48.2949 -10.0422 -47.5977C-11.1212 -47.3686 -12.1404 -46.8848 -13.0273 -46.1809C-13.9142 -45.4769 -14.6472 -44.57 -15.1738 -43.5246C-15.3273 -44.8436 -15.7885 -46.0987 -16.5142 -47.171C-17.2399 -48.2433 -18.2061 -49.0976 -19.3213 -49.6533C-18.116 -49.7236 -16.946 -50.1191 -15.9178 -50.8038C-14.8896 -51.4886 -14.0358 -52.4409 -13.434 -53.5741ZM-20.1296 -10.1404C-20.0072 -8.84351 -19.5792 -7.60239 -18.8869 -6.53594C-18.1945 -5.46948 -17.2609 -4.6134 -16.1755 -4.0498C-17.4028 -3.71136 -18.5468 -3.08618 -19.5274 -2.21816C-20.508 -1.35014 -21.3013 -0.260284 -21.8518 0.974976C-21.9001 -0.506226 -22.3466 -1.94003 -23.1364 -3.15042C-23.9262 -4.36081 -25.025 -5.29517 -26.2981 -5.83893C-25.0066 -5.8838 -23.7506 -6.30762 -22.6642 -7.06521C-21.5778 -7.82279 -20.7018 -8.88573 -20.1296 -10.1404ZM-17.9505 -24.3392C-17.7801 -23.1467 -17.3905 -22.0034 -16.8049 -20.9768C-16.2193 -19.9503 -15.4496 -19.0614 -14.5412 -18.3628C-15.6865 -18.1291 -16.7631 -17.6007 -17.6806 -16.8224C-18.5981 -16.044 -19.3296 -15.0383 -19.8134 -13.8899C-19.8134 -17.1636 -21.887 -18.9909 -24.2946 -20.4945C-21.2016 -20.228 -19.5322 -22.1884 -18.0208 -24.3011L-17.9505 -24.3392ZM-8.86463 -83.5893C-8.86463 -80.2776 -7.00193 -78.3172 -5.05122 -76.471C-7.84548 -76.3568 -9.39184 -74.3202 -10.8329 -72.1124C-10.9911 -75.5003 -12.942 -77.5369 -15.8593 -78.8121C-14.3678 -78.6759 -12.8758 -79.0682 -11.608 -79.9298C-10.3402 -80.7914 -9.36518 -82.0756 -8.82966 -83.5893H-8.86463ZM-26.8254 -57.2285C-26.7842 -55.7243 -26.3472 -54.2642 -25.5657 -53.02C-24.7842 -51.7758 -23.6909 -50.7992 -22.4143 -50.2052C-25.1207 -49.6342 -27.5282 -48.5494 -28.4597 -45.2566C-29.2329 -48.6445 -30.5159 -51.5946 -34.2416 -52.3369C-43.134 -54.088 -44.7859 -39.756 -36.6668 -37.9669C-35.1245 -37.5796 -33.5046 -37.8168 -32.1126 -38.6337C-30.7206 -39.4506 -29.6525 -40.7908 -29.1099 -42.4017C-29.0443 -40.9254 -28.5912 -39.5 -27.8036 -38.293C-27.016 -37.086 -25.9266 -36.1475 -24.6636 -35.5878C-27.37 -34.9026 -29.936 -33.8747 -30.7619 -30.4297C-30.7619 -38.5759 -42.7297 -40.6506 -44.241 -32.0286C-45.7524 -23.4065 -33.9076 -19.7903 -31.3242 -27.9936C-30.9376 -24.7198 -29.7778 -22.0361 -26.5441 -20.9132C-29.602 -20.3422 -32.2732 -19.1811 -33.1168 -15.2032C-33.0972 -17.1803 -33.7696 -19.0922 -34.9988 -20.5541C-36.228 -22.016 -37.9228 -22.9195 -39.7422 -23.083C-46.5258 -23.5778 -49.2848 -11.663 -42.0971 -9.13162C-41.2405 -8.7731 -40.3231 -8.61681 -39.4063 -8.67322C-38.4894 -8.72963 -37.5943 -8.99747 -36.7807 -9.45876C-35.9671 -9.92004 -35.254 -10.5641 -34.6888 -11.348C-34.1237 -12.1319 -33.7194 -13.0374 -33.5034 -14.0041C-33.3628 -10.1975 -32.0271 -7.49487 -28.6178 -6.25771C-36.9302 -6.42902 -37.5454 7.73169 -28.9342 8.53108C-27.5139 8.67104 -26.0914 8.29152 -24.8936 7.45316C-23.6958 6.61479 -22.7919 5.36597 -22.3264 3.90604C-22.2267 5.42105 -21.7467 6.87779 -20.9384 8.11893C-20.13 9.36005 -19.0239 10.3384 -17.7396 10.9483C-20.6569 11.4813 -23.1173 12.7374 -23.996 15.8779C-26.5618 25.0518 -14.0316 29.7531 -11.2549 21.1501C-10.5343 24.2144 -9.3919 26.9932 -6.28131 28.2685C-14.6114 28.0972 -15.2266 42.2769 -6.61533 43.0573C-3.20597 43.3808 -0.903671 41.1539 0.308933 37.6328C0.502247 41.4394 1.80272 44.3896 5.58112 45.4745C-1.60663 44.3325 -4.40101 56.8943 2.82189 59.559C11.6089 62.7185 15.1238 48.1391 6.68829 45.8932C9.83403 45.8932 12.2768 44.656 13.4366 41.4965C14.2626 44.2754 15.1941 46.9971 18.3398 47.9868C10.7303 47.7584 9.18381 61.0245 17.2503 62.6233C25.3167 64.2221 28.1637 51.527 20.5894 48.634C21.9592 48.6163 23.2942 48.1656 24.4307 47.3372C25.5671 46.5087 26.4554 45.3386 26.9861 43.9708C27.566 46.921 28.6205 49.5285 31.6608 50.6134C30.4623 50.7355 29.3129 51.1889 28.3226 51.9302C27.3323 52.6714 26.5342 53.6756 26.0051 54.8466C25.4759 56.0176 25.2334 57.3162 25.3006 58.6179C25.3677 59.9196 25.7423 61.1808 26.3886 62.2807C31.2918 69.894 42.7148 61.9001 37.5129 53.8871C36.6765 52.7715 35.595 51.901 34.3673 51.3557C35.7162 51.3111 37.0235 50.8406 38.1288 50.002C39.2341 49.1634 40.0889 47.9933 40.5883 46.6355C41.2561 49.5856 42.3457 52.3455 45.4388 53.3162C43.8738 53.4403 42.3861 54.1013 41.1916 55.2033C39.997 56.3054 39.1579 57.7911 38.796 59.4448C37.3901 68.6378 50.5704 70.9598 52.0994 62.2807C52.3521 60.5596 52.052 58.7968 51.2492 57.2865C50.4464 55.7762 49.1895 54.6098 47.6883 53.9823C50.711 53.6016 53.1715 52.3835 54.1556 48.9005C54.7355 52.2122 55.9129 55.1433 59.5331 56.114C51.2382 55.3336 49.5687 69.932 58.8477 70.5982C65.8773 71.1121 68.531 58.9119 60.6051 56.5328C64.0145 56.4376 66.5803 55.0291 67.6347 51.3557C67.6347 60.3774 80.6922 61.2529 81.2897 51.9267C81.3827 50.3703 81.0063 48.8235 80.2171 47.519C79.4278 46.2145 78.2685 45.2231 76.9138 44.6941C78.3 44.6171 79.6383 44.1194 80.7757 43.2578C81.9131 42.3962 82.8038 41.2054 83.3459 39.8216C83.5568 48.7482 96.5614 49.5286 97.0535 39.993C97.1402 38.4562 96.7545 36.9316 95.9564 35.6575C95.1584 34.3834 93.9931 33.4316 92.6426 32.9507C95.4896 32.2084 97.9147 31.0473 99.1449 27.6594C98.9165 35.7104 110.41 37.8041 112.501 30.0957C112.79 29.129 112.894 28.1085 112.805 27.0969C112.717 26.0853 112.439 25.1039 111.988 24.2129C111.537 23.3218 110.923 22.5399 110.183 21.9151C109.444 21.2902 108.594 20.8356 107.686 20.5791C111.201 20.4459 113.89 19.0755 114.821 14.9834C114.754 16.9776 115.412 18.9207 116.655 20.3944C117.897 21.8681 119.624 22.7547 121.464 22.8631C128.493 23.377 130.743 11.4432 123.819 8.91177C122.96 8.57228 122.045 8.43114 121.133 8.49741C120.221 8.56366 119.331 8.83586 118.522 9.29652C117.712 9.75719 117.001 10.3962 116.433 11.1723C115.866 11.9485 115.454 12.8447 115.225 13.8033C115.085 10.3773 113.977 7.71268 111.06 6.39938C113.591 5.54289 116.104 4.62933 116.965 1.20337C116.965 9.33052 129.091 11.5574 130.479 2.59276C131.797 -5.89604 120.093 -9.4362 117.527 -1.21388C117.49 -2.71646 117.056 -4.17606 116.278 -5.42049C115.499 -6.6649 114.408 -7.64223 113.134 -8.23712C115.84 -8.82715 118.23 -9.91199 119.179 -13.1857C119.282 -11.869 119.693 -10.6025 120.375 -9.50674C121.057 -8.41094 121.986 -7.52227 123.075 -6.92522C124.163 -6.32818 125.375 -6.0426 126.594 -6.09566C127.813 -6.14872 128.999 -6.5386 130.04 -7.22831C137.069 -12.5766 129.056 -25.1575 121.886 -19.2382C120.98 -18.3599 120.276 -17.2651 119.83 -16.0407C119.766 -17.5175 119.314 -18.9439 118.526 -20.1513C117.738 -21.3587 116.647 -22.2968 115.383 -22.8546C118.09 -23.5398 120.655 -24.5676 121.464 -28.0126C121.323 -19.8854 133.608 -17.6204 134.996 -26.6231C136.279 -34.8835 124.662 -38.7282 122.044 -30.4297C121.657 -33.7034 120.48 -36.3872 117.264 -37.5101C120.321 -38.1002 122.993 -39.2421 123.819 -43.2201C123.924 -41.669 124.293 -40.1524 124.908 -38.7472C129.443 -30.7533 141.41 -38.7473 135.945 -46.7602C132.94 -51.1759 125.4 -50.4336 124.205 -44.4001C124.065 -48.2068 122.729 -50.9285 119.32 -52.1657C127.65 -51.9944 128.247 -66.155 119.654 -66.9353C118.232 -67.0856 116.805 -66.7103 115.605 -65.8705C114.406 -65.0307 113.504 -63.7759 113.046 -62.3103C112.942 -63.8289 112.459 -65.2884 111.648 -66.5323C110.837 -67.7762 109.728 -68.7577 108.442 -69.3716C116.684 -69.4668 117.229 -83.5513 108.442 -84.2175C107.043 -84.3439 105.645 -83.9512 104.48 -83.1038C103.314 -82.2563 102.449 -81.0046 102.027 -79.5543C101.289 -82.6377 100.147 -85.4165 97.0535 -86.6918C100.129 -87.1295 102.642 -88.5952 103.521 -91.7737C106.069 -101.119 92.5899 -105.439 90.4459 -96.0562C90.2702 -99.8628 88.9697 -102.813 85.1737 -103.879C92.2033 -102.889 95.4192 -115.299 87.9327 -117.963C79.0227 -121.161 75.631 -106.543 84.0665 -104.316C80.9032 -104.316 78.4603 -103.06 77.3004 -99.9198C76.4744 -102.68 75.5432 -105.401 72.415 -106.391C80.0069 -106.258 81.694 -119.41 73.5046 -121.028C65.7544 -122.55 62.5032 -110.064 70.1655 -107.057C68.7906 -107.042 67.4501 -106.59 66.31 -105.758C65.1699 -104.925 64.2802 -103.749 63.7509 -102.375C63.171 -105.344 62.1341 -107.933 59.0938 -109.018C62.1516 -109.779 64.8229 -111.092 65.5083 -114.975C67.2657 -124.758 53.7864 -126.795 52.2399 -118.02C51.5721 -114.214 53.2592 -111.492 56.4577 -109.76C55.1097 -109.722 53.8016 -109.256 52.6958 -108.42C51.5899 -107.585 50.735 -106.416 50.2366 -105.059C49.5688 -107.99 48.5671 -110.769 45.3862 -111.739C52.8903 -111.568 54.6301 -124.549 46.6515 -126.338C38.6729 -128.127 35.5272 -115.28 43.1367 -112.387C40.114 -112.006 37.6535 -110.788 36.6518 -107.305C36.0894 -110.635 34.9823 -113.548 31.3796 -114.518C33.1949 -114.425 34.9702 -115.117 36.3148 -116.441C37.6594 -117.765 38.4634 -119.614 38.5499 -121.58C38.5644 -122.901 38.2493 -124.202 37.6382 -125.346C37.027 -126.49 36.1425 -127.434 35.0774 -128.079C34.0123 -128.724 32.8062 -129.046 31.5864 -129.011C30.3666 -128.976 29.178 -128.585 28.146 -127.88C24.0162 -124.891 24.5082 -116.06 30.2724 -114.937C26.7576 -114.937 24.2797 -113.433 23.2428 -109.76C22.7683 -113.11 21.4855 -115.851 18.4452 -116.859C10.1678 -119.619 6.14352 -106.182 13.9639 -103.117C12.576 -103.029 11.2379 -102.525 10.099 -101.661C8.9602 -100.798 8.06535 -99.6082 7.51422 -98.2258C7.00457 -101.404 5.75681 -104.088 2.89225 -105.078C-5.61355 -108.009 -9.76107 -94.4954 -1.78248 -91.374C-4.61189 -90.6126 -7.14246 -89.4707 -8.28477 -86.0828C-8.74169 -89.4136 -10.0421 -92.1543 -13.0648 -93.1821C-21.7464 -96.0752 -25.5072 -81.5148 -16.8257 -79.0596C-20.3405 -78.9263 -23.0294 -77.5558 -23.9608 -73.4827C-24.0598 -75.0265 -24.4233 -76.5369 -25.0328 -77.9365C-29.5845 -85.9305 -41.5346 -77.9365 -36.0867 -69.9235C-33.0991 -65.5649 -25.2612 -66.2312 -24.3474 -72.2838C-24.2068 -68.8578 -23.0997 -66.1931 -20.1824 -64.8798C-22.7306 -64.0233 -25.2261 -63.1097 -26.0872 -59.6837C-25.929 -65.7933 -33.8901 -69.3145 -37.8267 -64.975C-45.2429 -56.7526 -30.2522 -46.3415 -26.6671 -57.2475" fill="#F8AC39"/>
<path d="M-3.3115 65.2879C-3.76455 67.1971 -3.58411 69.218 -2.80179 70.9978C1.16993 78.1353 13.0148 71.7591 7.95348 63.5939C7.27769 62.5431 6.34485 61.717 5.25967 61.2084C4.1745 60.6998 2.98001 60.5289 1.81009 60.7147C0.640179 60.9005 -0.458737 61.4357 -1.36339 62.2603C-2.26804 63.0849 -2.94276 64.1663 -3.3115 65.383" fill="#F8AC39"/>
<path d="M-5.12125 79.5819C-5.50819 80.6481 -5.63095 81.8053 -5.47715 82.9387C-5.32334 84.0721 -4.89851 85.1422 -4.2447 86.0427C-3.59088 86.9433 -2.7309 87.6429 -1.75019 88.0721C-0.769472 88.5013 0.29792 88.6452 1.34585 88.4894C7.28586 87.7852 7.72513 78.5922 3.24376 76.1369C2.4962 75.7017 1.67103 75.4457 0.824126 75.3861C-0.0227776 75.3265 -0.871531 75.4647 -1.66481 75.7914C-2.45808 76.1181 -3.17723 76.6257 -3.7736 77.2796C-4.36996 77.9336 -4.82951 78.7187 -5.12125 79.5819Z" fill="#F8AC39"/>
<path d="M-6.96675 94.0661C-7.30886 94.9741 -7.4441 95.958 -7.36105 96.9346C-7.27799 97.9112 -6.97915 98.8518 -6.48964 99.6769C-6.00014 100.502 -5.33427 101.187 -4.54861 101.675C-3.76295 102.163 -2.88058 102.438 -1.9758 102.479C4.93077 103.031 5.24714 92.3912 0.0452485 90.564C-0.625974 90.2628 -1.34742 90.1151 -2.07384 90.1301C-2.80026 90.1452 -3.51591 90.3228 -4.17598 90.6516C-4.83605 90.9805 -5.4263 91.4536 -5.90956 92.0411C-6.39283 92.6287 -6.75874 93.3181 -6.98434 94.0661" fill="#F8AC39"/>
<path d="M-8.89984 109.159C-11.202 117.001 -0.112988 119.266 1.06447 111.976C2.08376 105.353 -7.00185 102.688 -8.89984 109.159Z" fill="#F8AC39"/>
<path d="M10.0799 67.5148C7.49653 75.5659 17.9005 80.2099 21.468 73.7958C26.1427 65.4021 13.0675 58.1696 10.0799 67.5148Z" fill="#F8AC39"/>
<path d="M8.23488 81.9991C7.81735 83.0229 7.64821 84.1452 7.74383 85.2597C7.83945 86.3741 8.1965 87.4435 8.78106 88.3665C9.36562 89.2894 10.1585 90.0353 11.084 90.5332C12.0095 91.031 13.0371 91.2644 14.0693 91.2111C20.9408 91.2111 22.3642 77.8879 13.3839 77.8879C12.2426 77.909 11.1354 78.3117 10.2137 79.0409C9.29189 79.77 8.60071 80.79 8.23488 81.961" fill="#F8AC39"/>
<path d="M6.38934 96.4833C5.94027 97.5565 5.78255 98.746 5.93476 99.9127C6.08696 101.079 6.54291 102.175 7.24894 103.071C7.95498 103.968 8.88198 104.628 9.92172 104.975C10.9615 105.321 12.071 105.34 13.1203 105.029C14.5446 104.536 15.7429 103.476 16.4736 102.063C17.2042 100.65 17.4128 98.9889 17.0569 97.4159C16.8539 96.617 16.5068 95.8695 16.0359 95.2164C15.565 94.5633 14.9796 94.0176 14.3131 93.6107C13.6466 93.2038 12.9123 92.9437 12.1526 92.8455C11.3929 92.7473 10.6227 92.8128 9.88654 93.0383C9.07928 93.2749 8.33738 93.7209 7.72498 94.3377C7.11258 94.9545 6.64812 95.7236 6.37175 96.5785" fill="#F8AC39"/>
<path d="M4.4915 111.386C1.53908 119.723 14.1571 122.464 14.5086 113.784C14.7546 107.465 6.44221 105.829 4.4915 111.386Z" fill="#F8AC39"/>
<path d="M2.47038 126.898C0.906295 133.312 10.4665 135.977 11.6967 129.354C12.9269 122.73 4.03446 120.427 2.47038 126.898Z" fill="#F8AC39"/>
<path d="M0.853488 141.211C0.543761 141.977 0.435597 142.82 0.540923 143.648C0.64625 144.476 0.960981 145.256 1.4503 145.902C1.93962 146.548 2.58446 147.035 3.31346 147.309C4.04246 147.583 4.8273 147.633 5.581 147.454C10.1502 146.731 10.449 137.157 3.8236 138.204C3.12431 138.383 2.47916 138.754 1.94993 139.28C1.4207 139.807 1.02514 140.472 0.800929 141.211" fill="#F8AC39"/>
<path d="M-0.604984 155.771C-2.73143 161.691 5.38782 162.814 6.28409 158.189C7.07492 154.059 1.01182 151.051 -0.604984 155.771Z" fill="#F8AC39"/>
<path d="M-2.32707 170.713C-2.53296 171.144 -2.64139 171.622 -2.64329 172.107C-2.64518 172.593 -2.54052 173.072 -2.33801 173.505C-2.13551 173.938 -1.84084 174.312 -1.47841 174.598C-1.11597 174.884 -0.696239 175.072 -0.253465 175.147C0.15255 175.255 0.574542 175.272 0.986924 175.198C1.39931 175.124 1.79367 174.961 2.14601 174.717C2.49835 174.474 2.80138 174.155 3.03693 173.781C3.27249 173.407 3.43557 172.985 3.5164 172.541C3.59723 172.097 3.59408 171.64 3.50718 171.197C3.42027 170.754 3.25141 170.335 3.01076 169.965C2.77012 169.595 2.46281 169.281 2.10718 169.043C1.75154 168.806 1.35501 168.648 0.941659 168.581C0.597549 168.476 0.237244 168.449 -0.117027 168.5C-0.471298 168.552 -0.811983 168.682 -1.11822 168.881C-1.42446 169.081 -1.6897 169.347 -1.89759 169.662C-2.10549 169.977 -2.25167 170.334 -2.32707 170.713Z" fill="#F8AC39"/>
<path d="M-3.78599 185.197C-4.00794 185.617 -4.12451 186.093 -4.12451 186.577C-4.12451 187.061 -4.00794 187.536 -3.78599 187.957C-0.903858 192.391 3.24363 184.15 -1.78253 183.903C-2.22188 183.903 -3.03027 183.636 -3.75081 185.197" fill="#F8AC39"/>
<path d="M23.5592 69.9702C23.1107 71.127 22.9564 72.3929 23.1126 73.6361C23.2687 74.8794 23.7296 76.0546 24.4471 77.0397C25.1647 78.0247 26.1128 78.7836 27.1929 79.2374C28.273 79.6911 29.4456 79.8233 30.5888 79.62C37.8117 78.7635 37.9875 64.4886 28.4272 65.6115C27.3591 65.8514 26.3629 66.3753 25.5284 67.1362C24.6939 67.8972 24.0474 68.8711 23.6472 69.9702" fill="#F8AC39"/>
<path d="M21.8018 84.6637C18.1113 95.1319 34.7186 97.3969 33.3654 86.1102C32.7152 80.7238 24.104 78.1924 21.8018 84.6637Z" fill="#F8AC39"/>
<path d="M19.9039 99.1478C16.3891 109.14 32.2057 110.91 30.6944 100.423C30.3851 98.7785 29.486 97.3338 28.1945 96.4061C26.903 95.4784 25.3246 95.1433 23.8053 95.4744C22.9058 95.6386 22.0657 96.0684 21.3773 96.7165C20.6889 97.3647 20.1791 98.206 19.9039 99.1478Z" fill="#F8AC39"/>
<path d="M18.0059 114.051C14.7899 123.206 29.3588 124.748 28.0232 115.174C27.4257 110.853 20.0796 108.132 18.0059 114.051Z" fill="#F8AC39"/>
<path d="M16.0376 129.354C15.7493 130.197 15.6731 131.109 15.8166 131.995C15.9601 132.881 16.3183 133.71 16.8545 134.397C17.3906 135.084 18.0855 135.605 18.8682 135.906C19.651 136.207 20.4935 136.277 21.3097 136.11C27.0916 135.406 26.4414 124.824 19.7808 125.642C18.8993 125.806 18.0809 126.244 17.4255 126.903C16.7702 127.562 16.3062 128.414 16.0903 129.354" fill="#F8AC39"/>
<path d="M14.4034 143.667C14.1166 144.233 13.951 144.862 13.9192 145.507C13.8874 146.151 13.9902 146.796 14.2198 147.392C14.4494 147.988 14.7999 148.52 15.2454 148.949C15.6909 149.379 16.2201 149.694 16.7934 149.871C22.7159 151.984 25.3696 141.421 18.3751 140.85C17.5161 140.76 16.6543 140.991 15.9323 141.503C15.2103 142.015 14.6711 142.778 14.4034 143.667Z" fill="#F8AC39"/>
<path d="M12.7511 158.189C10.3435 164.489 19.9213 166.126 19.7807 159.578C19.7807 156.742 14.5085 153.583 12.7511 158.189Z" fill="#F8AC39"/>
<path d="M11.029 173.13C10.7505 173.701 10.6325 174.348 10.6894 174.992C10.7463 175.635 10.9757 176.246 11.3493 176.75C11.7229 177.253 12.2244 177.628 12.792 177.827C13.3596 178.026 13.9685 178.04 14.5438 177.869C15.2667 177.647 15.8931 177.154 16.3109 176.478C16.7286 175.801 16.9103 174.986 16.8236 174.178C16.7369 173.369 16.3873 172.621 15.8376 172.066C15.2879 171.512 14.5738 171.187 13.8232 171.15C13.215 171.049 12.5935 171.185 12.069 171.534C11.5446 171.882 11.1511 172.421 10.9587 173.054" fill="#F8AC39"/>
<path d="M9.50015 187.9C9.27275 188.314 9.15283 188.788 9.15283 189.27C9.15283 189.752 9.27275 190.226 9.50015 190.64C12.3823 195.075 16.5298 186.834 11.5036 186.586C11.0467 186.586 10.2558 186.32 9.51774 187.9" fill="#F8AC39"/>
<path d="M37.1086 72.9012C34.5428 80.9332 44.929 85.5963 48.4965 79.1631C53.1712 70.7695 40.0962 63.5559 37.1086 72.9012Z" fill="#F8AC39"/>
<path d="M35.2636 87.3474C34.8449 88.37 34.6751 89.4917 34.7704 90.6056C34.8657 91.7195 35.223 92.7884 35.8081 93.7103C36.3932 94.6322 37.1864 95.3763 38.1125 95.8718C39.0386 96.3672 40.0665 96.5973 41.0981 96.5403C47.9695 96.5403 49.4105 83.2171 40.4127 83.2171C39.2699 83.2424 38.1622 83.649 37.2407 84.3814C36.3191 85.1137 35.6287 86.1362 35.2636 87.3093" fill="#F8AC39"/>
<path d="M33.4359 101.813C32.9888 102.884 32.8319 104.071 32.9837 105.235C33.1354 106.4 33.5896 107.493 34.2931 108.389C34.9966 109.284 35.9205 109.945 36.9573 110.294C37.9941 110.642 39.1009 110.665 40.1491 110.359C41.5734 109.865 42.7719 108.805 43.5025 107.392C44.2332 105.979 44.4417 104.318 44.0858 102.745C43.8849 101.945 43.5391 101.196 43.0688 100.541C42.5984 99.887 42.0127 99.3403 41.3457 98.933C40.6786 98.5258 39.9435 98.2661 39.183 98.169C38.4225 98.072 37.6517 98.1395 36.9155 98.3677C36.1089 98.6057 35.3676 99.0522 34.7554 99.6689C34.1432 100.285 33.6784 101.054 33.4007 101.908" fill="#F8AC39"/>
<path d="M31.5204 116.677C28.5855 125.014 41.186 127.774 41.5551 119.095C41.8011 112.757 33.4711 111.12 31.5204 116.677Z" fill="#F8AC39"/>
<path d="M29.5344 132.018C29.2479 132.863 29.1728 133.775 29.3167 134.661C29.4606 135.547 29.8183 136.376 30.3537 137.064C30.8891 137.752 31.583 138.275 32.3651 138.579C33.1471 138.882 33.9895 138.957 34.8066 138.794C40.5709 138.071 39.9382 127.488 33.2953 128.307C32.4099 128.47 31.5871 128.908 30.926 129.566C30.265 130.225 29.794 131.076 29.5696 132.018" fill="#F8AC39"/>
<path d="M27.9527 146.122C27.6657 146.687 27.4995 147.314 27.4666 147.958C27.4338 148.602 27.5351 149.246 27.7629 149.841C27.9907 150.437 28.3392 150.97 28.7827 151.4C29.2263 151.83 29.7534 152.147 30.3252 152.327C36.2476 154.439 38.9013 143.876 31.9245 143.305C31.0654 143.215 30.2039 143.446 29.4819 143.958C28.7599 144.47 28.2205 145.233 27.9527 146.122Z" fill="#F8AC39"/>
<path d="M26.2305 161.063C24.104 166.982 32.2231 168.105 33.1193 163.499C33.9277 159.369 27.8473 156.362 26.2305 161.063Z" fill="#F8AC39"/>
<path d="M24.5259 176.004C24.316 176.433 24.204 176.91 24.1991 177.396C24.1943 177.882 24.2967 178.362 24.498 178.796C24.6992 179.23 24.9933 179.605 25.3559 179.891C25.7184 180.177 26.1387 180.365 26.5819 180.439C26.9788 180.524 27.3873 180.523 27.7841 180.437C28.1808 180.351 28.5581 180.181 28.8943 179.937C29.2304 179.693 29.5189 179.38 29.7433 179.016C29.9677 178.651 30.1238 178.242 30.2022 177.812C30.2807 177.382 30.2801 176.94 30.2007 176.51C30.1213 176.08 29.9645 175.672 29.7393 175.308C29.5141 174.944 29.225 174.631 28.8882 174.388C28.5515 174.145 28.174 173.976 27.777 173.891C27.4352 173.783 27.0766 173.753 26.7235 173.803C26.3704 173.852 26.0303 173.98 25.7251 174.178C25.4198 174.377 25.1557 174.641 24.9493 174.955C24.7429 175.27 24.5988 175.626 24.5259 176.004Z" fill="#F8AC39"/>
<path d="M23.0496 190.564C22.8222 190.979 22.7023 191.452 22.7023 191.935C22.7023 192.417 22.8222 192.89 23.0496 193.305C25.9317 197.759 30.0792 189.498 25.0355 189.251C24.5961 189.251 23.8053 188.985 23.0672 190.564" fill="#F8AC39"/>
<path d="M50.5703 75.9275C50.1329 77.8047 50.3068 79.7877 51.0625 81.5422C55.0518 88.6987 66.879 82.3036 61.8177 74.1193C61.1366 73.0693 60.1975 72.2469 59.107 71.7452C58.0164 71.2435 56.8178 71.0825 55.6471 71.2806C54.4764 71.4787 53.3805 72.0279 52.4833 72.866C51.586 73.7041 50.9233 74.7977 50.5703 76.0227" fill="#F8AC39"/>
<path d="M48.7601 90.2024C48.3747 91.2696 48.2531 92.4272 48.4072 93.5608C48.5614 94.6945 48.9861 95.765 49.6393 96.6665C50.2924 97.568 51.1514 98.2694 52.1314 98.7012C53.1115 99.1331 54.1787 99.2806 55.2275 99.129C61.1675 98.4247 61.6067 89.2126 57.143 86.7763C56.3952 86.3406 55.5699 86.0836 54.7227 86.0226C53.8754 85.9616 53.026 86.0982 52.2316 86.4228C51.4372 86.7475 50.7163 87.2528 50.1174 87.9048C49.5186 88.5568 49.0557 89.3403 48.7601 90.2024Z" fill="#F8AC39"/>
<path d="M46.9152 104.687C46.5692 105.593 46.4303 106.576 46.5106 107.553C46.5909 108.53 46.8879 109.472 47.3762 110.298C47.8645 111.123 48.5297 111.81 49.3153 112.297C50.1009 112.785 50.9837 113.06 51.8885 113.099C58.7951 113.67 59.1291 103.031 53.9272 101.203C53.2571 100.902 52.5366 100.753 51.8111 100.767C51.0856 100.781 50.3705 100.957 49.7107 101.284C49.0508 101.611 48.4603 102.082 47.9762 102.667C47.4922 103.253 47.125 103.94 46.8976 104.687" fill="#F8AC39"/>
<path d="M44.9645 119.799C42.6799 127.641 53.7513 129.887 54.9288 122.616C55.9481 115.992 46.8625 113.309 44.9645 119.799Z" fill="#F8AC39"/>
<path d="M43.3476 134.112C40.5182 141.725 52.4333 144.218 52.2927 135.882C52.2927 131.599 45.2632 128.954 43.3476 134.112Z" fill="#F8AC39"/>
<path d="M41.3792 149.415C39.9733 154.934 48.4088 157.675 49.4632 151.66C50.4825 146.198 42.8203 143.686 41.3792 149.415Z" fill="#F8AC39"/>
<path d="M39.7273 163.937C37.9699 169.799 45.9309 170.694 46.7569 165.954C47.4071 161.729 41.2738 159.293 39.7273 163.937Z" fill="#F8AC39"/>
<path d="M38.2864 178.307C37.1968 180.705 38.1633 182.113 39.3584 182.761C43.6991 184.835 46.1243 176.879 40.694 176.651C40.1836 176.622 39.6774 176.766 39.2459 177.063C38.8145 177.359 38.4792 177.794 38.2864 178.307Z" fill="#F8AC39"/>
<path d="M36.5112 193.648C36.3636 193.96 36.2851 194.305 36.2817 194.656C36.2782 195.006 36.3498 195.353 36.4913 195.669C36.6327 195.984 36.8399 196.26 37.0964 196.474C37.353 196.688 37.652 196.835 37.9698 196.902C41.1507 197.759 41.7834 192.753 39.0945 192.03C38.8271 191.929 38.5425 191.891 38.2605 191.92C37.9784 191.949 37.7056 192.043 37.4603 192.197C37.215 192.35 37.0032 192.559 36.8394 192.81C36.6757 193.06 36.5637 193.346 36.5112 193.648Z" fill="#F8AC39"/>
<path d="M65.9651 63.9176C65.7042 64.8564 65.6247 65.8433 65.7315 66.8168C65.8383 67.7904 66.129 68.7296 66.5858 69.5761C67.0425 70.4225 67.6553 71.1581 68.3861 71.7367C69.1168 72.3153 69.9499 72.7247 70.8332 72.9393C79.7256 74.8426 81.1314 60.739 73.3813 59.007C72.5962 58.7867 71.7783 58.7397 70.976 58.8689C70.1738 58.9981 69.4037 59.3008 68.7117 59.759C68.0197 60.2171 67.42 60.8215 66.9481 61.5359C66.4762 62.2503 66.142 63.0603 65.9651 63.9176Z" fill="#F8AC39"/>
<path d="M64.1728 77.983C61.027 86.8334 73.3463 90.5449 75.7364 83.2362C78.4603 74.8045 66.9495 70.2175 64.1728 77.983Z" fill="#F8AC39"/>
<path d="M62.2219 92.6767C61.7736 93.7413 61.6043 94.919 61.7328 96.0809C61.8613 97.2428 62.2826 98.344 62.9505 99.2638C63.6183 100.184 64.507 100.887 65.5192 101.296C66.5314 101.705 67.6282 101.805 68.6893 101.584C75.0335 100.69 75.2091 87.5567 66.3518 88.8319C65.4096 89.0018 64.5278 89.4456 63.8004 90.1161C63.073 90.7865 62.5274 91.6584 62.2219 92.6386" fill="#F8AC39"/>
<path d="M60.4647 107.161C59.9687 108.366 59.8524 109.714 60.1337 110.998C60.415 112.282 61.0784 113.43 62.0215 114.265C62.9646 115.101 64.1351 115.577 65.3527 115.621C66.5703 115.664 67.7674 115.273 68.7596 114.508C69.6677 113.684 70.3168 112.574 70.6167 111.332C70.9167 110.091 70.8527 108.779 70.4337 107.579C70.0148 106.379 69.2614 105.349 68.2782 104.633C67.295 103.917 66.1306 103.55 64.9462 103.583C63.9688 103.679 63.0346 104.064 62.2446 104.695C61.4547 105.326 60.8391 106.178 60.4647 107.161Z" fill="#F8AC39"/>
<path d="M58.5492 122.045C55.544 130.267 68.3906 132.722 68.25 123.948C68.25 118.238 60.412 116.944 58.5492 122.045Z" fill="#F8AC39"/>
<path d="M56.5809 137.366C56.3479 138.037 56.2569 138.755 56.3149 139.468C56.3728 140.182 56.5783 140.872 56.9158 141.488C57.2532 142.104 57.7141 142.63 58.2645 143.026C58.8149 143.423 59.4409 143.681 60.0957 143.781C66.1236 144.961 67.4592 135.063 61.6246 133.902C61.0827 133.754 60.5185 133.727 59.9665 133.823C59.4146 133.918 58.8865 134.135 58.4144 134.459C57.9424 134.783 57.5365 135.208 57.2213 135.708C56.906 136.208 56.6881 136.772 56.5809 137.366Z" fill="#F8AC39"/>
<path d="M54.9816 151.47C52.2928 158.608 63.7686 159.788 62.6966 152.346C62.2221 149.281 56.7742 146.636 54.9816 151.47Z" fill="#F8AC39"/>
<path d="M53.2593 166.411C52.9853 166.936 52.8418 167.53 52.8431 168.133C52.8445 168.736 52.9905 169.329 53.2668 169.853C53.5432 170.377 53.9407 170.814 54.4199 171.121C54.8992 171.429 55.4438 171.596 56.0008 171.607C56.4903 171.749 57.0025 171.775 57.502 171.682C58.0015 171.59 58.4767 171.382 58.8949 171.072C59.3132 170.762 59.6646 170.358 59.9251 169.887C60.1856 169.416 60.349 168.89 60.4041 168.344C60.4592 167.799 60.4046 167.246 60.2443 166.726C60.084 166.205 59.8217 165.728 59.4752 165.328C59.1288 164.927 58.7065 164.612 58.2372 164.405C57.7679 164.198 57.2628 164.103 56.7565 164.127C56.0108 163.926 55.2216 164.053 54.5626 164.481C53.9035 164.909 53.4285 165.604 53.2417 166.411" fill="#F8AC39"/>
<path d="M51.5548 181.39C49.9556 185.844 56.2118 186.853 56.9499 183.293C57.6881 179.734 52.8553 177.736 51.5548 181.39Z" fill="#F8AC39"/>
<path d="M81.8347 51.3366C81.3234 52.7821 81.2527 54.367 81.6328 55.8593C82.013 57.3515 82.824 58.6729 83.9473 59.63C85.0707 60.5872 86.4474 61.1298 87.876 61.1787C89.3046 61.2275 90.7101 60.78 91.887 59.9015C98.4069 54.7245 91.3948 43.2475 84.3301 47.8155C83.1313 48.6224 82.2446 49.8739 81.8347 51.3366Z" fill="#F8AC39"/>
<path d="M79.6905 66.4109C79.3489 67.3483 79.2087 68.3575 79.2805 69.3622C79.3523 70.367 79.6344 71.3408 80.1051 72.2101C80.5759 73.0794 81.2231 73.8213 81.9977 74.3796C82.7723 74.9379 83.6539 75.298 84.5761 75.4326C92.7655 77.0505 94.7515 63.6511 86.8608 61.881C86.1152 61.6553 85.3354 61.594 84.5675 61.7008C83.7996 61.8075 83.0594 62.0803 82.3907 62.5028C81.722 62.9253 81.1383 63.4888 80.6745 64.1602C80.2107 64.8315 79.876 65.5969 79.6905 66.4109Z" fill="#F8AC39"/>
<path d="M77.8805 80.6858C77.463 81.7096 77.2938 82.8319 77.3895 83.9464C77.4851 85.0608 77.8421 86.1302 78.4267 87.0532C79.0113 87.9761 79.8041 88.722 80.7296 89.2199C81.6552 89.7177 82.6827 89.9511 83.715 89.8978C90.5864 89.8978 92.0099 76.5746 83.0296 76.5746C81.8876 76.593 80.7792 76.9947 79.8569 77.7242C78.9347 78.4538 78.2441 79.4752 77.8805 80.6477" fill="#F8AC39"/>
<path d="M75.6485 96.3691C75.4384 97.1923 75.391 98.0541 75.5093 98.8985C75.6277 99.7429 75.9092 100.551 76.3355 101.269C76.7617 101.988 77.3231 102.601 77.983 103.068C78.6429 103.536 79.3863 103.847 80.165 103.982C89.5846 105.886 88.1436 88.5845 79.093 91.8772C78.1949 92.2034 77.3946 92.7857 76.7761 93.5627C76.1576 94.3398 75.7437 95.2828 75.5782 96.2929" fill="#F8AC39"/>
<path d="M73.8208 110.853C73.6177 111.625 73.5669 112.434 73.6717 113.228C73.7766 114.022 74.0348 114.783 74.4295 115.462C74.8241 116.141 75.3462 116.722 75.962 117.167C76.5778 117.613 77.2734 117.913 78.0035 118.048C84.7167 119.38 86.3862 108.017 79.9717 106.628C79.3056 106.441 78.611 106.405 77.9316 106.524C77.2522 106.642 76.6028 106.912 76.0247 107.317C75.4465 107.721 74.9521 108.251 74.5728 108.873C74.1934 109.495 73.9374 110.195 73.8208 110.929" fill="#F8AC39"/>
<path d="M72.2918 124.557C68.8824 132.951 82.3967 135.025 81.4653 126.156C81.4072 125.447 81.2111 124.759 80.89 124.138C80.5688 123.517 80.1298 122.976 79.602 122.552C79.0741 122.127 78.4692 121.829 77.8272 121.676C77.1851 121.523 76.5205 121.519 75.8769 121.664C75.1069 121.766 74.3757 122.087 73.758 122.595C73.1404 123.104 72.6586 123.781 72.3621 124.557" fill="#F8AC39"/>
<path d="M70.3236 139.86C70.0402 140.492 69.8988 141.187 69.9109 141.889C69.923 142.592 70.0883 143.281 70.3933 143.901C70.6984 144.521 71.1346 145.054 71.6661 145.456C72.1977 145.859 72.8095 146.119 73.4518 146.217C79.2337 147.587 80.9208 138.147 75.2092 136.815C74.6986 136.624 74.1564 136.553 73.6185 136.606C73.0806 136.659 72.5592 136.836 72.089 137.124C71.6188 137.412 71.2105 137.804 70.891 138.276C70.5716 138.748 70.3483 139.288 70.2359 139.86" fill="#F8AC39"/>
<path d="M68.7243 153.982C68.3373 154.719 68.1372 155.553 68.1444 156.4C68.3904 160.454 76.5624 162.319 76.1407 155.448C75.9649 152.346 70.5168 149.738 68.7243 153.982Z" fill="#F8AC39"/>
<path d="M67.0021 168.904C64.6121 174.614 73.5398 176.175 73.2938 170.142C73.1883 167.782 68.6189 165.041 67.0021 168.904Z" fill="#F8AC39"/>
<path d="M65.2623 184.055C65.0539 184.427 64.9347 184.849 64.9156 185.283C64.8964 185.718 64.978 186.15 65.1526 186.542C65.3273 186.933 65.5896 187.272 65.9157 187.525C66.2418 187.779 66.6213 187.94 67.0197 187.995C67.3819 188.121 67.7647 188.162 68.1429 188.117C68.5211 188.072 68.8862 187.941 69.2145 187.733C69.5428 187.525 69.827 187.244 70.0483 186.909C70.2696 186.574 70.423 186.192 70.4988 185.788C70.5746 185.384 70.571 184.968 70.4881 184.565C70.4052 184.163 70.245 183.784 70.0179 183.454C69.7907 183.123 69.5018 182.848 69.1698 182.647C68.8379 182.446 68.4705 182.322 68.0916 182.285C67.7985 182.188 67.4899 182.158 67.1855 182.197C66.881 182.235 66.5874 182.342 66.3231 182.511C66.0588 182.679 65.8295 182.905 65.6499 183.174C65.4703 183.443 65.3443 183.749 65.2798 184.074" fill="#F8AC39"/>
<path d="M97.5633 39.5931C97.0543 41.041 96.9856 42.6271 97.3673 44.1202C97.7489 45.6134 98.5611 46.9354 99.6852 47.8937C100.809 48.8519 102.186 49.3962 103.616 49.4472C105.046 49.4982 106.453 49.0532 107.633 48.1771C114.153 43.0001 107.141 31.5041 100.077 36.072C98.8818 36.8883 97.9917 38.1353 97.5633 39.5931Z" fill="#F8AC39"/>
<path d="M95.507 54.2678C92.9236 62.2998 103.328 66.9438 106.895 60.5297C111.552 52.136 98.4945 44.9225 95.507 54.2678Z" fill="#F8AC39"/>
<path d="M93.363 69.323C90.9554 77.983 103.644 81.5423 105.208 72.7109C106.631 64.6599 95.5773 61.4242 93.363 69.323Z" fill="#F8AC39"/>
<path d="M91.5881 83.3885C91.1306 84.7185 90.9797 86.1493 91.1488 87.5568C92.0275 91.5157 98.7584 94.7703 101.799 89.6504C104.329 85.406 101.535 78.2305 95.2962 79.677C94.4458 79.9521 93.6673 80.44 93.0231 81.1012C92.379 81.7625 91.8873 82.5786 91.5881 83.4836" fill="#F8AC39"/>
<path d="M89.7077 98.082C86.8608 105.809 97.5457 109.502 99.7424 103.031C100.134 102.071 100.289 101.017 100.193 99.9728C100.097 98.9285 99.7518 97.9291 99.1924 97.0721C98.633 96.215 97.8779 95.5298 97.001 95.083C96.1241 94.6362 95.1553 94.4432 94.189 94.5228C93.0467 94.5228 93.1171 94.6561 92.9765 94.6942C92.2388 94.9712 91.5648 95.4172 91.0007 96.0019C90.4366 96.5866 89.9957 97.296 89.7077 98.082Z" fill="#F8AC39"/>
<path d="M87.511 113.556C85.7536 120.655 96.298 123.415 97.5457 115.954C98.7935 108.493 89.0927 107.047 87.511 113.556Z" fill="#F8AC39"/>
<path d="M85.9644 127.469C83.135 135.083 95.0677 137.576 94.9095 129.22C94.9095 124.938 87.88 122.311 85.9644 127.469Z" fill="#F8AC39"/>
<path d="M84.0136 142.563C83.7039 143.328 83.5958 144.171 83.7011 144.999C83.8064 145.827 84.1211 146.607 84.6105 147.253C85.0998 147.9 85.7446 148.387 86.4736 148.66C87.2026 148.934 87.9872 148.985 88.7409 148.805C93.3102 148.082 93.6265 138.509 86.9835 139.555C86.2857 139.738 85.6421 140.11 85.1133 140.636C84.5846 141.162 84.188 141.825 83.9609 142.563" fill="#F8AC39"/>
<path d="M82.3968 156.876C79.9892 163.176 89.567 164.812 89.4264 158.265C89.4264 155.429 84.1542 152.27 82.3968 156.876Z" fill="#F8AC39"/>
<path d="M80.7098 171.607C78.4427 176.765 86.4388 178.573 86.5442 173.187C86.5442 170.77 82.3617 167.877 80.7098 171.607Z" fill="#F8AC39"/>
<path d="M78.9349 186.967C78.7833 187.307 78.7058 187.681 78.7084 188.059C78.7109 188.437 78.7934 188.81 78.9495 189.148C79.1056 189.486 79.3312 189.781 79.609 190.01C79.8867 190.239 80.2093 190.396 80.5518 190.469C80.8808 190.557 81.2228 190.573 81.5575 190.514C81.8922 190.456 82.2124 190.325 82.499 190.129C82.7857 189.933 83.0327 189.676 83.2252 189.373C83.4178 189.071 83.5519 188.73 83.6195 188.37C83.6871 188.011 83.6868 187.64 83.6187 187.28C83.5505 186.92 83.4159 186.579 83.2229 186.278C83.0298 185.976 82.7825 185.719 82.4956 185.524C82.2087 185.328 81.8882 185.198 81.5534 185.14C81.2659 185.076 80.9697 185.075 80.6818 185.137C80.3939 185.198 80.1201 185.321 79.8765 185.498C79.6328 185.675 79.4241 185.903 79.2625 186.168C79.1008 186.433 78.9895 186.731 78.9349 187.043" fill="#F8AC39"/>
<path d="M113.046 28.2304C112.788 29.1718 112.711 30.1604 112.82 31.1353C112.928 32.1101 113.221 33.0504 113.679 33.8979C114.137 34.7454 114.751 35.482 115.482 36.0622C116.214 36.6425 117.047 37.054 117.931 37.2712C126.824 39.1745 128.23 25.0709 120.48 23.3389C119.695 23.1182 118.877 23.0702 118.074 23.198C117.272 23.3258 116.501 23.6266 115.808 24.0827C115.115 24.5388 114.513 25.141 114.039 25.8534C113.564 26.5658 113.227 27.3742 113.046 28.2304Z" fill="#F8AC39"/>
<path d="M111.007 42.6766C110.666 43.6166 110.526 44.6283 110.599 45.6353C110.672 46.6423 110.955 47.6183 111.428 48.4892C111.9 49.3602 112.549 50.1034 113.326 50.6626C114.102 51.2219 114.986 51.5826 115.911 51.7173C124.083 53.3161 126.086 39.9358 118.178 38.1657C117.433 37.9369 116.654 37.8728 115.886 37.9772C115.118 38.0816 114.378 38.3524 113.709 38.7733C113.04 39.1942 112.456 39.7567 111.991 40.4273C111.527 41.0979 111.193 41.8629 111.007 42.6766Z" fill="#F8AC39"/>
<path d="M108.951 57.3321C106.526 65.9922 119.232 69.5513 120.796 60.739C122.219 52.6689 111.165 49.4333 108.951 57.3321Z" fill="#F8AC39"/>
<path d="M107.211 71.2072C103.415 81.0283 118.81 84.0166 118.441 73.4151C118.195 66.8106 109.285 65.8018 107.211 71.2072Z" fill="#F8AC39"/>
<path d="M105.067 86.2244C104.721 87.1322 104.583 88.1173 104.664 89.0956C104.745 90.074 105.043 91.0165 105.534 91.8429C106.024 92.6693 106.691 93.355 107.479 93.8415C108.267 94.328 109.152 94.601 110.058 94.637C116.965 95.208 117.281 84.5494 112.079 82.7413C111.409 82.4397 110.689 82.2912 109.963 82.3051C109.238 82.3189 108.523 82.4948 107.863 82.8218C107.203 83.1487 106.613 83.6198 106.129 84.2053C105.645 84.7907 105.277 85.4781 105.05 86.2244" fill="#F8AC39"/>
<path d="M103.187 100.956C99.9886 110.111 114.557 111.653 113.222 102.098C112.607 97.7586 105.278 95.0368 103.187 100.956Z" fill="#F8AC39"/>
<path d="M101.359 115.44C98.3365 123.625 110.831 125.661 110.673 117.344C110.673 113.175 103.468 109.73 101.359 115.44Z" fill="#F8AC39"/>
<path d="M99.4439 130.343C97.0362 137.157 106.877 139.384 107.844 133.065C108.635 127.907 101.324 125.052 99.4439 130.343Z" fill="#F8AC39"/>
<path d="M97.4755 145.646C97.3185 146.225 97.2746 146.833 97.347 147.432C97.4194 148.031 97.6063 148.606 97.8958 149.122C98.1852 149.638 98.5708 150.083 99.028 150.428C99.4852 150.773 100.004 151.012 100.551 151.127C105.823 152.174 107.036 143.514 101.886 142.486C100.915 142.273 99.9046 142.486 99.0776 143.078C98.2506 143.671 97.6745 144.594 97.4755 145.646Z" fill="#F8AC39"/>
<path d="M95.8587 159.959C94.2243 165.136 101.465 166.849 102.396 162.11C103.152 158.094 97.2997 155.372 95.8587 159.959Z" fill="#F8AC39"/>
<path d="M94.1717 174.691C92.5549 179.144 98.8287 180.172 99.5492 176.594C100.27 173.016 95.4721 171.055 94.1717 174.691Z" fill="#F8AC39"/>
<path d="M92.9236 189.003C90.9905 192.296 95.595 193.895 96.5967 191.858C97.8269 189.384 94.4701 186.358 92.9236 189.003Z" fill="#F8AC39"/>
<path d="M131.305 1.50786C128.739 9.55889 139.126 14.203 142.693 7.78878C147.368 -0.604841 134.293 -7.83742 131.305 1.50786Z" fill="#F8AC39"/>
<path d="M129.003 16.3347C128.552 18.244 128.732 20.2643 129.513 22.0446C133.484 29.1821 145.329 22.7869 140.268 14.6217C139.591 13.5712 138.657 12.746 137.571 12.2387C136.484 11.7314 135.289 11.5621 134.119 11.7499C132.949 11.9378 131.85 12.4752 130.946 13.3019C130.043 14.1285 129.37 15.2118 129.003 16.4298" fill="#F8AC39"/>
<path d="M127.052 30.3621C123.889 39.2125 136.208 42.9429 138.598 35.6151C141.322 27.1835 129.812 22.5775 127.052 30.3621Z" fill="#F8AC39"/>
<path d="M124.979 45.0176C124.561 46.0414 124.392 47.1638 124.488 48.2782C124.583 49.3926 124.94 50.4621 125.525 51.385C126.11 52.308 126.902 53.0539 127.828 53.5517C128.753 54.0496 129.781 54.2829 130.813 54.2297C137.685 54.2297 139.108 40.9065 130.11 40.9065C128.973 40.9369 127.872 41.3435 126.955 42.0716C126.038 42.7998 125.348 43.8145 124.979 44.9796" fill="#F8AC39"/>
<path d="M122.958 59.4638C122.486 60.7834 122.329 62.2103 122.501 63.613C123.38 67.5909 130.128 70.8455 133.151 65.7256C135.681 61.4812 132.887 54.2106 126.666 55.7332C125.814 56.0056 125.034 56.4926 124.39 57.1542C123.745 57.8158 123.254 58.6333 122.958 59.5398" fill="#F8AC39"/>
<path d="M120.849 74.3287C120.502 75.2339 120.363 76.2164 120.443 77.1925C120.523 78.1686 120.82 79.1092 121.309 79.934C121.798 80.7587 122.463 81.443 123.249 81.9286C124.035 82.4142 124.918 82.6864 125.822 82.7223C132.746 83.2933 133.063 72.6537 127.861 70.8265C127.189 70.5253 126.468 70.3777 125.742 70.3928C125.015 70.4078 124.3 70.5854 123.639 70.9142C122.979 71.2431 122.389 71.7162 121.906 72.3037C121.423 72.8913 121.057 73.5807 120.831 74.3287" fill="#F8AC39"/>
<path d="M119.004 88.8129C115.647 97.6443 129.337 100.042 129.091 90.7162C128.986 86.3005 121.288 82.7223 119.004 88.8129Z" fill="#F8AC39"/>
<path d="M116.807 104.287C116.587 105.013 116.514 105.783 116.593 106.542C116.672 107.302 116.901 108.034 117.264 108.69C117.628 109.345 118.117 109.908 118.699 110.34C119.281 110.773 119.943 111.065 120.638 111.196C127.228 112.49 128.248 101.679 122.29 100.48C121.698 100.324 121.084 100.299 120.483 100.408C119.882 100.516 119.308 100.756 118.796 101.112C118.283 101.468 117.842 101.933 117.5 102.478C117.159 103.024 116.923 103.639 116.807 104.287Z" fill="#F8AC39"/>
<path d="M114.944 118.771C114.711 119.441 114.62 120.16 114.678 120.873C114.736 121.587 114.941 122.277 115.279 122.893C115.616 123.508 116.077 124.034 116.628 124.431C117.178 124.828 117.804 125.086 118.459 125.185C124.487 126.384 125.822 116.449 119.988 115.307C119.446 115.159 118.882 115.132 118.33 115.227C117.778 115.323 117.25 115.54 116.778 115.864C116.306 116.188 115.9 116.613 115.584 117.113C115.269 117.613 115.051 118.177 114.944 118.771Z" fill="#F8AC39"/>
<path d="M113.38 132.875C110.375 140.488 122.483 141.858 121.095 133.75C120.603 130.952 115.172 128.326 113.38 132.875Z" fill="#F8AC39"/>
<path d="M111.429 147.968C109.303 153.906 117.422 155.01 118.318 150.404C119.127 146.274 113.046 143.267 111.429 147.968Z" fill="#F8AC39"/>
<path d="M109.812 162.357C107.949 166.754 113.995 169.342 115.401 165.574C116.807 161.805 111.552 158.246 109.812 162.357Z" fill="#F8AC39"/>
<path d="M108.09 177.222C107.352 178.897 107.651 180.381 109.074 181.029C112.853 182.742 114.803 175.471 109.9 175.68C109.511 175.755 109.145 175.936 108.838 176.206C108.53 176.475 108.291 176.825 108.143 177.222" fill="#F8AC39"/>
<path d="M106.35 192.372C106.221 192.628 106.149 192.913 106.137 193.204C106.126 193.495 106.177 193.785 106.285 194.052C106.394 194.319 106.558 194.555 106.764 194.742C106.97 194.929 107.214 195.063 107.475 195.132C110.217 195.932 110.744 191.535 108.319 191.059C108.11 191.003 107.892 190.992 107.679 191.028C107.467 191.064 107.263 191.145 107.079 191.267C106.896 191.39 106.737 191.55 106.612 191.74C106.487 191.93 106.398 192.145 106.35 192.372Z" fill="#F8AC39"/>
<path d="M147.491 -10.5783C143.783 -0.110047 160.408 2.17395 159.037 -9.13175C158.387 -14.4991 149.793 -17.0496 147.491 -10.5783Z" fill="#F8AC39"/>
<path d="M145.241 4.03924C144.82 5.06119 144.647 6.18328 144.739 7.29825C144.832 8.41321 145.187 9.48382 145.77 10.4079C146.354 11.3319 147.146 12.0785 148.072 12.5763C148.998 13.0741 150.026 13.3064 151.059 13.2512C157.948 13.2512 159.371 -0.071991 150.373 -0.071991C149.235 -0.0469747 148.131 0.357571 147.213 1.08645C146.295 1.81533 145.606 2.83311 145.241 4.00113" fill="#F8AC39"/>
<path d="M143.062 18.6567C142.675 19.7229 142.553 20.8801 142.706 22.0135C142.86 23.1469 143.285 24.217 143.939 25.1175C144.593 26.0181 145.453 26.7177 146.434 27.1469C147.414 27.5761 148.482 27.7199 149.53 27.5642C155.47 26.8599 155.909 17.667 151.445 15.2117C150.696 14.7764 149.87 14.5203 149.022 14.4605C148.174 14.4008 147.323 14.5388 146.529 14.8654C145.734 15.1919 145.014 15.6995 144.416 16.3535C143.818 17.0075 143.356 17.7929 143.062 18.6567Z" fill="#F8AC39"/>
<path d="M140.936 33.1029C140.49 34.1686 140.322 35.3465 140.451 36.5083C140.58 37.6701 141.001 38.7712 141.668 39.6918C142.335 40.6124 143.222 41.3172 144.234 41.7294C145.245 42.1416 146.341 42.2454 147.403 42.0295C153.747 41.1159 153.905 27.9829 145.066 29.2582C144.124 29.428 143.242 29.8718 142.514 30.5423C141.787 31.2128 141.241 32.0846 140.936 33.0648" fill="#F8AC39"/>
<path d="M138.528 48.7481C138.318 49.5699 138.27 50.4304 138.387 51.2736C138.505 52.1169 138.784 52.9239 139.209 53.6421C139.633 54.3603 140.193 54.9737 140.85 55.4423C141.508 55.9108 142.25 56.2239 143.027 56.3614C152.447 58.2647 151.006 40.9636 141.955 44.2563C141.073 44.5966 140.291 45.185 139.689 45.961C139.086 46.737 138.686 47.6728 138.528 48.672" fill="#F8AC39"/>
<path d="M136.841 62.2045C133.994 69.932 144.662 73.6244 146.876 67.1531C147.266 66.192 147.42 65.1378 147.324 64.0931C147.227 63.0483 146.882 62.0484 146.323 61.1904C145.765 60.3323 145.011 59.6454 144.134 59.1961C143.258 58.7468 142.289 58.5505 141.322 58.6263C140.18 58.6263 140.25 58.7785 140.11 58.8166C139.372 59.0936 138.698 59.5396 138.134 60.1243C137.57 60.7089 137.129 61.4185 136.841 62.2045Z" fill="#F8AC39"/>
<path d="M134.75 77.0696C131.534 86.2245 146.103 87.7662 144.767 78.1926C144.169 73.853 136.824 71.1312 134.75 77.0696Z" fill="#F8AC39"/>
<path d="M132.518 92.3341C132.295 93.0605 132.22 93.8304 132.298 94.5912C132.375 95.3521 132.604 96.0857 132.968 96.7419C133.332 97.3981 133.822 97.9614 134.406 98.3931C134.989 98.8248 135.652 99.1148 136.349 99.2431C142.939 100.556 143.941 89.7264 138.001 88.5464C137.409 88.3844 136.793 88.3556 136.191 88.4617C135.588 88.5678 135.012 88.8067 134.498 89.1635C133.984 89.5202 133.543 89.9874 133.203 90.536C132.862 91.0846 132.629 91.703 132.518 92.353" fill="#F8AC39"/>
<path d="M130.761 106.609C128.195 113.956 139.231 115.897 139.653 108.798C139.694 107.627 139.355 106.478 138.696 105.549C138.038 104.619 137.1 103.969 136.045 103.709C134.99 103.449 133.885 103.597 132.92 104.127C131.955 104.656 131.191 105.534 130.761 106.609Z" fill="#F8AC39"/>
<path d="M129.003 121.093C128.716 121.659 128.551 122.288 128.519 122.933C128.487 123.578 128.59 124.222 128.82 124.818C129.049 125.414 129.4 125.947 129.845 126.376C130.291 126.805 130.82 127.12 131.393 127.298C137.316 129.411 139.969 118.847 132.975 118.276C132.116 118.187 131.254 118.417 130.532 118.929C129.81 119.441 129.271 120.205 129.003 121.093Z" fill="#F8AC39"/>
<path d="M126.982 136.186C125.225 141.896 133.274 143.8 134.293 138.49C135.172 133.903 128.529 131.2 126.982 136.186Z" fill="#F8AC39"/>
<path d="M125.365 150.518C122.975 156.228 131.885 157.789 131.639 151.756C131.639 149.376 126.982 146.655 125.365 150.518Z" fill="#F8AC39"/>
<path d="M123.397 165.821C123.281 166.312 123.268 166.826 123.359 167.323C123.45 167.821 123.643 168.289 123.924 168.695C127.72 172.997 131.2 164.108 126.314 163.423C125.976 163.364 125.631 163.38 125.299 163.47C124.966 163.56 124.654 163.722 124.382 163.946C124.109 164.17 123.881 164.452 123.712 164.774C123.543 165.096 123.436 165.453 123.397 165.821Z" fill="#F8AC39"/>
<path d="M121.973 179.963C121.007 181.866 121.973 182.932 122.835 183.313C123.351 183.506 123.916 183.482 124.417 183.246C124.918 183.01 125.319 182.578 125.54 182.037C125.761 181.496 125.786 180.884 125.611 180.324C125.435 179.763 125.072 179.295 124.592 179.011C123.028 178.364 122.448 178.878 121.903 179.963" fill="#F8AC39"/>
<path d="M120.497 194.713C120.256 195.048 120.126 195.46 120.126 195.884C120.126 196.308 120.256 196.72 120.497 197.054C124.012 198.767 122.87 192.315 120.497 194.713Z" fill="#F8AC39"/>
<path d="M161.198 -7.85656C157.684 2.11682 173.5 3.9059 171.989 -6.58137C171.679 -8.22702 170.781 -9.67319 169.491 -10.604C168.2 -11.5347 166.621 -11.8744 165.1 -11.549C164.201 -11.3772 163.362 -10.9424 162.674 -10.2916C161.987 -9.64077 161.476 -8.79875 161.198 -7.85656Z" fill="#F8AC39"/>
<path d="M158.879 6.76099C158.435 7.8334 158.281 9.02041 158.435 10.1838C158.59 11.3472 159.046 12.4391 159.752 13.3325C160.457 14.2258 161.382 14.8839 162.419 15.2301C163.456 15.5762 164.562 15.5963 165.61 15.2878C167.053 14.7942 168.266 13.7192 168.999 12.2847C169.731 10.8502 169.927 9.16586 169.546 7.5794C169.347 6.77983 169.004 6.03112 168.535 5.37684C168.066 4.72256 167.482 4.17576 166.816 3.76836C166.151 3.36095 165.417 3.10112 164.658 3.00385C163.898 2.90657 163.129 2.97384 162.394 3.2018C161.589 3.45043 160.851 3.90293 160.239 4.52183C159.628 5.14073 159.162 5.90823 158.879 6.76099Z" fill="#F8AC39"/>
<path d="M156.682 21.3593C156.336 22.2671 156.197 23.2522 156.278 24.2306C156.36 25.2089 156.658 26.1515 157.148 26.9779C157.639 27.8042 158.306 28.49 159.094 28.9765C159.882 29.4631 160.767 29.736 161.673 29.7721C168.58 30.3431 168.896 19.7035 163.694 17.8764C163.024 17.5748 162.304 17.4262 161.578 17.44C160.853 17.4539 160.138 17.6298 159.478 17.9567C158.818 18.2837 158.227 18.7547 157.743 19.3402C157.259 19.9257 156.892 20.613 156.665 21.3593" fill="#F8AC39"/>
<path d="M154.644 35.8056C154.146 37.0092 154.028 38.3564 154.307 39.6399C154.586 40.9234 155.246 42.0721 156.187 42.9092C157.128 43.7463 158.296 44.2255 159.513 44.2728C160.73 44.3202 161.927 43.9332 162.921 43.1714C163.828 42.3483 164.476 41.2403 164.777 40.0008C165.077 38.7613 165.014 37.4514 164.598 36.2521C164.181 35.0527 163.431 34.0231 162.45 33.3055C161.47 32.588 160.308 32.2179 159.125 32.2464C158.146 32.3289 157.208 32.7057 156.416 33.3346C155.624 33.9634 155.01 34.8193 154.644 35.8056Z" fill="#F8AC39"/>
<path d="M152.236 51.4507C152.033 52.2221 151.982 53.0312 152.087 53.8252C152.192 54.6193 152.45 55.3804 152.845 56.0592C153.239 56.7379 153.761 57.319 154.377 57.7646C154.993 58.2102 155.689 58.5103 156.419 58.6453C163.132 59.9776 164.801 48.6148 158.387 47.2254C157.721 47.0412 157.027 47.0079 156.348 47.1277C155.67 47.2475 155.022 47.5178 154.444 47.9216C153.867 48.3255 153.373 48.8542 152.993 49.4746C152.613 50.095 152.355 50.7937 152.236 51.5269" fill="#F8AC39"/>
<path d="M150.197 65.897C148.44 72.9964 158.984 75.7562 160.232 68.3143C161.48 60.8723 151.779 59.3877 150.197 65.897Z" fill="#F8AC39"/>
<path d="M148.457 79.7721C145.417 87.9564 157.93 89.9929 157.772 81.6754C157.772 77.5072 150.566 74.0622 148.457 79.7721Z" fill="#F8AC39"/>
<path d="M146.472 95.0749C146.235 95.7449 146.142 96.4642 146.198 97.1789C146.254 97.8937 146.459 98.5853 146.797 99.2021C147.136 99.819 147.598 100.345 148.15 100.741C148.702 101.137 149.33 101.393 149.986 101.489C155.997 102.688 157.333 92.7719 151.516 91.6299C150.974 91.4813 150.41 91.4532 149.858 91.5475C149.306 91.6419 148.777 91.8566 148.304 92.1787C147.83 92.5008 147.423 92.9235 147.105 93.4213C146.787 93.9192 146.566 94.4817 146.454 95.0749" fill="#F8AC39"/>
<path d="M144.626 109.559C144.317 110.325 144.208 111.168 144.314 111.996C144.419 112.823 144.734 113.604 145.223 114.25C145.712 114.896 146.357 115.383 147.086 115.657C147.815 115.931 148.6 115.981 149.354 115.802C153.923 115.079 154.239 105.505 147.596 106.552C146.897 106.731 146.252 107.102 145.723 107.628C145.193 108.155 144.798 108.82 144.574 109.559" fill="#F8AC39"/>
<path d="M142.781 124.043C142.504 124.628 142.366 125.279 142.382 125.936C142.397 126.593 142.565 127.235 142.869 127.804C143.174 128.372 143.605 128.849 144.124 129.189C144.643 129.53 145.233 129.724 145.839 129.753C146.352 129.82 146.873 129.775 147.37 129.62C147.866 129.465 148.329 129.204 148.731 128.851C149.133 128.499 149.466 128.063 149.71 127.57C149.953 127.076 150.103 126.534 150.15 125.977C150.197 125.419 150.14 124.857 149.983 124.324C149.826 123.79 149.572 123.296 149.236 122.871C148.899 122.446 148.487 122.098 148.025 121.848C147.562 121.599 147.058 121.452 146.542 121.417C145.722 121.26 144.878 121.446 144.18 121.937C143.482 122.428 142.982 123.188 142.781 124.062" fill="#F8AC39"/>
<path d="M140.848 139.156C139.337 144.466 146.77 145.303 147.438 140.869C148.053 136.948 142.166 134.531 140.848 139.156Z" fill="#F8AC39"/>
<path d="M139.266 153.259C138.177 155.657 139.143 157.066 140.338 157.713C144.661 159.807 147.104 151.851 141.674 151.622C141.165 151.589 140.659 151.729 140.228 152.022C139.796 152.316 139.46 152.748 139.266 153.259Z" fill="#F8AC39"/>
<path d="M137.579 168.067C137.354 168.486 137.235 168.962 137.235 169.447C137.235 169.932 137.354 170.408 137.579 170.827C140.461 175.262 144.609 167.02 139.583 166.754C139.143 166.754 138.335 166.487 137.614 168.067" fill="#F8AC39"/>
<path d="M135.857 182.913C134.996 184.55 135.857 185.349 136.806 185.654C141.111 186.91 137.913 178.954 135.857 182.913Z" fill="#F8AC39"/>
<path d="M175.064 -4.90633C171.866 4.24862 186.435 5.77132 185.082 -3.78332C184.484 -8.12288 177.138 -10.8447 175.064 -4.90633Z" fill="#F8AC39"/>
<path d="M172.815 9.71105C169.863 18.0285 182.481 20.7884 182.832 12.1092C183.096 5.7712 174.766 4.15336 172.815 9.71105Z" fill="#F8AC39"/>
<path d="M170.513 24.519C168.228 32.3606 179.3 34.6065 180.477 27.3358C181.497 20.7123 172.411 18.0286 170.513 24.519Z" fill="#F8AC39"/>
<path d="M168.509 38.7557C165.504 46.9781 178.351 49.4143 178.228 40.6591C178.228 34.9491 170.372 33.6549 168.509 38.7557Z" fill="#F8AC39"/>
<path d="M166.488 53.2019C163.079 61.5956 176.576 63.6701 175.645 54.8007C175.592 54.0911 175.399 53.402 175.081 52.7792C174.762 52.1564 174.325 51.6144 173.798 51.1893C173.271 50.7642 172.666 50.4657 172.023 50.3139C171.381 50.162 170.716 50.1604 170.074 50.3089C169.305 50.4142 168.575 50.7371 167.958 51.245C167.341 51.7528 166.858 52.4278 166.559 53.2019" fill="#F8AC39"/>
<path d="M164.415 67.8573C161.585 75.4706 173.5 77.964 173.36 69.6275C173.36 65.3451 166.33 62.6993 164.415 67.8573Z" fill="#F8AC39"/>
<path d="M162.394 82.7222C159.986 89.5361 169.828 91.7631 170.812 85.4441C171.602 80.2861 164.292 77.431 162.394 82.7222Z" fill="#F8AC39"/>
<path d="M160.478 97.2066C157.473 104.82 169.581 106.19 168.176 98.1011C167.684 95.2652 162.271 92.6577 160.478 97.2066Z" fill="#F8AC39"/>
<path d="M158.317 112.471C156.559 118.181 164.59 120.084 165.61 114.755C166.488 110.168 159.863 107.484 158.317 112.471Z" fill="#F8AC39"/>
<path d="M156.436 127.165C154.925 132.494 162.358 133.312 163.044 128.897C163.641 124.957 157.772 122.54 156.436 127.165Z" fill="#F8AC39"/>
<path d="M154.837 141.268C153.765 143.685 154.714 145.075 155.909 145.722C160.25 147.816 162.675 139.86 157.262 139.631C156.751 139.597 156.242 139.736 155.807 140.029C155.373 140.323 155.033 140.756 154.837 141.268Z" fill="#F8AC39"/>
<path d="M152.869 156.647C152.717 156.988 152.639 157.361 152.642 157.74C152.645 158.118 152.727 158.49 152.883 158.828C153.039 159.166 153.265 159.461 153.543 159.69C153.82 159.919 154.143 160.076 154.485 160.149C154.811 160.23 155.149 160.239 155.478 160.176C155.807 160.114 156.121 159.981 156.402 159.785C156.684 159.589 156.926 159.335 157.115 159.037C157.304 158.738 157.437 158.402 157.505 158.048C157.572 157.693 157.574 157.328 157.51 156.972C157.446 156.617 157.317 156.28 157.131 155.979C156.944 155.678 156.705 155.421 156.425 155.222C156.146 155.023 155.833 154.886 155.505 154.82C155.216 154.756 154.919 154.755 154.63 154.816C154.341 154.878 154.066 155 153.821 155.177C153.576 155.354 153.365 155.582 153.202 155.847C153.038 156.113 152.925 156.41 152.869 156.723" fill="#F8AC39"/>
<path d="M151.217 171.112C151.088 171.37 151.015 171.655 151.005 171.948C150.995 172.24 151.047 172.531 151.158 172.798C151.268 173.065 151.434 173.301 151.642 173.487C151.851 173.673 152.096 173.805 152.359 173.872C155.1 174.672 155.61 170.275 153.185 169.799C152.976 169.743 152.759 169.732 152.546 169.768C152.333 169.804 152.129 169.885 151.946 170.007C151.762 170.13 151.603 170.29 151.478 170.48C151.353 170.67 151.264 170.885 151.217 171.112Z" fill="#F8AC39"/>
<path d="M149.758 185.673C148.51 187.881 151.726 188.528 151.779 186.491C151.784 186.234 151.716 185.982 151.583 185.769C151.45 185.557 151.259 185.394 151.037 185.304C150.815 185.214 150.572 185.201 150.343 185.267C150.114 185.333 149.909 185.475 149.758 185.673Z" fill="#F8AC39"/>
<path d="M188.86 -1.55649C188.572 -0.712762 188.495 0.198755 188.639 1.08485C188.782 1.97094 189.141 2.79987 189.677 3.487C190.213 4.17412 190.908 4.69479 191.691 4.9958C192.473 5.29681 193.316 5.36734 194.132 5.20026C199.896 4.49603 199.246 -6.0864 192.621 -5.26798C191.722 -5.10196 190.889 -4.65197 190.227 -3.97467C189.564 -3.29736 189.1 -2.42298 188.895 -1.46135" fill="#F8AC39"/>
<path d="M186.611 13.0609C186.322 13.9047 186.246 14.8162 186.39 15.7023C186.533 16.5884 186.891 17.4173 187.427 18.1044C187.963 18.7915 188.659 19.3122 189.441 19.6132C190.224 19.9142 191.067 19.9848 191.883 19.8177C197.647 19.1134 196.997 8.53099 190.354 9.33039C189.461 9.50448 188.634 9.95762 187.975 10.6339C187.316 11.3102 186.854 12.1802 186.646 13.137" fill="#F8AC39"/>
<path d="M184.678 26.8981C181.831 34.5113 193.763 36.9856 193.605 28.6681C193.605 24.3667 186.576 21.7401 184.678 26.8981Z" fill="#F8AC39"/>
<path d="M182.323 42.1246C182.086 42.7947 181.993 43.5139 182.049 44.2287C182.105 44.9434 182.31 45.635 182.648 46.2519C182.986 46.8687 183.449 47.3949 184.001 47.7909C184.553 48.1869 185.181 48.4426 185.837 48.5388C191.848 49.7379 193.201 39.8216 187.366 38.6606C186.824 38.515 186.261 38.49 185.71 38.5869C185.159 38.6838 184.632 38.9008 184.161 39.2246C183.689 39.5483 183.283 39.9723 182.967 40.4707C182.652 40.9692 182.432 41.5318 182.323 42.1246Z" fill="#F8AC39"/>
<path d="M180.284 56.5707C180.004 57.2044 179.866 57.9005 179.881 58.6026C179.896 59.3048 180.064 59.9932 180.37 60.6122C180.676 61.2313 181.113 61.7635 181.645 62.1658C182.176 62.5681 182.788 62.8291 183.43 62.9278C189.194 64.2792 190.881 54.8578 185.187 53.5255C184.676 53.3379 184.135 53.2692 183.598 53.3239C183.061 53.3786 182.541 53.5555 182.071 53.843C181.602 54.1304 181.194 54.522 180.874 54.9921C180.553 55.4622 180.329 56.0001 180.214 56.5707" fill="#F8AC39"/>
<path d="M178.21 70.9979C177.9 71.7633 177.792 72.6066 177.898 73.4345C178.003 74.2624 178.318 75.0425 178.807 75.6886C179.296 76.3348 179.941 76.8219 180.67 77.0958C181.399 77.3697 182.184 77.4199 182.937 77.2408C187.507 76.5175 187.805 66.9438 181.18 67.9906C180.489 68.1752 179.853 68.5486 179.333 69.075C178.813 69.6015 178.427 70.2635 178.21 70.9979Z" fill="#F8AC39"/>
<path d="M176.119 86.072C175.962 86.6524 175.918 87.262 175.99 87.8617C176.063 88.4615 176.249 89.0383 176.539 89.5557C176.828 90.0731 177.213 90.5196 177.671 90.8668C178.128 91.214 178.647 91.4544 179.195 91.5726C184.467 92.6004 185.679 83.9594 180.53 82.9126C179.559 82.7044 178.551 82.9194 177.725 83.5109C176.899 84.1024 176.322 85.0226 176.119 86.072Z" fill="#F8AC39"/>
<path d="M174.309 100.366C172.165 106.285 180.301 107.408 181.198 102.783C181.989 98.6531 175.926 95.6458 174.309 100.366Z" fill="#F8AC39"/>
<path d="M172.481 114.641C170.091 120.351 179.019 121.912 178.773 115.878C178.667 113.499 174.115 110.777 172.481 114.641Z" fill="#F8AC39"/>
<path d="M170.618 129.335C169.529 131.733 170.495 133.141 171.69 133.788C176.014 135.863 178.456 127.907 173.026 127.679C172.516 127.652 172.011 127.797 171.58 128.094C171.149 128.39 170.813 128.824 170.618 129.335Z" fill="#F8AC39"/>
<path d="M168.633 144.637C168.485 144.98 168.41 145.354 168.416 145.732C168.421 146.11 168.505 146.482 168.663 146.819C168.82 147.156 169.047 147.45 169.324 147.679C169.602 147.908 169.925 148.065 170.267 148.139C170.589 148.211 170.921 148.212 171.243 148.145C171.566 148.077 171.873 147.941 172.147 147.745C172.421 147.549 172.657 147.296 172.841 147.001C173.025 146.707 173.154 146.375 173.219 146.027C173.285 145.678 173.287 145.319 173.224 144.969C173.162 144.62 173.036 144.287 172.855 143.99C172.674 143.693 172.441 143.438 172.169 143.239C171.896 143.04 171.591 142.9 171.269 142.829C170.98 142.76 170.681 142.755 170.39 142.814C170.099 142.873 169.822 142.995 169.576 143.173C169.33 143.35 169.12 143.58 168.957 143.848C168.795 144.116 168.685 144.417 168.633 144.732" fill="#F8AC39"/>
<path d="M166.998 159.16C166.172 160.911 166.998 161.767 167.912 162.091C172.938 163.994 169.23 154.363 166.998 159.16Z" fill="#F8AC39"/>
<path d="M165.276 174.081C165.154 174.322 165.104 174.597 165.132 174.87C165.161 175.142 165.266 175.399 165.434 175.604C167.349 177.508 168.509 173.701 166.787 173.111C166.242 172.959 165.75 172.806 165.276 174.081Z" fill="#F8AC39"/>
<path d="M163.817 188.642L163.677 189.479L164.45 189.632C164.696 188.946 164.45 188.623 163.817 188.642Z" fill="#F8AC39"/>
<path d="M203.025 0.822641C202.734 1.38542 202.565 2.0122 202.531 2.65591C202.496 3.29962 202.597 3.94354 202.825 4.53901C203.054 5.13448 203.404 5.66608 203.849 6.09382C204.295 6.52156 204.824 6.83424 205.397 7.00842C211.32 9.1211 213.973 -1.44229 206.979 -2.01328C206.12 -2.10055 205.259 -1.8668 204.54 -1.35088C203.82 -0.834964 203.286 -0.0679646 203.025 0.822641Z" fill="#F8AC39"/>
<path d="M200.74 15.6303C200.425 16.3939 200.312 17.2373 200.414 18.0663C200.516 18.8953 200.829 19.6772 201.317 20.3248C201.806 20.9724 202.451 21.4602 203.181 21.7336C203.911 22.0071 204.696 22.0554 205.45 21.8733C210.019 21.15 210.335 11.5763 203.692 12.6232C202.994 12.8003 202.35 13.1704 201.824 13.6975C201.297 14.2246 200.906 14.8905 200.687 15.6303" fill="#F8AC39"/>
<path d="M198.438 30.4573C197.032 35.9579 205.467 38.7177 206.522 32.6841C207.541 27.2407 199.896 24.7093 198.438 30.4573Z" fill="#F8AC39"/>
<path d="M196.47 44.4848C193.781 51.6222 205.257 52.8212 204.185 45.3793C203.71 42.2959 198.262 39.6694 196.47 44.4848Z" fill="#F8AC39"/>
<path d="M194.396 59.1403C192.427 64.3744 199.879 67.5339 201.425 62.6614C201.718 61.9242 201.817 61.1139 201.712 60.3197C201.606 59.5255 201.3 58.7783 200.828 58.1603C200.355 57.5423 199.735 57.0774 199.034 56.8171C198.333 56.5568 197.579 56.5111 196.856 56.6849C196.278 56.8359 195.743 57.139 195.298 57.5672C194.854 57.9955 194.514 58.5358 194.308 59.1403" fill="#F8AC39"/>
<path d="M192.375 73.5864C189.95 79.8863 199.528 81.5233 199.405 74.9759C199.405 72.1399 194.132 68.9803 192.375 73.5864Z" fill="#F8AC39"/>
<path d="M190.231 88.6607C188.614 93.8378 195.855 95.5507 196.768 90.7924C197.542 86.7764 191.672 84.0737 190.231 88.6607Z" fill="#F8AC39"/>
<path d="M188.421 102.936C186.154 108.094 194.15 109.883 194.255 104.515C194.255 102.098 190.073 99.2051 188.421 102.936Z" fill="#F8AC39"/>
<path d="M186.575 117.42C186.362 117.755 186.215 118.135 186.145 118.535C186.075 118.935 186.084 119.346 186.17 119.743C186.256 120.139 186.418 120.512 186.645 120.836C186.872 121.16 187.16 121.43 187.489 121.626C191.602 123.644 193.974 115.459 188.386 115.916C187.998 115.996 187.634 116.179 187.328 116.448C187.021 116.717 186.781 117.064 186.628 117.458" fill="#F8AC39"/>
<path d="M184.678 132.323C184.452 132.738 184.333 133.211 184.333 133.693C184.333 134.175 184.452 134.648 184.678 135.063C187.56 139.498 191.707 131.257 186.681 131.01C186.241 131.01 185.433 130.743 184.713 132.323" fill="#F8AC39"/>
<path d="M182.727 147.416C182.594 147.674 182.519 147.962 182.507 148.256C182.495 148.551 182.547 148.845 182.658 149.114C182.768 149.384 182.936 149.621 183.146 149.809C183.356 149.997 183.604 150.129 183.869 150.195C186.611 150.975 187.12 146.579 184.695 146.103C184.486 146.049 184.27 146.04 184.058 146.077C183.846 146.114 183.642 146.196 183.46 146.318C183.277 146.44 183.118 146.599 182.992 146.788C182.866 146.976 182.776 147.19 182.727 147.416Z" fill="#F8AC39"/>
<path d="M181.004 162.357C180.885 162.6 180.838 162.876 180.87 163.149C180.901 163.421 181.01 163.676 181.18 163.88C183.096 165.783 184.256 161.976 182.533 161.405C181.971 161.234 181.497 161.082 181.004 162.357Z" fill="#F8AC39"/>
<path d="M180.178 177.888C181.567 175.642 177.63 177.165 180.178 177.888V177.888Z" fill="#F8AC39"/>
<path d="M177.332 191.325C177.332 191.592 177.332 191.877 177.209 192.144L177.964 192.296C178.21 191.611 177.999 191.287 177.332 191.325Z" fill="#F8AC39"/>
<path d="M216.873 3.56345C214.465 9.86343 224.043 11.4812 223.902 4.95284C223.902 2.1169 218.63 -1.04257 216.873 3.56345Z" fill="#F8AC39"/>
<path d="M214.659 18.1809C212.532 24.0811 220.651 25.2232 221.548 20.5981C222.338 16.4679 216.275 13.4606 214.659 18.1809Z" fill="#F8AC39"/>
<path d="M212.357 32.9315C210.599 38.8128 218.595 39.6883 219.386 34.949C220.036 30.7237 213.903 28.2684 212.357 32.9315Z" fill="#F8AC39"/>
<path d="M210.335 47.4348C210.058 47.9592 209.911 48.5529 209.909 49.1574C209.908 49.7619 210.051 50.3564 210.326 50.8825C210.601 51.4087 210.998 51.8483 211.477 52.1582C211.956 52.468 212.501 52.6375 213.059 52.6499C213.546 52.7812 214.053 52.7982 214.547 52.6996C215.04 52.6011 215.508 52.3893 215.919 52.0785C216.331 51.7677 216.676 51.365 216.932 50.8977C217.188 50.4304 217.348 49.9093 217.403 49.3692C217.457 48.8291 217.404 48.2826 217.248 47.7665C217.091 47.2504 216.834 46.7767 216.494 46.3771C216.154 45.9775 215.739 45.6614 215.277 45.4499C214.815 45.2384 214.317 45.1363 213.815 45.1508C213.069 44.9493 212.28 45.0768 211.621 45.505C210.962 45.9333 210.487 46.6274 210.3 47.4348" fill="#F8AC39"/>
<path d="M208.297 61.881C205.907 67.591 214.834 69.1516 214.571 63.1181C214.571 60.758 209.914 58.0173 208.297 61.881Z" fill="#F8AC39"/>
<path d="M206.329 76.3272C204.062 81.4852 212.058 83.2933 212.163 77.9069C212.163 75.4897 207.981 72.6157 206.329 76.3272Z" fill="#F8AC39"/>
<path d="M204.132 91.4013C202.533 95.8551 208.789 96.8638 209.527 93.3046C210.265 89.7454 205.432 87.766 204.132 91.4013Z" fill="#F8AC39"/>
<path d="M202.286 105.886C201.548 107.561 201.847 109.026 203.271 109.692C207.049 111.405 208.982 104.135 204.097 104.344C203.704 104.41 203.335 104.587 203.026 104.858C202.717 105.129 202.48 105.484 202.339 105.886" fill="#F8AC39"/>
<path d="M200.441 120.37C199.475 122.273 200.353 123.32 201.302 123.72C201.809 123.869 202.348 123.816 202.823 123.571C203.297 123.327 203.674 122.906 203.887 122.386C204.099 121.866 204.133 121.281 203.981 120.736C203.829 120.192 203.502 119.724 203.06 119.418C201.478 118.752 200.898 119.285 200.353 120.37" fill="#F8AC39"/>
<path d="M198.526 135.273C197.682 136.91 198.526 137.69 199.475 137.995C203.78 139.251 200.6 131.295 198.526 135.273Z" fill="#F8AC39"/>
<path d="M196.856 149.986C195.608 152.212 198.824 152.841 198.877 150.823C198.877 150.005 197.77 148.805 196.856 149.986Z" fill="#F8AC39"/>
<path d="M195.134 164.927C195.134 165.193 195.046 165.479 195.011 165.745L195.767 165.897C196.013 165.212 195.802 164.888 195.134 164.927Z" fill="#F8AC39"/>
<path d="M192.902 179.335C192.902 179.601 192.902 179.887 192.779 180.153L193.535 180.305C193.792 179.62 193.582 179.297 192.902 179.335Z" fill="#F8AC39"/>
<path d="M230.932 6.55159C230.65 7.12181 230.53 7.76926 230.586 8.4132C230.641 9.05714 230.871 9.66901 231.246 10.1725C231.621 10.6759 232.124 11.0486 232.694 11.2441C233.263 11.4396 233.873 11.4493 234.447 11.2718C235.17 11.0499 235.796 10.5567 236.214 9.8803C236.632 9.20393 236.813 8.38867 236.727 7.58039C236.64 6.7721 236.29 6.02357 235.741 5.46889C235.191 4.91422 234.477 4.58963 233.726 4.55313C233.119 4.46357 232.503 4.6041 231.981 4.95101C231.458 5.29793 231.063 5.82988 230.862 6.45645" fill="#F8AC39"/>
<path d="M228.718 21.169C228.508 21.5982 228.396 22.0756 228.391 22.5612C228.386 23.0468 228.489 23.5266 228.69 23.9606C228.891 24.3946 229.185 24.7702 229.548 25.056C229.91 25.3419 230.331 25.5297 230.774 25.6038C231.171 25.69 231.58 25.6907 231.977 25.6059C232.374 25.521 232.752 25.3523 233.089 25.1092C233.426 24.8662 233.715 24.5537 233.941 24.1895C234.166 23.8253 234.323 23.4166 234.403 22.9867C234.483 22.5568 234.483 22.1141 234.405 21.6839C234.326 21.2537 234.171 20.8444 233.946 20.4794C233.722 20.1145 233.433 19.801 233.097 19.5568C232.761 19.3126 232.383 19.1426 231.986 19.0564C231.644 18.9455 231.283 18.9128 230.928 18.9608C230.573 19.0087 230.231 19.136 229.923 19.3346C229.616 19.5332 229.35 19.7989 229.143 20.1147C228.935 20.4304 228.79 20.7895 228.718 21.169Z" fill="#F8AC39"/>
<path d="M226.697 35.4059C225.625 37.804 226.574 39.2126 227.786 39.8597C232.109 41.9533 234.552 33.9784 229.122 33.75C228.61 33.7253 228.103 33.8707 227.67 34.1667C227.237 34.4627 226.897 34.895 226.697 35.4059Z" fill="#F8AC39"/>
<path d="M224.377 50.423C222.795 54.8767 229.052 55.8855 229.772 52.3263C230.493 48.7671 225.695 46.7686 224.377 50.423Z" fill="#F8AC39"/>
<path d="M222.321 65.0786C222.113 65.4519 221.995 65.8752 221.976 66.3105C221.957 66.7458 222.038 67.1793 222.213 67.572C222.387 67.9647 222.649 68.3043 222.975 68.5601C223.3 68.816 223.68 68.98 224.078 69.0375C224.44 69.1618 224.821 69.2026 225.198 69.1571C225.575 69.1116 225.938 68.981 226.265 68.7735C226.593 68.5661 226.876 68.2866 227.097 67.953C227.318 67.6195 227.472 67.2394 227.548 66.8373C227.625 66.4353 227.623 66.0202 227.542 65.6191C227.461 65.218 227.304 64.8397 227.079 64.5088C226.855 64.178 226.569 63.9018 226.239 63.6983C225.91 63.4948 225.545 63.3685 225.168 63.3275C224.875 63.2272 224.566 63.1942 224.26 63.2304C223.955 63.2666 223.66 63.3712 223.393 63.5377C223.127 63.7042 222.896 63.9289 222.714 64.1975C222.533 64.4661 222.405 64.7726 222.339 65.0977" fill="#F8AC39"/>
<path d="M220.247 79.7342C220.096 80.0761 220.019 80.451 220.022 80.8302C220.026 81.2095 220.11 81.5828 220.268 81.9213C220.425 82.2598 220.653 82.5543 220.933 82.7823C221.213 83.0103 221.537 83.1656 221.881 83.2362C222.203 83.3087 222.535 83.3119 222.858 83.2454C223.181 83.1789 223.489 83.0442 223.764 82.8489C224.039 82.6536 224.276 82.4016 224.461 82.1072C224.646 81.8128 224.776 81.4818 224.843 81.1331C224.91 80.7844 224.912 80.4249 224.851 80.075C224.79 79.7251 224.665 79.3918 224.485 79.094C224.305 78.7962 224.072 78.5397 223.8 78.3393C223.528 78.1389 223.223 77.9985 222.901 77.926C222.611 77.8568 222.311 77.8514 222.019 77.9102C221.727 77.969 221.449 78.0909 221.201 78.2685C220.954 78.446 220.742 78.6757 220.578 78.9439C220.414 79.212 220.301 79.5131 220.247 79.8293" fill="#F8AC39"/>
<path d="M218.472 93.8376C216.539 97.1304 221.126 98.7482 222.145 96.6926C223.375 94.2373 220.019 91.192 218.472 93.8376Z" fill="#F8AC39"/>
<path d="M216.311 109.064C216.182 109.321 216.11 109.607 216.099 109.9C216.089 110.192 216.141 110.483 216.252 110.75C216.362 111.017 216.528 111.253 216.736 111.439C216.945 111.625 217.19 111.757 217.453 111.824C220.194 112.623 220.722 108.227 218.279 107.751C218.07 107.697 217.853 107.688 217.641 107.725C217.429 107.762 217.226 107.844 217.043 107.966C216.861 108.088 216.702 108.248 216.576 108.436C216.45 108.625 216.36 108.838 216.311 109.064Z" fill="#F8AC39"/>
<path d="M214.711 123.187C214.079 123.739 214.36 125.09 214.711 125.528C218.226 127.241 217.101 120.789 214.711 123.187Z" fill="#F8AC39"/>
<path d="M214.36 138.185C214.197 137.933 213.948 137.761 213.668 137.707C213.387 137.654 213.099 137.723 212.866 137.9C212.633 138.076 212.474 138.346 212.425 138.649C212.376 138.953 212.439 139.265 212.602 139.517C212.784 139.713 213.023 139.833 213.278 139.857C213.532 139.881 213.787 139.807 213.996 139.648C214.206 139.489 214.357 139.255 214.423 138.988C214.49 138.72 214.467 138.436 214.36 138.185Z" fill="#F8AC39"/>
<path d="M210.915 152.974C210.915 153.259 210.915 153.526 210.775 153.811L211.548 153.944C211.794 153.285 211.583 152.961 210.915 152.974Z" fill="#F8AC39"/>
<path d="M247.505 -5.24895C247.283 -4.82878 247.166 -4.35315 247.166 -3.86909C247.166 -3.38502 247.283 -2.90928 247.505 -2.48911C250.404 1.94561 254.534 -6.29577 249.508 -6.56224C249.068 -6.56224 248.26 -6.8287 247.539 -5.24895" fill="#F8AC39"/>
<path d="M245.237 9.3685C245.01 9.78319 244.89 10.2566 244.89 10.7389C244.89 11.2213 245.01 11.6946 245.237 12.1093C248.119 16.544 252.267 8.30264 247.223 8.05521C246.784 8.05521 245.993 7.78875 245.255 9.3685" fill="#F8AC39"/>
<path d="M243.023 23.7766C242.797 24.192 242.678 24.665 242.678 25.1469C242.678 25.6288 242.797 26.102 243.023 26.5174C245.923 30.9712 250.053 22.7108 245.026 22.4633C244.587 22.4633 243.779 22.1969 243.058 23.7766" fill="#F8AC39"/>
<path d="M240.703 38.7938C240.556 39.1061 240.477 39.4511 240.474 39.8018C240.47 40.1526 240.542 40.4994 240.683 40.815C240.825 41.1305 241.032 41.4062 241.288 41.6202C241.545 41.8343 241.844 41.9809 242.162 42.0484C245.343 42.924 245.975 37.9183 243.304 37.195C243.037 37.087 242.751 37.0437 242.467 37.0683C242.183 37.0928 241.907 37.1845 241.659 37.337C241.411 37.4894 241.197 37.6989 241.032 37.9506C240.867 38.2023 240.755 38.4901 240.703 38.7938Z" fill="#F8AC39"/>
<path d="M238.7 53.0306C237.733 54.9339 238.612 55.9998 239.544 56.3995C240.05 56.5485 240.59 56.4959 241.064 56.2512C241.538 56.0066 241.915 55.5862 242.128 55.0661C242.34 54.546 242.374 53.9606 242.222 53.4161C242.07 52.8716 241.744 52.404 241.301 52.098C239.737 51.4318 239.157 51.9457 238.612 53.0306" fill="#F8AC39"/>
<path d="M236.626 67.6861C236.457 67.9185 236.335 68.187 236.268 68.4742C236.202 68.7613 236.193 69.0605 236.241 69.3518C236.289 69.6432 236.394 69.9202 236.548 70.1646C236.702 70.4089 236.903 70.6151 237.136 70.7695C240.088 72.3682 241.74 66.9628 238.155 66.7154C237.84 66.6933 237.526 66.774 237.253 66.947C236.981 67.12 236.762 67.3774 236.626 67.6861Z" fill="#F8AC39"/>
<path d="M234.57 82.4177C233.709 84.0546 234.57 84.854 235.519 85.1585C239.807 86.4147 236.626 78.4588 234.57 82.4177Z" fill="#F8AC39"/>
<path d="M232.689 97.0352C232.533 97.2061 232.422 97.4198 232.368 97.6537C232.315 97.8875 232.321 98.1327 232.385 98.3631C232.45 98.5936 232.572 98.8007 232.737 98.9623C232.902 99.124 233.104 99.2341 233.322 99.2811C236.538 100.366 234.517 94.3135 232.689 97.0352Z" fill="#F8AC39"/>
<path d="M232.373 111.824C232.186 111.645 231.949 111.541 231.699 111.526C231.45 111.512 231.204 111.59 231.001 111.746C230.797 111.903 230.649 112.129 230.579 112.388C230.509 112.648 230.522 112.925 230.616 113.175C230.803 113.354 231.04 113.459 231.29 113.473C231.539 113.487 231.785 113.41 231.989 113.253C232.192 113.097 232.341 112.87 232.411 112.611C232.48 112.352 232.467 112.074 232.373 111.824Z" fill="#F8AC39"/>
<path d="M229.544 127.602C230.914 125.357 226.978 126.879 229.544 127.602V127.602Z" fill="#F8AC39"/>
<path d="M226.679 141.04C226.679 141.306 226.679 141.573 226.539 141.858L227.312 142.011C227.575 141.325 227.312 141.002 226.679 141.04Z" fill="#F8AC39"/>
<path d="M261.528 -2.05135C260.052 1.16526 265.887 0.442013 264.129 -2.39393C263.967 -2.61907 263.754 -2.79498 263.51 -2.90449C263.267 -3.014 263.001 -3.0534 262.739 -3.01892C262.478 -2.98444 262.228 -2.87724 262.016 -2.7077C261.804 -2.53816 261.636 -2.31204 261.528 -2.05135Z" fill="#F8AC39"/>
<path d="M259.261 12.5661C257.785 15.7827 263.637 15.0595 261.862 12.2235C261.7 11.9984 261.487 11.8225 261.243 11.713C261 11.6034 260.734 11.564 260.472 11.5985C260.211 11.633 259.962 11.7402 259.749 11.9097C259.537 12.0793 259.369 12.3054 259.261 12.5661Z" fill="#F8AC39"/>
<path d="M257.047 26.9742C255.571 30.1718 261.405 29.4676 259.648 26.6316C259.486 26.4065 259.273 26.2306 259.029 26.1211C258.785 26.0115 258.52 25.9721 258.258 26.0066C257.996 26.0411 257.747 26.1483 257.535 26.3178C257.323 26.4874 257.155 26.7135 257.047 26.9742Z" fill="#F8AC39"/>
<path d="M255.044 41.2109C254.803 41.5454 254.672 41.9574 254.672 42.3816C254.672 42.8057 254.803 43.2177 255.044 43.5521C258.558 45.2651 257.416 38.8128 255.044 41.2109Z" fill="#F8AC39"/>
<path d="M252.689 56.4375C252.565 56.6773 252.513 56.9532 252.542 57.2264C252.57 57.4995 252.677 57.7563 252.847 57.9602C254.78 59.8635 255.922 56.0569 254.218 55.4669C253.655 55.2956 253.181 55.1432 252.689 56.4375Z" fill="#F8AC39"/>
<path d="M251.16 72.6728C251.509 72.7204 251.862 72.6261 252.151 72.4082C252.44 72.1902 252.644 71.8641 252.724 71.4927C252.507 71.0592 252.241 70.6565 251.933 70.2936C251.656 70.2361 251.369 70.2881 251.125 70.4403C250.88 70.5924 250.694 70.8345 250.601 71.1226C250.507 71.4107 250.512 71.7257 250.615 72.0102C250.717 72.2947 250.911 72.5298 251.16 72.6728Z" fill="#F8AC39"/>
<path d="M248.612 86.6051L249.754 86.8335C250.07 86.6241 250.088 85.977 250.175 85.425C250.104 85.3138 250.013 85.2189 249.908 85.1458C249.802 85.0726 249.684 85.0228 249.561 84.9989C249.438 84.9751 249.312 84.9777 249.19 85.0067C249.067 85.0357 248.951 85.0906 248.849 85.1681C248.746 85.2455 248.658 85.3442 248.591 85.4584C248.523 85.5725 248.477 85.6999 248.455 85.8334C248.433 85.9668 248.436 86.1036 248.462 86.236C248.489 86.3684 248.54 86.4938 248.612 86.6051Z" fill="#F8AC39"/>
<path d="M246.749 100.023C246.749 100.29 246.749 100.575 246.626 100.842L247.381 100.994C247.627 100.309 247.416 99.9854 246.749 100.023Z" fill="#F8AC39"/>
<path d="M244.482 114.641C244.482 114.907 244.482 115.193 244.359 115.459L245.114 115.612C245.384 114.926 245.173 114.603 244.482 114.641Z" fill="#F8AC39"/>
<path d="M276.624 1.98361C278.013 -0.262304 274.076 1.26035 276.624 1.98361V1.98361Z" fill="#F8AC39"/>
<path d="M274.34 16.6011C275.728 14.3551 271.792 15.8778 274.34 16.6011V16.6011Z" fill="#F8AC39"/>
<path d="M272.108 31.0282C273.496 28.7823 269.56 30.305 272.108 31.0282V31.0282Z" fill="#F8AC39"/>
<path d="M269.261 44.4466C269.261 44.7131 269.261 44.9795 269.12 45.265L269.894 45.4173C270.14 44.7321 269.929 44.4085 269.261 44.4466Z" fill="#F8AC39"/>
<path d="M266.994 59.045C266.994 59.3305 266.994 59.5969 266.871 59.8824L267.627 60.0347C267.89 59.3495 267.627 59.0259 266.994 59.045Z" fill="#F8AC39"/>
<path d="M264.744 73.6626C264.744 73.9481 264.745 74.2146 264.622 74.5001L265.377 74.6332C265.623 73.9734 265.412 73.6499 264.744 73.6626Z" fill="#F8AC39"/>
</g>
</g>
</svg>
