<svg width="335" height="194" viewBox="0 0 335 194" fill="none" xmlns="http://www.w3.org/2000/svg">
<g opacity="0.5">
<mask id="mask0" style="mask-type:alpha" maskUnits="userSpaceOnUse" x="0" y="0" width="335" height="194">
<path d="M77.4417 193.857L0.11618 0.67038L334.9 7.33199V193.857H77.4417Z" fill="#FFD733"/>
</mask>
<g mask="url(#mask0)">
<path d="M157.878 235.292C159.829 232.666 159.495 229.582 159.003 226.632C161.428 229.049 164.169 228.897 166.999 228.079C166.164 229.22 165.573 230.548 165.269 231.966C164.965 233.385 164.956 234.859 165.242 236.282C164.136 235.569 162.906 235.113 161.63 234.943C160.353 234.772 159.057 234.891 157.825 235.292H157.878ZM145.084 245.836C147.123 243.153 146.841 240.127 146.051 236.986C147.14 237.97 148.437 238.646 149.826 238.955C151.215 239.264 152.653 239.195 154.012 238.756C153.268 239.917 152.748 241.228 152.486 242.612C152.223 243.996 152.222 245.423 152.483 246.807C151.391 246.068 150.162 245.598 148.883 245.43C147.605 245.262 146.308 245.401 145.084 245.836ZM132.308 256.362C134.223 253.659 134.065 250.652 133.292 247.511C134.356 248.543 135.652 249.252 137.05 249.566C138.448 249.88 139.898 249.788 141.253 249.3C140.484 250.447 139.949 251.759 139.685 253.147C139.422 254.536 139.435 255.969 139.724 257.351C138.619 256.639 137.389 256.183 136.112 256.012C134.835 255.842 133.54 255.961 132.308 256.362ZM119.198 267.192C121.553 264.318 121.201 261.044 120.27 257.675C122.73 260.606 125.542 260.359 128.494 259.845C127.75 261.005 127.231 262.317 126.968 263.701C126.705 265.085 126.704 266.512 126.965 267.896C124.575 265.993 121.922 266.373 119.198 267.211V267.192ZM170.11 225.166C172.5 222.121 172.324 218.676 170.777 215.041C171.956 216.438 173.518 217.388 175.233 217.752C176.947 218.115 178.725 217.872 180.302 217.058C177.912 219.913 178 223.149 178.281 226.442C175.804 224.082 173.009 224.538 170.11 225.166ZM106.439 278.041C108.882 275.129 108.829 271.817 107.687 268.353C108.823 269.436 110.21 270.164 111.699 270.459C113.188 270.754 114.723 270.605 116.14 270.028C114.189 272.768 114.382 275.871 114.664 278.973C112.168 276.727 109.391 276.937 106.439 278.041ZM168.37 248.539C169.67 246.388 169.371 243.99 169.266 241.63C170.206 242.286 171.26 242.727 172.363 242.927C173.466 243.126 174.595 243.08 175.681 242.791C174.582 244.804 174.114 247.147 174.345 249.472C172.464 248.596 170.403 248.274 168.37 248.539ZM155.593 259.084C156.662 256.97 156.987 254.509 156.507 252.155C158.381 253.369 160.587 253.84 162.746 253.488C161.835 255.515 161.435 257.767 161.586 260.016C159.829 258.551 157.667 258.874 155.593 259.084ZM142.835 269.609C144.153 267.477 143.854 265.06 143.749 262.7C145.602 263.972 147.827 264.447 149.987 264.032C148.848 265.962 148.434 268.291 148.827 270.542C146.941 269.664 144.873 269.342 142.835 269.609ZM129.9 280.287C131.084 278.17 131.474 275.643 130.99 273.225C132.864 274.439 135.069 274.91 137.229 274.558C136.317 276.585 135.917 278.837 136.069 281.086C134.147 280.101 131.982 279.821 129.9 280.287ZM180.584 238.414C181.287 237.313 181.718 236.034 181.835 234.701C181.952 233.368 181.751 232.025 181.251 230.8C183.63 232.141 186.376 232.506 188.984 231.828C187.623 234.109 187.097 236.858 187.508 239.536C185.381 238.332 182.938 237.949 180.584 238.452V238.414ZM116.597 291.269C118.688 288.775 118.055 285.863 118.003 283.027C120.129 285.064 122.554 284.931 125.032 284.645C123.468 286.986 123.767 289.632 123.749 292.258C121.553 290.602 119.075 291.04 116.72 291.307L116.597 291.269ZM192.938 228.497C195.17 225.737 194.449 222.502 193.957 219.304C195.039 220.514 196.461 221.301 198 221.542C199.54 221.783 201.109 221.465 202.463 220.637C200.987 223.587 199.95 226.594 200.934 229.925C199.764 229.104 198.449 228.554 197.074 228.308C195.698 228.063 194.29 228.127 192.938 228.497ZM103.311 302.536C104.42 301.331 105.137 299.768 105.356 298.083C105.575 296.397 105.282 294.681 104.523 293.191C107.195 294.828 109.954 295.951 112.977 294.866C112.225 296.165 111.722 297.615 111.499 299.129C111.275 300.643 111.336 302.19 111.676 303.678C109.163 301.204 106.211 302.003 103.311 302.536ZM178.879 262.11C179.433 260.328 179.677 258.45 179.6 256.571C181.206 257.406 182.993 257.748 184.766 257.561C183.817 259.236 184.081 261.12 183.589 262.852C182.078 262.275 180.479 262.023 178.879 262.11ZM166.296 272.502C166.881 270.782 167.068 268.932 166.841 267.116C168.417 267.832 170.105 268.22 171.814 268.258C171.182 269.885 170.848 271.631 170.83 273.397C169.407 272.388 167.807 272.787 166.296 272.502ZM153.361 283.18C153.903 281.394 154.141 279.518 154.064 277.641C155.558 278.973 157.263 278.554 158.88 278.935C158.289 280.517 158.013 282.216 158.071 283.922C156.561 283.345 154.961 283.093 153.361 283.18ZM140.409 293.857C141.181 292.077 141.491 290.103 141.306 288.147C142.889 288.862 144.582 289.25 146.297 289.289C145.26 290.945 145.822 292.848 145.137 294.561C143.661 293.553 141.991 294.086 140.409 293.819V293.857ZM191.093 251.946C192.253 249.891 191.884 247.607 191.954 245.38C193.811 246.51 195.973 246.907 198.07 246.503C197.13 248.52 196.723 250.779 196.892 253.031C195.069 252.167 193.078 251.794 191.093 251.946ZM127.106 304.782C128.149 302.729 128.515 300.353 128.143 298.044C129.975 299.061 132.031 299.509 134.083 299.339C133.288 301.348 132.945 303.534 133.081 305.715C131.218 304.44 129.127 304.839 127.106 304.782ZM203.324 241.859C204.818 239.441 204.431 236.739 204.168 234.036C206.435 236.339 209.106 235.635 211.672 235.578C210.931 236.655 210.416 237.894 210.161 239.208C209.906 240.523 209.918 241.882 210.196 243.191C208.069 241.459 205.679 241.782 203.324 241.763V241.859ZM113.908 316.202C115.144 313.577 115.474 310.56 114.839 307.694C116.904 309.191 119.419 309.777 121.869 309.331C120.776 311.682 120.43 314.358 120.885 316.944C119.872 316.174 118.692 315.701 117.46 315.571C116.228 315.441 114.986 315.658 113.855 316.202H113.908ZM215.573 232.209C216.298 230.762 216.724 229.162 216.824 227.519C216.925 225.877 216.696 224.23 216.153 222.692C218.807 225.376 221.812 225.338 224.94 224.082C223.949 225.345 223.286 226.87 223.017 228.502C222.748 230.134 222.884 231.814 223.411 233.37C222.32 232.421 221.015 231.806 219.63 231.589C218.246 231.371 216.833 231.559 215.538 232.133L215.573 232.209ZM99.55 327.66C100.815 326.328 101.664 324.601 101.979 322.721C102.294 320.841 102.059 318.901 101.307 317.173C103.891 319.818 106.861 319.723 109.848 319.381C107.722 322.121 108.091 325.243 108.671 328.383C105.912 325.757 102.784 325.947 99.462 327.66H99.55ZM176.348 285.483C176.733 284.259 176.9 282.967 176.84 281.676C178.035 282.38 179.353 282.076 180.584 282.609C180.131 283.743 179.915 284.971 179.951 286.206C178.805 285.832 177.628 285.583 176.436 285.464L176.348 285.483ZM163.765 296.56C163.765 295.094 164.046 293.648 164.17 292.201C165.242 293.02 166.454 292.791 167.579 293.077C167.243 294.378 167.019 295.709 166.911 297.055C165.954 296.477 164.834 296.301 163.765 296.56ZM189.3 275.49C189.3 273.965 189.495 272.447 189.88 270.979C190.943 271.645 192.204 271.836 193.395 271.512C193.394 273.036 193.204 274.553 192.833 276.023C191.747 275.43 190.512 275.242 189.318 275.49H189.3ZM150.655 306.838C151.25 305.679 151.432 304.325 151.165 303.031C152.545 303.046 153.916 303.264 155.242 303.678C154.416 304.953 155.031 306.457 154.398 307.789C153.256 306.743 151.832 307.789 150.655 306.838ZM201.057 265.136C201.989 263.518 201.479 261.672 201.725 259.94C203.332 260.775 205.118 261.117 206.892 260.93C206.227 262.669 205.875 264.529 205.855 266.411C204.344 265.269 202.604 265.878 201.057 265.136ZM137.018 318.429C137.789 316.649 138.098 314.675 137.914 312.719C139.296 313.542 140.889 313.849 142.448 313.595C142.448 315.498 141.921 317.287 142.062 319.19C140.443 318.576 138.731 318.305 137.018 318.391V318.429ZM213.219 255.486C214.121 253.369 214.374 250.994 213.939 248.71C214.883 249.366 215.939 249.808 217.044 250.011C218.149 250.214 219.281 250.173 220.371 249.891C219.266 251.968 218.839 254.389 219.159 256.761C217.322 255.76 215.269 255.319 213.219 255.486ZM123.591 329.525C124.783 327.412 125.168 324.879 124.663 322.464C126.484 323.669 128.623 324.184 130.744 323.93C129.934 326.006 129.637 328.276 129.883 330.515C127.932 329.069 125.753 329.392 123.591 329.525ZM225.309 245.532C227.067 242.924 226.715 239.993 225.942 236.986C228.56 239.594 231.548 239.194 234.624 238.185C231.97 240.869 232.198 244.028 232.655 247.226C231.606 246.407 230.412 245.833 229.147 245.541C227.882 245.25 226.575 245.247 225.309 245.532ZM109.936 340.793C112.115 338.147 111.975 335.083 111.237 332C112.273 332.897 113.481 333.533 114.773 333.863C116.065 334.192 117.408 334.206 118.706 333.903C118.056 335.125 117.639 336.476 117.482 337.875C117.325 339.275 117.431 340.694 117.792 342.049C115.402 339.917 112.678 340.298 109.936 340.812V340.793ZM186.19 299.396C186.945 298.406 186.295 297.169 186.77 296.122C187.683 296.864 188.738 296.598 189.74 296.769C189.392 297.822 189.196 298.926 189.16 300.043C188.193 299.624 187.139 299.815 186.19 299.396ZM173.062 310.226C173.747 309.217 173.484 308.056 173.642 306.971C174.595 307.348 175.598 307.56 176.612 307.599C176.225 308.665 176.401 309.807 176.032 310.873C175.118 310.035 174.011 310.74 173.062 310.226ZM198.579 289.156C199.112 288.105 199.274 286.881 199.036 285.711C200.372 285.711 201.672 285.997 202.99 286.13C202.494 287.329 202.22 288.623 202.182 289.936C201.012 289.538 199.803 289.289 198.579 289.194V289.156ZM160.075 321.303C160.725 319.99 160.461 318.524 160.936 317.192C161.963 317.689 163.081 317.923 164.205 317.877C163.862 319.17 163.638 320.496 163.537 321.836C162.41 321.405 161.215 321.224 160.022 321.303H160.075ZM210.705 279.43C211.24 277.762 211.473 275.998 211.391 274.234C213.003 274.85 214.71 275.121 216.417 275.033C215.222 276.67 215.591 278.554 215.257 280.325C213.818 279.671 212.265 279.366 210.705 279.43ZM146.578 332.361C147.243 330.622 147.595 328.762 147.615 326.88C149.091 327.575 150.68 327.944 152.289 327.965C151.376 329.525 151.727 331.295 151.481 332.97C149.925 332.302 148.233 332.091 146.578 332.361ZM222.796 269.457C223.6 267.385 223.891 265.121 223.64 262.89C225.591 264.318 227.77 263.994 229.931 263.861C228.772 265.923 228.341 268.371 228.719 270.751C226.98 269.49 224.851 269.024 222.796 269.457ZM133.169 343.496C134.278 341.419 134.706 338.998 134.382 336.625C136.218 337.626 138.271 338.067 140.322 337.9C139.278 339.899 138.977 342.254 139.478 344.485C137.56 343.322 135.313 342.97 133.169 343.496ZM234.905 259.521C235.548 258.293 235.958 256.938 236.112 255.536C236.266 254.134 236.16 252.713 235.801 251.356C238.261 253.469 241.073 253.259 243.85 252.441C242.911 253.629 242.27 255.057 241.987 256.59C241.704 258.123 241.788 259.709 242.233 261.196C241.201 260.35 240.009 259.76 238.742 259.471C237.475 259.181 236.165 259.198 234.905 259.521ZM119.338 354.916C120.235 353.707 120.85 352.282 121.131 350.761C121.413 349.241 121.352 347.669 120.955 346.179C122 346.992 123.19 347.559 124.449 347.844C125.708 348.129 127.008 348.126 128.266 347.835C127.592 349.054 127.165 350.414 127.013 351.825C126.862 353.236 126.989 354.666 127.387 356.019C124.944 353.755 122.115 354.116 119.338 354.916ZM196.084 313.804C196.471 312.738 196.295 311.596 196.664 310.549C197.578 311.387 198.685 310.663 199.634 311.177C198.966 312.205 199.23 313.347 199.054 314.451C198.102 314.067 197.099 313.848 196.084 313.804ZM182.974 324.634C183.312 323.585 183.508 322.489 183.554 321.379C184.503 321.798 185.557 321.588 186.524 322.007C185.75 323.016 186.401 324.234 185.944 325.281C185.012 324.539 183.958 324.824 182.974 324.634ZM208.491 303.564C208.842 302.28 209.066 300.959 209.159 299.624C210.288 300.044 211.481 300.225 212.674 300.157C212.006 301.47 212.269 302.917 211.795 304.249C210.766 303.76 209.649 303.526 208.526 303.564H208.491ZM169.758 335.273C170.496 334.093 170.268 332.761 170.566 331.467C171.71 331.855 172.888 332.111 174.081 332.228C173.203 333.37 173.976 334.778 173.273 336.035C172.166 335.121 170.847 335.73 169.758 335.292V335.273ZM220.441 293.419C221.355 291.859 220.986 290.108 221.232 288.433C222.792 289.084 224.481 289.287 226.135 289.023C225.476 290.763 225.13 292.623 225.116 294.504C223.639 293.811 222.051 293.442 220.441 293.419ZM156.261 346.408C157.474 344.771 157.105 342.887 157.421 341.117C158.86 341.769 160.414 342.068 161.973 341.992C161.445 343.662 161.218 345.426 161.305 347.188C159.688 346.571 157.974 346.306 156.261 346.408ZM232.479 283.484C233.508 281.486 233.809 279.144 233.323 276.918C235.237 278.072 237.476 278.425 239.614 277.907C238.516 279.981 238.089 282.393 238.402 284.759C236.572 283.758 234.524 283.318 232.479 283.484ZM142.852 357.523C144.018 355.47 144.45 353.026 144.065 350.652C145.818 351.894 147.945 352.357 150.005 351.946C149.194 354.016 148.897 356.28 149.144 358.513C147.193 357.085 145.014 357.409 142.852 357.523ZM244.588 273.549C245.265 272.335 245.695 270.979 245.849 269.571C246.004 268.163 245.879 266.735 245.484 265.384C247.927 267.629 250.757 267.287 253.533 266.468C252.623 267.673 252 269.102 251.718 270.628C251.436 272.154 251.504 273.732 251.916 275.224C250.872 274.403 249.68 273.83 248.417 273.541C247.154 273.252 245.85 273.255 244.588 273.549ZM129.022 368.962C129.956 367.772 130.594 366.343 130.877 364.811C131.16 363.279 131.078 361.695 130.638 360.207C131.671 361.053 132.863 361.643 134.129 361.932C135.396 362.222 136.707 362.204 137.967 361.882C137.316 363.107 136.9 364.461 136.743 365.864C136.586 367.266 136.691 368.689 137.053 370.047C134.61 367.915 131.781 368.144 129.022 368.962ZM217.858 317.572C218.384 316.39 218.556 315.059 218.35 313.766C219.734 313.799 221.109 314.017 222.445 314.413C221.566 315.688 222.163 317.192 221.584 318.524C220.406 317.801 219.071 318.105 217.858 317.591V317.572ZM205.416 328.174C205.758 326.881 205.982 325.555 206.083 324.215C207.04 324.792 208.16 324.969 209.229 324.71C209.229 326.175 208.966 327.603 208.825 329.049C207.753 328.25 206.54 328.478 205.416 328.174ZM192.341 338.661C192.785 337.518 193 336.285 192.973 335.045C194.119 335.419 195.297 335.667 196.488 335.787C196.105 337.011 195.938 338.303 195.996 339.594C194.801 338.871 193.483 339.175 192.27 338.661H192.341ZM179.6 349.739C179.607 348.214 179.802 346.697 180.179 345.228C181.259 345.837 182.499 346.032 183.694 345.78C183.678 347.297 183.483 348.807 183.114 350.271C182.047 349.619 180.791 349.429 179.6 349.739ZM230.283 307.866C230.283 305.962 230.828 304.192 230.687 302.289C232.303 302.886 234.007 303.157 235.713 303.088C234.948 304.87 234.638 306.842 234.817 308.798C233.437 307.969 231.844 307.655 230.283 307.904V307.866ZM165.857 360.492C166.506 358.749 166.852 356.89 166.876 355.011C168.387 356.153 170.127 355.525 171.691 356.286C170.76 357.904 171.252 359.75 171.023 361.463C169.415 360.636 167.628 360.301 165.857 360.492ZM241.97 297.492C242.774 295.421 243.065 293.157 242.813 290.926C244.764 292.354 246.961 292.03 249.105 291.916C247.935 294.038 247.552 296.561 248.032 298.977C246.22 297.767 244.087 297.245 241.97 297.492ZM152.342 371.551C153.444 369.464 153.865 367.037 153.537 364.661C155.373 365.666 157.426 366.113 159.477 365.955C158.59 368.07 158.338 370.433 158.757 372.712C156.841 371.431 154.538 371.015 152.342 371.551ZM254.06 287.557C254.708 286.331 255.121 284.976 255.275 283.573C255.429 282.171 255.321 280.748 254.956 279.392C257.364 281.524 260.088 281.162 262.83 280.629C260.633 283.294 260.773 286.339 261.529 289.422C260.49 288.53 259.282 287.896 257.991 287.567C256.7 287.238 255.358 287.222 254.06 287.519V287.557ZM138.072 383.218C140.726 380.515 140.497 377.356 140.04 374.177C141.085 374.998 142.277 375.571 143.54 375.86C144.802 376.148 146.107 376.146 147.369 375.852C146.669 377.13 146.248 378.564 146.138 380.046C146.029 381.527 146.233 383.015 146.736 384.398C144.135 381.809 141.148 382.19 138.072 383.218ZM226.54 332.114C227.594 330.458 227.031 328.536 227.717 326.823C229.175 327.85 230.863 327.298 232.427 327.565C231.675 329.351 231.366 331.319 231.531 333.275C229.951 332.547 228.256 332.159 226.54 332.133V332.114ZM213.956 342.525C214.563 340.941 214.839 339.232 214.765 337.519C216.279 338.105 217.887 338.358 219.492 338.262C218.947 340.046 218.703 341.922 218.772 343.8C217.296 342.487 215.573 342.887 213.956 342.525ZM201.022 353.203C201.659 351.576 201.993 349.83 202.006 348.064C203.43 349.072 205.029 348.673 206.54 348.939C205.954 350.666 205.772 352.523 206.013 354.345C204.432 353.621 202.738 353.233 201.022 353.203ZM188.088 363.88C188.831 362.35 189.114 360.606 188.896 358.893C190.653 358.893 192.235 359.483 193.975 359.331C193.421 361.113 193.177 362.991 193.255 364.87C191.648 364.035 189.861 363.693 188.088 363.88ZM238.771 322.007C239.557 319.995 239.895 317.811 239.755 315.631C241.618 316.906 243.709 316.488 245.73 316.564C244.695 318.613 244.33 320.98 244.694 323.282C242.87 322.262 240.817 321.82 238.771 322.007ZM174.784 374.824C175.712 372.81 176.113 370.559 175.944 368.315C177.769 369.173 179.759 369.539 181.743 369.381C180.584 371.455 180.97 373.739 180.9 375.966C179.048 374.822 176.883 374.417 174.784 374.824ZM250.985 311.92C252.084 309.571 252.436 306.894 251.987 304.306C252.999 305.079 254.18 305.552 255.413 305.679C256.645 305.806 257.888 305.582 259.016 305.03C257.786 307.656 257.45 310.669 258.067 313.537C256 312.047 253.485 311.468 251.038 311.92H250.985ZM161.217 385.749C163.08 383.408 162.975 380.724 162.711 378.136C164.837 379.849 167.227 379.525 169.582 379.544C168.071 381.962 168.475 384.683 168.739 387.367C166.454 385.064 163.8 385.768 161.217 385.825V385.749ZM147.878 397.245C148.86 395.973 149.517 394.444 149.785 392.812C150.054 391.179 149.923 389.499 149.407 387.938C150.499 388.878 151.801 389.487 153.181 389.704C154.561 389.922 155.969 389.739 157.263 389.175C156.156 392.182 155.33 395.228 156.683 398.692C154.047 396.008 151.042 396.046 147.896 397.321L147.878 397.245ZM262.97 302.003C265.079 299.282 264.728 296.16 264.13 293.02C266.907 295.646 270.017 295.456 273.339 293.743C272.067 295.07 271.213 296.797 270.898 298.68C270.583 300.562 270.821 302.503 271.581 304.23C268.98 301.585 266.028 301.68 263.041 302.003H262.97ZM235.555 346.941C236.466 344.92 236.867 342.674 236.715 340.431C238.632 341.41 240.792 341.684 242.866 341.212C241.698 343.334 241.315 345.857 241.794 348.273C239.915 347.071 237.714 346.601 235.555 346.941ZM222.779 357.485C223.937 355.492 224.34 353.092 223.903 350.785C225.779 351.68 227.845 352.003 229.878 351.718C228.578 353.869 228.877 356.267 228.982 358.646C227.124 357.369 224.892 356.894 222.726 357.314L222.779 357.485ZM209.844 367.915C210.754 365.894 211.154 363.648 211.004 361.406C212.81 362.541 214.951 362.875 216.979 362.338C215.916 364.447 215.598 366.903 216.083 369.248C214.205 368.045 212.003 367.575 209.844 367.915ZM196.892 378.612C197.99 376.598 198.464 374.257 198.245 371.931C200.121 372.826 202.188 373.148 204.221 372.864C203.217 375 202.902 377.439 203.324 379.792C201.405 378.504 199.096 378.08 196.892 378.612ZM247.576 336.739C249.157 334.398 248.841 331.771 248.876 329.126C251.073 330.781 253.533 330.344 255.906 330.058C253.832 332.552 254.464 335.483 254.517 338.3C252.373 336.282 249.948 336.396 247.488 336.682L247.576 336.739ZM183.501 389.518C184.86 387.236 185.387 384.488 184.977 381.809C187.139 383.025 189.62 383.401 192.007 382.875C190.249 385.33 190.917 388.128 190.952 390.831C188.72 388.757 186.19 388.928 183.589 389.518H183.501ZM259.807 326.594C260.553 325.296 261.052 323.849 261.272 322.339C261.493 320.828 261.43 319.285 261.09 317.801C263.62 320.275 266.555 319.457 269.455 318.924C266.713 321.798 267.381 325.186 267.891 328.574C265.466 325.852 262.619 325.947 259.807 326.67V326.594ZM170.18 400.9C171.021 399.55 171.592 398.025 171.855 396.422C172.119 394.818 172.069 393.173 171.709 391.592C172.876 392.42 174.19 392.977 175.566 393.226C176.943 393.475 178.352 393.411 179.705 393.039C177.455 395.799 178.176 399.034 178.668 402.232C177.587 401.027 176.169 400.242 174.633 400.001C173.098 399.76 171.532 400.076 170.18 400.9ZM205.504 393.286C206.326 392.137 206.909 390.809 207.212 389.393C207.515 387.977 207.532 386.507 207.261 385.083C208.366 385.796 209.596 386.252 210.873 386.422C212.15 386.593 213.445 386.474 214.677 386.073C212.744 388.699 213.078 391.783 213.552 394.714C211.145 392.316 208.386 392.468 205.556 393.286H205.504ZM231.249 372.064C232.025 370.921 232.563 369.61 232.827 368.22C233.091 366.83 233.074 365.395 232.778 364.013C233.887 364.718 235.117 365.167 236.393 365.334C237.669 365.501 238.963 365.382 240.195 364.984C238.279 367.706 238.437 370.694 239.21 373.834C238.144 372.808 236.847 372.104 235.449 371.793C234.052 371.482 232.603 371.576 231.249 372.064ZM218.491 382.609C219.234 381.445 219.753 380.13 220.016 378.743C220.279 377.356 220.28 375.926 220.02 374.539C221.113 375.284 222.344 375.759 223.626 375.93C224.908 376.101 226.208 375.964 227.436 375.528C225.397 378.212 225.678 381.238 226.452 384.379C225.363 383.394 224.067 382.717 222.677 382.408C221.288 382.099 219.849 382.168 218.491 382.609ZM256.415 351.299C257.27 350.08 257.822 348.644 258.019 347.128C258.216 345.612 258.051 344.067 257.54 342.639C260.264 343.876 263.041 344.79 266.134 343.286C263.673 346.198 263.726 349.491 264.868 352.974C263.734 351.887 262.347 351.157 260.857 350.862C259.367 350.567 257.831 350.718 256.415 351.299ZM244.026 361.539C244.767 360.374 245.283 359.058 245.543 357.671C245.803 356.285 245.801 354.855 245.537 353.469C246.693 354.24 248.001 354.704 249.354 354.823C250.707 354.942 252.067 354.713 253.322 354.154C250.95 357.028 251.301 360.321 252.25 363.671C249.79 360.759 246.978 361.006 244.026 361.52V361.539ZM192.27 404.307C194.678 401.433 194.59 398.197 194.291 394.904C196.769 397.245 199.564 396.807 202.463 396.198C200.091 399.244 200.249 402.67 201.795 406.324C200.622 404.919 199.06 403.963 197.343 403.6C195.626 403.236 193.846 403.484 192.27 404.307ZM227.19 397.417C228.272 396.096 228.983 394.468 229.238 392.725C229.494 390.981 229.283 389.195 228.631 387.576C231.39 389.48 234.237 390.584 237.418 388.604C235.555 392.144 234.465 395.799 237.101 399.682C243.411 408.894 255.378 398.045 249.825 389.499C247.417 385.787 243.938 385.121 240.071 386.72C241.112 385.403 241.782 383.79 242.003 382.074C242.224 380.357 241.987 378.607 241.319 377.032C244.148 378.802 247.031 380.077 250.352 377.927C244.289 384.855 253.023 397.055 260.703 391.021C268.383 384.988 260.932 371.551 252.655 376.347C254.746 373.206 255.73 369.895 253.814 366.107C256.855 368.277 259.983 369.628 263.656 366.944C262.179 368.623 261.341 370.842 261.308 373.16C261.276 375.477 262.051 377.723 263.48 379.449C268.91 385.749 280.07 378.003 275.782 369.552C275.313 368.502 274.643 367.572 273.816 366.825C272.989 366.078 272.025 365.53 270.987 365.218C269.949 364.907 268.862 364.839 267.798 365.018C266.733 365.197 265.717 365.621 264.816 366.259C267.452 362.948 268.33 359.407 266.38 355.372C273.409 362.757 284.393 351.185 277.627 343.001C276.511 341.651 275.011 340.744 273.365 340.424C271.719 340.103 270.021 340.387 268.541 341.231C269.575 339.843 270.243 338.177 270.472 336.41C270.701 334.644 270.483 332.843 269.842 331.2C272.724 333.313 275.764 334.36 278.822 332.437C287.82 326.823 280.579 311.92 271.792 316.868C273.55 313.614 274.534 310.226 272.83 306.438C279.859 313.823 290.843 302.251 284.059 294.086C281.388 290.85 277.838 290.698 274.13 292.696C276.784 289.289 277.856 285.635 275.43 281.428C280.703 288.661 292.495 280.267 288.224 271.779C282.952 261.368 269.262 270.713 274.798 280.096C272.038 277.451 269.086 276.29 265.765 277.983C267.118 274.9 268.365 271.798 266.38 268.181C272.724 274.995 283.954 265.003 278.154 256.609C272.355 248.216 260.58 256.609 264.956 265.669C263.772 264.486 262.293 263.705 260.703 263.424C259.113 263.144 257.481 263.375 256.011 264.089C257.768 261.063 258.735 257.942 256.943 254.363C261.494 258.836 269.244 255.505 270.158 249.015C271.547 238.299 255.906 235.159 254.342 246.541C254.236 248.226 254.52 249.914 255.168 251.451C252.444 249.32 249.561 248.368 246.381 250.062C247.997 246.959 249.14 243.781 247.189 240.127C248.616 241.382 250.377 242.111 252.214 242.207C254.05 242.303 255.867 241.761 257.4 240.659C265.431 234.036 255.871 220.598 248.138 226.689C246.634 227.93 245.574 229.697 245.138 231.689C244.703 233.681 244.918 235.775 245.748 237.614C242.901 235.311 239.878 234.226 236.451 236.339C238.419 232.989 239.65 229.525 237.207 225.49C243.727 233.37 255.976 222.33 248.525 213.689C242.901 207.142 231.583 215.269 236.574 224.177C233.569 221.284 230.353 220.256 226.68 222.464C233.394 214.851 222.867 202.65 215.433 210.092C214.199 211.343 213.375 212.995 213.087 214.798C212.798 216.601 213.06 218.457 213.834 220.085C212.583 218.952 211.065 218.218 209.451 217.966C207.838 217.714 206.191 217.953 204.695 218.657C211.145 210.835 200.6 198.882 193.096 206.59C191.891 207.835 191.098 209.476 190.841 211.258C190.584 213.041 190.876 214.865 191.673 216.449C188.685 214.546 185.645 213.442 182.183 215.307C188.351 208.646 180.074 196.864 172.552 201.622C171.606 202.207 170.777 202.993 170.117 203.933C169.458 204.872 168.98 205.947 168.712 207.091C168.445 208.236 168.393 209.427 168.561 210.593C168.729 211.76 169.112 212.878 169.688 213.88C166.595 210.968 163.273 209.769 159.442 212.471C160.956 210.81 161.819 208.578 161.848 206.244C161.878 203.91 161.072 201.653 159.6 199.948C154.012 193.457 143.169 201.699 147.299 209.845C147.78 210.882 148.457 211.798 149.285 212.535C150.113 213.272 151.075 213.813 152.108 214.123C153.141 214.433 154.222 214.506 155.283 214.336C156.343 214.166 157.359 213.758 158.265 213.137C155.839 216.183 154.75 219.418 156.332 223.073C153.52 221.607 150.708 220.218 147.439 222.407C153.485 215.479 144.733 202.993 136.895 209.464C129.478 215.574 136.895 228.764 145.119 223.986C144.041 225.309 143.333 226.937 143.078 228.68C142.822 230.422 143.031 232.207 143.678 233.827C140.937 231.923 138.09 230.8 134.891 232.78C135.783 231.567 136.373 230.127 136.604 228.598C136.835 227.068 136.7 225.499 136.212 224.042C135.724 222.585 134.898 221.288 133.815 220.275C132.731 219.262 131.426 218.568 130.023 218.257C120.024 216.697 117.581 234.436 128.108 235.616C129.534 235.647 130.947 235.321 132.238 234.664C131.191 235.978 130.518 237.591 130.296 239.309C130.075 241.027 130.316 242.778 130.99 244.352C128.16 242.582 125.261 241.326 121.957 243.476C128.108 236.643 119.268 224.044 111.412 230.515C104.207 236.472 111.272 249.872 119.655 245.056C117.546 248.197 116.562 251.508 118.495 255.277C115.454 253.107 112.309 251.775 108.653 254.459C109.71 253.046 110.514 251.432 111.026 249.7C113.064 238.908 96.9667 235.349 95.6486 246.94C94.9457 253.336 102.01 259.331 107.423 255.144C104.805 258.436 103.908 261.996 105.859 266.012C98.8294 258.646 87.8632 270.218 94.6292 278.383C95.7431 279.736 97.2434 280.645 98.8903 280.965C100.537 281.286 102.236 281 103.715 280.153C102.674 281.538 102.002 283.204 101.773 284.972C101.544 286.74 101.766 288.542 102.415 290.184C95.385 283.103 84.4188 294.695 91.4484 302.936C92.5527 304.259 94.0398 305.137 95.6653 305.424C97.2909 305.711 98.9582 305.391 100.393 304.516C98.7415 307.789 97.652 311.158 99.3567 314.946C96.4043 312.662 93.2409 311.653 90.06 313.671C80.9567 319.381 89.2693 334.855 98.0738 328.688C95.4026 332.095 94.3306 335.768 96.7734 339.955C91.5012 332.913 79.5508 340.812 83.9619 349.605C89.2341 360.093 102.942 350.5 97.3884 341.288C100.165 343.952 103.1 345.094 106.439 343.42C105.086 346.484 103.821 349.605 105.806 353.203C99.4095 346.484 88.2323 356.267 94.0317 364.775C99.5148 372.807 111.606 364.965 107.247 355.715C108.43 356.9 109.91 357.682 111.5 357.963C113.091 358.244 114.723 358.012 116.192 357.295C114.435 360.34 113.451 363.461 115.244 367.04C112.08 365.003 108.829 363.823 105.367 366.545C96.5801 373.416 106.615 386.834 114.453 380.686C117.809 378.041 118.407 374.196 116.966 369.952C118.144 371.089 119.605 371.827 121.167 372.074C122.729 372.321 124.323 372.066 125.753 371.341C124.154 374.424 122.994 377.603 124.944 381.257C118.653 374.596 107.546 384.189 113.047 392.677C118.548 401.166 130.744 392.906 126.385 383.827C129.25 386.13 132.255 387.215 135.7 385.102C133.714 388.452 132.501 391.897 134.944 395.932C133.456 394.28 131.425 393.333 129.295 393.298C127.165 393.262 125.108 394.141 123.574 395.742C122.585 396.859 121.892 398.245 121.568 399.752C121.244 401.26 121.3 402.834 121.732 404.31C122.163 405.786 122.953 407.109 124.02 408.139C125.086 409.17 126.389 409.871 127.791 410.169C133.556 411.197 139.671 403.222 135.559 397.264C138.564 400.157 141.798 401.185 145.453 398.977C143.379 402.251 142.448 405.715 144.293 409.217C149.319 418.734 162.781 410.835 158.352 401.356C159.602 402.486 161.116 403.217 162.726 403.469C164.337 403.721 165.98 403.484 167.473 402.784C165.558 405.943 164.609 409.293 166.349 412.662C171.445 422.54 185.012 414.565 180.513 405.049C183.483 406.952 186.541 408.056 189.986 406.172C187.912 409.446 186.981 412.91 188.826 416.412C194.098 426.423 208.157 417.268 202.481 407.599C205.591 410.53 208.913 411.71 212.726 409.027C211.673 410.435 210.869 412.042 210.354 413.766C208.315 424.558 224.413 428.117 225.731 416.545C226.417 410.207 219.211 403.964 213.956 408.342C216.364 405.296 217.471 402.061 215.89 398.406C218.684 399.891 221.513 401.261 224.782 399.092C220.125 404.173 224.308 414.109 230.898 413.823C243.323 413.252 238.226 391.307 227.067 397.512" fill="#F8AC39"/>
<path d="M315.815 211.843C325.358 206.8 314.057 192.81 308.1 202.155C305.393 206.381 309.664 215.098 315.815 211.843Z" fill="#F8AC39"/>
<path d="M328.855 200.423C329.724 199.954 330.462 199.244 330.995 198.365C331.528 197.487 331.837 196.471 331.891 195.422C331.944 194.372 331.74 193.326 331.3 192.389C330.859 191.452 330.198 190.659 329.382 190.088C323.934 185.692 316.641 195.303 322.933 200.385C323.813 201.009 324.842 201.34 325.894 201.34C326.946 201.34 327.975 201.009 328.855 200.385" fill="#F8AC39"/>
<path d="M340.858 189.613C344.373 187.709 344.636 184.683 343.406 182.247C339.891 175.281 329.804 182.018 335.375 188.585C336.044 189.406 336.953 189.956 337.95 190.143C338.946 190.329 339.973 190.142 340.858 189.613Z" fill="#F8AC39"/>
<path d="M306.238 197.797C315.025 193.21 306.237 179.906 299.454 187.005C294.551 192.201 300.456 200.842 306.238 197.797Z" fill="#F8AC39"/>
<path d="M319.277 186.415C320.141 185.941 320.875 185.23 321.405 184.352C321.935 183.473 322.242 182.46 322.295 181.412C322.349 180.365 322.147 179.321 321.709 178.385C321.272 177.449 320.615 176.654 319.804 176.08C314.357 171.683 307.063 181.295 313.337 186.358C314.222 186.976 315.254 187.305 316.307 187.305C317.361 187.305 318.392 186.976 319.277 186.358" fill="#F8AC39"/>
<path d="M331.105 175.68C331.768 175.446 332.375 175.054 332.88 174.532C333.384 174.01 333.774 173.372 334.02 172.664C334.267 171.957 334.363 171.199 334.303 170.446C334.242 169.693 334.026 168.965 333.67 168.314C330.156 161.348 320.068 168.086 325.621 174.633C326.289 175.458 327.196 176.011 328.193 176.201C329.19 176.392 330.217 176.208 331.105 175.68Z" fill="#F8AC39"/>
<path d="M271.863 205.467C273 204.897 273.978 204.012 274.697 202.901C275.417 201.79 275.853 200.494 275.962 199.142C276.071 197.79 275.848 196.431 275.317 195.202C274.785 193.974 273.963 192.919 272.935 192.144C267.329 187.595 260.141 195.075 262.145 201.052C262.471 202.067 262.993 202.997 263.675 203.778C264.358 204.56 265.185 205.176 266.103 205.586C267.022 205.996 268.01 206.19 269.002 206.157C269.995 206.123 270.97 205.862 271.863 205.391" fill="#F8AC39"/>
<path d="M284.182 194.713C285.149 194.236 285.996 193.513 286.65 192.606C287.305 191.699 287.747 190.634 287.94 189.502C288.133 188.37 288.071 187.204 287.76 186.103C287.448 185.003 286.896 183.999 286.15 183.179C280.667 176.689 272.495 185.52 275.606 191.592C275.95 192.437 276.454 193.195 277.084 193.818C277.715 194.44 278.458 194.913 279.266 195.207C280.075 195.501 280.932 195.609 281.781 195.524C282.63 195.439 283.454 195.163 284.2 194.713" fill="#F8AC39"/>
<path d="M297.029 183.465C304.797 178.745 297.029 167.154 290.597 172.388C284.815 177.165 290.597 187.348 297.029 183.465Z" fill="#F8AC39"/>
<path d="M309.031 172.635C317.133 168.524 308.733 156.076 302.687 163.347C299.577 167.153 303.583 175.376 309.031 172.635Z" fill="#F8AC39"/>
<path d="M322.054 161.253C327.326 157.77 322.212 148.139 316.782 152.307C311.861 156.114 316.554 164.888 322.054 161.253Z" fill="#F8AC39"/>
<path d="M334.233 150.271C340.155 146.864 333.916 139.099 329.786 142.506C326.078 145.57 329.523 152.993 334.233 150.271Z" fill="#F8AC39"/>
<path d="M237.664 213.004C238.584 212.429 239.385 211.654 240.016 210.728C240.647 209.802 241.095 208.744 241.331 207.622C241.567 206.5 241.586 205.337 241.387 204.206C241.189 203.076 240.777 202.002 240.177 201.052C234.044 191.535 222.339 202.517 227.682 210.72C228.181 211.601 228.841 212.363 229.621 212.959C230.401 213.555 231.286 213.972 232.22 214.186C233.154 214.4 234.118 214.405 235.054 214.202C235.99 213.999 236.878 213.591 237.664 213.004Z" fill="#F8AC39"/>
<path d="M249.614 202.517C258.858 197.683 251.09 183.788 243.621 187.976C235.063 192.81 241.495 206.761 249.614 202.517Z" fill="#F8AC39"/>
<path d="M262.109 191.592C263.3 191.08 264.336 190.22 265.101 189.106C265.866 187.993 266.331 186.671 266.442 185.289C266.553 183.906 266.307 182.517 265.731 181.278C265.156 180.038 264.273 178.996 263.181 178.269C257.083 173.53 247.224 184.607 255.73 191.211C256.663 191.898 257.753 192.29 258.879 192.344C260.006 192.397 261.124 192.111 262.109 191.516" fill="#F8AC39"/>
<path d="M274.411 180.8C275.724 180.199 276.818 179.149 277.528 177.81C278.237 176.472 278.521 174.918 278.338 173.387C278.155 171.857 277.513 170.433 276.512 169.335C275.511 168.237 274.205 167.524 272.794 167.306C271.405 167.215 270.024 167.597 268.844 168.396C267.664 169.195 266.743 170.372 266.21 171.765C265.676 173.157 265.556 174.694 265.867 176.164C266.178 177.633 266.904 178.961 267.944 179.963C268.847 180.732 269.928 181.217 271.069 181.365C272.209 181.512 273.366 181.317 274.411 180.8Z" fill="#F8AC39"/>
<path d="M287.17 169.723C295.834 165.307 286.66 152.06 280.298 159.654C276.169 164.565 281.81 172.464 287.17 169.723Z" fill="#F8AC39"/>
<path d="M300.122 158.341C300.82 157.973 301.433 157.438 301.914 156.778C302.396 156.117 302.733 155.348 302.902 154.527C303.071 153.706 303.067 152.854 302.89 152.034C302.713 151.215 302.367 150.45 301.879 149.795C297.609 143.552 289.12 150.861 293.268 156.914C293.618 157.514 294.079 158.029 294.621 158.429C295.162 158.829 295.774 159.104 296.418 159.238C297.062 159.372 297.725 159.361 298.365 159.207C299.005 159.053 299.608 158.758 300.139 158.341" fill="#F8AC39"/>
<path d="M311.931 147.663C319.506 143.857 310.525 132.856 305.991 140.221C304.128 143.248 306.888 150.157 311.931 147.663Z" fill="#F8AC39"/>
<path d="M324.479 136.396C325.107 136.189 325.673 135.808 326.123 135.291C326.572 134.774 326.889 134.139 327.042 133.448C327.194 132.757 327.178 132.036 326.994 131.354C326.809 130.673 326.464 130.055 325.991 129.563C325.661 129.069 325.241 128.653 324.756 128.344C324.271 128.034 323.731 127.837 323.172 127.764C322.613 127.691 322.047 127.744 321.508 127.92C320.969 128.096 320.469 128.391 320.04 128.787C319.612 129.182 319.263 129.67 319.017 130.218C318.771 130.767 318.633 131.365 318.611 131.974C318.589 132.583 318.683 133.191 318.889 133.759C319.094 134.327 319.406 134.842 319.805 135.273C320.297 136.082 321.063 136.648 321.937 136.851C322.812 137.054 323.724 136.877 324.479 136.358" fill="#F8AC39"/>
<path d="M337.01 125.109C341.667 122.692 337.009 116.392 333.811 118.79C330.612 121.188 333.196 127.089 337.01 125.109Z" fill="#F8AC39"/>
<path d="M214.782 209.94C216.29 209.147 217.524 207.853 218.304 206.246C219.083 204.64 219.368 202.806 219.117 201.011C218.866 199.217 218.092 197.556 216.907 196.273C215.722 194.989 214.19 194.149 212.533 193.876C203.096 192.62 200.6 208.532 210.02 210.777C211.649 211.126 213.339 210.829 214.782 209.94Z" fill="#F8AC39"/>
<path d="M227.77 198.92C228.756 198.416 229.624 197.676 230.307 196.756C230.991 195.835 231.472 194.758 231.714 193.606C231.956 192.455 231.953 191.258 231.705 190.108C231.457 188.958 230.971 187.883 230.283 186.967C224.483 178.459 212.849 188.185 218.28 196.484C218.75 197.325 219.372 198.055 220.108 198.631C220.843 199.207 221.679 199.618 222.564 199.838C223.449 200.058 224.365 200.083 225.26 199.913C226.154 199.742 227.007 199.378 227.77 198.844" fill="#F8AC39"/>
<path d="M239.896 188.28C241.028 187.788 242.022 186.984 242.78 185.949C243.538 184.915 244.035 183.684 244.221 182.378C244.407 181.072 244.277 179.737 243.842 178.502C243.407 177.268 242.683 176.177 241.741 175.338C235.924 169.323 224.817 179.449 232.479 187.31C233.47 188.285 234.716 188.902 236.045 189.076C237.374 189.25 238.72 188.972 239.896 188.28Z" fill="#F8AC39"/>
<path d="M253.428 176.822C254.221 176.298 254.903 175.597 255.428 174.767C255.954 173.937 256.312 172.996 256.477 172.005C256.643 171.015 256.614 169.998 256.391 169.02C256.169 168.043 255.758 167.128 255.185 166.335C248.507 156.552 236.943 172.559 247.136 177.603C248.141 178.082 249.246 178.263 250.336 178.126C251.427 177.988 252.463 177.538 253.34 176.822" fill="#F8AC39"/>
<path d="M265.729 166.03C266.476 165.549 267.12 164.903 267.62 164.133C268.12 163.364 268.464 162.489 268.63 161.565C268.796 160.641 268.78 159.69 268.583 158.774C268.386 157.858 268.012 156.997 267.487 156.247C262.724 149.262 252.883 157.542 257.294 164.356C257.723 165.095 258.289 165.73 258.956 166.221C259.624 166.711 260.378 167.045 261.172 167.203C261.965 167.36 262.779 167.337 263.564 167.135C264.349 166.934 265.086 166.557 265.729 166.03Z" fill="#F8AC39"/>
<path d="M277.188 155.657C286.326 151.432 276.309 137.919 270.545 146.312C270.064 146.966 269.717 147.724 269.528 148.535C269.339 149.346 269.311 150.191 269.448 151.014C269.584 151.838 269.881 152.62 270.319 153.309C270.756 153.998 271.325 154.578 271.986 155.01C272.733 155.613 273.615 155.991 274.541 156.105C275.467 156.218 276.405 156.064 277.258 155.657" fill="#F8AC39"/>
<path d="M290.228 144.276C290.937 143.978 291.572 143.504 292.08 142.891C292.588 142.279 292.956 141.545 293.153 140.749C293.35 139.953 293.37 139.118 293.213 138.312C293.056 137.506 292.725 136.752 292.248 136.11C288.312 129.925 279.947 136.529 283.708 142.544C284.007 143.148 284.42 143.677 284.92 144.097C285.42 144.517 285.997 144.818 286.611 144.982C287.226 145.145 287.866 145.166 288.489 145.045C289.112 144.923 289.704 144.661 290.228 144.276Z" fill="#F8AC39"/>
<path d="M302.037 133.579C302.927 133.298 303.725 132.75 304.34 131.999C307.134 128.345 301.528 119.628 296.783 125.89C294.656 128.687 297.345 135.654 302.055 133.503" fill="#F8AC39"/>
<path d="M314.585 122.387C320.877 119.57 314.374 110.492 310.121 115.859C308.452 117.972 310.332 124.291 314.585 122.387Z" fill="#F8AC39"/>
<path d="M327.291 110.968C327.745 110.832 328.16 110.576 328.5 110.223C328.839 109.87 329.092 109.43 329.235 108.945C329.378 108.459 329.407 107.942 329.319 107.441C329.231 106.94 329.03 106.471 328.732 106.076C328.247 105.334 327.51 104.831 326.683 104.677C325.856 104.524 325.006 104.733 324.321 105.258C323.636 105.783 323.172 106.581 323.03 107.477C322.888 108.373 323.081 109.293 323.565 110.035C323.743 110.373 323.984 110.668 324.272 110.9C324.56 111.132 324.889 111.297 325.239 111.385C325.589 111.473 325.953 111.481 326.306 111.409C326.659 111.337 326.994 111.187 327.291 110.968Z" fill="#F8AC39"/>
<path d="M339.329 99.6999C339.644 99.65 339.945 99.5285 340.213 99.3434C340.48 99.1583 340.709 98.9138 340.884 98.6261C341.058 98.3383 341.174 98.014 341.224 97.6742C341.274 97.3344 341.257 96.9868 341.174 96.6546C339.839 92.6957 334.356 95.9884 337.308 99.205C337.553 99.5088 337.881 99.7204 338.244 99.8094C338.607 99.8983 338.987 99.86 339.329 99.6999Z" fill="#F8AC39"/>
<path d="M192.622 206.305C194.129 205.512 195.363 204.218 196.143 202.611C196.923 201.005 197.208 199.17 196.957 197.376C196.705 195.582 195.931 193.921 194.746 192.637C193.562 191.354 192.029 190.514 190.372 190.241C180.953 188.985 178.422 204.915 187.859 207.142C189.488 207.49 191.178 207.193 192.622 206.305Z" fill="#F8AC39"/>
<path d="M205.24 195.57C213.412 190.945 207.964 177.926 200.161 180.343C189.95 183.465 195.767 200.994 205.24 195.57Z" fill="#F8AC39"/>
<path d="M218.227 184.55C226.715 179.239 218.49 165.174 210.635 171.36C203.43 177.07 210.494 189.384 218.227 184.55Z" fill="#F8AC39"/>
<path d="M230.177 174.062C231.567 173.332 232.773 172.248 233.692 170.903C235.889 166.735 232.532 158.113 226.135 159.826C220.863 161.272 217.84 169.913 224.378 174.024C225.297 174.523 226.311 174.783 227.339 174.783C228.367 174.783 229.381 174.523 230.3 174.024" fill="#F8AC39"/>
<path d="M242.672 163.137C250.844 159.007 244.43 146.54 237.769 150.176C236.71 150.653 235.785 151.421 235.084 152.405C234.383 153.388 233.932 154.552 233.774 155.782C233.616 157.013 233.757 158.266 234.184 159.419C234.61 160.573 235.307 161.585 236.205 162.357C237.172 163.347 237.224 163.156 237.365 163.252C238.194 163.655 239.092 163.864 240.001 163.864C240.91 163.864 241.808 163.655 242.637 163.252" fill="#F8AC39"/>
<path d="M256.028 151.813C262.759 147.226 255.729 135.673 249.227 141.04C242.725 146.407 249.842 156 256.028 151.813Z" fill="#F8AC39"/>
<path d="M267.645 141.268C275.764 137.157 267.364 124.709 261.318 131.98C258.208 135.787 262.214 144.028 267.645 141.268Z" fill="#F8AC39"/>
<path d="M280.509 130.001C281.357 129.623 282.091 128.996 282.627 128.189C283.162 127.383 283.478 126.43 283.539 125.438C283.599 124.447 283.402 123.457 282.969 122.581C282.536 121.706 281.884 120.979 281.089 120.484C276.643 117.134 269.297 125.052 275.694 129.887C276.43 130.33 277.259 130.563 278.102 130.563C278.944 130.563 279.772 130.33 280.509 129.887" fill="#F8AC39"/>
<path d="M292.442 119.228C299.155 115.916 292.178 106.209 287.433 111.9C285.377 114.375 287.433 121.626 292.442 119.228Z" fill="#F8AC39"/>
<path d="M304.867 108.074C310.614 105.657 305.13 97.1684 301.035 101.66C299.278 103.678 300.684 109.845 304.867 108.074Z" fill="#F8AC39"/>
<path d="M317.748 96.5024C318.133 96.3473 318.48 96.0975 318.76 95.7728C319.041 95.4481 319.249 95.0573 319.366 94.6311C319.484 94.2049 319.508 93.755 319.438 93.3168C319.368 92.8785 319.205 92.464 318.961 92.1057C318.738 91.7645 318.456 91.4742 318.129 91.2513C317.803 91.0284 317.439 90.8773 317.059 90.8066C316.679 90.7359 316.289 90.747 315.913 90.8392C315.537 90.9315 315.181 91.1032 314.866 91.3444C314.551 91.5855 314.283 91.8916 314.077 92.245C313.871 92.5984 313.732 92.9922 313.667 93.404C313.601 93.8158 313.612 94.2376 313.697 94.6451C313.782 95.0526 313.941 95.4379 314.164 95.7791C314.55 96.3676 315.132 96.7715 315.787 96.9063C316.442 97.0411 317.12 96.8964 317.678 96.5024" fill="#F8AC39"/>
<path d="M329.804 85.33C331.737 84.6638 331.667 83.2934 330.999 82.1704C328.257 77.355 325.094 86.9288 329.804 85.33Z" fill="#F8AC39"/>
<path d="M170.953 202.574C171.874 201.997 172.675 201.22 173.306 200.292C173.937 199.365 174.385 198.306 174.621 197.182C174.857 196.058 174.876 194.894 174.677 193.762C174.478 192.63 174.066 191.554 173.466 190.602C167.333 181.086 155.628 192.087 160.971 200.309C161.472 201.189 162.133 201.949 162.914 202.543C163.694 203.137 164.579 203.552 165.513 203.764C166.446 203.976 167.411 203.98 168.346 203.775C169.281 203.571 170.168 203.162 170.953 202.574Z" fill="#F8AC39"/>
<path d="M183.483 191.992C184.47 191.486 185.338 190.744 186.022 189.822C186.705 188.899 187.186 187.821 187.428 186.668C187.67 185.514 187.667 184.317 187.419 183.165C187.171 182.013 186.685 180.938 185.996 180.02C180.197 171.531 168.563 181.238 174.011 189.536C174.478 190.379 175.097 191.11 175.831 191.688C176.564 192.266 177.398 192.678 178.282 192.9C179.165 193.122 180.081 193.149 180.975 192.98C181.868 192.811 182.721 192.449 183.483 191.916" fill="#F8AC39"/>
<path d="M196.031 181.257C204.502 175.947 196.295 161.881 188.422 168.048C181.216 173.758 188.281 186.072 196.031 181.257Z" fill="#F8AC39"/>
<path d="M207.788 170.903C218.332 165.783 207.366 149.852 199.827 159.255C195.135 165.098 202.006 173.739 207.788 170.903Z" fill="#F8AC39"/>
<path d="M220.793 159.883C221.757 159.405 222.6 158.682 223.252 157.776C223.904 156.871 224.346 155.808 224.539 154.679C224.732 153.55 224.671 152.387 224.362 151.288C224.052 150.19 223.503 149.188 222.761 148.368C217.261 141.858 209.088 150.69 212.217 156.78C212.563 157.624 213.068 158.38 213.699 159C214.33 159.621 215.073 160.092 215.882 160.384C216.69 160.676 217.546 160.782 218.395 160.696C219.243 160.61 220.066 160.333 220.81 159.883" fill="#F8AC39"/>
<path d="M233.27 149.034C242.796 143.99 231.513 130.001 225.538 139.346C222.849 143.59 227.102 152.289 233.27 149.034Z" fill="#F8AC39"/>
<path d="M245.59 138.166C254.236 133.788 245.045 121.188 238.982 128.497C235.959 132.113 239.544 141.23 245.59 138.166Z" fill="#F8AC39"/>
<path d="M258.261 127.089C265.29 123.282 258.612 112.89 252.988 117.458C248.507 121.264 252.654 129.982 258.261 127.089Z" fill="#F8AC39"/>
<path d="M271.353 115.707C271.917 115.348 272.405 114.865 272.787 114.29C273.17 113.715 273.437 113.061 273.572 112.368C273.708 111.675 273.709 110.959 273.575 110.266C273.441 109.572 273.175 108.917 272.794 108.341C269.069 102.897 261.6 109.236 265.237 114.584C265.912 115.609 266.935 116.303 268.081 116.514C269.228 116.724 270.404 116.434 271.353 115.707Z" fill="#F8AC39"/>
<path d="M283.286 104.877C288.558 101.87 283.585 94.1041 279.279 97.3778C275.641 100.138 278.646 107.541 283.286 104.877Z" fill="#F8AC39"/>
<path d="M295.641 93.8376C300.315 91.4204 295.64 85.1014 292.46 87.5186C289.279 89.9358 291.827 95.7981 295.641 93.8376Z" fill="#F8AC39"/>
<path d="M307.362 82.5319C311.457 81.3899 308.715 76.0226 306.343 76.822C303.461 77.8688 304.076 83.3694 307.362 82.5319Z" fill="#F8AC39"/>
<path d="M319.945 70.9979C320.204 70.9832 320.455 70.894 320.672 70.7393C320.889 70.5847 321.063 70.3702 321.178 70.118C321.292 69.8659 321.343 69.5853 321.324 69.305C321.305 69.0247 321.217 68.755 321.07 68.5236C319.119 64.8122 316.36 71.7402 319.945 70.9979Z" fill="#F8AC39"/>
<path d="M135.541 209.54C143.696 204.915 138.265 191.897 130.445 194.314C120.234 197.416 126.051 214.965 135.541 209.54Z" fill="#F8AC39"/>
<path d="M148.476 198.863C150.241 197.639 151.558 195.788 152.201 193.628C154.082 184.112 139.197 179.201 137.51 190.621C137.308 192.108 137.494 193.626 138.046 195.004C138.598 196.383 139.494 197.567 140.634 198.423C141.774 199.28 143.112 199.775 144.497 199.852C145.883 199.93 147.261 199.587 148.476 198.863Z" fill="#F8AC39"/>
<path d="M160.637 188.585C169.881 183.75 162.113 169.856 154.644 174.063C146.068 178.897 152.5 192.829 160.637 188.585Z" fill="#F8AC39"/>
<path d="M173.185 177.85C174.311 177.347 175.296 176.536 176.046 175.497C176.795 174.457 177.282 173.224 177.459 171.92C177.636 170.615 177.498 169.283 177.056 168.053C176.615 166.824 175.887 165.74 174.942 164.908C169.108 158.874 158.018 169.019 165.681 176.879C166.676 177.845 167.921 178.455 169.248 178.629C170.574 178.803 171.918 178.531 173.097 177.85" fill="#F8AC39"/>
<path d="M185.627 167.268C187.02 166.543 188.227 165.458 189.142 164.108C191.339 159.94 187.982 151.299 181.585 153.031C176.313 154.458 173.29 163.118 179.828 167.23C180.747 167.729 181.761 167.988 182.789 167.988C183.817 167.988 184.831 167.729 185.75 167.23" fill="#F8AC39"/>
<path d="M198.439 156.381C199.406 155.906 200.253 155.185 200.907 154.279C201.561 153.374 202.004 152.31 202.197 151.179C202.391 150.049 202.329 148.884 202.017 147.785C201.705 146.685 201.153 145.684 200.407 144.866C194.924 138.375 186.752 147.188 189.863 153.278C190.205 154.123 190.707 154.881 191.336 155.503C191.965 156.125 192.707 156.597 193.515 156.89C194.323 157.182 195.179 157.288 196.027 157.2C196.875 157.112 197.696 156.833 198.439 156.381Z" fill="#F8AC39"/>
<path d="M210.758 145.608C220.178 140.964 210.248 127.012 203.605 135.121C200.407 138.927 204.343 148.767 210.758 145.608Z" fill="#F8AC39"/>
<path d="M224.097 134.283C224.817 133.844 225.441 133.242 225.928 132.519C226.414 131.796 226.753 130.968 226.919 130.091C227.086 129.215 227.077 128.31 226.893 127.437C226.709 126.565 226.355 125.745 225.854 125.033C221.18 118.2 212.287 126.575 216.505 132.761C216.894 133.409 217.4 133.965 217.993 134.395C218.586 134.826 219.254 135.121 219.956 135.263C220.657 135.405 221.378 135.392 222.075 135.224C222.772 135.055 223.43 134.735 224.009 134.283" fill="#F8AC39"/>
<path d="M236.416 123.491C237.115 123.123 237.727 122.589 238.208 121.928C238.69 121.268 239.028 120.499 239.197 119.677C239.365 118.856 239.361 118.004 239.184 117.185C239.007 116.366 238.662 115.6 238.174 114.946C233.903 108.684 225.415 116.011 229.545 122.064C229.899 122.662 230.362 123.177 230.905 123.575C231.449 123.973 232.061 124.248 232.706 124.381C233.35 124.515 234.013 124.505 234.654 124.352C235.295 124.199 235.9 123.906 236.433 123.491" fill="#F8AC39"/>
<path d="M248.226 112.871C256.398 109.064 247.101 97.2637 242.286 105.41C240.616 108.246 243.323 115.193 248.226 112.871Z" fill="#F8AC39"/>
<path d="M261.072 101.584C267.293 98.3676 261.073 90.3547 256.978 93.5332C253.252 96.3692 256.134 104.135 261.072 101.584Z" fill="#F8AC39"/>
<path d="M273.11 90.7544C277.978 88.6226 274.709 81.2378 270.72 83.1411C266.731 85.0444 268.576 92.6577 273.11 90.7544Z" fill="#F8AC39"/>
<path d="M285.606 79.4677C287.486 78.6873 288.329 77.1646 287.591 75.3755C285.623 70.6363 278.576 75.1471 282.917 79.1822C283.307 79.4715 283.761 79.6449 284.233 79.6849C284.705 79.725 285.178 79.6304 285.606 79.4106" fill="#F8AC39"/>
<path d="M298.329 68.0477C298.638 67.9514 298.92 67.7763 299.152 67.5372C299.385 67.2981 299.562 67.0019 299.667 66.6736C299.772 66.3453 299.802 65.9945 299.756 65.6507C299.71 65.3069 299.588 64.9801 299.401 64.6979C297.644 61.6336 293.953 64.9263 295.676 67.4577C295.813 67.6872 295.99 67.8847 296.198 68.0389C296.406 68.1931 296.641 68.3009 296.888 68.3558C297.135 68.4108 297.39 68.4117 297.637 68.3588C297.885 68.306 298.12 68.2002 298.329 68.0477Z" fill="#F8AC39"/>
<path d="M308.979 55.2384C308.978 55.5728 309.088 55.8966 309.289 56.1502C309.491 56.4037 309.77 56.57 310.075 56.6186C310.381 56.6672 310.693 56.5948 310.953 56.4147C311.213 56.2346 311.405 55.9588 311.492 55.6381C311.493 55.3036 311.383 54.9799 311.182 54.7264C310.98 54.4729 310.701 54.3065 310.395 54.2579C310.09 54.2093 309.778 54.2818 309.518 54.4619C309.258 54.642 309.066 54.9176 308.979 55.2384Z" fill="#F8AC39"/>
<path d="M112.748 205.81C123.661 200.1 111.149 183.693 103.961 194.542C100.552 199.7 106.017 209.369 112.748 205.81Z" fill="#F8AC39"/>
<path d="M125.489 195.284C126.615 194.782 127.601 193.971 128.35 192.931C129.099 191.891 129.586 190.659 129.763 189.354C129.941 188.049 129.802 186.717 129.361 185.488C128.919 184.258 128.191 183.174 127.246 182.342C121.412 176.289 110.323 186.453 117.985 194.295C118.976 195.268 120.22 195.886 121.548 196.063C122.876 196.24 124.222 195.968 125.401 195.284" fill="#F8AC39"/>
<path d="M138.265 184.74C139.424 184.192 140.424 183.317 141.162 182.205C141.899 181.093 142.347 179.787 142.456 178.423C142.566 177.06 142.334 175.689 141.785 174.456C141.236 173.223 140.391 172.173 139.337 171.417C133.731 166.849 126.543 174.329 128.547 180.305C128.874 181.321 129.395 182.25 130.078 183.032C130.76 183.814 131.588 184.43 132.506 184.84C133.424 185.25 134.412 185.444 135.405 185.411C136.398 185.377 137.373 185.116 138.265 184.645" fill="#F8AC39"/>
<path d="M150.708 174.158C151.9 173.648 152.937 172.789 153.704 171.676C154.471 170.564 154.938 169.243 155.051 167.86C155.164 166.478 154.919 165.088 154.345 163.847C153.77 162.606 152.888 161.563 151.797 160.834C145.699 156.095 135.84 167.191 144.328 173.796C145.263 174.477 146.355 174.865 147.481 174.915C148.607 174.966 149.724 174.677 150.708 174.081" fill="#F8AC39"/>
<path d="M164.38 162.89C165.176 162.368 165.859 161.668 166.387 160.838C166.914 160.008 167.273 159.066 167.439 158.075C167.605 157.083 167.575 156.065 167.35 155.087C167.126 154.11 166.713 153.195 166.138 152.403C159.477 142.62 147.914 158.627 158.106 163.67C159.112 164.144 160.216 164.321 161.305 164.184C162.394 164.047 163.431 163.601 164.31 162.89" fill="#F8AC39"/>
<path d="M175.786 152.84C183.94 148.71 177.543 136.263 170.883 139.898C169.834 140.375 168.917 141.138 168.222 142.114C167.527 143.09 167.078 144.244 166.919 145.464C166.759 146.684 166.895 147.928 167.313 149.074C167.73 150.22 168.415 151.23 169.301 152.003C170.285 152.993 170.338 152.802 170.478 152.898C171.306 153.307 172.205 153.519 173.115 153.519C174.024 153.519 174.923 153.307 175.751 152.898" fill="#F8AC39"/>
<path d="M188.597 141.972C198.122 136.91 186.84 122.939 180.847 132.285C178.158 136.51 182.429 145.227 188.597 141.972Z" fill="#F8AC39"/>
<path d="M201.76 130.781C202.482 130.344 203.109 129.743 203.597 129.02C204.086 128.297 204.425 127.469 204.591 126.591C204.758 125.714 204.749 124.808 204.563 123.934C204.378 123.061 204.021 122.242 203.518 121.531C198.843 114.698 189.95 123.092 194.15 129.258C194.539 129.91 195.047 130.468 195.641 130.9C196.236 131.332 196.905 131.628 197.609 131.771C198.313 131.913 199.036 131.899 199.735 131.729C200.433 131.559 201.092 131.236 201.672 130.781" fill="#F8AC39"/>
<path d="M213.886 120.161C221.531 116.106 213.552 104.934 207.911 110.644C203.465 115.136 208.579 123.035 213.886 120.161Z" fill="#F8AC39"/>
<path d="M226.205 109.369C226.87 109.136 227.477 108.743 227.981 108.221C228.486 107.698 228.875 107.06 229.12 106.351C229.365 105.643 229.459 104.885 229.396 104.132C229.332 103.379 229.113 102.651 228.754 102.003C225.239 95.0367 215.169 101.774 220.722 108.322C221.388 109.149 222.295 109.705 223.293 109.895C224.291 110.086 225.319 109.9 226.205 109.369Z" fill="#F8AC39"/>
<path d="M239.052 98.1392C244.694 94.8464 239.281 86.2054 234.518 89.8217C230.353 93.0002 234.026 101.07 239.052 98.1392Z" fill="#F8AC39"/>
<path d="M251.055 87.3093C257.347 84.4924 250.844 75.4136 246.591 80.7809C244.922 82.9127 246.802 89.2126 251.055 87.3093Z" fill="#F8AC39"/>
<path d="M264.077 75.9276C264.539 75.6077 264.928 75.1801 265.217 74.6762C265.505 74.1724 265.687 73.605 265.747 73.0155C265.747 66.0303 256.134 70.6173 259.807 75.4327C260.05 75.7795 260.356 76.0688 260.706 76.2828C261.057 76.4969 261.443 76.6313 261.843 76.6776C262.243 76.7239 262.648 76.6813 263.032 76.5524C263.416 76.4234 263.772 76.2108 264.077 75.9276Z" fill="#F8AC39"/>
<path d="M275.764 65.0596C277.996 64.2602 278.031 62.6042 277.522 61.4432C277.268 60.7592 276.773 60.2126 276.147 59.9235C275.521 59.6344 274.814 59.6264 274.183 59.9015C273.551 60.1766 273.046 60.7123 272.779 61.3905C272.512 62.0687 272.505 62.8339 272.759 63.5179C273.62 65.4212 274.516 65.4212 275.782 65.0596" fill="#F8AC39"/>
<path d="M287.978 53.7349C288.927 53.7349 289.736 52.3645 289.736 51.6983C287.978 47.1113 284.2 53.6016 287.978 53.7349Z" fill="#F8AC39"/>
<path d="M300.93 40.5448C298.066 41.2681 302.582 43.3808 300.93 40.5448V40.5448Z" fill="#F8AC39"/>
<path d="M103.029 191.592C113.574 186.168 101.272 170.865 94.7522 181.124C93.7989 182.798 93.4967 184.814 93.9117 186.729C94.3266 188.644 95.425 190.304 96.9665 191.345C97.859 191.984 98.8967 192.345 99.966 192.389C101.035 192.433 102.095 192.157 103.029 191.592Z" fill="#F8AC39"/>
<path d="M115.788 181.048C116.969 180.525 117.987 179.648 118.723 178.521C119.459 177.393 119.882 176.061 119.943 174.681C120.004 173.302 119.7 171.932 119.067 170.733C118.433 169.535 117.497 168.557 116.368 167.915C114.769 167.074 112.933 166.933 111.24 167.522C109.548 168.11 108.131 169.383 107.282 171.074C106.862 171.933 106.602 172.873 106.52 173.841C106.437 174.809 106.532 175.785 106.801 176.713C107.069 177.64 107.504 178.501 108.081 179.245C108.659 179.989 109.367 180.602 110.165 181.048C111.033 181.536 111.998 181.792 112.976 181.792C113.955 181.792 114.92 181.536 115.788 181.048Z" fill="#F8AC39"/>
<path d="M128.547 170.522C129.517 170.048 130.367 169.327 131.024 168.42C131.681 167.513 132.125 166.447 132.318 165.313C132.512 164.18 132.449 163.012 132.135 161.911C131.821 160.809 131.265 159.806 130.515 158.988C125.032 152.498 116.86 161.329 119.971 167.401C120.318 168.244 120.822 169 121.453 169.621C122.083 170.242 122.826 170.714 123.634 171.007C124.442 171.301 125.298 171.409 126.146 171.326C126.995 171.242 127.819 170.969 128.565 170.522" fill="#F8AC39"/>
<path d="M141.007 159.94C142.32 159.338 143.414 158.286 144.123 156.946C144.831 155.605 145.114 154.051 144.929 152.519C144.743 150.988 144.099 149.565 143.096 148.468C142.092 147.371 140.785 146.661 139.373 146.445C137.983 146.355 136.602 146.736 135.422 147.535C134.242 148.334 133.321 149.512 132.788 150.904C132.254 152.296 132.135 153.834 132.446 155.303C132.756 156.773 133.482 158.101 134.522 159.102C135.431 159.867 136.514 160.35 137.657 160.497C138.8 160.645 139.958 160.452 141.007 159.94Z" fill="#F8AC39"/>
<path d="M154.662 148.653C155.408 148.172 156.053 147.526 156.553 146.756C157.052 145.987 157.397 145.111 157.563 144.188C157.728 143.264 157.712 142.313 157.515 141.397C157.318 140.48 156.945 139.619 156.419 138.87C151.657 131.885 141.833 140.145 146.226 146.978C146.657 147.719 147.225 148.354 147.894 148.844C148.563 149.335 149.319 149.669 150.113 149.826C150.908 149.984 151.724 149.961 152.51 149.759C153.296 149.557 154.035 149.18 154.679 148.653" fill="#F8AC39"/>
<path d="M167.104 138.071C173.835 133.503 166.806 121.931 160.303 127.298C153.801 132.665 160.918 142.277 167.104 138.071Z" fill="#F8AC39"/>
<path d="M178.879 127.736C187.525 123.358 178.352 110.758 172.271 118.048C169.248 121.683 172.816 130.781 178.879 127.736Z" fill="#F8AC39"/>
<path d="M191.901 116.354C192.6 115.986 193.212 115.451 193.694 114.791C194.175 114.131 194.513 113.361 194.682 112.54C194.85 111.719 194.846 110.867 194.669 110.047C194.492 109.228 194.147 108.463 193.658 107.808C189.388 101.546 180.9 108.874 185.03 114.927C185.384 115.522 185.846 116.034 186.388 116.431C186.93 116.827 187.54 117.101 188.183 117.234C188.825 117.368 189.486 117.358 190.125 117.207C190.765 117.056 191.369 116.766 191.901 116.354Z" fill="#F8AC39"/>
<path d="M204.22 105.581C205.069 105.204 205.803 104.576 206.338 103.77C206.874 102.963 207.19 102.01 207.25 101.019C207.311 100.027 207.113 99.0376 206.68 98.1619C206.247 97.2861 205.596 96.5595 204.8 96.0645C200.354 92.6957 193.008 100.613 199.405 105.448C200.14 105.896 200.969 106.132 201.813 106.132C202.656 106.132 203.486 105.896 204.22 105.448" fill="#F8AC39"/>
<path d="M216.54 94.7894C217.22 94.5322 217.829 94.092 218.309 93.51C218.79 92.928 219.125 92.2234 219.285 91.4623C219.445 90.7012 219.424 89.9085 219.224 89.1588C219.023 88.4091 218.65 87.7268 218.139 87.1761C217.34 86.2019 216.216 85.6114 215.014 85.5347C213.813 85.4579 212.633 85.9011 211.733 86.7669C210.834 87.6326 210.289 88.8499 210.218 90.151C210.147 91.452 210.556 92.7302 211.355 93.7045C211.944 94.5778 212.823 95.1693 213.807 95.354C214.791 95.5386 215.802 95.3021 216.628 94.6943" fill="#F8AC39"/>
<path d="M229.369 83.5597C234.641 80.3241 228.894 73.1676 225.028 76.3462C221.513 79.1821 224.835 86.3766 229.369 83.5597Z" fill="#F8AC39"/>
<path d="M241.196 72.9013C243.903 71.7783 244.166 69.7037 243.586 68.143C241.425 62.6043 233.446 67.3055 237.91 72.2161C238.328 72.6794 238.867 72.9932 239.454 73.1157C240.041 73.2382 240.649 73.1633 241.196 72.9013Z" fill="#F8AC39"/>
<path d="M253.551 61.7479C254.053 61.5898 254.509 61.2923 254.872 60.8851C255.236 60.4778 255.495 59.9748 255.624 59.4257C256.433 53.1258 246.838 56.5328 250.897 61.1578C251.266 61.5575 251.758 62.4711 253.551 61.7479Z" fill="#F8AC39"/>
<path d="M266.081 50.4801C268.014 49.814 267.944 48.4627 267.276 47.3207C264.534 42.5053 261.371 52.0789 266.081 50.4801Z" fill="#F8AC39"/>
<path d="M277.047 37.7089C277.046 38.0434 277.156 38.3671 277.358 38.6206C277.559 38.8742 277.838 39.0405 278.144 39.0891C278.449 39.1377 278.76 39.0652 279.021 38.8851C279.281 38.705 279.472 38.4293 279.56 38.1085C279.561 37.7741 279.451 37.4504 279.25 37.1968C279.048 36.9433 278.769 36.777 278.464 36.7285C278.158 36.6799 277.846 36.7522 277.586 36.9323C277.326 37.1124 277.135 37.3882 277.047 37.7089Z" fill="#F8AC39"/>
<path d="M93.3639 177.013C102.889 171.969 91.6064 157.979 85.6313 167.325C82.9249 171.55 87.1954 180.267 93.3639 177.013Z" fill="#F8AC39"/>
<path d="M106.158 166.468C114.839 161.9 106.158 148.577 99.3566 155.715C94.4535 160.892 100.376 169.514 106.158 166.468Z" fill="#F8AC39"/>
<path d="M119.057 155.791C126.842 151.089 119.057 139.479 112.625 144.732C106.843 149.491 112.625 159.692 119.057 155.791Z" fill="#F8AC39"/>
<path d="M131.324 145.36C139.988 140.945 130.814 127.698 124.452 135.273C120.322 140.203 125.964 148.082 131.324 145.36Z" fill="#F8AC39"/>
<path d="M143.766 134.778C152.905 130.553 142.887 117.039 137.123 125.433C136.642 126.087 136.295 126.845 136.106 127.656C135.917 128.467 135.89 129.312 136.026 130.135C136.163 130.958 136.459 131.74 136.897 132.429C137.335 133.119 137.903 133.699 138.564 134.131C139.307 134.745 140.189 135.129 141.118 135.243C142.046 135.357 142.986 135.197 143.836 134.778" fill="#F8AC39"/>
<path d="M156.402 124.043C164.503 119.951 156.103 107.504 150.057 114.755C146.947 118.562 150.954 126.784 156.402 124.043Z" fill="#F8AC39"/>
<path d="M169.213 113.156C176.243 109.445 169.564 98.9576 163.941 103.526C159.442 107.237 163.589 116.049 169.213 113.156Z" fill="#F8AC39"/>
<path d="M181.515 102.365C189.687 98.5579 180.39 86.7574 175.593 94.9226C173.835 97.7586 176.612 104.706 181.515 102.365Z" fill="#F8AC39"/>
<path d="M194.678 91.1921C200.319 87.8994 194.906 79.2774 190.144 82.8937C185.979 86.0532 189.652 94.1232 194.678 91.1921Z" fill="#F8AC39"/>
<path d="M207.173 80.2671C212.445 77.0314 206.663 69.856 202.797 73.0535C199.282 75.8895 202.621 83.084 207.173 80.2671Z" fill="#F8AC39"/>
<path d="M219 69.5895C221.689 68.4665 221.97 66.3729 221.373 64.8502C219.211 59.2925 211.233 63.9747 215.714 68.8852C216.127 69.3564 216.665 69.6772 217.254 69.8033C217.842 69.9294 218.452 69.8547 219 69.5895Z" fill="#F8AC39"/>
<path d="M232.023 58.2077C232.405 58.0495 232.749 57.7981 233.027 57.473C233.306 57.1479 233.512 56.7579 233.629 56.3329C233.746 55.908 233.772 55.4595 233.703 55.0222C233.635 54.5849 233.475 54.1704 233.235 53.8109C232.788 53.1193 232.105 52.6487 231.337 52.5024C230.569 52.356 229.779 52.546 229.14 53.0306C228.502 53.5152 228.067 54.2546 227.932 55.0863C227.797 55.918 227.972 56.7738 228.42 57.4653C228.806 58.0531 229.386 58.4578 230.04 58.5959C230.694 58.734 231.372 58.5951 231.935 58.2077" fill="#F8AC39"/>
<path d="M244.201 47.2255C244.511 47.1314 244.795 46.9579 245.03 46.7198C245.264 46.4816 245.443 46.1858 245.55 45.8572C245.657 45.5287 245.689 45.1771 245.644 44.8322C245.599 44.4872 245.477 44.1591 245.291 43.8756C243.533 40.8113 239.825 44.104 241.548 46.6355C241.684 46.8649 241.862 47.0624 242.07 47.2166C242.278 47.3709 242.513 47.4786 242.76 47.5336C243.007 47.5885 243.262 47.5895 243.509 47.5366C243.757 47.4837 243.992 47.378 244.201 47.2255Z" fill="#F8AC39"/>
<path d="M256.239 36.053C258.946 35.2346 256.679 31.9038 255.115 33.5788C254.482 34.264 254.587 36.2624 256.239 36.053Z" fill="#F8AC39"/>
<path d="M268.787 24.7853L269.49 24.1764L268.963 23.396C268.225 23.7385 268.172 24.2143 268.787 24.7853Z" fill="#F8AC39"/>
<path d="M84.0497 162.148C84.9139 161.674 85.6476 160.962 86.1774 160.084C86.7071 159.206 87.0142 158.192 87.0677 157.145C87.1211 156.098 86.919 155.054 86.4818 154.118C86.0446 153.182 85.3875 152.387 84.5768 151.813C79.1289 147.416 71.8358 157.028 78.1097 162.091C78.9928 162.715 80.0247 163.048 81.0796 163.048C82.1345 163.048 83.1666 162.715 84.0497 162.091" fill="#F8AC39"/>
<path d="M96.8084 151.603C97.6726 151.13 98.4063 150.418 98.9361 149.54C99.4658 148.662 99.7729 147.648 99.8264 146.601C99.8798 145.553 99.6777 144.509 99.2405 143.573C98.8033 142.637 98.1462 141.842 97.3355 141.268C91.8876 136.872 84.5945 146.483 90.8684 151.565C91.7523 152.188 92.7839 152.519 93.8383 152.519C94.8927 152.519 95.9245 152.188 96.8084 151.565" fill="#F8AC39"/>
<path d="M108.723 141.421C116.825 137.328 108.425 124.881 102.379 132.151C99.2686 135.958 103.258 144.18 108.723 141.421Z" fill="#F8AC39"/>
<path d="M121.974 130.476C122.673 130.108 123.285 129.574 123.767 128.913C124.248 128.253 124.586 127.484 124.755 126.662C124.924 125.841 124.919 124.989 124.742 124.17C124.565 123.351 124.22 122.585 123.732 121.931C119.461 115.688 110.973 122.996 115.103 129.049C115.455 129.647 115.916 130.161 116.458 130.559C117 130.957 117.612 131.231 118.255 131.365C118.898 131.499 119.559 131.489 120.199 131.336C120.839 131.183 121.443 130.891 121.974 130.476Z" fill="#F8AC39"/>
<path d="M134.452 119.913C135.163 119.616 135.8 119.141 136.31 118.527C136.82 117.913 137.189 117.178 137.388 116.381C137.586 115.584 137.608 114.747 137.452 113.939C137.297 113.13 136.967 112.373 136.49 111.729C132.554 105.543 124.189 112.148 127.95 118.181C128.247 118.785 128.658 119.314 129.157 119.733C129.656 120.153 130.231 120.455 130.844 120.618C131.457 120.782 132.096 120.803 132.717 120.682C133.339 120.56 133.93 120.298 134.452 119.913Z" fill="#F8AC39"/>
<path d="M146.912 109.312C147.76 108.934 148.494 108.307 149.03 107.5C149.565 106.694 149.881 105.741 149.942 104.749C150.002 103.758 149.804 102.768 149.371 101.892C148.938 101.017 148.287 100.29 147.492 99.7951C143.045 96.4452 135.699 104.363 142.096 109.197C142.833 109.641 143.661 109.873 144.504 109.873C145.346 109.873 146.175 109.641 146.912 109.197" fill="#F8AC39"/>
<path d="M159.899 98.2915C160.46 97.9303 160.947 97.4468 161.328 96.8718C161.708 96.2968 161.974 95.6427 162.11 94.9506C162.245 94.2585 162.247 93.5435 162.114 92.8507C161.982 92.158 161.718 91.5025 161.34 90.9256C157.614 85.4631 150.128 91.8202 153.783 97.1495C154.458 98.1739 155.479 98.8685 156.624 99.0823C157.769 99.2961 158.946 99.012 159.899 98.2915Z" fill="#F8AC39"/>
<path d="M172.025 87.6519C178.246 84.4543 172.025 76.4224 167.93 79.6009C164.187 82.4368 167.087 90.2214 172.025 87.6519Z" fill="#F8AC39"/>
<path d="M184.169 77.0123C190.46 74.1954 183.958 65.1167 179.705 70.503C178.035 72.6157 179.916 78.9157 184.169 77.0123Z" fill="#F8AC39"/>
<path d="M196.646 66.0873C199.37 64.9834 199.634 62.8898 199.036 61.3481C196.874 55.7904 188.896 60.4916 193.377 65.4021C193.791 65.8662 194.327 66.1809 194.912 66.3035C195.497 66.4261 196.102 66.3506 196.646 66.0873Z" fill="#F8AC39"/>
<path d="M209.686 54.7246C210.068 54.562 210.41 54.3071 210.686 53.9793C210.963 53.6516 211.167 53.2598 211.282 52.8337C211.397 52.4076 211.421 51.9586 211.352 51.521C211.282 51.0834 211.121 50.6687 210.881 50.3089C210.658 49.9677 210.376 49.6773 210.05 49.4544C209.723 49.2315 209.359 49.0804 208.979 49.0097C208.599 48.939 208.21 48.9501 207.833 49.0424C207.457 49.1347 207.101 49.3063 206.786 49.5475C206.471 49.7887 206.203 50.0947 205.997 50.4482C205.792 50.8016 205.652 51.1954 205.587 51.6072C205.521 52.019 205.532 52.4407 205.617 52.8482C205.702 53.2557 205.861 53.6411 206.083 53.9822C206.472 54.5963 207.068 55.019 207.743 55.1581C208.418 55.2972 209.117 55.1413 209.686 54.7246Z" fill="#F8AC39"/>
<path d="M221.847 43.7424C223.851 42.943 223.798 41.5156 223.253 40.4307C220.318 34.4733 216.382 45.8741 221.847 43.7424Z" fill="#F8AC39"/>
<path d="M234.448 32.4557C234.729 32.3538 234.975 32.1602 235.151 31.9013C235.328 31.6423 235.426 31.3308 235.432 31.0092C235.204 27.7355 231.337 30.0385 232.427 31.9609C232.778 32.589 233.077 33.1409 234.448 32.4557Z" fill="#F8AC39"/>
<path d="M246.433 21.2833L247.154 20.6742L246.609 19.8939C245.888 20.2556 245.836 20.7123 246.433 21.2833Z" fill="#F8AC39"/>
<path d="M73.6987 147.816C77.2135 145.912 77.4946 142.867 76.2644 140.45C72.7496 133.484 62.6622 140.222 68.2156 146.788C68.8852 147.609 69.7935 148.159 70.7903 148.346C71.7872 148.533 72.8131 148.346 73.6987 147.816Z" fill="#F8AC39"/>
<path d="M73.066 176.879C73.9301 176.406 74.6639 175.694 75.1936 174.816C75.7234 173.938 76.0305 172.924 76.0839 171.877C76.1373 170.829 75.9353 169.785 75.498 168.849C75.0608 167.913 74.4038 167.118 73.5931 166.544C68.1451 162.148 60.852 171.759 67.126 176.822C68.0074 177.452 69.04 177.787 70.0959 177.787C71.1517 177.787 72.1845 177.452 73.066 176.822" fill="#F8AC39"/>
<path d="M62.7149 162.547C63.3785 162.313 63.985 161.921 64.4897 161.399C64.9944 160.877 65.3844 160.239 65.6308 159.532C65.8771 158.825 65.9735 158.066 65.9129 157.313C65.8523 156.561 65.6362 155.832 65.2807 155.182C61.7659 148.234 51.6785 154.953 57.2319 161.52C57.9015 162.341 58.8097 162.89 59.8066 163.077C60.8035 163.264 61.8294 163.077 62.7149 162.547Z" fill="#F8AC39"/>
<path d="M62.0822 191.611C62.9464 191.137 63.6801 190.426 64.2099 189.548C64.7396 188.669 65.0467 187.656 65.1001 186.608C65.1536 185.561 64.9515 184.517 64.5143 183.581C64.0771 182.645 63.42 181.85 62.6093 181.276C57.1438 176.879 49.8507 186.491 56.1422 191.573C57.0261 192.195 58.0577 192.527 59.1121 192.527C60.1665 192.527 61.1983 192.195 62.0822 191.573" fill="#F8AC39"/>
<path d="M51.6783 177.279C55.1931 175.49 55.4742 172.349 54.244 169.913C50.7292 162.966 40.6419 169.704 46.2128 176.251C46.8758 177.077 47.7813 177.63 48.7768 177.817C49.7724 178.005 50.7971 177.815 51.6783 177.279Z" fill="#F8AC39"/>
<path d="M86.6331 137.119C87.4878 136.749 88.2287 136.126 88.7704 135.32C89.3122 134.514 89.6328 133.559 89.6953 132.564C89.7577 131.57 89.5594 130.576 89.1233 129.699C88.6873 128.821 88.0312 128.094 87.2306 127.603C82.7844 124.253 75.421 132.151 81.8355 136.986C82.5671 137.435 83.3935 137.67 84.2343 137.67C85.0751 137.67 85.9015 137.435 86.6331 136.986" fill="#F8AC39"/>
<path d="M99.585 126.442C104.857 122.958 99.7432 113.328 94.3128 117.515C89.4097 121.322 94.0668 130.096 99.585 126.442Z" fill="#F8AC39"/>
<path d="M111.676 116.164C119.268 112.357 110.27 101.337 105.736 108.703C103.856 111.748 106.615 118.657 111.676 116.164Z" fill="#F8AC39"/>
<path d="M124.294 105.429C129.865 102.669 125.84 93.4952 120.779 96.2359C119.976 96.6067 119.284 97.212 118.78 97.9842C118.276 98.7564 117.98 99.6651 117.926 100.609C117.871 101.553 118.059 102.494 118.47 103.329C118.881 104.163 119.498 104.857 120.252 105.334C120.859 105.703 121.54 105.905 122.236 105.922C122.932 105.939 123.62 105.769 124.241 105.429" fill="#F8AC39"/>
<path d="M136.736 94.8465C143.467 91.5538 136.49 81.8468 131.746 87.5377C129.689 90.012 131.745 97.2637 136.736 94.8465Z" fill="#F8AC39"/>
<path d="M149.724 83.8071C154.996 80.7999 150.04 73.0343 145.734 76.308C142.096 79.0679 145.102 86.4718 149.724 83.8071Z" fill="#F8AC39"/>
<path d="M161.867 73.1677C167.614 70.7505 162.131 62.2617 158.036 66.7535C156.279 68.771 157.702 74.9378 161.867 73.1677Z" fill="#F8AC39"/>
<path d="M174.169 62.3949C174.6 62.2931 175.007 62.0948 175.363 61.8127C175.719 61.5307 176.016 61.171 176.236 60.757C176.457 60.3429 176.594 59.8836 176.641 59.4085C176.687 58.9334 176.641 58.453 176.506 57.9982C174.503 52.707 166.384 57.6366 171.48 62.1474C171.874 62.4263 172.326 62.5949 172.796 62.6381C173.265 62.6813 173.737 62.5977 174.169 62.3949Z" fill="#F8AC39"/>
<path d="M186.84 51.3176C187.342 51.1595 187.798 50.8622 188.162 50.4549C188.525 50.0477 188.784 49.5447 188.913 48.9956C189.739 42.6956 180.127 46.1026 184.186 50.7086C184.555 51.1274 185.065 52.0218 186.84 51.3176Z" fill="#F8AC39"/>
<path d="M199.686 40.0881C199.999 39.9952 200.286 39.8215 200.523 39.582C200.76 39.3425 200.939 39.0443 201.047 38.713C201.154 38.3818 201.185 38.0273 201.138 37.6801C201.091 37.3328 200.966 37.0031 200.776 36.7192C199.018 33.6739 195.328 36.9667 197.05 39.4981C197.185 39.7269 197.362 39.924 197.568 40.078C197.775 40.232 198.008 40.3397 198.253 40.3947C198.499 40.4497 198.752 40.4508 198.998 40.3982C199.245 40.3455 199.478 40.2401 199.686 40.0881Z" fill="#F8AC39"/>
<path d="M212.234 28.8204C212.515 28.7162 212.759 28.5218 212.935 28.2634C213.11 28.005 213.21 27.6947 213.218 27.3739C212.99 24.0812 209.124 26.3842 210.213 28.3255C210.565 28.9536 210.846 29.4866 212.234 28.8204Z" fill="#F8AC39"/>
<path d="M224.448 16.2585C221.601 16.9627 226.206 19.0754 224.448 16.2585V16.2585Z" fill="#F8AC39"/>
<path d="M236.856 7.25585L237.576 6.64678L237.031 5.86647C236.311 6.2281 236.258 6.68486 236.856 7.25585Z" fill="#F8AC39"/>
<path d="M63.8572 133.389C70.5705 130.096 63.611 120.389 58.8661 126.08C56.8099 128.554 58.8662 135.787 63.8572 133.389Z" fill="#F8AC39"/>
<path d="M76.6158 122.844C82.8194 119.647 76.6159 111.615 72.5212 114.793C68.7779 117.629 71.66 125.414 76.6158 122.844Z" fill="#F8AC39"/>
<path d="M89.5504 112.167C95.4729 108.76 89.234 100.994 85.1042 104.401C81.3961 107.465 84.8406 114.888 89.5504 112.167Z" fill="#F8AC39"/>
<path d="M101.993 101.584C102.621 101.38 103.19 101.001 103.641 100.485C104.092 99.9685 104.411 99.3334 104.566 98.6425C104.721 97.9516 104.706 97.229 104.522 96.5463C104.339 95.8637 103.994 95.2448 103.522 94.7513C100.393 90.545 93.6273 95.5126 97.3354 100.461C97.8243 101.269 98.5871 101.835 99.4586 102.038C100.33 102.241 101.24 102.064 101.993 101.546" fill="#F8AC39"/>
<path d="M114.453 91.0017C120.744 88.1848 114.242 79.106 109.989 84.4734C108.232 86.586 110.2 92.905 114.453 91.0017Z" fill="#F8AC39"/>
<path d="M126.895 80.5145C132.642 78.0783 127.176 69.5895 123.064 74.0813C121.306 76.1179 122.73 82.2656 126.895 80.5145Z" fill="#F8AC39"/>
<path d="M139.882 69.399C144.557 66.9818 139.882 60.6629 136.684 63.061C133.485 65.4592 136.068 71.3594 139.882 69.399Z" fill="#F8AC39"/>
<path d="M152.184 58.6073C154.064 57.8079 154.908 56.3044 154.17 54.4962C152.219 49.757 145.154 54.2869 149.495 58.3029C149.886 58.5917 150.338 58.7662 150.809 58.8096C151.28 58.8529 151.754 58.7637 152.184 58.5503" fill="#F8AC39"/>
<path d="M164.503 47.8155C166.753 47.0161 166.77 45.3602 166.261 44.2182C166.007 43.5342 165.512 42.9875 164.886 42.6983C164.26 42.4092 163.553 42.4014 162.922 42.6765C162.29 42.9516 161.785 43.4871 161.518 44.1653C161.251 44.8435 161.244 45.6088 161.498 46.2928C162.342 48.1962 163.256 48.1961 164.503 47.8155Z" fill="#F8AC39"/>
<path d="M177.174 36.7383C179.107 36.0721 179.037 34.7208 178.387 33.5788C175.627 28.7634 172.464 38.337 177.174 36.7383Z" fill="#F8AC39"/>
<path d="M189.528 25.6228C192.235 24.7853 189.968 21.4545 188.404 23.1485C187.771 23.8146 187.877 25.8321 189.528 25.6228Z" fill="#F8AC39"/>
<path d="M202.059 14.3361L202.779 13.7461L202.252 12.9658C201.532 13.3084 201.461 13.7651 202.059 14.3361Z" fill="#F8AC39"/>
<path d="M214.642 3.9441L215.362 3.35408L214.835 2.57365C214.114 2.93528 214.044 3.39214 214.642 3.9441Z" fill="#F8AC39"/>
<path d="M54.0508 118.581C54.7547 118.371 55.381 117.929 55.8425 117.317C56.3041 116.704 56.5779 115.951 56.6262 115.162C56.6745 114.373 56.4948 113.588 56.112 112.914C55.7292 112.241 55.1624 111.714 54.4902 111.405C53.7071 110.964 52.8041 110.839 51.9437 111.054C51.0834 111.269 50.3221 111.809 49.7968 112.578C49.2714 113.346 49.0165 114.292 49.0779 115.246C49.1393 116.2 49.5131 117.099 50.1319 117.781C50.5909 118.397 51.2374 118.816 51.9555 118.962C52.6737 119.109 53.4164 118.974 54.0508 118.581Z" fill="#F8AC39"/>
<path d="M66.8095 108.074C67.3057 107.889 67.7539 107.577 68.1168 107.166C68.4797 106.755 68.7471 106.257 68.8966 105.711C69.0461 105.166 69.0732 104.59 68.9762 104.032C68.8791 103.473 68.6605 102.947 68.3384 102.498C68.0734 102.051 67.7273 101.668 67.3213 101.37C66.9153 101.073 66.4578 100.868 65.9765 100.767C65.4951 100.667 65 100.674 64.5211 100.787C64.0422 100.9 63.5895 101.118 63.1904 101.426C62.7914 101.734 62.4544 102.127 62.1997 102.581C61.9451 103.034 61.778 103.539 61.7089 104.065C61.6398 104.59 61.6699 105.126 61.7975 105.638C61.9251 106.151 62.1475 106.63 62.4512 107.047C62.6639 107.437 62.9489 107.776 63.2883 108.042C63.6276 108.308 64.0139 108.495 64.4231 108.591C64.8323 108.688 65.2554 108.692 65.6661 108.603C66.0767 108.514 66.466 108.334 66.8095 108.074Z" fill="#F8AC39"/>
<path d="M79.0763 97.6444C81.7826 96.5214 82.0638 94.4468 81.4487 92.8861C79.3047 87.3474 71.3262 92.0486 75.8075 96.9592C76.22 97.4256 76.7559 97.7419 77.3414 97.8646C77.9268 97.9873 78.5329 97.9104 79.0763 97.6444Z" fill="#F8AC39"/>
<path d="M92.204 86.8144C96.8611 84.3972 92.2039 78.0782 89.0054 80.4954C85.8069 82.9126 88.3904 88.7748 92.204 86.8144Z" fill="#F8AC39"/>
<path d="M104.822 76.0797C105.276 75.9443 105.691 75.6884 106.031 75.3352C106.37 74.9819 106.623 74.5426 106.766 74.0568C106.909 73.5711 106.939 73.0543 106.851 72.5534C106.763 72.0525 106.561 71.5832 106.263 71.1882C106.023 70.8207 105.719 70.5082 105.367 70.2682C105.016 70.0282 104.624 69.8656 104.214 69.7896C103.805 69.7136 103.385 69.7257 102.98 69.8253C102.574 69.9248 102.191 70.1098 101.852 70.3697C101.513 70.6297 101.224 70.9595 101.003 71.3402C100.781 71.721 100.631 72.1453 100.561 72.5889C100.491 73.0325 100.502 73.4867 100.594 73.9257C100.685 74.3646 100.856 74.7797 101.096 75.1471C101.274 75.4852 101.515 75.7797 101.803 76.0121C102.091 76.2445 102.421 76.4097 102.771 76.4973C103.121 76.5849 103.484 76.593 103.837 76.5211C104.19 76.4493 104.525 76.299 104.822 76.0797Z" fill="#F8AC39"/>
<path d="M117.44 65.288C117.825 65.1329 118.171 64.8832 118.452 64.5586C118.733 64.2339 118.94 63.843 119.058 63.4168C119.175 62.9906 119.2 62.5407 119.13 62.1025C119.059 61.6643 118.896 61.2496 118.653 60.8913C118.438 60.5324 118.159 60.224 117.831 59.9847C117.504 59.7455 117.136 59.5801 116.748 59.4987C116.361 59.4173 115.962 59.4215 115.576 59.5109C115.189 59.6003 114.824 59.7732 114.501 60.0192C114.178 60.2652 113.904 60.5792 113.696 60.9426C113.488 61.3059 113.349 61.711 113.289 62.1336C113.229 62.5563 113.248 62.9877 113.345 63.4022C113.442 63.8167 113.616 64.2055 113.855 64.5457C114.239 65.1373 114.819 65.545 115.474 65.6834C116.13 65.8218 116.809 65.6801 117.37 65.288" fill="#F8AC39"/>
<path d="M129.408 54.8579C133.485 53.7349 130.761 48.3485 128.371 49.1479C125.489 50.1947 126.122 55.6953 129.408 54.8579Z" fill="#F8AC39"/>
<path d="M142.571 43.6854C142.882 43.5901 143.167 43.4147 143.402 43.1742C143.637 42.9337 143.815 42.6353 143.92 42.3043C144.026 41.9734 144.055 41.6197 144.007 41.2736C143.959 40.9274 143.834 40.599 143.643 40.3165C141.886 37.2521 138.178 40.5639 139.917 43.0763C140.053 43.3073 140.23 43.5065 140.437 43.6626C140.645 43.8186 140.879 43.9282 141.126 43.985C141.373 44.0417 141.628 44.0444 141.876 43.993C142.125 43.9415 142.361 43.837 142.571 43.6854Z" fill="#F8AC39"/>
<path d="M154.38 32.9316C155.347 32.9316 156.138 31.5612 156.138 30.8951C154.38 26.3081 150.602 32.7984 154.38 32.9316Z" fill="#F8AC39"/>
<path d="M165.804 20.4839C165.802 20.8184 165.913 21.1421 166.114 21.3956C166.316 21.6491 166.595 21.8154 166.9 21.864C167.206 21.9126 167.517 21.8402 167.778 21.6601C168.038 21.48 168.229 21.2043 168.317 20.8835C168.318 20.5491 168.208 20.2254 168.006 19.9718C167.805 19.7183 167.526 19.5519 167.22 19.5033C166.915 19.4547 166.603 19.5272 166.343 19.7073C166.083 19.8874 165.891 20.1632 165.804 20.4839Z" fill="#F8AC39"/>
<path d="M179.722 10.8341L180.443 10.2441C180.267 9.97761 180.091 9.71108 179.898 9.46365C179.177 9.82528 179.125 10.2821 179.722 10.8341Z" fill="#F8AC39"/>
<path d="M31.1695 114.336C31.6732 114.175 32.1295 113.874 32.4931 113.464C32.8568 113.053 33.1153 112.547 33.2433 111.995C34.0517 105.695 24.4562 109.121 28.5158 113.746C28.8673 114.146 29.377 115.041 31.1695 114.336Z" fill="#F8AC39"/>
<path d="M43.9282 103.792C44.4324 103.642 44.8898 103.347 45.2518 102.938C45.6138 102.529 45.8669 102.022 45.9844 101.47C46.8104 95.17 37.1973 98.5769 41.2745 103.202C41.626 103.621 42.1532 104.515 43.9282 103.792Z" fill="#F8AC39"/>
<path d="M56.5112 93.3999C57.0152 93.2453 57.4726 92.9491 57.8368 92.5413C58.201 92.1335 58.4592 91.6285 58.585 91.0778C59.3934 84.7778 49.7979 88.2039 53.8575 92.8099C54.209 93.2286 54.7187 94.1232 56.5112 93.3999Z" fill="#F8AC39"/>
<path d="M69.6389 82.5701C69.9955 82.4296 70.3172 82.2016 70.5789 81.904C70.8407 81.6064 71.0353 81.2473 71.1477 80.8548C71.26 80.4622 71.2869 80.0469 71.2264 79.6412C71.1659 79.2354 71.0196 78.8503 70.7988 78.5161C68.7075 75.014 64.4722 78.7444 66.2121 81.6946C66.3613 82.0336 66.5791 82.3318 66.8496 82.5668C67.1201 82.8018 67.4363 82.9675 67.7742 83.0517C68.1122 83.1358 68.4633 83.1363 68.8014 83.0529C69.1395 82.9695 69.4559 82.8045 69.7268 82.5701" fill="#F8AC39"/>
<path d="M81.8879 72.1399C84.1374 71.3405 84.1549 69.6847 83.6453 68.5236C83.3889 67.8397 82.8922 67.2939 82.2644 67.0066C81.6365 66.7193 80.9292 66.7139 80.2976 66.9915C79.6661 67.2691 79.1621 67.8071 78.8968 68.4871C78.6314 69.167 78.6265 69.9333 78.8828 70.6172C79.7264 72.5206 80.6401 72.5205 81.8879 72.1399Z" fill="#F8AC39"/>
<path d="M94.5238 61.4813C94.831 61.4173 95.1226 61.2852 95.3804 61.0932C95.6382 60.9012 95.8565 60.6534 96.0216 60.3656C96.1867 60.0778 96.2951 59.756 96.3398 59.4207C96.3844 59.0853 96.3644 58.7436 96.2812 58.417C94.9456 54.4581 89.4626 57.7508 92.415 60.9864C92.66 61.2902 92.9877 61.5018 93.351 61.5907C93.7142 61.6797 94.094 61.6414 94.4358 61.4813" fill="#F8AC39"/>
<path d="M107.142 50.6705C109.093 50.0234 109.022 48.6529 108.372 47.511C105.613 42.6956 102.45 52.2693 107.142 50.6705Z" fill="#F8AC39"/>
<path d="M119.637 39.7455C119.896 39.7308 120.147 39.6416 120.364 39.4869C120.58 39.3323 120.755 39.1178 120.869 38.8657C120.984 38.6135 121.035 38.3329 121.016 38.0526C120.997 37.7723 120.909 37.5026 120.762 37.2712C118.829 33.4646 116.069 40.4878 119.637 39.7455Z" fill="#F8AC39"/>
<path d="M130.867 27.374C130.846 27.7223 130.947 28.0662 131.15 28.3375C131.353 28.6087 131.643 28.7872 131.962 28.8376C132.281 28.8879 132.606 28.8064 132.872 28.6093C133.138 28.4121 133.325 28.1138 133.397 27.7736C133.418 27.4252 133.317 27.0813 133.114 26.8101C132.911 26.5389 132.621 26.3603 132.302 26.31C131.983 26.2596 131.659 26.3411 131.393 26.5382C131.127 26.7354 130.939 27.0337 130.867 27.374Z" fill="#F8AC39"/>
<path d="M144.979 16.3537C142.132 17.0579 146.736 19.1896 144.979 16.3537V16.3537Z" fill="#F8AC39"/>
<path d="M157.386 7.35101L158.106 6.76098L157.562 5.96162C156.841 6.32325 156.788 6.78001 157.386 7.35101Z" fill="#F8AC39"/>
<path d="M21.539 99.4143C25.1944 97.9488 19.6761 93.476 19.061 97.511C19.0334 97.8427 19.0867 98.1764 19.2155 98.4788C19.3442 98.7812 19.5439 99.0417 19.7947 99.2344C20.0455 99.427 20.3386 99.545 20.6446 99.5766C20.9507 99.6082 21.2591 99.5522 21.539 99.4143Z" fill="#F8AC39"/>
<path d="M34.3153 88.8701C37.9531 87.4046 32.4173 82.9508 31.8373 86.9668C31.8097 87.2985 31.863 87.6321 31.9918 87.9345C32.1205 88.2369 32.3202 88.4974 32.571 88.6901C32.8218 88.8827 33.1149 89.0007 33.4209 89.0323C33.727 89.0639 34.0354 89.008 34.3153 88.8701Z" fill="#F8AC39"/>
<path d="M46.8807 78.4969C50.5361 77.0314 45.0002 72.5586 44.4203 76.5936C44.3943 76.9228 44.4479 77.2537 44.5758 77.5536C44.7037 77.8536 44.9016 78.1123 45.1499 78.3043C45.3981 78.4964 45.6882 78.6151 45.9917 78.6489C46.2952 78.6826 46.6016 78.6303 46.8807 78.4969Z" fill="#F8AC39"/>
<path d="M59.1472 68.0478C60.1138 68.0478 60.9046 66.6965 60.9046 66.0303C59.1472 61.4433 55.3688 67.9336 59.1472 68.0478Z" fill="#F8AC39"/>
<path d="M72.4508 57.0656C72.7339 56.9723 72.9821 56.7835 73.1591 56.5267C73.3362 56.2699 73.4329 55.9586 73.435 55.6381C73.2066 52.3454 69.3404 54.6484 70.4299 56.5707C70.7814 57.1988 71.08 57.7508 72.4508 57.0656Z" fill="#F8AC39"/>
<path d="M85.7895 44.5038C85.5156 44.1817 85.1475 43.9718 84.7474 43.9094C84.3472 43.8469 83.9395 43.9359 83.5928 44.1612C83.4469 44.7252 83.37 45.3075 83.3643 45.8932C83.5624 46.1807 83.8487 46.3819 84.1718 46.4608C84.4949 46.5396 84.8335 46.4908 85.1262 46.3231C85.419 46.1554 85.6467 45.8798 85.7683 45.5462C85.8899 45.2126 85.8975 44.8429 85.7895 44.5038Z" fill="#F8AC39"/>
<path d="M98.2846 34.8349C98.021 34.4352 97.7574 34.0355 97.4762 33.6548C97.0545 33.6548 96.5623 34.0926 96.0878 34.4923C96.0459 34.8078 96.1213 35.1284 96.2976 35.3837C96.4739 35.6389 96.7368 35.8077 97.0281 35.8531C97.3194 35.8985 97.6154 35.8168 97.851 35.6259C98.0867 35.4349 98.2426 35.1504 98.2846 34.8349Z" fill="#F8AC39"/>
<path d="M109.831 24.9757L110.551 24.3666L110.006 23.5863C109.286 23.948 109.233 24.4047 109.831 24.9757Z" fill="#F8AC39"/>
<path d="M122.589 14.4314L123.327 13.8413L122.783 13.0419C122.062 13.4035 121.992 13.8794 122.589 14.4314Z" fill="#F8AC39"/>
<path d="M11.6449 82.8555C8.7979 83.5788 13.2968 85.6914 11.6449 82.8555V82.8555Z" fill="#F8AC39"/>
<path d="M24.4036 72.3303C21.5566 73.0345 26.0555 75.1472 24.4036 72.3303V72.3303Z" fill="#F8AC39"/>
<path d="M36.9867 61.9381C34.1397 62.6423 38.6562 64.774 36.9867 61.9381V61.9381Z" fill="#F8AC39"/>
<path d="M49.3936 52.9354L50.1142 52.3454L49.5695 51.5461C48.849 51.9077 48.7785 52.3644 49.3936 52.9354Z" fill="#F8AC39"/>
<path d="M62.2228 42.4482L62.9434 41.8581C62.7676 41.5917 62.5918 41.3253 62.3985 41.0778C61.678 41.4394 61.6077 41.8962 62.2228 42.4482Z" fill="#F8AC39"/>
<path d="M74.9111 31.8657L75.6317 31.2566L75.0868 30.4763C74.3662 30.838 74.3136 31.2947 74.9111 31.8657Z" fill="#F8AC39"/>
</g>
</g>
</svg>
