<svg width="300" height="74" viewBox="0 0 300 74" fill="none" xmlns="http://www.w3.org/2000/svg">
<rect y="0.00012207" width="299.149" height="74" rx="10" fill="url(#paint0_linear_123:2030)"/>
<path d="M20.9576 53.4204L12.5957 22.5947H18.0809L24.5056 46.2705L31.3912 22.5927L36.5043 22.5947L43.4139 46.3963L49.8676 22.6005L55.3525 22.5927L46.9871 53.415L40.6293 53.4084L33.9498 30.3882L27.2641 53.4144L20.9576 53.4204Z" fill="white"/>
<path d="M59.136 22.6107H64.3573V53.4005H59.136V22.6107Z" fill="white"/>
<path d="M75.5193 48.5707H88.2306V53.4005H70.406V22.6107H75.5193V48.5707Z" fill="white"/>
<path d="M104.291 22.6462C108.576 22.6462 112.141 24.1378 114.95 27.0854C117.795 30.0329 119.235 33.6908 119.235 38.0234C119.235 42.3205 117.795 45.9783 114.95 48.9613C112.141 51.909 108.576 53.4005 104.291 53.4005H92.0118V22.6107H104.291V22.6462ZM104.291 48.6062C107.244 48.6062 109.656 47.6119 111.457 45.6232C113.329 43.6345 114.266 41.0775 114.266 38.0588C114.266 34.9693 113.329 32.4834 111.457 30.4946C109.62 28.5058 107.208 27.5115 104.291 27.5115H97.1612V48.6062H104.291Z" fill="white"/>
<path d="M146.782 44.6047C146.782 47.1274 145.883 49.2238 144.046 50.8938C142.21 52.5638 140.049 53.4165 137.385 53.4165H124.025V22.6107H136.412C138.969 22.6107 141.129 23.4635 142.893 25.0624C144.695 26.6968 145.559 28.7221 145.559 31.1382C145.559 33.8386 144.478 35.8995 142.39 37.4274C145.126 38.8486 146.782 41.4068 146.782 44.6047ZM129.174 27.372V35.4731H136.447C138.717 35.4731 140.445 33.6965 140.445 31.4226C140.445 29.1485 138.717 27.372 136.447 27.372H129.174ZM137.42 48.6553C139.797 48.6553 141.67 46.7721 141.67 44.356C141.67 41.9398 139.797 40.0567 137.42 40.0567H129.174V48.6908H137.42V48.6553Z" fill="white"/>
<path d="M156.756 48.5842H170.584V53.4165H151.644V22.6107H170.369V27.443H156.756V35.4375H169.252V40.2343H156.756V48.5842Z" fill="white"/>
<path d="M192.982 53.4165L186.356 42.1885H180.306V53.4165H175.193V22.6107H187.688C190.497 22.6107 192.874 23.57 194.783 25.5243C196.727 27.4075 197.736 29.7526 197.736 32.524C197.736 36.4325 195.251 40.0211 191.542 41.4423L198.635 53.4165H192.982ZM180.306 27.3719V37.676H187.653C190.389 37.676 192.55 35.402 192.55 32.524C192.55 29.6815 190.354 27.3719 187.653 27.3719H180.306Z" fill="white"/>
<path d="M220.315 53.4163L213.725 42.1826H207.675V53.4163H202.562V22.5946H215.057C217.866 22.5946 220.243 23.5545 222.152 25.5097C224.096 27.3939 225.105 29.7401 225.105 32.513C225.105 36.4235 222.62 40.0141 218.911 41.436L226.004 53.4163H220.315ZM207.675 27.3583V37.6678H215.022C217.758 37.6678 219.919 35.3925 219.919 32.513C219.919 29.6691 217.723 27.3583 215.022 27.3583H207.675Z" fill="white"/>
<path d="M229.749 22.5983H234.863V53.4166H229.749V22.5983Z" fill="white"/>
<path d="M246.026 48.5842H259.854V53.4164H240.912V22.6107H259.637V27.443H246.026V35.4375H258.52V40.2343H246.026V48.5842Z" fill="white"/>
<path d="M263.418 46.4046L267.847 43.8477C269.107 47.328 271.664 49.0326 275.589 49.0326C279.478 49.0326 281.386 47.399 281.386 44.9842C281.386 43.7057 280.847 42.7823 279.839 42.1431C278.829 41.4684 276.957 40.7225 274.293 39.9413C271.304 39.0534 269.828 38.4852 267.739 37.1357C265.723 35.7153 264.714 33.6909 264.714 30.921C264.714 28.1865 265.686 26.0557 267.667 24.4577C269.612 22.824 271.989 22.0427 274.761 22.0427C279.767 22.0427 283.619 24.5997 285.636 28.8257L281.315 31.2761C280.018 28.4351 277.822 26.979 274.761 26.979C271.772 26.979 269.863 28.4706 269.863 30.8144C269.863 33.0873 271.376 34.1527 276.165 35.6087C277.354 35.9994 278.218 36.2835 278.758 36.4965C279.334 36.6741 280.09 36.9937 281.062 37.3844C282.071 37.775 282.864 38.2367 283.332 38.6273C284.988 39.9058 286.751 42.001 286.536 44.9487C286.536 47.7186 285.528 49.9559 283.475 51.5895C281.458 53.2232 278.794 54.0045 275.481 54.0045C269.432 53.969 265.038 51.1279 263.418 46.4046Z" fill="white"/>
<defs>
<linearGradient id="paint0_linear_123:2030" x1="149.574" y1="0.00012207" x2="149.574" y2="74.0001" gradientUnits="userSpaceOnUse">
<stop stop-color="#A82C9E"/>
<stop offset="1" stop-color="#9A2896"/>
</linearGradient>
</defs>
</svg>
