<svg width="275" height="51" viewBox="0 0 275 51" fill="none" xmlns="http://www.w3.org/2000/svg">
<path d="M0 51L5.20505 2.08491L267.586 0L275 51H0Z" fill="#FFD733"/>
<path d="M57.8827 23.07C58.5687 22.58 60.0107 22.132 60.9767 22.132C61.6907 22.132 62.2647 22.412 62.2647 22.972C62.2647 23.532 61.8867 24.162 60.5007 24.162C60.2347 24.162 59.9407 24.134 59.6047 24.092L59.3807 25.604C60.7667 25.646 61.6907 25.94 61.6907 26.71C61.6907 27.172 61.3547 27.34 60.8087 27.34C59.6607 27.34 58.4007 26.864 58.0367 26.57L57.2667 29.664C58.5127 30.224 59.5767 30.308 60.7387 30.308C63.9307 30.308 65.3727 28.894 65.3727 27.55C65.3727 26.486 64.5187 25.534 62.9507 25.24C64.4487 24.722 65.4987 23.77 65.4987 22.608C65.4987 20.424 63.2867 19.598 60.8927 19.598C59.7307 19.598 58.5687 19.78 57.5607 20.102L57.8827 23.07ZM75.8713 29.552L72.0913 19.374L69.1093 19.276L65.7633 30L68.9273 30.602L69.3893 28.488L72.1613 28.292L72.8053 30.434L75.8713 29.552ZM71.5733 26.318L69.7813 26.43L70.5793 23.028L71.5733 26.318ZM92.8553 20.718L90.3073 19.192L87.4513 23.238L84.3853 19.024L81.5853 21.068L85.7013 25.394L82.4673 28.852L84.9593 30.644L92.8553 20.718ZM101.813 30.35L102.261 19.5L99.2792 19.542C99.2092 23.028 98.7052 24.344 97.4172 24.344C96.4232 24.344 96.1292 23.532 96.1292 22.342C96.1292 21.684 96.2272 20.326 96.3392 19.5L93.1472 19.528C93.0772 20.172 93.0212 21.166 93.0212 21.712C93.0212 25.352 94.7852 27.186 96.8432 27.186C97.6412 27.186 98.4252 26.822 98.9852 26.052L98.7752 30.476L101.813 30.35ZM112.84 29.552L109.06 19.374L106.078 19.276L102.732 30L105.896 30.602L106.358 28.488L109.13 28.292L109.774 30.434L112.84 29.552ZM108.542 26.318L106.75 26.43L107.548 23.028L108.542 26.318ZM119.355 26.36C119.005 26.514 118.613 26.584 118.151 26.584C117.199 26.584 116.191 26.206 116.191 25.254C116.191 24.19 116.989 23.084 118.851 23.084C119.005 23.084 119.173 23.098 119.341 23.112L119.061 19.542C118.809 19.514 118.557 19.5 118.305 19.5C114.833 19.5 112.831 22.51 112.831 25.366C112.831 27.956 114.483 30.42 118.179 30.42C118.557 30.42 118.935 30.406 119.341 30.35L119.355 26.36ZM125.145 30.476L125.607 22.37L127.833 22.272L127.819 19.472L119.713 19.976L119.993 22.566L122.275 22.51L122.205 30.182L125.145 30.476ZM130.314 30.21L133.506 24.638L133.17 30.238L136.712 30.112L136.726 19.486L134.22 19.29L131.294 23.756L131.644 19.458L128.48 19.29L128.298 30.182L130.314 30.21ZM144.795 29.524L144.599 27.158L140.609 27.648L140.553 26.248L143.997 25.884L143.871 23.924L140.413 24.232L140.357 22.986L144.585 22.664L144.529 19.276L137.767 19.934L138.313 30.546L144.795 29.524ZM151.466 29.874C152.138 30.056 153.412 30.154 154.294 30.154C157.052 30.154 160.202 29.16 160.202 26.584C160.202 25.282 158.704 24.442 157.038 24.19C158.27 23.518 159.18 22.734 159.18 21.782C159.18 19.99 156.968 19.416 154.77 19.416C153.566 19.416 151.998 19.584 151.172 19.808L151.466 29.874ZM153.93 21.53C154.182 21.432 154.462 21.376 154.77 21.376C155.344 21.376 155.904 21.6 155.904 22.202C155.904 22.93 154.84 23.392 154.28 23.392C154.168 23.392 154.084 23.378 153.986 23.364L153.93 21.53ZM154.056 25.87C154.392 25.744 154.868 25.646 155.358 25.646C156.142 25.646 156.87 25.898 156.87 26.696C156.87 27.606 155.834 27.844 154.952 27.844C154.616 27.844 154.322 27.802 154.098 27.76L154.056 25.87ZM166.734 19.948L166.832 30.028L179.11 30L179.362 20.074L176.464 19.85L176.282 27.634L174.154 27.662L174.588 20.018L171.662 19.85L171.48 27.648L169.436 27.676L169.786 20.018L166.734 19.948ZM190.018 28.712L185.916 24.792L189.094 20.62L186.686 19.024L183.536 23.168L183.802 19.472L180.302 19.682L180.75 30.462L183.494 30.056L183.55 26.36L187.666 30.798L190.018 28.712ZM194.857 30.406C197.769 30.406 200.023 27.802 200.023 24.848C200.023 21.754 197.853 19.248 194.899 19.248C192.001 19.248 189.803 21.866 189.803 24.89C189.803 27.872 191.987 30.406 194.857 30.406ZM194.927 27.48C193.485 27.48 192.827 26.444 192.827 25.1C192.827 23.812 193.695 22.65 194.969 22.65C196.131 22.65 196.901 23.77 196.901 25.058C196.901 26.346 196.187 27.48 194.927 27.48ZM201.679 26.122C201.721 27.424 201.441 28.04 200.601 28.082L200.797 30.378C203.793 30.378 204.619 28.852 204.619 26.78L204.493 22.132L206.957 21.894L206.551 30.084L209.757 30.168L210.009 19.612L201.455 19.878L201.679 26.122ZM217.858 29.524L217.662 27.158L213.672 27.648L213.616 26.248L217.06 25.884L216.934 23.924L213.476 24.232L213.42 22.986L217.648 22.664L217.592 19.276L210.83 19.934L211.376 30.546L217.858 29.524Z" fill="white"/>
</svg>
