<svg width="308" height="93" viewBox="0 0 308 93" fill="none" xmlns="http://www.w3.org/2000/svg">
<path d="M7.64586 85.3007C7.64586 85.8911 7.44855 86.3831 7.05392 86.7767C6.6593 87.1703 6.16602 87.3671 5.57408 87.3671H2.07178C1.47984 87.3671 0.986563 87.1703 0.591938 86.7767C0.197313 86.3831 0 85.8911 0 85.3007V76.3466C0 75.7562 0.197313 75.2642 0.591938 74.8706C0.986563 74.477 1.47984 74.2802 2.07178 74.2802H3.157C3.62562 73.6652 4.04491 72.9026 4.41487 72.0417C4.78483 71.1561 5.0808 70.2213 5.3521 69.1635C5.59874 68.1304 5.82072 67.048 5.99337 65.941C6.16602 64.834 6.26467 63.7271 6.33867 62.6447L6.56064 59.4222C6.58531 58.8318 6.83195 58.3398 7.25124 57.9462C7.67052 57.5526 8.16381 57.3558 8.75574 57.3558H24.1461C24.7381 57.3558 25.2313 57.5526 25.626 57.9462C26.0206 58.3398 26.2179 58.8318 26.2179 59.4222V74.2802H28.2404C28.8323 74.2802 29.3256 74.477 29.7202 74.8706C30.1148 75.2642 30.3121 75.7562 30.3121 76.3466V85.3007C30.3121 85.8911 30.1148 86.3831 29.7202 86.7767C29.3256 87.1703 28.8323 87.3671 28.2404 87.3671H24.7381C24.1461 87.3671 23.6528 87.1703 23.2582 86.7767C22.8636 86.3831 22.6663 85.8911 22.6663 85.3007V81.906H7.64586V85.3007ZM18.0048 64.9816H14.3298L14.2312 65.9656C13.9845 68.032 13.6392 69.7539 13.1953 71.1069C12.7513 72.4599 12.2827 73.5176 11.7648 74.2802H18.0048V64.9816Z" fill="#0073E6"/>
<path d="M41.0172 72.337C41.4118 73.4932 42.1517 74.3541 43.1876 74.8953C44.2235 75.4365 45.432 75.7071 46.7886 75.7071C47.7011 75.7071 48.515 75.6579 49.2056 75.5349C49.8962 75.4365 50.5868 75.2397 51.2281 74.9937C51.6227 74.8461 52.042 74.7723 52.4366 74.7723C53.3245 74.7723 53.9411 75.1659 54.3604 75.9285L55.2483 77.6751C55.3963 77.9702 55.4703 78.29 55.4703 78.659C55.4703 79.4708 55.1497 80.0612 54.4838 80.4548C52.9053 81.3404 51.4747 81.8815 50.1429 82.1521C48.8357 82.3981 47.4298 82.5457 45.9253 82.5457C43.8782 82.5457 42.0284 82.2259 40.4006 81.611C38.7481 80.996 37.3669 80.1104 36.2077 78.9788C35.0484 77.8472 34.1605 76.4943 33.5193 74.8707C32.878 73.2718 32.5574 71.5006 32.5574 69.5819C32.5574 67.7861 32.878 66.1133 33.5193 64.5636C34.1605 62.9892 35.0484 61.6117 36.2077 60.4309C37.3669 59.2501 38.7481 58.3153 40.4006 57.6512C42.0531 56.987 43.8782 56.6426 45.9253 56.6426C47.5038 56.6426 49.0083 56.9132 50.4388 57.4544C51.8694 57.9955 53.1519 58.7827 54.2371 59.8159C55.3223 60.8245 56.2102 62.0544 56.8762 63.4812C57.5421 64.908 57.8627 66.4823 57.8627 68.2289C57.8627 69.2129 57.8134 70.0246 57.6901 70.6888C57.6161 71.0824 57.3941 71.4514 56.9995 71.8204C56.6049 72.1648 56.2349 72.337 55.8156 72.337H41.0172ZM49.6249 66.8759C49.6249 66.0395 49.2796 65.2524 48.6137 64.5636C47.9478 63.8502 46.9365 63.5058 45.6293 63.5058C44.2482 63.5058 43.1876 63.801 42.4477 64.3914C41.7078 64.9818 41.1405 65.8181 40.7459 66.9005H49.6249V66.8759Z" fill="#0073E6"/>
<path fill-rule="evenodd" clip-rule="evenodd" d="M69.2329 81.906C68.641 81.906 68.1477 81.7092 67.753 81.3156C67.3584 80.922 67.1611 80.4301 67.1611 79.8397V65.5228H62.1296C61.5377 65.5228 61.0444 65.326 60.6498 64.9324C60.2552 64.5389 60.0579 64.0469 60.0579 63.4565V59.4222C60.0579 58.8318 60.2552 58.3398 60.6498 57.9462C61.0444 57.5526 61.5377 57.3558 62.1296 57.3558H80.4304C81.0223 57.3558 81.5156 57.5526 81.9102 57.9462C82.3048 58.3398 82.5022 58.8318 82.5022 59.4222V63.4565C82.5022 64.0469 82.3048 64.5389 81.9102 64.9324C81.5156 65.326 81.0223 65.5228 80.4304 65.5228H75.3989V79.8397C75.3989 80.4301 75.2016 80.922 74.807 81.3156C74.4123 81.7092 73.9191 81.906 73.3271 81.906H69.2329Z" fill="#0073E6"/>
<path fill-rule="evenodd" clip-rule="evenodd" d="M102.455 65.3014C101.148 64.6372 99.8903 64.3174 98.6818 64.3174C98.0158 64.3174 97.3746 64.4158 96.758 64.6372C96.1414 64.8586 95.5741 65.203 95.0561 65.6458C94.5382 66.1132 94.1436 66.6543 93.8229 67.3185C93.5023 67.9827 93.3543 68.7453 93.3543 69.6063C93.3543 70.4427 93.527 71.1806 93.8476 71.8448C94.1682 72.509 94.5875 73.0502 95.1055 73.5176C95.6234 73.985 96.1907 74.3294 96.832 74.5507C97.4732 74.7967 98.1145 74.8951 98.7804 74.8951C100.063 74.8951 101.345 74.5016 102.628 73.6898C103.097 73.37 103.615 73.1978 104.157 73.1978C104.848 73.1978 105.415 73.493 105.859 74.0834L107.561 76.3219C107.857 76.7155 108.005 77.1583 108.005 77.6257C108.005 78.3637 107.709 78.9294 107.117 79.3722C105.464 80.676 103.911 81.537 102.455 81.9306C101 82.3242 99.5943 82.5209 98.2871 82.5209C96.2154 82.5209 94.3162 82.2012 92.6144 81.5862C90.9126 80.9712 89.4821 80.0856 88.2735 78.954C87.0897 77.8225 86.1771 76.4695 85.5358 74.8459C84.8945 73.247 84.5739 71.4758 84.5739 69.5571C84.5739 67.7613 84.8945 66.0886 85.5112 64.5388C86.1278 62.9644 87.0157 61.5869 88.1749 60.4061C89.3341 59.2253 90.7153 58.2906 92.3184 57.6264C93.9216 56.9622 95.6974 56.6178 97.6212 56.6178C99.2737 56.6178 100.754 56.7654 102.061 57.0606C103.368 57.3558 104.774 57.9708 106.229 58.9301C107.043 59.4467 107.438 60.0863 107.438 60.8489C107.438 61.2179 107.339 61.5623 107.117 61.8821L105.538 64.5142C105.094 65.2522 104.478 65.5966 103.664 65.5966C103.22 65.6212 102.825 65.5228 102.455 65.3014Z" fill="#0073E6"/>
<path fill-rule="evenodd" clip-rule="evenodd" d="M120.855 70.1722V79.8398C120.855 80.4302 120.658 80.9222 120.263 81.3158C119.868 81.7094 119.375 81.9061 118.783 81.9061H114.738C114.146 81.9061 113.653 81.7094 113.258 81.3158C112.864 80.9222 112.667 80.4302 112.667 79.8398V59.3977C112.667 58.8073 112.864 58.3153 113.258 57.9217C113.653 57.5282 114.146 57.3314 114.738 57.3314H118.783C119.375 57.3314 119.868 57.5282 120.263 57.9217C120.658 58.3153 120.855 58.8073 120.855 59.3977V68.0321L127.218 58.6843C127.514 58.2907 127.884 57.9463 128.353 57.7004C128.821 57.4544 129.29 57.3068 129.808 57.3068H133.656C134.272 57.3068 134.79 57.5282 135.185 57.9709C135.579 58.4137 135.777 58.9057 135.777 59.4469C135.777 59.8897 135.629 60.3079 135.333 60.7015L129.537 68.3519L132.225 72.0172C133.236 73.3702 134.223 74.1573 135.185 74.3787C136.023 74.5509 136.591 74.8461 136.862 75.1905C137.133 75.5595 137.281 76.1499 137.281 76.9863V80.3318C137.281 80.7746 137.109 81.1682 136.788 81.5372C136.467 81.9062 136.073 82.1275 135.629 82.2013C135.333 82.2259 135.062 82.2751 134.815 82.2751C134.568 82.2997 134.297 82.2997 134.001 82.2997C133.335 82.2997 132.669 82.2259 131.954 82.0783C131.239 81.9307 130.523 81.6602 129.808 81.2912C129.093 80.8976 128.378 80.381 127.662 79.6676C126.947 78.9788 126.232 78.0932 125.492 76.9863L120.855 70.1722Z" fill="#0073E6"/>
<path fill-rule="evenodd" clip-rule="evenodd" d="M160.96 81.9061C160.368 81.9061 159.875 81.7093 159.48 81.3157C159.086 80.9221 158.888 80.4301 158.888 79.8397V69.0652L151.045 80.5531C150.749 80.9467 150.404 81.2911 150.034 81.5371C149.639 81.7831 149.195 81.9307 148.702 81.9307H143.991C143.399 81.9307 142.906 81.7339 142.511 81.3403C142.117 80.9467 141.919 80.4547 141.919 79.8643V59.4222C141.919 58.8319 142.117 58.3399 142.511 57.9463C142.906 57.5527 143.399 57.3559 143.991 57.3559H148.036C148.628 57.3559 149.121 57.5527 149.516 57.9463C149.91 58.3399 150.108 58.8319 150.108 59.4222V70.1968L157.951 58.7089C158.247 58.3153 158.568 57.9709 158.938 57.7249C159.307 57.4789 159.751 57.3313 160.245 57.3313H165.005C165.597 57.3313 166.09 57.5281 166.485 57.9217C166.879 58.3153 167.077 58.8073 167.077 59.3976V79.8397C167.077 80.4301 166.879 80.9221 166.485 81.3157C166.09 81.7093 165.597 81.9061 165.005 81.9061H160.96Z" fill="#0073E6"/>
<path d="M192.208 81.9061C191.616 81.9061 191.123 81.7093 190.728 81.3157C190.333 80.9221 190.136 80.4301 190.136 79.8397V69.0652L182.293 80.5531C181.997 80.9467 181.652 81.2911 181.282 81.5371C180.887 81.7831 180.443 81.9307 179.95 81.9307H175.239C174.647 81.9307 174.154 81.7339 173.759 81.3403C173.364 80.9467 173.167 80.4547 173.167 79.8643V59.4222C173.167 58.8319 173.364 58.3399 173.759 57.9463C174.154 57.5527 174.647 57.3559 175.239 57.3559H179.284C179.876 57.3559 180.369 57.5527 180.764 57.9463C181.158 58.3399 181.356 58.8319 181.356 59.4222V70.1968L189.199 58.7089C189.495 58.3153 189.815 57.9709 190.185 57.7249C190.555 57.4789 190.999 57.3313 191.492 57.3313H196.253C196.845 57.3313 197.338 57.5281 197.733 57.9217C198.127 58.3153 198.324 58.8073 198.324 59.3976V79.8397C198.324 80.4301 198.127 80.9221 197.733 81.3157C197.338 81.7093 196.845 81.9061 196.253 81.9061H192.208ZM190.999 46.5568C192.084 46.5568 192.923 46.8766 193.49 47.4915C194.058 48.1065 194.329 48.9183 194.329 49.9023C194.329 51.329 193.614 52.5344 192.208 53.5184C190.802 54.5024 188.705 54.9944 185.943 54.9944C182.885 54.9944 180.665 54.5024 179.333 53.5184C178.001 52.5344 177.335 51.329 177.335 49.9023C177.335 48.9183 177.607 48.1065 178.149 47.4915C178.692 46.8766 179.53 46.5568 180.616 46.5568C181.553 46.5568 182.268 46.7536 182.687 47.1471C183.131 47.5407 183.427 48.0327 183.625 48.6231C183.797 49.1151 184.069 49.5333 184.389 49.8531C184.71 50.1729 185.228 50.3205 185.918 50.3205C186.535 50.3205 187.004 50.1729 187.3 49.8531C187.596 49.5333 187.818 49.1151 188.015 48.6231C188.188 48.0327 188.508 47.5161 188.952 47.1471C189.396 46.7536 190.087 46.5568 190.999 46.5568Z" fill="#0073E6"/>
<path fill-rule="evenodd" clip-rule="evenodd" d="M223.557 79.8397C223.557 80.4301 223.36 80.9221 222.965 81.3157C222.571 81.7093 222.077 81.9061 221.485 81.9061H217.44C216.849 81.9061 216.355 81.7093 215.961 81.3157C215.566 80.9221 215.369 80.4301 215.369 79.8397V59.3976C215.369 58.8073 215.566 58.3153 215.961 57.9217C216.355 57.5281 216.849 57.3313 217.44 57.3313H221.337C222.275 57.3313 223.138 57.7495 223.853 58.5859L230.142 65.6951L235.939 58.6351C236.259 58.2415 236.629 57.9217 237.024 57.6757C237.418 57.4297 237.887 57.3313 238.405 57.3313H242.08C242.672 57.3313 243.165 57.5281 243.56 57.9217C243.954 58.3153 244.152 58.8073 244.152 59.3976V79.8397C244.152 80.4301 243.954 80.9221 243.56 81.3157C243.165 81.7093 242.672 81.9061 242.08 81.9061H238.035C237.443 81.9061 236.95 81.7093 236.555 81.3157C236.161 80.9221 235.963 80.4301 235.963 79.8397V69.8278L231.277 75.0921C230.882 75.5348 230.389 75.7562 229.847 75.7562C229.304 75.7562 228.835 75.5594 228.416 75.1659L223.533 69.877V79.8397H223.557Z" fill="#0073E6"/>
<path fill-rule="evenodd" clip-rule="evenodd" d="M269.234 81.9061C268.642 81.9061 268.149 81.7093 267.754 81.3157C267.359 80.9221 267.162 80.4301 267.162 79.8397V69.0652L259.319 80.5531C259.023 80.9467 258.678 81.2911 258.308 81.5371C257.913 81.7831 257.469 81.9307 256.976 81.9307H252.265C251.673 81.9307 251.18 81.7339 250.785 81.3403C250.39 80.9467 250.193 80.4547 250.193 79.8643V59.4222C250.193 58.8319 250.39 58.3399 250.785 57.9463C251.18 57.5527 251.673 57.3559 252.265 57.3559H256.31C256.902 57.3559 257.395 57.5527 257.79 57.9463C258.184 58.3399 258.382 58.8319 258.382 59.4222V70.1968L266.225 58.7089C266.521 58.3153 266.841 57.9709 267.211 57.7249C267.581 57.4789 268.025 57.3313 268.518 57.3313H273.279C273.871 57.3313 274.364 57.5281 274.759 57.9217C275.153 58.3153 275.35 58.8073 275.35 59.3976V79.8397C275.35 80.4301 275.153 80.9221 274.759 81.3157C274.364 81.7093 273.871 81.9061 273.279 81.9061H269.234Z" fill="#0073E6"/>
<path d="M289.632 90.7619C289.632 91.3523 289.435 91.8442 289.04 92.2378C288.646 92.6314 288.152 92.8282 287.56 92.8282H283.515C282.923 92.8282 282.43 92.6314 282.036 92.2378C281.641 91.8442 281.444 91.3523 281.444 90.7619V59.3976C281.444 58.8073 281.641 58.3153 282.036 57.9217C282.43 57.5281 282.923 57.3313 283.515 57.3313H287.856C288.374 57.3313 288.793 57.5035 289.139 57.8479C289.484 58.1923 289.657 58.6105 289.657 59.1271C290.347 58.4629 291.285 57.8971 292.444 57.4051C293.603 56.9131 294.96 56.6671 296.489 56.6671C298.141 56.6671 299.646 56.9869 301.002 57.6019C302.383 58.2169 303.543 59.1025 304.48 60.234C305.417 61.3656 306.157 62.694 306.7 64.2191C307.218 65.7443 307.489 67.417 307.489 69.2374C307.489 71.107 307.168 72.8289 306.527 74.4525C305.886 76.076 304.998 77.4782 303.839 78.6836C302.679 79.8889 301.298 80.8237 299.67 81.5371C298.043 82.2259 296.217 82.5703 294.22 82.5703C293.381 82.5703 292.542 82.4965 291.729 82.3735C290.915 82.2505 290.199 82.0537 289.607 81.8077V90.7619H289.632ZM289.632 73.9851C290.249 74.3541 290.841 74.6001 291.359 74.7231C291.877 74.8461 292.592 74.9199 293.48 74.9199C295.28 74.9199 296.587 74.3787 297.451 73.2963C298.314 72.2139 298.733 70.9102 298.733 69.385C298.733 67.9582 298.314 66.7529 297.5 65.7689C296.686 64.7849 295.477 64.2929 293.899 64.2929C292.37 64.2929 290.939 65.0309 289.632 66.4823V73.9851Z" fill="#0073E6"/>
<path fill-rule="evenodd" clip-rule="evenodd" d="M228.218 22.0127C226.711 26.0811 225.179 29.0522 223.993 31.044C222.774 33.0887 220.394 34.162 218.057 33.711C215.821 33.2814 212.612 32.4895 208.487 31.0379C204.368 29.5857 201.381 28.1925 199.382 27.1326C197.289 26.0226 196.161 23.7139 196.565 21.381C196.957 19.1077 197.728 15.8705 199.234 11.802C200.744 7.73028 202.274 4.7612 203.46 2.76983C204.68 0.725136 207.059 -0.348585 209.397 0.101602C211.631 0.531568 214.838 1.32302 218.96 2.77201C223.084 4.22733 226.071 5.61925 228.073 6.68173C230.164 7.79088 231.292 10.1025 230.888 12.4325C230.496 14.7045 229.726 17.9434 228.218 22.0127Z" fill="#00C2FC"/>
<path fill-rule="evenodd" clip-rule="evenodd" d="M188.168 11.7416C189.692 15.7965 190.476 19.0279 190.88 21.2931C191.293 23.62 190.178 25.9312 188.094 27.0485C186.101 28.1196 183.125 29.5226 179.014 30.9943C174.907 32.4617 171.706 33.2652 169.479 33.7062C167.147 34.1673 164.766 33.1071 163.539 31.0704C162.343 29.0862 160.802 26.1279 159.277 22.073C157.752 18.0139 156.968 14.7854 156.565 12.5198C156.152 10.1929 157.265 7.88223 159.35 6.76319C161.342 5.6942 164.316 4.29168 168.423 2.82008C172.535 1.35213 175.736 0.547348 177.967 0.106325C180.296 -0.353907 182.68 0.70834 183.905 2.74296C185.101 4.72594 186.643 7.685 188.168 11.7416Z" fill="#06C92E"/>
<path fill-rule="evenodd" clip-rule="evenodd" d="M148.21 22.0127C146.703 26.0811 145.171 29.0522 143.986 31.044C142.767 33.0887 140.386 34.162 138.049 33.711C135.813 33.2814 132.604 32.4895 128.479 31.0379C124.36 29.5857 121.374 28.1925 119.374 27.1326C117.281 26.0226 116.154 23.7139 116.557 21.381C116.949 19.1077 117.72 15.8705 119.227 11.802C120.736 7.73028 122.266 4.7612 123.453 2.76983C124.672 0.725136 127.051 -0.348585 129.389 0.101602C131.623 0.531568 134.831 1.32302 138.952 2.77201C143.076 4.22733 146.063 5.61925 148.066 6.68173C150.156 7.79088 151.284 10.1025 150.88 12.4325C150.488 14.7045 149.719 17.9434 148.21 22.0127Z" fill="#FABC22"/>
<path fill-rule="evenodd" clip-rule="evenodd" d="M108.159 11.7416C109.684 15.7965 110.467 19.0279 110.872 21.2931C111.285 23.62 110.17 25.9312 108.086 27.0485C106.093 28.1196 103.117 29.5226 99.0057 30.9943C94.899 32.4617 91.6978 33.2652 89.4706 33.7062C87.1389 34.1673 84.7571 33.1071 83.5302 31.0704C82.3342 29.0862 80.7931 26.1279 79.2682 22.073C77.7432 18.0139 76.9595 14.7854 76.5565 12.5198C76.1433 10.1929 77.257 7.88223 79.3417 6.76319C81.3331 5.6942 84.3078 4.29168 88.4144 2.82008C92.5266 1.35213 95.7274 0.547348 97.9588 0.106325C100.288 -0.353907 102.672 0.70834 103.897 2.74296C105.092 4.72594 106.635 7.685 108.159 11.7416Z" fill="#F72A16"/>
</svg>
