<svg width="36" height="44" viewBox="0 0 36 44" fill="none" xmlns="http://www.w3.org/2000/svg">
<mask id="path-1-outside-1_417:19" maskUnits="userSpaceOnUse" x="0" y="0.5" width="36" height="44" fill="black">
<rect fill="white" y="0.5" width="36" height="44"/>
<path fill-rule="evenodd" clip-rule="evenodd" d="M27.9263 13.4207C27.9263 18.9277 23.5109 23.3433 18.0001 23.3433C12.4911 23.3433 8.07385 18.9277 8.07385 13.4207C8.07385 7.91379 12.4911 3.5 18.0001 3.5C23.5109 3.5 27.9263 7.91379 27.9263 13.4207ZM18 41C9.86695 41 3 39.6781 3 34.5781C3 29.4762 9.91009 28.2012 18 28.2012C26.1349 28.2012 33 29.523 33 34.6231C33 39.725 26.0899 41 18 41Z"/>
</mask>
<path d="M18.0001 26.3433C25.1671 26.3433 30.9263 20.5852 30.9263 13.4207H24.9263C24.9263 17.2701 21.8547 20.3433 18.0001 20.3433V26.3433ZM5.07385 13.4207C5.07385 20.5855 10.8353 26.3433 18.0001 26.3433V20.3433C14.147 20.3433 11.0739 17.2698 11.0739 13.4207H5.07385ZM18.0001 0.5C10.8361 0.5 5.07385 6.25517 5.07385 13.4207H11.0739C11.0739 9.57242 14.1462 6.5 18.0001 6.5V0.5ZM30.9263 13.4207C30.9263 6.25554 25.1663 0.5 18.0001 0.5V6.5C21.8554 6.5 24.9263 9.57205 24.9263 13.4207H30.9263ZM0 34.5781C0 36.6019 0.709337 38.3644 1.98835 39.76C3.20542 41.088 4.81059 41.9494 6.44865 42.5295C9.68479 43.6755 13.8605 44 18 44V38C14.0064 38 10.6822 37.6636 8.45157 36.8737C7.35626 36.4858 6.73637 36.0604 6.41173 35.7062C6.14903 35.4195 6 35.1043 6 34.5781H0ZM18 25.2012C13.8875 25.2012 9.71505 25.5133 6.47714 26.6442C4.83864 27.2164 3.22751 28.0693 2.00382 29.3922C0.716246 30.7841 0 32.5481 0 34.5781H6C6 34.0571 6.14752 33.7485 6.40839 33.4665C6.73316 33.1154 7.35517 32.6929 8.45543 32.3086C10.695 31.5265 14.0226 31.2012 18 31.2012V25.2012ZM36 34.6231C36 32.5995 35.2909 30.837 34.0121 29.4414C32.7952 28.1133 31.1901 27.2518 29.5521 26.6717C26.3162 25.5257 22.1403 25.2012 18 25.2012V31.2012C21.9946 31.2012 25.3188 31.5376 27.5491 32.3275C28.6442 32.7153 29.2639 33.1407 29.5883 33.4948C29.8509 33.7814 30 34.0967 30 34.6231H36ZM18 44C22.1125 44 26.285 43.6878 29.5229 42.557C31.1614 41.9848 32.7725 41.1319 33.9962 39.809C35.2838 38.417 36 36.6531 36 34.6231H30C30 35.1441 29.8525 35.4527 29.5916 35.7347C29.2668 36.0858 28.6448 36.5083 27.5446 36.8925C25.305 37.6747 21.9774 38 18 38V44Z" fill="#1C0C44" mask="url(#path-1-outside-1_417:19)"/>
</svg>
