<svg width="367" height="194" viewBox="0 0 367 194" fill="none" xmlns="http://www.w3.org/2000/svg">
<g opacity="0.5">
<mask id="mask0" style="mask-type:alpha" maskUnits="userSpaceOnUse" x="0" y="0" width="367" height="194">
<path d="M0.90591 193.857L29.0243 0.67038H292.634L366.445 193.857H0.90591Z" fill="#FFD733"/>
</mask>
<g mask="url(#mask0)">
<path d="M58.9702 40.659C61.9929 41.0206 64.0843 39.0983 66.1053 37.0237C65.9104 38.5472 66.0961 40.0993 66.6431 41.5186C67.1902 42.938 68.0787 44.1726 69.2159 45.0937C67.9201 44.9692 66.6149 45.1629 65.3978 45.6605C64.1807 46.1582 63.0829 46.9468 62.1863 47.9678C62.1481 46.582 61.8494 45.2191 61.3085 43.9625C60.7676 42.7059 59.9959 41.5818 59.0405 40.659H58.9702ZM44.3839 34.7016C47.4945 35.1203 49.6561 33.217 51.5892 30.895C51.4115 32.41 51.5779 33.9492 52.074 35.3787C52.5702 36.8083 53.3811 38.0851 54.4362 39.0983C53.1597 39.0509 51.8879 39.2883 50.6998 39.7959C49.5116 40.3034 48.4324 41.0701 47.5295 42.0484C47.5204 40.6597 47.2347 39.2896 46.6918 38.0315C46.1489 36.7734 45.3617 35.6571 44.3839 34.7588V34.7016ZM29.7097 28.7823C32.7675 29.0868 34.9818 27.2597 36.9326 24.9757C36.7088 26.4941 36.8516 28.0495 37.3475 29.4904C37.8433 30.9312 38.6751 32.2086 39.7619 33.198C38.483 33.1116 37.2021 33.3292 36.009 33.8356C34.8159 34.3419 33.7395 35.1247 32.8553 36.1291C32.8187 34.7457 32.5208 33.385 31.9798 32.1312C31.4387 30.8774 30.6662 29.7571 29.7097 28.8394V28.7823ZM14.6487 22.7107C18.058 23.3198 20.3603 21.2261 22.434 18.5425C21.5026 22.3491 23.1897 24.8615 25.0877 27.2216C23.814 27.1757 22.5452 27.4139 21.3601 27.9214C20.175 28.4289 19.0989 29.1948 18.1986 30.1717C18.1771 28.7201 17.8491 27.2931 17.2399 25.9999C16.6307 24.7067 15.7564 23.5816 14.6838 22.7107H14.6487ZM73.1173 46.5022C76.6321 47.0351 79.1978 45.0367 81.1485 41.6488C80.7023 43.4724 80.8024 45.4024 81.4341 47.1606C82.0657 48.9188 83.1964 50.4143 84.6633 51.4317C81.1485 50.7655 78.8289 52.6118 76.4916 54.6483C76.9837 51.1082 75.1911 48.7481 73.1701 46.5022H73.1173ZM-0.218849 16.8866C3.29594 17.5528 5.7386 15.7255 7.77718 12.8135C7.54507 14.4228 7.7163 16.0702 8.27274 17.5835C8.82917 19.0968 9.7505 20.4205 10.9406 21.4165C7.82999 21.112 5.6683 22.9963 3.38369 24.8996C3.78789 21.4165 2.13593 18.9612 -0.131111 16.8866H-0.218849ZM54.647 57.4844C56.9668 57.4844 58.6188 55.9617 60.3586 54.5913C60.3559 55.7967 60.5735 56.9907 60.9987 58.1046C61.424 59.2185 62.0486 60.2302 62.8366 61.0815C60.6629 61.1025 58.5586 61.9136 56.8614 63.3846C56.5608 61.1935 55.7233 59.1297 54.4362 57.4081L54.647 57.4844ZM39.7795 51.4508C41.9483 51.2849 43.9833 50.2542 45.4911 48.5578C45.5507 50.9073 46.3505 53.1639 47.758 54.9529C45.7399 55.229 43.8247 56.0757 42.2047 57.4081C42.1264 55.1603 41.259 53.0296 39.7795 51.4508ZM25.1227 45.4934C27.4249 45.4934 29.0944 43.9708 30.8342 42.5814C30.8264 44.9505 31.6348 47.2376 33.1013 48.9955C31.0262 49.0025 29.0347 49.8829 27.5479 51.4508C27.2386 49.2681 26.4019 47.2129 25.1227 45.4934ZM10.2552 39.4408C12.4907 39.3465 14.6088 38.3323 16.1776 36.6049C16.2269 38.9589 17.021 41.2232 18.4271 43.0191C16.409 43.2951 14.4936 44.142 12.8737 45.4744C12.6214 43.211 11.7033 41.0955 10.2552 39.4408ZM68.4953 63.1372C69.7146 63.1787 70.9227 62.8758 72.0011 62.2584C73.0796 61.6411 73.9912 60.7305 74.6462 59.6161C74.8575 62.4924 76.0105 65.1923 77.8974 67.2293C75.4445 67.2262 73.0823 68.2332 71.2896 70.0462C71.0928 67.4709 70.1096 65.04 68.4953 63.1372ZM-5.0341 33.2171C-2.04652 33.769 -0.166107 31.6182 1.99549 30.0385C1.89505 31.3694 2.06128 32.7082 2.48289 33.9631C2.90451 35.218 3.57158 36.3593 4.43829 37.3091C1.83735 37.1378 -0.0079422 38.8318 -1.95866 40.2022C-1.95866 37.3092 -3.48754 35.2917 -4.98132 33.2171H-5.0341ZM82.5897 68.8471C85.8585 69.4181 87.8619 66.9438 90.0762 64.8311C89.7174 66.4651 89.8676 68.1816 90.5034 69.7135C91.1391 71.2454 92.2246 72.5067 93.591 73.3009C92.1218 73.2619 90.6618 73.5645 89.3097 74.1883C87.9577 74.8121 86.7448 75.7426 85.7529 76.9171C85.7672 75.4138 85.4989 73.923 84.9641 72.5356C84.4293 71.1482 83.6395 69.8932 82.6425 68.8471H82.5897ZM-20.4113 26.9741C-18.909 27.3213 -17.3431 27.1259 -15.953 26.4178C-14.563 25.7097 -13.4251 24.528 -12.7139 23.0533C-12.5382 26.3651 -11.9584 29.4675 -9.55073 31.6563C-10.9355 31.6696 -12.3028 31.9925 -13.5669 32.605C-14.831 33.2174 -15.9645 34.1063 -16.8965 35.2155C-16.3342 31.5802 -18.4958 29.3343 -20.4113 26.9741ZM49.779 74.1193C51.4246 73.6576 52.9749 72.8632 54.3482 71.7782C54.5535 73.6865 55.2273 75.5004 56.2991 77.0313C54.5417 77.0313 53.2588 78.3256 51.6947 78.8205C51.3389 77.1354 50.6885 75.5397 49.779 74.1193ZM35.3157 68.238C36.9346 67.8468 38.4346 67.0149 39.674 65.8209C39.9659 67.6415 40.5614 69.3892 41.4314 70.9788C39.8643 71.2892 38.3704 71.9364 37.0379 72.8821C37.0379 70.9788 35.9132 69.7797 35.2805 68.2571L35.3157 68.238ZM20.4306 62.2045C22.0695 61.7389 23.6132 60.9448 24.9822 59.8635C24.7537 61.9381 25.9663 63.2894 26.5287 64.9453C25.0197 65.2496 23.5879 65.8984 22.3285 66.8486C21.9788 65.1647 21.3346 63.5688 20.4306 62.1474V62.2045ZM5.54546 56.0949C7.29717 55.8286 8.94924 55.0524 10.3255 53.849C10.6002 55.6745 11.1969 57.4258 12.0829 59.007C10.3255 59.007 9.11292 60.4916 7.46097 60.7961C7.46097 58.8928 6.17813 57.6556 5.54546 56.0949ZM63.7854 79.7912C65.947 79.7912 67.4937 78.1543 69.2159 77.0313C69.3178 79.3224 70.1428 81.506 71.5532 83.2171C69.528 83.4636 67.6056 84.3136 65.9998 85.6725C65.7102 83.5474 64.9505 81.5296 63.7854 79.7912ZM-9.91972 49.8139C-7.8095 49.6521 -5.81622 48.7038 -4.27854 47.1303C-4.10185 49.343 -3.35925 51.4586 -2.13435 53.2399C-4.05212 53.6193 -5.85918 54.487 -7.40654 55.7713C-7.40654 53.3922 -8.81247 51.6982 -9.83176 49.8139H-9.91972ZM77.7393 85.463C80.3578 85.463 82.203 83.712 84.101 82.018C83.5562 85.3298 85.4893 87.3663 86.8777 89.6313C84.1185 89.1935 82.1502 90.7353 80.2698 92.4292C80.4631 89.5552 78.9519 87.5567 77.7393 85.406V85.463ZM-25.4726 43.9137C-22.8078 43.603 -20.3395 42.2494 -18.531 40.1071C-18.5905 42.7795 -17.7255 45.3795 -16.1058 47.3967C-18.4701 47.6661 -20.6809 48.793 -22.3796 50.5944C-22.326 49.2768 -22.5816 47.9659 -23.1225 46.7844C-23.6634 45.6028 -24.4719 44.5889 -25.4726 43.8375V43.9137ZM91.4295 91.4204C92.8977 91.2857 94.3217 90.8097 95.6046 90.0246C96.8875 89.2396 97.999 88.1641 98.8632 86.8716C98.5864 88.5464 98.7721 90.2725 99.3974 91.8334C100.023 93.3943 101.06 94.7205 102.378 95.6458C100.89 95.4329 99.3773 95.6581 97.998 96.2979C96.6187 96.9376 95.4241 97.9682 94.5399 99.2811C94.695 97.7836 94.4827 96.2683 93.9242 94.8882C93.3657 93.508 92.4809 92.3118 91.3591 91.4204H91.4295ZM-41.7813 36.9856C-40.1031 37.4405 -38.3343 37.3016 -36.7342 36.5892C-35.1341 35.8769 -33.7865 34.6284 -32.8888 33.0267C-33.5215 36.8333 -31.8871 39.4599 -30.077 42.0104C-33.2579 41.5536 -35.3492 43.5521 -37.5108 45.817C-36.966 41.8581 -38.741 39.1173 -41.7813 37.0047V36.9856ZM30.5004 84.5495C31.6304 84.2291 32.6966 83.6873 33.6462 82.9507C33.6462 84.4163 34.6479 85.4631 34.8939 86.8525C33.7949 87.0638 32.7516 87.5313 31.8361 88.2228C31.5167 86.949 31.0687 85.7171 30.5004 84.5495ZM15.4746 78.9537C16.5993 78.1924 17.8119 77.6404 18.9894 77.0504C18.9894 78.4588 19.7451 79.4486 20.0965 80.6477C18.9362 81.0235 17.8168 81.534 16.7577 82.1703C16.693 80.9904 16.2373 79.8753 15.4746 79.0298V78.9537ZM44.8057 90.9636C45.9527 90.1431 47.2011 89.5023 48.5137 89.0603C48.5859 90.354 49.0849 91.5767 49.9198 92.5053C48.7727 93.3258 47.5241 93.9666 46.2115 94.4086C46.0815 93.1309 45.5906 91.9278 44.8057 90.9636ZM0.765182 72.5205C1.95882 72.4213 3.07779 71.8527 3.911 70.9218C4.6283 72.1928 5.18407 73.5628 5.56306 74.9948C4.15714 74.9948 3.34874 76.3081 2.04826 76.4223C2.24158 74.8235 0.747643 74.0621 0.800362 72.6156L0.765182 72.5205ZM59.0405 96.3119C60.7979 96.3119 61.8876 94.8465 63.3287 94.1232C63.5263 96.0336 64.2007 97.8496 65.2794 99.3762C63.6105 99.7173 62.0175 100.402 60.5871 101.394C60.6749 99.4904 59.3042 98.1391 59.0405 96.3119ZM-14.7701 66.5251C-13.0176 66.2748 -11.3632 65.504 -9.99008 64.2981C-9.88108 65.9993 -9.26427 67.616 -8.23268 68.9043C-9.6386 69.9891 -11.3082 70.4078 -12.6614 71.5498C-13.0596 69.7536 -13.7562 68.0511 -14.7174 66.5251H-14.7701ZM72.678 102.003C74.7589 101.668 76.6864 100.621 78.1786 99.0146C78.1759 100.22 78.3935 101.414 78.8188 102.528C79.244 103.642 79.8687 104.654 80.6566 105.505C78.494 105.628 76.4351 106.548 74.8219 108.113C74.6184 105.907 73.8786 103.798 72.678 102.003ZM-30.3758 60.1299C-28.1375 60.0661 -26.0113 59.0549 -24.4534 57.313C-24.4244 59.612 -23.7023 61.8377 -22.3972 63.6511C-24.3979 64.0267 -26.268 64.9802 -27.8101 66.4109C-27.9942 64.0658 -28.8973 61.8547 -30.3758 60.1299ZM86.5087 107.713C89.3908 107.865 91.4469 105.981 93.3098 103.659C92.7123 107.465 94.575 109.978 96.9651 112.224C93.5382 111.253 91.2536 113.156 89.092 115.307C89.1628 113.914 88.9703 112.521 88.5261 111.212C88.0818 109.902 87.3953 108.705 86.5087 107.694V107.713ZM-46.0693 53.7348C-42.9235 54.2867 -40.7972 52.5547 -38.7235 50.1756C-38.8559 51.5974 -38.7013 53.0335 -38.2704 54.3843C-37.8395 55.735 -37.1425 56.9681 -36.2279 57.9982C-37.5048 58.0707 -38.7547 58.4255 -39.9002 59.0409C-41.0457 59.6563 -42.0626 60.5192 -42.8885 61.5764C-42.5195 58.2266 -44.224 55.8665 -46.0693 53.7348ZM25.2282 101.013C26.3881 101.165 26.9855 99.9282 28.0048 99.776C28.0048 101.032 28.7078 101.832 29.0768 102.84C28.0991 103.09 27.1627 103.501 26.3002 104.058C26.1245 102.955 25.4215 102.155 25.2282 101.013ZM10.1498 94.8844C11.2921 94.8844 12.0126 94.0851 12.944 93.6474C13.1451 94.7192 13.5072 95.7479 14.016 96.6926C12.9967 96.921 12.2587 97.7014 11.2218 97.9298C11.38 96.6546 10.2729 96.0264 10.1498 94.8844ZM39.4807 106.799C40.5624 106.716 41.577 106.2 42.3277 105.353C43.0131 106.59 43.4875 107.922 44.0851 109.159C42.8022 109.159 41.9059 110.035 40.8163 110.454C40.4971 109.174 40.0492 107.935 39.4807 106.761V106.799ZM-4.99892 88.9271C-3.66329 88.8129 -2.69672 87.7851 -1.48412 87.4996C-1.31125 88.7048 -0.897507 89.8546 -0.271622 90.8685C-1.43666 91.2391 -2.56196 91.7431 -3.62831 92.3721C-3.89468 91.1389 -4.37138 89.9705 -5.0341 88.9271H-4.99892ZM53.3466 112.661C54.8921 112.246 56.3483 111.509 57.6345 110.492C58.013 112.286 58.7051 113.985 59.6732 115.497C57.8103 115.288 56.5801 116.639 55.0512 117.401C54.7797 115.734 54.1803 114.15 53.2938 112.757L53.3466 112.661ZM-20.5169 82.7603C-18.848 82.4193 -17.255 81.7344 -15.8245 80.7428C-15.5864 82.4632 -15.0307 84.1138 -14.1903 85.5963C-15.9477 85.5963 -17.002 86.8905 -18.4079 87.4996C-18.7153 85.7299 -19.4421 84.0772 -20.5169 82.7033V82.7603ZM67.0368 118.333C69.0429 117.958 70.9186 117.005 72.4671 115.573C72.6431 117.921 73.5473 120.135 75.0328 121.854C72.8531 121.901 70.7674 122.824 69.1808 124.443C69.2156 122.184 68.4482 119.997 67.0368 118.333ZM-35.9994 76.4604C-33.8421 76.3281 -31.788 75.4168 -30.165 73.8719C-29.9719 76.0715 -29.2376 78.1748 -28.0386 79.9625C-30.1039 80.1078 -32.04 81.1017 -33.4513 82.7413C-33.5759 80.3839 -34.4805 78.1542 -35.9994 76.4604ZM80.8851 124.043C82.159 123.968 83.4052 123.612 84.5475 122.997C85.6898 122.382 86.704 121.52 87.5279 120.465C87.4557 121.987 87.7268 123.505 88.3178 124.888C88.9087 126.27 89.8018 127.477 90.9198 128.402C89.5226 128.194 88.0997 128.383 86.7903 128.95C85.481 129.517 84.3301 130.443 83.4508 131.637C83.5585 130.243 83.3848 128.84 82.9417 127.525C82.4987 126.21 81.7969 125.016 80.8851 124.024V124.043ZM-51.9216 69.989C-50.5243 70.1571 -49.1103 69.9499 -47.8046 69.3855C-46.4989 68.8212 -45.3415 67.9173 -44.435 66.7535C-44.5145 68.1455 -44.3276 69.5401 -43.8861 70.8502C-43.4445 72.1603 -42.758 73.3575 -41.8693 74.3668C-43.1505 74.4024 -44.409 74.7412 -45.5566 75.3593C-46.7041 75.9774 -47.7128 76.86 -48.5121 77.945C-48.0903 74.519 -49.7775 72.235 -51.9216 70.0271V69.989ZM19.4463 117.915C20.448 117.686 21.2039 116.906 22.2232 116.677C22.065 117.953 23.1897 118.581 23.2951 119.723C22.1704 119.723 21.4322 120.522 20.5183 120.96C20.3094 119.891 19.9477 118.863 19.4463 117.915ZM4.36794 111.767C5.34564 111.517 6.28205 111.106 7.14455 110.549C7.33786 111.653 8.02322 112.452 8.21653 113.594C7.05665 113.442 6.45921 114.679 5.43992 114.831C5.43992 113.575 4.75456 112.776 4.36794 111.767ZM33.6988 123.701C34.8582 123.33 35.9776 122.826 37.0379 122.197C37.3007 123.432 37.7779 124.601 38.4439 125.642C37.1083 125.756 36.1417 126.784 34.9291 127.07C34.7621 125.866 34.3542 124.716 33.734 123.701H33.6988ZM-10.5172 105.258C-9.23427 105.258 -8.3556 104.382 -7.24844 103.963C-6.93813 105.238 -6.49597 106.47 -5.93039 107.637C-7.26601 107.446 -7.9338 108.931 -9.19912 108.931C-9.09368 107.427 -10.236 106.552 -10.5172 105.258ZM47.723 128.954C49.375 128.954 50.5171 127.66 51.923 127.051C52.235 128.819 52.9613 130.47 54.032 131.847C52.3677 132.185 50.78 132.87 49.3573 133.864C49.1101 132.147 48.555 130.498 47.723 129.011V128.954ZM-26.0877 98.9957C-24.2073 99.2241 -22.9771 97.8727 -21.4657 97.2066C-21.1977 98.8684 -20.5979 100.447 -19.7083 101.832C-21.249 102.256 -22.6993 102.999 -23.9789 104.02C-24.3711 102.222 -25.0684 100.518 -26.0351 98.9957H-26.0877ZM61.5361 134.645C63.6034 134.502 65.5437 133.516 66.9664 131.885C67.0778 134.24 67.9846 136.469 69.5146 138.147C67.3557 138.272 65.2995 139.184 63.6801 140.735C63.4727 138.536 62.7332 136.435 61.5361 134.645ZM-41.5177 92.7718C-39.3441 92.7204 -37.2654 91.7982 -35.6832 90.1833C-35.7181 92.4422 -34.9504 94.6293 -33.539 96.2929C-35.5441 96.6716 -37.4192 97.6245 -38.9695 99.0527C-39.1393 96.7074 -40.0374 94.4935 -41.5177 92.7718ZM75.3668 140.355C76.648 140.319 77.9066 139.98 79.0541 139.362C80.2016 138.744 81.2105 137.861 82.0098 136.776C81.5881 140.202 83.2751 142.486 85.4191 144.694C84.0244 144.526 82.613 144.733 81.3101 145.298C80.0071 145.862 78.853 146.766 77.9501 147.93C78.0262 146.537 77.836 145.141 77.3915 143.831C76.947 142.521 76.2578 141.325 75.3668 140.317V140.355ZM-57.3694 86.2244C-55.9722 86.4342 -54.5486 86.2461 -53.239 85.6787C-51.9293 85.1114 -50.7787 84.1843 -49.9005 82.9887C-50.0047 84.3846 -49.8276 85.7885 -49.3816 87.103C-48.9355 88.4175 -48.2312 89.6113 -47.3172 90.602C-48.5941 90.6745 -49.8437 91.0293 -50.9892 91.6447C-52.1347 92.2601 -53.1517 93.123 -53.9776 94.1802C-53.6437 90.7923 -55.2781 88.4703 -57.3694 86.2434V86.2244ZM28.1104 139.536C29.2872 139.371 30.387 138.812 31.2562 137.937C31.9632 139.214 32.5181 140.583 32.9081 142.011C31.4846 141.896 30.6586 143.248 29.3932 143.438C29.3932 141.973 28.3916 140.926 28.1456 139.536H28.1104ZM13.6119 133.826C14.7734 133.454 15.8933 132.943 16.951 132.304C17.0157 133.484 17.4711 134.599 18.2338 135.444C17.1091 136.205 15.8965 136.757 14.719 137.347C14.719 135.939 13.9633 134.949 13.5943 133.75L13.6119 133.826ZM-1.20309 127.469C-0.104118 127.258 0.939262 126.79 1.85476 126.099C2.1866 127.368 2.63402 128.599 3.1904 129.772C2.06045 130.093 0.9944 130.634 0.0448074 131.371C0.0448074 129.905 -0.957062 128.859 -1.20309 127.564V127.469ZM-16.2287 121.969C-15.0755 121.148 -13.8213 120.507 -12.503 120.065C-12.3944 121.346 -11.9077 122.554 -11.1148 123.51C-12.26 124.335 -13.5089 124.976 -14.8229 125.414C-14.8789 124.116 -15.3802 122.887 -16.2287 121.969ZM42.0115 145.684C43.4174 144.599 45.0867 144.18 46.4575 143.038C46.8397 144.831 47.5314 146.53 48.4962 148.044C46.7475 148.322 45.0982 149.097 43.7161 150.29C43.6071 148.589 42.9903 146.972 41.9587 145.684H42.0115ZM-31.6059 115.231C-29.9362 114.893 -28.3429 114.208 -26.9138 113.213C-26.9138 115.117 -25.6133 116.468 -25.3673 118.295C-27.1247 118.295 -28.2142 119.761 -29.6377 120.484C-29.8464 118.573 -30.5263 116.759 -31.6059 115.231ZM55.9475 150.937C57.9536 150.562 59.8293 149.609 61.3778 148.177C61.5557 150.52 62.4529 152.732 63.9261 154.458C61.6939 154.527 59.5749 155.538 58.0213 157.275C57.986 154.974 57.2577 152.749 55.9475 150.937ZM-47.0887 109.064C-44.9271 108.937 -42.8695 108.017 -41.254 106.457C-41.064 108.663 -40.3296 110.773 -39.1277 112.566C-41.202 112.906 -43.1225 113.953 -44.6107 115.554C-44.6424 113.128 -45.5289 110.806 -47.0887 109.064ZM69.7958 156.647C71.0701 156.574 72.3171 156.219 73.4597 155.604C74.6023 154.988 75.6163 154.125 76.4388 153.069C76.0873 156.419 77.7919 158.779 79.6372 160.91C76.4739 160.339 74.2597 162.091 72.2914 164.47C72.4238 163.048 72.269 161.612 71.8381 160.261C71.4072 158.91 70.7104 157.677 69.7958 156.647ZM-63.4148 102.441C-59.9 103.411 -57.7033 101.508 -55.5241 99.3573C-55.6025 100.749 -55.4153 102.144 -54.9738 103.453C-54.5324 104.763 -53.8462 105.961 -52.9584 106.971C-55.8053 106.875 -57.8791 108.703 -59.7595 111.006C-59.162 107.199 -61.0072 104.706 -63.4148 102.46V102.441ZM21.7134 155.524C23.4708 155.524 24.6659 154.039 26.3178 153.735C26.3178 155.638 27.6006 156.856 28.2333 158.436C26.4826 158.706 24.8314 159.482 23.4532 160.682C23.1715 158.859 22.5753 157.109 21.6958 155.524H21.7134ZM7.2325 149.643C8.74255 149.343 10.1752 148.693 11.4327 147.74C11.7885 149.425 12.4387 151.02 13.3482 152.441C11.707 152.916 10.159 153.709 8.77901 154.782C9.00748 152.707 7.79487 151.356 7.2325 149.7V149.643ZM-7.63502 143.628C-6.06084 143.324 -4.56014 142.676 -3.22393 141.725C-3.22393 143.628 -2.0992 144.828 -1.46653 146.35C-3.08546 146.741 -4.58569 147.573 -5.82506 148.767C-6.1107 146.939 -6.70655 145.184 -7.58246 143.59L-7.63502 143.628ZM-22.45 137.557C-20.8968 137.431 -19.4231 136.763 -18.2498 135.653C-17.3008 137.195 -16.9494 139.022 -15.9301 140.526C-17.5703 140.988 -19.1147 141.782 -20.4817 142.867C-20.7012 140.959 -21.38 139.148 -22.45 137.614V137.557ZM35.7726 161.234C37.6904 160.855 39.4974 159.987 41.0448 158.703C41.0448 161.082 42.4683 162.776 43.47 164.66C41.3598 164.822 39.3665 165.77 37.8288 167.344C37.6501 165.135 36.9144 163.021 35.7022 161.234H35.7726ZM-37.8272 131.314C-35.8011 131.071 -33.8778 130.221 -32.2738 128.859C-31.9749 130.981 -31.2161 132.996 -30.0594 134.74C-32.221 134.74 -33.7501 136.377 -35.4723 137.5C-35.5805 135.207 -36.4117 133.023 -37.8272 131.314ZM49.8318 166.944C52.1961 166.675 54.4069 165.548 56.1056 163.746C56.0569 165.063 56.3147 166.372 56.8552 167.553C57.3956 168.733 58.2015 169.748 59.1986 170.503C56.5392 170.815 54.0767 172.169 52.2746 174.31C52.3275 171.635 51.4563 169.036 49.8318 167.02V166.944ZM-53.1341 124.862C-50.3925 125.28 -48.4418 123.72 -46.5438 122.064C-46.7196 124.938 -45.2259 126.936 -44.0133 129.087C-46.6318 129.087 -48.477 130.838 -50.3574 132.532C-49.8127 129.22 -51.7457 127.184 -53.1341 124.919V124.862ZM-68.7222 118.847C-67.2361 119.064 -65.7236 118.843 -64.3441 118.206C-62.9646 117.57 -61.7692 116.542 -60.8842 115.231C-61.0218 116.726 -60.7995 118.234 -60.2389 119.608C-59.6784 120.982 -58.7989 122.176 -57.6859 123.073C-59.1569 123.206 -60.5838 123.681 -61.8698 124.466C-63.1557 125.251 -64.2703 126.328 -65.1372 127.622C-64.858 125.947 -65.0427 124.22 -65.6682 122.658C-66.2936 121.097 -67.3319 119.771 -68.652 118.847H-68.7222ZM63.8206 172.483C66.9839 172.939 69.093 170.941 71.237 168.676C70.6922 172.616 72.467 175.357 75.5073 177.469C73.8291 177.011 72.0594 177.149 70.4587 177.861C68.8579 178.574 67.5107 179.824 66.615 181.428C67.2477 177.622 65.6307 174.995 63.8206 172.445V172.483ZM15.3868 171.588C17.4058 171.316 19.322 170.468 20.9403 169.133C21.1913 171.4 22.1165 173.518 23.5764 175.166C21.3367 175.241 19.212 176.258 17.6537 178.002C17.5897 175.648 16.7907 173.387 15.3868 171.588ZM0.730217 165.612C2.80466 165.601 4.79456 164.721 6.28343 163.156C6.57693 165.344 7.41538 167.404 8.70866 169.114C6.55716 169.363 4.54558 170.389 2.99711 172.026C2.99166 169.659 2.1852 167.377 0.730217 165.612ZM-13.9266 159.654C-11.911 159.39 -9.99846 158.542 -8.39079 157.199C-8.30544 159.445 -7.43911 161.573 -5.96557 163.156C-8.12813 163.327 -10.1561 164.357 -11.6595 166.049C-11.7343 163.703 -12.5325 161.452 -13.9266 159.654ZM-28.8117 153.602C-26.7025 153.509 -24.6786 152.674 -23.0474 151.223C-22.7381 153.405 -21.9014 155.461 -20.6222 157.18C-22.942 157.18 -24.5939 158.722 -26.3337 160.092C-26.351 157.662 -27.2396 155.335 -28.8117 153.602ZM29.4284 177.298C32.0294 177.469 33.8747 175.775 35.843 174.405C35.7375 177.298 37.3543 179.316 38.8481 181.39C35.8781 180.838 33.9976 182.989 31.8185 184.569C31.9213 183.238 31.756 181.898 31.3343 180.643C30.9125 179.388 30.2443 178.246 29.3757 177.298H29.4284ZM-44.1362 147.378C-41.6871 147.379 -39.3276 146.38 -37.5284 144.58C-37.3295 147.153 -36.3394 149.579 -34.7166 151.47C-37.4757 151.223 -39.2506 153.373 -41.2892 154.82C-41.1746 153.423 -41.3736 152.016 -41.8693 150.72C-42.365 149.425 -43.1428 148.278 -44.1362 147.378ZM43.4173 183.008C44.8015 182.991 46.1678 182.667 47.4315 182.055C48.6951 181.442 49.8292 180.555 50.7633 179.449C50.2185 183.084 52.3625 185.33 54.2781 187.69C50.7633 186.738 48.4611 189.175 46.1765 191.497C46.9497 187.823 45.4207 185.311 43.4173 183.046V183.008ZM-59.7067 141.344C-58.2378 141.381 -56.7786 141.077 -55.4269 140.454C-54.0752 139.83 -52.8621 138.901 -51.8688 137.728C-51.881 139.231 -51.6116 140.721 -51.077 142.108C-50.5423 143.495 -49.7535 144.751 -48.7582 145.798C-52.0269 145.227 -54.0304 147.701 -56.2623 149.814C-55.9035 148.18 -56.0537 146.464 -56.6894 144.932C-57.3251 143.4 -58.4107 142.139 -59.7771 141.344H-59.7067ZM-35.5601 169.514C-34.2657 169.619 -32.9658 169.417 -31.7514 168.92C-30.537 168.424 -29.4375 167.645 -28.5305 166.639C-28.4902 168.025 -28.1906 169.387 -27.6499 170.643C-27.1091 171.9 -26.3387 173.024 -25.3849 173.948C-28.39 173.587 -30.4988 175.528 -32.5198 177.584C-32.3211 176.06 -32.5051 174.506 -33.0525 173.086C-33.5999 171.666 -34.4904 170.432 -35.6304 169.514H-35.5601ZM-6.05353 181.39C-4.7775 181.474 -3.49989 181.255 -2.31005 180.749C-1.12022 180.242 -0.0467453 179.461 0.835548 178.459C0.876175 179.842 1.17604 181.201 1.71682 182.454C2.25761 183.707 3.02808 184.828 3.98135 185.749C0.923485 185.444 -1.29081 187.271 -3.24152 189.555C-3.01392 188.038 -3.15351 186.484 -3.64633 185.043C-4.13914 183.602 -4.96853 182.323 -6.05353 181.333V181.39ZM-20.7278 175.376C-19.4537 175.425 -18.184 175.188 -16.9984 174.681C-15.8129 174.173 -14.7371 173.405 -13.8387 172.426C-13.8249 173.813 -13.5371 175.182 -12.9945 176.439C-12.4519 177.697 -11.6671 178.814 -10.6929 179.715C-13.7859 179.297 -15.9652 181.2 -17.8984 183.522C-17.717 182.008 -17.88 180.47 -18.3731 179.04C-18.8662 177.61 -19.6746 176.333 -20.7278 175.319V175.376ZM22.8558 193.058C24.2356 193.171 25.6189 192.893 26.8698 192.253C28.1207 191.612 29.1961 190.63 29.9907 189.403C30.4828 192.563 31.2561 195.589 33.9976 197.587C30.4828 196.921 28.04 198.748 26.019 201.661C26.2492 200.051 26.0774 198.405 25.5211 196.892C24.9648 195.379 24.0444 194.055 22.8558 193.058ZM8.60332 187.252C9.87724 187.301 11.1466 187.063 12.332 186.556C13.5174 186.048 14.5932 185.281 15.4922 184.302C15.5138 185.754 15.8417 187.181 16.4509 188.474C17.0601 189.767 17.9345 190.892 19.007 191.763C15.5976 191.154 13.278 193.248 11.2218 195.932C12.1357 192.125 10.4485 189.613 8.55054 187.252H8.60332ZM-50.9373 163.042C-47.4225 163.708 -45.1027 161.862 -42.7654 159.826C-43.2223 163.347 -41.4475 165.707 -39.4441 167.991C-42.9589 167.439 -45.507 169.437 -47.4577 172.825C-47.017 171.001 -47.1195 169.074 -47.7507 167.317C-48.3819 165.56 -49.5096 164.064 -50.9725 163.042H-50.9373ZM-27.4409 191.192C-25.8646 191.465 -24.249 191.232 -22.7936 190.522C-21.3383 189.811 -20.107 188.655 -19.2516 187.195C-19.2516 190.716 -18.5837 193.933 -15.3852 195.836C-19.0406 196.046 -22.4148 197.016 -23.9261 201.546C-27.5991 212.262 -13.1007 217.344 -9.55073 207.656C-8.00422 203.469 -9.33979 199.948 -12.5734 197.264C-11.0218 197.5 -9.44036 197.24 -8.02309 196.516C-6.60583 195.793 -5.41428 194.637 -4.59475 193.191C-4.43658 196.712 -3.89188 200.024 -0.517685 201.908C-8.93562 200.005 -13.6102 214.641 -4.99892 218.41C3.61233 222.178 9.85095 208.113 1.88995 203.183C5.40474 203.412 8.37474 202.517 10.2376 198.748C10.2376 202.688 10.8177 206.362 14.7718 208.265C12.7058 207.835 10.5661 208.275 8.78953 209.495C7.01292 210.716 5.73317 212.624 5.21145 214.831C3.27831 223.187 15.0003 229.201 19.1653 220.789C19.7188 219.798 20.0744 218.692 20.2096 217.543C20.3448 216.394 20.2565 215.227 19.9502 214.118C19.644 213.008 19.1268 211.98 18.4316 211.1C17.7365 210.22 16.8788 209.507 15.9139 209.007C19.7978 209.635 22.9436 208.55 24.9822 204.573C23.049 214.927 37.6004 218.733 40.2365 208.151C40.675 206.418 40.5773 204.577 39.9585 202.91C39.3396 201.243 38.2334 199.842 36.8094 198.92C38.4144 199.107 40.036 198.811 41.4962 198.066C42.9563 197.321 44.1987 196.154 45.0869 194.694C45.0869 198.501 45.8073 201.794 48.8651 203.564C57.8279 208.741 65.3319 194.047 56.9843 188.813C60.3234 188.566 63.4516 187.728 65.4199 184.131C63.5043 194.485 78.0381 198.311 80.6566 187.728C81.6935 183.541 79.9537 180.21 76.4916 177.907C80.4809 178.516 83.8024 177.507 85.7179 173.035C83.0291 181.752 95.5418 187.976 99.7771 179.525C104.909 169.133 90.6385 161.615 86.4383 171.74C87.0007 167.781 86.3154 164.489 83.3103 162.357C86.3506 161.919 89.3556 161.386 91.0427 157.637C89.2853 167.153 102.624 171.874 105.981 162.148C109.337 152.422 96.7719 146.141 92.2026 154.972C92.4817 153.264 92.2984 151.505 91.6747 149.908C91.051 148.31 90.0136 146.942 88.6878 145.969C91.8687 145.969 94.7859 145.151 96.5433 141.573C96.3543 143.08 96.5354 144.615 97.0683 146.023C97.6011 147.431 98.4669 148.662 99.5787 149.592C100.69 150.522 102.009 151.118 103.401 151.321C104.793 151.524 106.21 151.326 107.509 150.747C116.296 146.255 110.532 130.286 101.13 135.063C99.79 135.87 98.6643 137.037 97.8614 138.451C98.0547 134.816 97.2463 131.676 94.3466 129.658C97.5275 129.468 100.533 128.802 102.272 125.052C102.076 126.998 102.447 128.962 103.332 130.668C104.218 132.375 105.574 133.738 107.211 134.569C116.455 138.375 121.604 122.368 112.94 118.581C111.196 117.893 109.283 117.898 107.541 118.596C105.8 119.293 104.344 120.636 103.432 122.387C103.678 118.581 102.923 115.212 99.5134 113.213C103.028 113.213 106.332 112.471 108.107 108.074C105.576 118.257 120.409 123.491 122.992 112.033C124.996 103.392 112.905 97.4349 108.793 106.78C109.408 102.498 108.494 98.9957 104.909 96.8449C114.24 98.7482 117.878 82.6652 108.423 79.9054C104.909 78.9156 102.114 80.5334 100.023 83.8262C100.242 82.0887 100.013 80.3196 99.3613 78.7142C98.7101 77.1087 97.6618 75.7294 96.3325 74.7284C105.612 76.3843 109.144 60.3203 99.3727 57.5985C97.791 57.1663 96.1211 57.3236 94.6321 58.0453C93.1431 58.767 91.922 60.0109 91.1658 61.5764C90.9901 57.884 90.2872 54.4771 87.0536 52.3263C95.3309 54.3438 99.9177 40.4497 92.3258 36.1672C88.1783 33.8261 83.8375 35.6152 81.5529 40.1641C82.1328 35.7484 81.2892 32.075 77.2471 30.0385C79.3133 30.4835 81.4584 30.0415 83.2292 28.8055C85 27.5696 86.2578 25.6366 86.7371 23.415C88.723 14.812 76.7904 9.36849 72.7835 17.4766C72.2461 18.472 71.9033 19.5765 71.7765 20.7215C71.6497 21.8664 71.7415 23.0272 72.0464 24.1321C72.3513 25.2369 72.8627 26.2621 73.5487 27.1439C74.2348 28.0257 75.081 28.7454 76.0347 29.2581C72.5199 28.6871 69.462 29.4866 67.4937 32.8554C67.1422 29.5056 66.7203 26.1748 63.3461 24.3666C71.764 26.1557 76.6145 11.4431 67.6166 7.78868C59.1108 4.32465 52.995 18.1808 60.956 23.1294C59.379 22.8557 57.7627 23.0863 56.3049 23.7929C54.8471 24.4994 53.6114 25.6514 52.7491 27.1074C52.7491 23.6053 52.0988 20.3696 48.8827 18.4853C54.8227 19.5131 59.7084 12.0521 57.3359 6.22795C53.2763 -3.76446 38.5669 3.58234 43.2767 13.8412C43.9957 15.1613 44.9885 16.2821 46.1765 17.115C44.6223 16.8777 43.0379 17.1367 41.6176 17.8602C40.1973 18.5837 39.0027 19.7403 38.1802 21.1881C38.0396 17.667 37.4774 14.3361 34.1032 12.4709C42.5035 14.3742 47.4066 -0.43364 38.3911 -4.10704C30.0962 -7.49494 23.664 6.18999 31.7129 11.2147C28.1981 11.0054 25.2106 11.8999 23.3653 15.6875C23.3653 11.7286 22.7678 8.07423 18.8137 6.17091C20.4381 6.38248 22.0849 6.25321 23.6641 5.79023C32.908 1.83133 27.1789 -14.8226 17.6889 -9.74078C12.4167 -6.92387 11.6435 2.74497 17.6889 5.48575C13.8051 4.85765 10.6595 5.92343 8.6385 9.92039C10.5541 -0.433651 -3.99728 -4.24019 -6.6158 6.32321C-7.06317 8.05659 -6.97168 9.90121 -6.35558 11.5728C-5.73949 13.2443 -4.63309 14.65 -3.20655 15.5733C-4.80868 15.3899 -6.4265 15.6869 -7.88322 16.4321C-9.33994 17.1773 -10.5794 18.3419 -11.4662 19.7986C-9.84943 9.50166 -24.3128 5.80932 -26.8786 16.6773C-27.3012 18.3875 -27.1849 20.2014 -26.5483 21.832C-25.9117 23.4626 -24.7911 24.8167 -23.3638 25.6799C-26.7029 25.9273 -29.8134 26.7648 -31.7992 30.3621C-31.6235 26.4222 -32.5023 22.9962 -35.7008 21.1691C-44.8568 15.992 -52.15 31.8847 -42.8709 36.5859C-46.8602 35.9768 -50.1817 36.9856 -52.0797 41.4583C-49.5666 32.7792 -61.7629 26.2319 -66.1388 34.9681C-71.3056 45.4173 -56.8423 52.7831 -52.8003 42.7526C-53.3626 46.7115 -52.6772 50.0043 -49.672 52.136C-52.6948 52.5738 -55.7175 53.1067 -57.4046 56.8562C-55.6472 47.3396 -68.9332 42.4481 -72.3425 52.3454C-75.541 61.6716 -63.292 68.4283 -58.5646 59.5208C-58.837 61.2284 -58.6503 62.9849 -58.0272 64.581C-57.404 66.1771 -56.3707 67.5456 -55.0498 68.5236C-58.2307 68.5236 -61.1479 69.342 -62.9053 72.9202C-63.0283 68.9233 -63.8543 65.3069 -67.7205 63.632C-77.4917 59.3686 -82.4124 75.699 -73.643 79.5437C-69.8821 81.1806 -66.6134 79.658 -64.2233 76.0417C-64.3991 79.677 -63.6082 82.8175 -60.7085 84.835C-63.8894 85.0253 -66.9122 85.6915 -68.652 89.441C-66.8946 80.1147 -79.9871 75.1471 -83.5019 84.7018C-87.0167 94.2564 -74.3985 100.994 -69.8117 92.1246C-70.0402 95.9313 -69.2846 99.3001 -65.8928 101.299C-69.4076 101.299 -72.7115 102.041 -74.4865 106.438C-74.0046 104.213 -74.3428 101.873 -75.4291 99.9149C-76.5154 97.9565 -78.2641 96.5341 -80.3036 95.9503C-85.9624 94.4277 -91.4455 101.222 -89.0905 107.599C-86.8587 113.309 -77.6148 114.679 -75.2598 107.732C-75.8749 112.014 -74.9433 115.535 -71.3583 117.667C-74.8731 117.534 -78.0364 118.562 -79.7235 122.14C-84.3279 131.866 -71.2529 139.879 -66.4201 130.686C-66.6367 132.425 -66.405 134.195 -65.7505 135.801C-65.0961 137.407 -64.0446 138.785 -62.712 139.784C-66.1213 139.784 -69.144 140.678 -70.7784 144.085C-75.5937 154.059 -62.4834 162.167 -57.5627 152.879C-57.387 156.571 -56.6665 159.997 -53.4505 162.129C-56.9653 161.995 -60.111 163.004 -61.7981 166.582C-66.6134 176.784 -52.3433 184.626 -47.9674 174.196C-48.5649 178.611 -47.7213 182.285 -43.6792 184.321C-45.2978 184.111 -46.9386 184.24 -48.5121 184.702C-57.756 188.661 -52.0269 205.315 -42.5545 200.233C-37.4053 197.454 -36.4387 187.5 -42.5545 185.007C-39.0397 185.578 -35.9819 184.778 -34.0312 181.409C-33.6797 184.778 -33.2404 188.09 -29.8837 189.898C-36.1752 188.394 -41.4826 197.511 -37.8096 203.412C-30.78 214.451 -16.9493 197.987 -27.4761 191.135" fill="#F8AC39"/>
<path d="M84.2414 198.787C85.1639 199.312 86.1782 199.622 87.2184 199.695C88.2586 199.769 89.3015 199.605 90.2792 199.213C91.257 198.822 92.148 198.213 92.8941 197.424C93.6402 196.636 94.2248 195.686 94.6101 194.637C98.5291 183.96 84.0657 179.163 80.7266 188.452C80.3304 189.38 80.1071 190.384 80.0693 191.406C80.0315 192.428 80.1801 193.448 80.5065 194.408C80.8329 195.368 81.3309 196.248 81.9717 197C82.6126 197.751 83.3838 198.358 84.2414 198.787Z" fill="#F8AC39"/>
<path d="M98.4413 204.04C106.947 209.864 113.379 195.304 106.297 190.717C98.1425 185.501 90.9724 198.882 98.4413 204.04Z" fill="#F8AC39"/>
<path d="M113.256 209.54C114.274 210.307 115.469 210.754 116.707 210.83C117.946 210.907 119.179 210.61 120.272 209.973C121.364 209.337 122.272 208.385 122.895 207.223C123.518 206.061 123.831 204.735 123.801 203.393C124.187 195.284 110.62 192.239 110.093 203.564C110.056 204.773 110.327 205.97 110.876 207.024C111.424 208.078 112.229 208.948 113.204 209.54" fill="#F8AC39"/>
<path d="M104.575 188.223C106.422 189.174 108.523 189.376 110.497 188.794C118.722 185.368 114.592 169.171 105.067 173.777C103.827 174.42 102.774 175.418 102.02 176.663C101.267 177.908 100.842 179.352 100.791 180.839C100.741 182.326 101.066 183.8 101.733 185.102C102.4 186.403 103.383 187.483 104.575 188.223Z" fill="#F8AC39"/>
<path d="M118.985 193.552C120.017 194.246 121.2 194.632 122.414 194.672C123.628 194.713 124.83 194.406 125.9 193.782C126.969 193.159 127.868 192.241 128.505 191.121C129.142 190.001 129.496 188.72 129.53 187.405C130.057 179.791 120.62 177.298 117.228 182.361C116.611 183.199 116.165 184.168 115.918 185.206C115.671 186.244 115.629 187.326 115.795 188.382C115.961 189.439 116.331 190.445 116.88 191.336C117.43 192.227 118.147 192.982 118.985 193.552Z" fill="#F8AC39"/>
<path d="M133.607 198.977C134.477 199.601 135.476 199.985 136.515 200.092C137.554 200.2 138.602 200.029 139.566 199.595C140.53 199.16 141.38 198.476 142.042 197.601C142.703 196.727 143.156 195.689 143.36 194.58C145.399 186.072 134.433 183.37 131.463 189.479C130.997 190.248 130.683 191.111 130.539 192.016C130.395 192.922 130.425 193.85 130.626 194.742C130.827 195.635 131.195 196.473 131.708 197.205C132.221 197.936 132.867 198.546 133.607 198.996" fill="#F8AC39"/>
<path d="M148.843 204.649C156.47 209.217 161.145 195.798 153.834 192.829C147.191 190.126 142.517 200.88 148.843 204.649Z" fill="#F8AC39"/>
<path d="M109.689 171.988C117.474 176.937 124.468 164.946 118.581 159.121C110.849 151.508 100.638 166.24 109.689 171.988Z" fill="#F8AC39"/>
<path d="M124.293 177.412C125.272 178.15 126.411 178.599 127.599 178.715C128.786 178.831 129.981 178.61 131.066 178.074C132.151 177.539 133.089 176.706 133.787 175.659C134.485 174.612 134.92 173.386 135.048 172.102C136.577 163.556 123.062 158.893 121.147 170.199C120.93 171.618 121.114 173.076 121.675 174.38C122.237 175.685 123.149 176.775 124.293 177.507" fill="#F8AC39"/>
<path d="M138.914 182.837C139.943 183.616 141.158 184.058 142.412 184.109C143.667 184.161 144.909 183.82 145.99 183.127C147.07 182.435 147.944 181.42 148.506 180.204C149.068 178.988 149.295 177.622 149.16 176.27C148.977 174.389 148.132 172.656 146.8 171.433C145.467 170.21 143.751 169.591 142.007 169.704C141.123 169.797 140.265 170.078 139.482 170.531C138.698 170.985 138.006 171.602 137.444 172.347C136.882 173.092 136.462 173.95 136.207 174.871C135.953 175.793 135.869 176.76 135.962 177.717C136.05 178.761 136.363 179.768 136.875 180.657C137.388 181.546 138.086 182.293 138.914 182.837Z" fill="#F8AC39"/>
<path d="M153.94 188.432C161.954 193.895 167.454 178.726 158.527 176.423C152.042 174.748 148.597 184.778 153.94 188.432Z" fill="#F8AC39"/>
<path d="M169.581 194.257C175.907 197.606 180.67 186.244 174.062 183.274C167.735 180.42 163.219 190.888 169.581 194.257Z" fill="#F8AC39"/>
<path d="M184.079 199.377C184.812 199.925 185.673 200.239 186.563 200.283C187.453 200.327 188.336 200.098 189.112 199.623C189.887 199.149 190.524 198.447 190.948 197.599C191.373 196.751 191.569 195.791 191.513 194.828C191.724 188.965 181.882 186.529 181.584 194.961C181.624 195.865 181.873 196.743 182.309 197.515C182.746 198.286 183.354 198.927 184.079 199.377Z" fill="#F8AC39"/>
<path d="M115.066 155.6C116.172 156.397 117.456 156.854 118.782 156.925C120.108 156.995 121.427 156.677 122.599 156.002C123.772 155.327 124.754 154.321 125.442 153.091C126.13 151.861 126.498 150.453 126.507 149.015C127.14 139.822 112.448 136.51 111.569 148.672C111.581 150.051 111.909 151.406 112.522 152.615C113.135 153.824 114.016 154.849 115.084 155.6" fill="#F8AC39"/>
<path d="M129.899 161.101C139.951 167.972 145.715 147.778 133.8 146.997C128.106 146.655 123.66 156.837 129.899 161.101Z" fill="#F8AC39"/>
<path d="M144.503 166.525C154.098 173.168 159.265 153.773 148.018 153.335C147.124 153.365 146.244 153.585 145.429 153.985C144.614 154.384 143.88 154.953 143.269 155.661C142.658 156.369 142.182 157.2 141.869 158.108C141.556 159.015 141.412 159.981 141.445 160.949C141.414 162.105 141.676 163.249 142.203 164.255C142.73 165.262 143.501 166.093 144.432 166.659" fill="#F8AC39"/>
<path d="M159.529 172.121C168.316 178.097 172.99 160.244 162.797 159.845C158.193 159.673 153.835 168.257 159.529 172.121Z" fill="#F8AC39"/>
<path d="M174.976 177.869C175.789 178.426 176.727 178.73 177.689 178.751C178.65 178.771 179.599 178.506 180.431 177.985C181.264 177.464 181.949 176.705 182.412 175.793C182.876 174.88 183.1 173.847 183.06 172.806C183.552 165.44 172.515 163.975 171.9 172.445C171.883 173.572 172.163 174.682 172.708 175.643C173.252 176.604 174.039 177.376 174.976 177.869Z" fill="#F8AC39"/>
<path d="M189.457 182.989C189.98 183.468 190.598 183.811 191.263 183.99C191.928 184.169 192.623 184.18 193.292 184.022C193.962 183.863 194.588 183.54 195.124 183.077C195.66 182.614 196.09 182.024 196.381 181.352C199.808 174.424 189.351 168.828 187.366 177.431C187.095 178.478 187.153 179.592 187.532 180.598C187.911 181.605 188.588 182.446 189.457 182.989Z" fill="#F8AC39"/>
<path d="M204.149 188.185C210.177 192.544 213.867 180.952 207.066 179.696C204.113 179.144 199.755 185.007 204.149 188.185Z" fill="#F8AC39"/>
<path d="M219.262 193.552C222.145 195.646 224.921 193.552 224.921 190.088C224.953 189.582 224.893 189.074 224.744 188.593C224.595 188.112 224.36 187.668 224.053 187.285C223.745 186.902 223.371 186.589 222.952 186.363C222.532 186.137 222.076 186.003 221.608 185.968C221.141 185.933 220.672 185.998 220.228 186.159C219.784 186.32 219.373 186.575 219.02 186.908C218.667 187.241 218.377 187.647 218.169 188.101C217.96 188.555 217.836 189.049 217.804 189.555C217.582 190.302 217.607 191.108 217.873 191.837C218.139 192.565 218.63 193.172 219.262 193.552Z" fill="#F8AC39"/>
<path d="M234.235 198.52C234.611 198.897 235.075 199.156 235.578 199.266C236.08 199.377 236.6 199.336 237.082 199.148C242.355 196.503 234.692 189.632 233.304 195.779C233.181 196.331 232.759 197.283 234.235 198.52Z" fill="#F8AC39"/>
<path d="M120.883 139.384C128.669 144.333 135.663 132.361 129.776 126.518C122.061 118.904 111.833 133.636 120.883 139.384Z" fill="#F8AC39"/>
<path d="M135.487 144.809C136.466 145.546 137.606 145.995 138.793 146.111C139.981 146.227 141.176 146.006 142.261 145.47C143.346 144.935 144.284 144.102 144.982 143.055C145.68 142.008 146.114 140.782 146.242 139.498C147.771 130.952 134.275 126.289 132.341 137.595C132.122 139.015 132.305 140.473 132.867 141.778C133.428 143.083 134.342 144.173 135.487 144.904" fill="#F8AC39"/>
<path d="M150.109 150.233C151.138 151.012 152.352 151.454 153.607 151.506C154.862 151.557 156.104 151.216 157.184 150.524C158.265 149.831 159.139 148.816 159.701 147.6C160.263 146.384 160.49 145.018 160.354 143.666C160.172 141.784 159.327 140.049 157.996 138.823C156.664 137.597 154.947 136.973 153.202 137.081C152.317 137.176 151.458 137.46 150.675 137.915C149.892 138.371 149.199 138.99 148.638 139.736C148.076 140.482 147.656 141.342 147.402 142.264C147.147 143.187 147.064 144.155 147.156 145.113C147.24 146.158 147.551 147.167 148.065 148.057C148.578 148.947 149.278 149.693 150.109 150.233Z" fill="#F8AC39"/>
<path d="M165.135 155.829C173.148 161.291 178.649 146.141 169.721 143.819C163.237 142.144 159.792 152.193 165.135 155.829Z" fill="#F8AC39"/>
<path d="M180.564 161.577C181.379 162.14 182.321 162.449 183.287 162.471C184.253 162.494 185.206 162.228 186.042 161.704C186.878 161.179 187.565 160.416 188.028 159.497C188.491 158.579 188.711 157.54 188.666 156.495C189.141 149.148 178.122 147.682 177.489 156.152C177.471 157.28 177.751 158.389 178.296 159.35C178.841 160.311 179.628 161.084 180.564 161.577Z" fill="#F8AC39"/>
<path d="M194.852 166.62C195.375 167.096 195.992 167.436 196.655 167.612C197.318 167.789 198.01 167.799 198.677 167.641C199.344 167.483 199.969 167.161 200.503 166.7C201.037 166.24 201.467 165.652 201.759 164.984C205.273 158.037 194.729 152.441 192.761 161.044C192.485 162.093 192.542 163.211 192.921 164.222C193.3 165.232 193.979 166.076 194.852 166.62Z" fill="#F8AC39"/>
<path d="M209.966 171.969C215.642 175.909 218.507 166.011 213.92 163.899C209.808 161.995 205.432 168.847 209.966 171.969Z" fill="#F8AC39"/>
<path d="M225.062 177.336C225.463 177.688 225.937 177.928 226.444 178.037C226.95 178.145 227.473 178.119 227.968 177.959C228.463 177.8 228.914 177.513 229.284 177.122C229.653 176.732 229.929 176.25 230.088 175.718C230.444 174.779 230.442 173.726 230.081 172.789C229.72 171.852 229.031 171.108 228.164 170.722C227.297 170.336 226.324 170.339 225.458 170.729C224.593 171.12 223.907 171.867 223.55 172.806C223.368 173.21 223.262 173.649 223.24 174.098C223.217 174.547 223.278 174.996 223.419 175.418C223.56 175.841 223.778 176.229 224.061 176.558C224.343 176.887 224.683 177.152 225.062 177.336Z" fill="#F8AC39"/>
<path d="M239.842 182.304C240.217 182.676 240.678 182.931 241.176 183.041C241.674 183.152 242.191 183.114 242.671 182.932C247.943 180.267 240.281 173.415 238.892 179.563C238.769 180.115 238.365 181.048 239.842 182.304Z" fill="#F8AC39"/>
<path d="M255.025 187.424C258.048 189.974 258.54 182.532 255.219 184.112C254.938 184.258 254.698 184.483 254.524 184.764C254.349 185.044 254.247 185.369 254.228 185.707C254.208 186.044 254.271 186.38 254.412 186.682C254.552 186.984 254.764 187.24 255.025 187.424Z" fill="#F8AC39"/>
<path d="M126.894 123.244C128.736 124.19 130.828 124.399 132.798 123.834C141.041 120.389 136.911 104.192 127.368 108.798C126.13 109.443 125.078 110.442 124.326 111.688C123.574 112.934 123.151 114.378 123.102 115.866C123.053 117.353 123.38 118.826 124.049 120.127C124.717 121.427 125.701 122.505 126.894 123.244Z" fill="#F8AC39"/>
<path d="M141.216 128.592C142.251 129.28 143.434 129.662 144.647 129.698C145.861 129.735 147.062 129.425 148.13 128.8C149.198 128.176 150.096 127.258 150.733 126.139C151.37 125.02 151.725 123.74 151.761 122.426C152.27 114.812 142.833 112.338 139.459 117.382C138.839 118.22 138.39 119.191 138.142 120.231C137.893 121.27 137.851 122.355 138.017 123.414C138.183 124.473 138.553 125.481 139.105 126.374C139.656 127.266 140.376 128.022 141.216 128.592Z" fill="#F8AC39"/>
<path d="M155.908 134.017C156.781 134.637 157.78 135.015 158.819 135.119C159.858 135.224 160.905 135.05 161.868 134.614C162.83 134.178 163.68 133.494 164.341 132.619C165.003 131.745 165.456 130.709 165.662 129.601C167.7 121.093 156.734 118.409 153.764 124.5C153.307 125.271 152.998 126.134 152.858 127.038C152.719 127.941 152.75 128.867 152.951 129.757C153.151 130.647 153.517 131.484 154.025 132.216C154.534 132.948 155.174 133.561 155.908 134.017Z" fill="#F8AC39"/>
<path d="M171.092 139.689C178.737 144.238 183.394 130.838 176.101 127.869C169.458 125.166 164.783 135.92 171.092 139.689Z" fill="#F8AC39"/>
<path d="M185.626 144.809C192.972 149.986 197.928 135.615 189.334 134.017C184.888 133.179 180.687 141.306 185.626 144.809Z" fill="#F8AC39"/>
<path d="M201.073 150.556C206.486 153.507 211.09 143.628 205.08 141.04C199.65 138.604 195.432 147.606 201.073 150.556Z" fill="#F8AC39"/>
<path d="M215.765 155.753C221.442 159.312 224.06 149.453 219.28 147.511C215.027 145.798 211.231 152.936 215.765 155.753Z" fill="#F8AC39"/>
<path d="M230.334 160.625C232.583 162.528 234.323 161.634 235.167 160.263C238.242 155.296 230.51 150.537 229.139 157.275C228.998 157.899 229.037 158.554 229.251 159.153C229.464 159.752 229.842 160.266 230.334 160.625Z" fill="#F8AC39"/>
<path d="M245.852 166.164C246.144 166.414 246.487 166.586 246.852 166.665C247.217 166.744 247.594 166.728 247.953 166.619C248.312 166.509 248.641 166.309 248.914 166.034C249.187 165.76 249.397 165.42 249.525 165.041C249.809 164.354 249.834 163.574 249.593 162.868C249.353 162.162 248.866 161.586 248.238 161.265C247.609 160.943 246.89 160.902 246.233 161.148C245.577 161.395 245.036 161.911 244.727 162.585C244.562 162.895 244.46 163.24 244.427 163.596C244.395 163.952 244.434 164.312 244.54 164.651C244.647 164.99 244.819 165.3 245.045 165.561C245.271 165.822 245.546 166.027 245.852 166.164Z" fill="#F8AC39"/>
<path d="M260.28 170.732C260.569 171.112 260.975 171.368 261.423 171.452C261.871 171.535 262.333 171.442 262.723 171.188C265.236 167.077 258.312 167.211 260.28 170.732Z" fill="#F8AC39"/>
<path d="M117.667 101.451C118.589 101.977 119.602 102.288 120.641 102.363C121.681 102.437 122.723 102.275 123.7 101.885C124.678 101.496 125.569 100.888 126.316 100.102C127.063 99.3156 127.649 98.3681 128.036 97.3208C131.955 86.6432 117.491 81.8468 114.152 91.135C113.754 92.0617 113.529 93.0645 113.491 94.0858C113.452 95.1071 113.6 96.1266 113.927 97.0855C114.253 98.0445 114.752 98.9238 115.394 99.6731C116.036 100.422 116.809 101.027 117.667 101.451Z" fill="#F8AC39"/>
<path d="M131.867 106.704C140.373 112.547 146.805 97.9679 139.723 93.3809C131.568 88.1659 124.398 101.546 131.867 106.704Z" fill="#F8AC39"/>
<path d="M146.682 112.205C147.7 112.972 148.895 113.418 150.133 113.495C151.371 113.571 152.605 113.274 153.697 112.638C154.789 112.001 155.697 111.049 156.32 109.887C156.943 108.726 157.257 107.4 157.226 106.057C157.613 97.9488 144.046 94.9035 143.501 106.228C143.474 107.438 143.75 108.633 144.301 109.685C144.852 110.738 145.657 111.609 146.629 112.205" fill="#F8AC39"/>
<path d="M161.303 117.629C167.314 121.95 173.183 114.66 170.653 108.874C170.005 107.569 168.992 106.52 167.76 105.877C166.527 105.235 165.138 105.033 163.792 105.299C162.447 105.566 161.214 106.287 160.271 107.361C159.328 108.434 158.723 109.803 158.544 111.272C158.432 112.503 158.629 113.743 159.114 114.863C159.6 115.982 160.357 116.938 161.303 117.629Z" fill="#F8AC39"/>
<path d="M176.364 123.225C184.238 128.744 189.457 113.232 180.389 111.519C174.502 110.396 171.479 119.799 176.364 123.225Z" fill="#F8AC39"/>
<path d="M191.759 128.973C192.408 129.408 193.14 129.676 193.9 129.757C194.66 129.838 195.426 129.729 196.141 129.438C196.855 129.148 197.499 128.684 198.022 128.082C198.545 127.48 198.934 126.756 199.158 125.966C201.636 118.714 191.654 114.907 189.246 121.931C188.976 122.57 188.826 123.262 188.807 123.966C188.787 124.669 188.897 125.369 189.132 126.026C189.366 126.682 189.719 127.281 190.17 127.787C190.622 128.293 191.162 128.696 191.759 128.973Z" fill="#F8AC39"/>
<path d="M206.047 133.998C212.866 138.889 216.591 124.747 208.577 124.481C205.291 124.481 201.548 130.648 206.047 133.998Z" fill="#F8AC39"/>
<path d="M221.16 139.365C221.644 139.825 222.233 140.137 222.865 140.269C223.497 140.401 224.151 140.348 224.758 140.115C225.365 139.883 225.904 139.479 226.318 138.945C226.733 138.412 227.009 137.768 227.118 137.081C228.665 131.942 221.354 128.44 219.526 134.531C219.164 135.408 219.132 136.404 219.437 137.307C219.742 138.21 220.36 138.948 221.16 139.365Z" fill="#F8AC39"/>
<path d="M236.256 144.732C240.527 147.683 242.899 140.088 239.367 138.413C235.835 136.738 232.759 142.315 236.256 144.732Z" fill="#F8AC39"/>
<path d="M251.036 149.7C252.793 151.318 254.076 150.442 254.674 149.357C254.87 149.069 255.012 148.741 255.091 148.393C255.17 148.045 255.185 147.683 255.136 147.329C255.086 146.975 254.972 146.634 254.801 146.328C254.63 146.021 254.404 145.754 254.138 145.541C253.871 145.329 253.569 145.175 253.247 145.089C252.926 145.004 252.592 144.987 252.265 145.041C251.938 145.095 251.624 145.218 251.34 145.404C251.057 145.589 250.81 145.833 250.614 146.122C249.595 147.93 250.017 148.786 251.036 149.7Z" fill="#F8AC39"/>
<path d="M107.984 78.9156C109.401 79.8383 111.053 80.2439 112.699 80.0725C114.344 79.9012 115.895 79.162 117.123 77.964C118.351 76.7659 119.192 75.1723 119.521 73.4179C119.85 71.6635 119.65 69.841 118.95 68.219C114.961 58.9308 101.605 65.2308 104.891 75.0329C105.491 76.6649 106.605 78.0137 108.037 78.8395" fill="#F8AC39"/>
<path d="M123.133 84.835C124.035 85.4615 125.058 85.8529 126.124 85.9782C127.189 86.1035 128.266 85.9594 129.271 85.5572C130.276 85.155 131.182 84.5057 131.916 83.6604C132.65 82.8151 133.192 81.7969 133.501 80.6858C136.893 70.8076 123.432 65.4592 119.952 74.9758C119.557 75.8541 119.326 76.8081 119.272 77.7833C119.218 78.7585 119.342 79.7356 119.638 80.6586C119.933 81.5816 120.394 82.4324 120.994 83.1621C121.594 83.8919 122.32 84.4862 123.133 84.9111" fill="#F8AC39"/>
<path d="M137.543 90.1643C138.521 90.9013 139.659 91.3504 140.845 91.4675C142.032 91.5845 143.226 91.3654 144.311 90.8318C145.395 90.2982 146.333 89.4684 147.032 88.4237C147.731 87.3791 148.168 86.1554 148.299 84.873C149.81 76.3081 136.313 71.645 134.398 82.9697C134.172 84.3873 134.352 85.8459 134.914 87.1491C135.477 88.4524 136.394 89.5378 137.543 90.2594" fill="#F8AC39"/>
<path d="M153.307 96.331C154.122 96.7819 155.017 97.0367 155.931 97.0779C156.845 97.119 157.756 96.9457 158.603 96.5696C159.449 96.1936 160.21 95.6237 160.834 94.8992C161.458 94.1747 161.93 93.3126 162.217 92.3721C166.119 80.9522 147.947 79.0489 149.459 91.0969C149.62 92.2581 150.061 93.3529 150.736 94.2716C151.412 95.1902 152.299 95.9004 153.307 96.331Z" fill="#F8AC39"/>
<path d="M167.929 101.737C168.686 102.157 169.519 102.396 170.37 102.437C171.22 102.477 172.069 102.319 172.858 101.972C173.647 101.625 174.358 101.098 174.942 100.427C175.525 99.7555 175.969 98.9557 176.241 98.0821C179.036 89.9739 167.63 85.4441 164.766 93.1525C164.429 93.9376 164.245 94.7886 164.223 95.6536C164.201 96.5185 164.343 97.3792 164.639 98.1828C164.935 98.9864 165.38 99.7161 165.945 100.327C166.511 100.938 167.186 101.418 167.929 101.737Z" fill="#F8AC39"/>
<path d="M181.795 106.609C189.773 112.681 194.747 96.2549 185.309 95.4935C183.13 95.3413 179.862 96.4643 179.475 101.508C179.409 102.497 179.581 103.487 179.976 104.381C180.37 105.275 180.973 106.043 181.724 106.609" fill="#F8AC39"/>
<path d="M197.242 112.357C197.837 112.846 198.532 113.172 199.268 113.306C200.005 113.441 200.76 113.38 201.47 113.13C202.18 112.879 202.823 112.446 203.345 111.867C203.867 111.288 204.251 110.581 204.465 109.807C207.101 102.897 197.682 98.7673 195.133 105.505C194.83 106.099 194.644 106.755 194.587 107.431C194.53 108.106 194.603 108.788 194.801 109.432C194.999 110.075 195.318 110.668 195.739 111.171C196.159 111.675 196.671 112.078 197.242 112.357Z" fill="#F8AC39"/>
<path d="M211.512 117.401C212.195 118.043 213.028 118.471 213.92 118.638C218.155 119.209 221.81 109.407 214.588 108.455C211.354 108.017 207.558 114.165 211.512 117.401Z" fill="#F8AC39"/>
<path d="M226.626 122.768C232.056 126.993 235.518 116.164 229.227 115.155C226.749 114.774 222.953 119.894 226.626 122.768Z" fill="#F8AC39"/>
<path d="M241.933 128.212C242.275 128.548 242.69 128.785 243.139 128.901C243.589 129.016 244.058 129.008 244.503 128.875C244.948 128.742 245.355 128.489 245.686 128.14C246.017 127.791 246.262 127.358 246.397 126.879C248.049 122.692 242.249 119.723 240.685 124.291C240.524 124.636 240.429 125.012 240.405 125.398C240.381 125.784 240.428 126.171 240.545 126.537C240.661 126.902 240.844 127.239 241.082 127.526C241.321 127.814 241.61 128.047 241.933 128.212Z" fill="#F8AC39"/>
<path d="M256.712 133.16C256.912 133.42 257.162 133.629 257.444 133.772C257.727 133.916 258.035 133.99 258.347 133.99C258.659 133.99 258.967 133.916 259.249 133.772C259.532 133.629 259.782 133.42 259.981 133.16C262.266 129.81 256.923 126.575 256.027 131.028C255.925 131.411 255.936 131.819 256.059 132.195C256.182 132.57 256.41 132.895 256.712 133.122" fill="#F8AC39"/>
<path d="M99.0389 56.7421C100.458 57.6623 102.113 58.0653 103.759 57.8919C105.405 57.7186 106.957 56.978 108.186 55.7789C109.415 54.5799 110.257 52.9856 110.587 51.2302C110.918 49.4748 110.72 47.651 110.023 46.0264C106.033 36.7572 92.6772 43.0382 95.9635 52.8403C96.5575 54.4701 97.6659 55.8189 99.0917 56.6469" fill="#F8AC39"/>
<path d="M113.854 62.4711C121.639 67.4197 128.651 55.4479 122.746 49.6047C115.031 41.9914 104.821 56.7231 113.854 62.4711Z" fill="#F8AC39"/>
<path d="M129.02 68.3903C137.473 73.2628 143.817 58.1886 135.013 54.3439C126.964 50.8227 121.305 63.8605 129.02 68.3903Z" fill="#F8AC39"/>
<path d="M143.22 73.6436C144.488 74.4939 145.931 74.9909 147.42 75.0901C151.726 74.8427 156.488 67.1342 151.831 62.2427C150.827 61.1767 149.545 60.4689 148.159 60.2146C146.772 59.9604 145.348 60.1718 144.075 60.8203C142.803 61.4689 141.744 62.5236 141.042 63.8428C140.339 65.162 140.026 66.6826 140.144 68.2001C140.236 69.3025 140.561 70.3672 141.094 71.3113C141.628 72.2555 142.355 73.0536 143.22 73.6436Z" fill="#F8AC39"/>
<path d="M158.035 79.1442C165.433 84.3783 171.532 71.8354 165.258 67.7243C161.128 65.0025 156.26 66.9819 155.276 72.8251C155.047 74.2526 155.276 74.1955 155.276 74.3668C155.402 75.3418 155.72 76.276 156.208 77.1067C156.696 77.9373 157.343 78.645 158.105 79.1821" fill="#F8AC39"/>
<path d="M173.605 85.2156C180.635 88.9081 185.661 76.2701 178.192 73.2248C170.987 70.2937 167.173 81.8468 173.605 85.2156Z" fill="#F8AC39"/>
<path d="M187.682 90.1643C195.028 95.3413 199.984 80.9713 191.373 79.3725C186.926 78.5541 182.744 86.6812 187.682 90.1643Z" fill="#F8AC39"/>
<path d="M202.901 95.8362C203.637 96.3804 204.499 96.691 205.389 96.7329C206.279 96.7748 207.163 96.5464 207.94 96.0733C208.716 95.6002 209.355 94.9013 209.785 94.0556C210.214 93.21 210.417 92.251 210.37 91.2872C210.581 85.425 200.722 82.9697 200.423 91.4205C200.461 92.3224 200.708 93.1996 201.141 93.9712C201.574 94.7428 202.179 95.3841 202.901 95.8362Z" fill="#F8AC39"/>
<path d="M217.399 100.956C223.41 105.315 227.1 93.7044 220.317 92.4482C217.364 91.9153 212.988 97.7584 217.399 100.956Z" fill="#F8AC39"/>
<path d="M232.302 106.228C237.152 110.168 240.702 100.518 235.149 99.2811C232.671 98.691 228.787 103.373 232.302 106.228Z" fill="#F8AC39"/>
<path d="M247.82 111.748C248.14 112.013 248.513 112.193 248.909 112.273C249.305 112.354 249.713 112.332 250.1 112.209C250.486 112.087 250.841 111.868 251.135 111.569C251.429 111.271 251.654 110.902 251.792 110.492C251.996 110.108 252.123 109.682 252.164 109.241C252.205 108.8 252.158 108.354 252.028 107.934C251.897 107.514 251.686 107.129 251.407 106.805C251.129 106.48 250.79 106.224 250.412 106.052C250.035 105.88 249.628 105.798 249.219 105.81C248.81 105.821 248.408 105.927 248.04 106.121C247.672 106.314 247.346 106.589 247.084 106.93C246.821 107.27 246.629 107.667 246.52 108.093C246.259 108.771 246.252 109.532 246.502 110.215C246.751 110.897 247.237 111.447 247.855 111.748" fill="#F8AC39"/>
<path d="M262.582 116.678C264.111 118.105 265.095 117.287 265.622 116.087C267.819 110.987 258.909 113.252 262.582 116.678Z" fill="#F8AC39"/>
<path d="M90.5857 34.9491C91.5082 35.4748 92.5225 35.7845 93.5626 35.858C94.6028 35.9316 95.6457 35.7673 96.6235 35.376C97.6013 34.9847 98.4922 34.3752 99.2383 33.5868C99.9845 32.7984 100.569 31.8489 100.954 30.7999C104.891 20.1413 90.4978 15.326 87.0885 24.6332C86.6902 25.5598 86.4654 26.5627 86.4266 27.584C86.3879 28.6053 86.536 29.6248 86.8628 30.5837C87.1895 31.5426 87.6884 32.422 88.3303 33.1713C88.9723 33.9205 89.7447 34.5247 90.6032 34.9491" fill="#F8AC39"/>
<path d="M105.119 40.5448C106.028 41.1515 107.053 41.5261 108.115 41.6401C109.177 41.7542 110.25 41.6046 111.251 41.2029C112.252 40.8011 113.155 40.1576 113.892 39.3214C114.63 38.4852 115.181 37.4781 115.506 36.3765C118.88 26.4983 105.436 21.15 101.938 30.6666C101.145 32.4412 101.035 34.4841 101.631 36.3469C102.228 38.2096 103.482 39.74 105.119 40.6019" fill="#F8AC39"/>
<path d="M119.864 46.3499C128.317 51.2224 134.679 36.1481 125.874 32.3034C117.808 28.7823 112.149 41.82 119.864 46.3499Z" fill="#F8AC39"/>
<path d="M133.87 51.508C143.255 58.3599 149.582 39.7836 138.51 37.9754C131.621 36.8334 128.686 47.7584 133.87 51.508Z" fill="#F8AC39"/>
<path d="M149.019 57.4273C149.891 58.0519 150.891 58.4345 151.931 58.5412C152.972 58.6479 154.02 58.4753 154.984 58.0388C155.948 57.6023 156.799 56.9153 157.459 56.0385C158.12 55.1616 158.571 54.122 158.773 53.0115C160.811 44.5037 149.845 41.801 146.858 47.9107C146.403 48.6833 146.098 49.5476 145.961 50.4515C145.824 51.3554 145.857 52.2801 146.059 53.1697C146.261 54.0592 146.628 54.8951 147.136 55.6269C147.645 56.3587 148.286 56.9711 149.019 57.4273Z" fill="#F8AC39"/>
<path d="M163.834 62.9278C172.621 68.9042 177.296 51.0511 167.12 50.6514C162.498 50.4801 158.14 59.0641 163.834 62.9278Z" fill="#F8AC39"/>
<path d="M178.456 68.3522C186.293 73.8909 191.021 58.7215 182.322 57.1037C177.981 56.3043 172.972 64.4885 178.456 68.3522Z" fill="#F8AC39"/>
<path d="M193.481 73.948C200.019 78.4208 204.412 66.6203 198.068 64.0318C192.901 61.9382 188.403 70.465 193.481 73.948Z" fill="#F8AC39"/>
<path d="M208.929 79.7151C209.5 80.0298 210.126 80.2103 210.766 80.2449C211.406 80.2795 212.046 80.1673 212.643 79.9158C213.24 79.6643 213.781 79.279 214.232 78.7853C214.682 78.2915 215.031 77.7003 215.256 77.0504C217.417 70.7314 208.7 67.3054 206.574 73.5102C206.144 74.6731 206.15 75.9714 206.59 77.1298C207.029 78.2883 207.868 79.2156 208.929 79.7151Z" fill="#F8AC39"/>
<path d="M223.41 84.8159C228.418 87.9754 231.722 79.2773 226.925 77.2027C222.935 75.2994 218.893 82.0942 223.41 84.8159Z" fill="#F8AC39"/>
<path d="M238.313 90.031C242.583 93.0002 244.956 85.3869 241.423 83.7311C237.891 82.0752 234.815 87.5377 238.313 90.031Z" fill="#F8AC39"/>
<path d="M252.952 94.7512C255.957 97.8536 258.575 92.4673 256.677 90.7733C254.375 88.7178 250.544 92.2388 252.952 94.7512Z" fill="#F8AC39"/>
<path d="M268.346 99.9663C268.493 100.192 268.693 100.37 268.925 100.482C269.157 100.594 269.414 100.635 269.666 100.602C269.919 100.569 270.158 100.462 270.359 100.293C270.56 100.124 270.714 99.8994 270.807 99.6427C272.564 95.8361 265.904 97.0923 268.346 99.9663Z" fill="#F8AC39"/>
<path d="M66.7379 6.39936C74.5232 11.348 81.5177 -0.623895 75.6304 -6.46708C67.9155 -14.0803 57.6873 0.651345 66.7379 6.39936Z" fill="#F8AC39"/>
<path d="M81.6053 12.4518C83.453 13.4026 85.554 13.6051 87.5277 13.0228C95.7524 9.59684 91.6225 -6.6003 82.0974 -1.99427C80.8582 -1.35095 79.8049 -0.353084 79.0514 0.891604C78.2978 2.13629 77.8726 3.5804 77.8219 5.06777C77.7713 6.55514 78.0971 8.02928 78.7639 9.33072C79.4307 10.6322 80.4132 11.7114 81.6053 12.4518Z" fill="#F8AC39"/>
<path d="M95.7349 17.9335C104.241 23.7767 110.673 9.19726 103.59 4.61027C95.4361 -0.604815 88.2484 12.7755 95.7349 17.9335Z" fill="#F8AC39"/>
<path d="M110.462 23.6814C111.441 24.4174 112.58 24.8656 113.767 24.9822C114.955 25.0988 116.149 24.8798 117.235 24.3466C118.32 23.8134 119.26 22.9842 119.961 21.9402C120.662 20.8961 121.101 19.673 121.235 18.3902C122.746 9.82524 109.249 5.06697 107.316 16.3917C107.098 17.8088 107.282 19.2643 107.844 20.5659C108.405 21.8674 109.318 22.9538 110.462 23.6814Z" fill="#F8AC39"/>
<path d="M125.013 29.3343C126.281 30.1846 127.724 30.6816 129.213 30.7808C133.519 30.5334 138.282 22.8249 133.624 17.9334C132.618 16.871 131.336 16.1665 129.949 15.9142C128.563 15.6618 127.139 15.8735 125.867 16.521C124.595 17.1686 123.535 18.2211 122.83 19.538C122.125 20.8548 121.807 22.3734 121.92 23.8908C122.016 24.9942 122.345 26.0588 122.881 27.0026C123.417 27.9465 124.147 28.7442 125.013 29.3343Z" fill="#F8AC39"/>
<path d="M139.951 35.1584C140.823 35.7831 141.823 36.1657 142.863 36.2724C143.903 36.379 144.952 36.2064 145.916 35.7699C146.88 35.3334 147.73 34.6464 148.391 33.7696C149.052 32.8928 149.503 31.8532 149.705 30.7427C151.743 22.2349 140.795 19.5512 137.807 25.6419C137.347 26.4117 137.037 27.2752 136.895 28.1795C136.754 29.0837 136.785 30.0097 136.986 30.9006C137.186 31.7915 137.553 32.6287 138.063 33.3608C138.573 34.093 139.215 34.7046 139.951 35.1584Z" fill="#F8AC39"/>
<path d="M154.573 40.5448C163.026 46.6354 168.386 30.0575 158.738 28.3635C154.133 27.5641 148.808 36.3955 154.573 40.5448Z" fill="#F8AC39"/>
<path d="M170.143 46.6545C170.853 47.0802 171.64 47.3322 172.45 47.3929C173.259 47.4536 174.071 47.3214 174.828 47.0057C175.585 46.69 176.27 46.1984 176.833 45.5656C177.395 44.9327 177.823 44.1739 178.086 43.3427C180.81 35.4058 169.809 31.8086 167.349 38.9841C167.06 39.6811 166.903 40.4338 166.888 41.1976C166.873 41.9614 166.999 42.7207 167.26 43.4306C167.52 44.1405 167.91 44.7866 168.405 45.3306C168.9 45.8745 169.491 46.3053 170.143 46.5974" fill="#F8AC39"/>
<path d="M184.747 52.0789C185.395 52.5142 186.126 52.7827 186.884 52.8634C187.643 52.944 188.408 52.8348 189.122 52.5441C189.835 52.2535 190.477 51.7893 190.998 51.1872C191.519 50.5851 191.906 49.8612 192.128 49.0716C194.624 41.8009 184.642 38.0133 182.216 45.0366C181.951 45.6783 181.807 46.3706 181.791 47.0734C181.775 47.7761 181.888 48.4753 182.123 49.1304C182.358 49.7855 182.712 50.3835 183.162 50.8896C183.613 51.3958 184.151 51.8 184.747 52.0789Z" fill="#F8AC39"/>
<path d="M199.035 57.1037C206.24 62.4711 210.247 47.5871 201.565 47.5871C198.543 47.5871 194.694 53.811 199.035 57.1037Z" fill="#F8AC39"/>
<path d="M214.254 62.7755C219.948 66.7154 222.812 56.8181 218.208 54.7055C214.113 52.8021 209.737 59.635 214.254 62.7755Z" fill="#F8AC39"/>
<path d="M228.752 67.8764C232.917 71.1692 236.854 64.184 233.269 61.6146C229.684 59.0451 224.869 64.8311 228.752 67.8764Z" fill="#F8AC39"/>
<path d="M243.848 73.2438C245.43 74.538 247.029 74.4999 247.996 72.844C250.562 68.5045 243.444 64.5076 242.618 70.6553C242.601 71.1648 242.705 71.6706 242.92 72.124C243.136 72.5774 243.455 72.963 243.848 73.2438Z" fill="#F8AC39"/>
<path d="M259.173 78.7063C259.406 78.9361 259.688 79.1 259.994 79.1834C260.3 79.2667 260.62 79.267 260.926 79.1842C261.232 79.1013 261.515 78.9379 261.748 78.7085C261.982 78.479 262.16 78.1905 262.266 77.8688C262.416 77.5764 262.508 77.2532 262.536 76.9199C262.564 76.5866 262.527 76.2506 262.428 75.9336C262.329 75.6167 262.17 75.3257 261.961 75.0793C261.752 74.833 261.497 74.6368 261.214 74.5034C260.93 74.3699 260.624 74.3023 260.315 74.3046C260.006 74.3069 259.701 74.3793 259.42 74.517C259.138 74.6547 258.886 74.8547 258.68 75.1042C258.474 75.3537 258.319 75.647 258.224 75.9655C258.02 76.466 258.005 77.0332 258.183 77.5454C258.36 78.0576 258.715 78.4743 259.173 78.7063Z" fill="#F8AC39"/>
<path d="M274.445 81.5232C274.172 81.6913 273.967 81.9628 273.869 82.2853C273.771 82.6078 273.787 82.9582 273.914 83.2687C274.041 83.5791 274.27 83.8275 274.556 83.9657C274.842 84.1039 275.166 84.122 275.464 84.0166C275.736 83.8485 275.941 83.5769 276.039 83.2544C276.138 82.9319 276.121 82.5815 275.994 82.271C275.868 81.9606 275.639 81.7122 275.352 81.574C275.066 81.4358 274.743 81.4178 274.445 81.5232Z" fill="#F8AC39"/>
<path d="M101.482 1.18421C102.5 1.95123 103.694 2.39772 104.933 2.47415C106.171 2.55059 107.405 2.25392 108.497 1.61717C109.589 0.980417 110.497 0.0284824 111.12 -1.13313C111.743 -2.29475 112.056 -3.62054 112.026 -4.96347C112.413 -13.0906 98.8454 -16.0979 98.3006 -4.79223C98.2696 -3.58189 98.5448 -2.38535 99.0961 -1.33202C99.6474 -0.278681 100.454 0.591413 101.429 1.18421" fill="#F8AC39"/>
<path d="M117.175 7.57934C117.989 8.02979 118.884 8.28368 119.798 8.32352C120.712 8.36336 121.623 8.18826 122.468 7.81017C123.313 7.43207 124.073 6.85995 124.694 6.13338C125.315 5.4068 125.784 4.54307 126.068 3.60147C129.969 -7.81842 111.815 -9.72181 113.326 2.34522C113.49 3.50578 113.931 4.59969 114.606 5.51803C115.282 6.43638 116.167 7.1471 117.175 7.57934Z" fill="#F8AC39"/>
<path d="M130.76 12.5851C138.159 17.8002 144.257 5.27641 137.983 1.16525C133.853 -1.57553 128.985 0.403889 128.001 6.24707C127.755 7.67456 128.001 7.61747 128.001 7.8078C128.136 8.77987 128.457 9.71053 128.945 10.5399C129.432 11.3692 130.074 12.0789 130.83 12.6232" fill="#F8AC39"/>
<path d="M145.698 18.3902C154.485 24.3666 159.177 6.51344 148.984 6.11375C144.362 5.94245 140.004 14.5264 145.698 18.3902Z" fill="#F8AC39"/>
<path d="M161.075 24.3857C161.785 24.8118 162.572 25.0647 163.382 25.1268C164.192 25.1888 165.004 25.0583 165.763 24.7447C166.521 24.431 167.207 23.9417 167.772 23.3109C168.337 22.6801 168.769 21.9232 169.036 21.093C171.76 13.1372 160.741 9.53979 158.281 16.7153C157.992 17.4123 157.835 18.165 157.82 18.9288C157.805 19.6925 157.931 20.4519 158.192 21.1618C158.452 21.8717 158.842 22.5178 159.337 23.0617C159.832 23.6057 160.423 24.0364 161.075 24.3286" fill="#F8AC39"/>
<path d="M175.468 29.734C182.498 34.5113 186.873 21.169 179.598 19.0944C173.869 17.4766 170.565 26.3841 175.468 29.734Z" fill="#F8AC39"/>
<path d="M190.09 35.1584C190.615 35.6335 191.234 35.9718 191.9 36.1474C192.565 36.3229 193.258 36.3311 193.927 36.1712C194.595 36.0113 195.221 35.6877 195.756 35.2251C196.291 34.7625 196.722 34.1732 197.014 33.5026C200.528 26.5745 189.984 20.9787 187.998 29.5817C187.72 30.6306 187.774 31.7504 188.154 32.7616C188.533 33.7728 189.215 34.6168 190.09 35.1584Z" fill="#F8AC39"/>
<path d="M205.326 40.8304C210.774 44.1993 214.465 34.6065 209.227 32.2083C204.658 30.1147 200.441 37.9183 205.326 40.8304Z" fill="#F8AC39"/>
<path d="M219.807 45.9312C225.255 50.1566 228.717 39.3458 222.408 38.318C219.93 37.9373 216.152 43.0572 219.807 45.9312Z" fill="#F8AC39"/>
<path d="M235.255 51.6982C235.734 51.9507 236.26 52.0819 236.792 52.0819C237.325 52.0819 237.851 51.9507 238.33 51.6982C243.602 47.8916 235.114 41.6297 233.392 47.5871C233.256 47.9929 233.197 48.424 233.218 48.8549C233.239 49.2858 233.339 49.7079 233.512 50.0962C233.686 50.4846 233.93 50.8315 234.229 51.1164C234.528 51.4014 234.877 51.6186 235.255 51.7554" fill="#F8AC39"/>
<path d="M249.613 56.4947C251.37 58.1125 252.653 57.237 253.25 56.1521C253.447 55.8634 253.588 55.5357 253.667 55.1876C253.747 54.8396 253.762 54.4781 253.712 54.1238C253.662 53.7694 253.549 53.4291 253.377 53.1224C253.206 52.8156 252.981 52.5484 252.714 52.3359C252.448 52.1235 252.145 51.9699 251.824 51.8841C251.503 51.7983 251.169 51.7819 250.841 51.8358C250.514 51.8897 250.2 52.0128 249.917 52.1983C249.634 52.3837 249.387 52.6277 249.191 52.9164C248.171 54.8197 248.593 55.5811 249.613 56.4947Z" fill="#F8AC39"/>
<path d="M264.585 61.4813C264.873 61.8571 265.275 62.1107 265.718 62.1978C266.162 62.2848 266.619 62.1996 267.011 61.9572C269.559 57.846 262.617 57.9602 264.585 61.4813Z" fill="#F8AC39"/>
<path d="M281.334 66.2586C279.295 64.0508 280.051 69.3039 281.334 66.2586V66.2586Z" fill="#F8AC39"/>
<path d="M151.392 1.86941C159.23 7.40806 163.957 -7.76132 155.24 -9.37914C150.917 -10.1785 145.891 -2.01336 151.392 1.86941Z" fill="#F8AC39"/>
<path d="M166.822 7.61748C167.469 8.05285 168.2 8.32118 168.959 8.40186C169.717 8.48253 170.483 8.37337 171.196 8.08274C171.91 7.79211 172.552 7.32787 173.073 6.72577C173.594 6.12367 173.981 5.39983 174.203 4.61021C176.698 -2.64142 166.716 -6.44805 164.309 0.57519C164.038 1.21495 163.889 1.90684 163.869 2.61013C163.849 3.31341 163.96 4.01386 164.194 4.67015C164.429 5.32645 164.782 5.92533 165.233 6.43151C165.684 6.93769 166.224 7.34095 166.822 7.61748Z" fill="#F8AC39"/>
<path d="M181.443 13.0419C182.176 13.5906 183.037 13.9047 183.927 13.9484C184.816 13.9921 185.7 13.7635 186.476 13.2889C187.251 12.8143 187.888 12.1127 188.312 11.2645C188.737 10.4164 188.933 9.45591 188.877 8.49297C189.105 2.63076 179.246 0.194531 178.965 8.62622C178.994 9.53069 179.237 10.4121 179.671 11.1854C180.105 11.9588 180.715 12.5981 181.443 13.0419Z" fill="#F8AC39"/>
<path d="M196.065 18.4854C196.613 18.9469 197.261 19.2499 197.947 19.3658C198.633 19.4817 199.335 19.4066 199.987 19.1478C200.639 18.8889 201.219 18.4547 201.674 17.8861C202.128 17.3174 202.442 16.6329 202.585 15.8969C204.342 9.92048 195.959 6.24715 194.096 13.2323C193.761 14.2161 193.777 15.3001 194.141 16.2719C194.505 17.2437 195.191 18.0331 196.065 18.4854Z" fill="#F8AC39"/>
<path d="M211.284 24.1383C216.556 27.1836 218.911 18.0857 214.465 16.2966C210.511 14.6788 206.785 21.5117 211.284 24.1383Z" fill="#F8AC39"/>
<path d="M225.571 29.125C227.821 31.0283 229.561 30.1147 230.404 28.7252C233.48 23.7956 225.747 19.0183 224.376 25.7561C224.237 26.3826 224.276 27.0404 224.49 27.6421C224.703 28.2437 225.08 28.7609 225.571 29.125Z" fill="#F8AC39"/>
<path d="M240.456 34.4542C240.838 34.8277 241.305 35.0832 241.809 35.1937C242.313 35.3043 242.835 35.2658 243.321 35.0823C248.593 32.4367 240.896 25.5657 239.525 31.7134C239.402 32.2654 238.998 33.2171 240.456 34.4542Z" fill="#F8AC39"/>
<path d="M255.57 39.8215C257.081 41.23 258.083 40.4306 258.61 39.2124C260.807 34.1116 251.897 36.3956 255.57 39.8215Z" fill="#F8AC39"/>
<path d="M270.982 42.943C270.726 43.122 270.536 43.3942 270.448 43.7108C270.36 44.0273 270.38 44.3674 270.502 44.6701C270.625 44.9727 270.844 45.2181 271.118 45.362C271.393 45.5059 271.707 45.5391 272.002 45.4554C272.258 45.2764 272.448 45.0042 272.536 44.6876C272.624 44.3711 272.604 44.0308 272.482 43.7282C272.359 43.4255 272.141 43.1802 271.866 43.0363C271.591 42.8924 271.278 42.8593 270.982 42.943Z" fill="#F8AC39"/>
<path d="M202.145 2.11691C207.417 5.14319 209.755 -3.95469 205.308 -5.76284C201.372 -7.36163 197.629 -0.528697 202.145 2.11691Z" fill="#F8AC39"/>
<path d="M216.416 7.1417C218.683 9.04501 220.405 8.1314 221.248 6.76101C224.341 1.79336 216.609 -2.94591 215.22 3.77279C215.083 4.39935 215.124 5.05619 215.337 5.65729C215.55 6.25839 215.926 6.77578 216.416 7.1417Z" fill="#F8AC39"/>
<path d="M231.863 12.8896C232.184 13.1509 232.557 13.3277 232.952 13.4056C233.347 13.4836 233.754 13.4606 234.139 13.3387C234.525 13.2168 234.879 12.9992 235.173 12.7031C235.467 12.4071 235.694 12.0409 235.835 11.6335C235.998 11.2556 236.089 10.8461 236.103 10.4292C236.117 10.0124 236.053 9.59671 235.915 9.20726C235.777 8.81781 235.568 8.46249 235.3 8.16255C235.032 7.86261 234.711 7.62431 234.357 7.4617C234.002 7.29909 233.621 7.21559 233.236 7.21624C232.851 7.21688 232.469 7.30162 232.115 7.46542C231.761 7.62921 231.441 7.86869 231.174 8.16952C230.907 8.47035 230.699 8.8263 230.562 9.2162C230.295 9.89356 230.283 10.6575 230.53 11.3442C230.776 12.0309 231.261 12.5856 231.88 12.8896" fill="#F8AC39"/>
<path d="M246.555 18.0857C246.787 18.3203 247.069 18.4886 247.376 18.5757C247.683 18.6629 248.005 18.666 248.314 18.5848C248.622 18.5037 248.907 18.3408 249.143 18.1108C249.379 17.8809 249.558 17.591 249.665 17.2673C249.797 16.976 249.873 16.6586 249.889 16.3345C249.904 16.0104 249.859 15.6863 249.755 15.3818C249.651 15.0773 249.492 14.7988 249.286 14.563C249.08 14.3273 248.832 14.1393 248.557 14.0104C248.282 13.8815 247.986 13.8143 247.686 13.813C247.386 13.8117 247.09 13.8763 246.814 14.0029C246.538 14.1294 246.289 14.3154 246.081 14.5493C245.873 14.7833 245.712 15.0604 245.606 15.364C245.402 15.8646 245.387 16.4316 245.565 16.9438C245.742 17.456 246.097 17.8728 246.555 18.1048" fill="#F8AC39"/>
<path d="M261.334 23.0534C263.373 25.0899 264.691 21.1501 262.6 20.6933C262.328 20.6373 262.047 20.6741 261.795 20.7985C261.544 20.923 261.334 21.1289 261.195 21.388C261.057 21.647 260.995 21.9463 261.02 22.2446C261.045 22.5429 261.155 22.8255 261.334 23.0534Z" fill="#F8AC39"/>
<path d="M276.43 28.4208L277.257 28.7633L277.573 27.8498C276.922 27.374 276.536 27.5643 276.43 28.4208Z" fill="#F8AC39"/>
<path d="M252.583 1.18427C252.805 1.38716 253.081 1.50911 253.371 1.53301C253.661 1.55692 253.951 1.48159 254.2 1.31752C256.572 -0.585797 252.793 -2.96493 251.915 -0.92838C251.616 -0.262219 251.352 0.308748 252.583 1.18427Z" fill="#F8AC39"/>
<path d="M267.362 6.15184L268.188 6.49443C268.294 6.1899 268.399 5.88538 268.522 5.56182C267.854 5.10502 267.485 5.29535 267.362 6.15184Z" fill="#F8AC39"/>
</g>
</g>
</svg>
