<svg width="275" height="33" viewBox="0 0 275 33" fill="none" xmlns="http://www.w3.org/2000/svg">
<path d="M8.95761 31.4204L0.595734 0.594707H6.08087L12.5056 24.2705L19.3912 0.592651L24.5043 0.594707L31.4139 24.3963L37.8676 0.600529L43.3525 0.592651L34.9871 31.415L28.6293 31.4084L21.9498 8.38823L15.2641 31.4144L8.95761 31.4204Z" fill="white"/>
<path d="M47.136 0.610718H52.3573V31.4005H47.136V0.610718Z" fill="white"/>
<path d="M63.5193 26.5707H76.2306V31.4005H58.406V0.610718H63.5193V26.5707Z" fill="white"/>
<path d="M92.2911 0.646217C96.5761 0.646217 100.141 2.1378 102.95 5.08536C105.795 8.03292 107.235 11.6908 107.235 16.0234C107.235 20.3205 105.795 23.9783 102.95 26.9613C100.141 29.909 96.5761 31.4005 92.2911 31.4005H80.0118V0.610718H92.2911V0.646217ZM92.2911 26.6062C95.2438 26.6062 97.6564 25.6119 99.4569 23.6232C101.329 21.6345 102.266 19.0775 102.266 16.0588C102.266 12.9693 101.329 10.4834 99.4569 8.49465C97.6204 6.50583 95.2078 5.51148 92.2911 5.51148H85.1612V26.6062H92.2911Z" fill="white"/>
<path d="M134.782 22.6047C134.782 25.1274 133.883 27.2238 132.046 28.8938C130.21 30.5638 128.049 31.4165 125.385 31.4165H112.025V0.610718H124.412C126.969 0.610718 129.129 1.46353 130.893 3.06241C132.695 4.6968 133.559 6.72214 133.559 9.13822C133.559 11.8386 132.478 13.8995 130.39 15.4274C133.126 16.8486 134.782 19.4068 134.782 22.6047ZM117.174 5.37199V13.4731H124.447C126.717 13.4731 128.445 11.6965 128.445 9.42257C128.445 7.14849 126.717 5.37199 124.447 5.37199H117.174ZM125.42 26.6553C127.797 26.6553 129.67 24.7721 129.67 22.356C129.67 19.9398 127.797 18.0567 125.42 18.0567H117.174V26.6908H125.42V26.6553Z" fill="white"/>
<path d="M144.756 26.5842H158.584V31.4165H139.644V0.610718H158.369V5.44299H144.756V13.4375H157.252V18.2343H144.756V26.5842Z" fill="white"/>
<path d="M180.982 31.4165L174.356 20.1885H168.306V31.4165H163.193V0.610718H175.688C178.497 0.610718 180.874 1.57003 182.783 3.52426C184.727 5.40749 185.736 7.75257 185.736 10.524C185.736 14.4325 183.251 18.0211 179.542 19.4423L186.635 31.4165H180.982ZM168.306 5.37187V15.676H175.653C178.389 15.676 180.55 13.402 180.55 10.524C180.55 7.68145 178.354 5.37187 175.653 5.37187H168.306Z" fill="white"/>
<path d="M208.315 31.4163L201.725 20.1826H195.675V31.4163H190.562V0.594604H203.057C205.866 0.594604 208.243 1.55448 210.152 3.50974C212.096 5.39389 213.105 7.74011 213.105 10.513C213.105 14.4235 210.62 18.0141 206.911 19.436L214.004 31.4163H208.315ZM195.675 5.35827V15.6678H203.022C205.758 15.6678 207.919 13.3925 207.919 10.513C207.919 7.6691 205.723 5.35827 203.022 5.35827H195.675Z" fill="white"/>
<path d="M217.749 0.598267H222.863V31.4166H217.749V0.598267Z" fill="white"/>
<path d="M234.026 26.5842H247.854V31.4164H228.912V0.610718H247.637V5.44299H234.026V13.4375H246.52V18.2343H234.026V26.5842Z" fill="white"/>
<path d="M251.418 24.4046L255.847 21.8477C257.107 25.328 259.664 27.0326 263.589 27.0326C267.478 27.0326 269.386 25.399 269.386 22.9842C269.386 21.7057 268.847 20.7823 267.839 20.1431C266.829 19.4684 264.957 18.7225 262.293 17.9413C259.304 17.0534 257.828 16.4852 255.739 15.1357C253.723 13.7153 252.714 11.6909 252.714 8.92101C252.714 6.18645 253.686 4.05575 255.667 2.45766C257.612 0.823961 259.989 0.0427246 262.761 0.0427246C267.767 0.0427246 271.619 2.59966 273.636 6.82569L269.315 9.27613C268.018 6.43507 265.822 4.97899 262.761 4.97899C259.772 4.97899 257.863 6.47057 257.863 8.81439C257.863 11.0873 259.376 12.1527 264.165 13.6087C265.354 13.9994 266.218 14.2835 266.758 14.4965C267.334 14.6741 268.09 14.9937 269.062 15.3844C270.071 15.775 270.864 16.2367 271.332 16.6273C272.988 17.9058 274.751 20.001 274.536 22.9487C274.536 25.7186 273.528 27.9559 271.475 29.5895C269.458 31.2232 266.794 32.0045 263.481 32.0045C257.432 31.969 253.038 29.1279 251.418 24.4046Z" fill="white"/>
</svg>
