<svg width="36" height="44" viewBox="0 0 36 44" fill="none" xmlns="http://www.w3.org/2000/svg">
<path fill-rule="evenodd" clip-rule="evenodd" d="M22.9086 24.8875C27.6239 22.9647 30.9263 18.3459 30.9263 12.9207C30.9263 5.75554 25.1663 0 18.0001 0C10.8361 0 5.07385 5.75517 5.07385 12.9207C5.07385 18.3434 8.37414 22.9601 13.0853 24.8846C10.6898 25.0834 8.41595 25.467 6.47714 26.1442C4.83864 26.7164 3.22751 27.5693 2.00382 28.8922C0.716246 30.2841 0 32.0481 0 34.0781C0 36.1019 0.709337 37.8644 1.98835 39.26C3.20542 40.588 4.81059 41.4494 6.44865 42.0295C9.68479 43.1755 13.8605 43.5 18 43.5C22.1125 43.5 26.285 43.1878 29.5229 42.057C31.1614 41.4848 32.7725 40.6319 33.9962 39.309C35.2838 37.917 36 36.1531 36 34.1231C36 32.0995 35.2909 30.337 34.0121 28.9414C32.7952 27.6133 31.1901 26.7518 29.5521 26.1717C27.6067 25.4827 25.3215 25.0906 22.9086 24.8875ZM18.0001 22.8433C23.5109 22.8433 27.9263 18.4277 27.9263 12.9207C27.9263 7.41379 23.5109 3 18.0001 3C12.4911 3 8.07385 7.41379 8.07385 12.9207C8.07385 18.4277 12.4911 22.8433 18.0001 22.8433ZM3 34.0781C3 39.1781 9.86695 40.5 18 40.5C26.0899 40.5 33 39.225 33 34.1231C33 29.023 26.1349 27.7012 18 27.7012C9.91009 27.7012 3 28.9762 3 34.0781Z" fill="#1C0C44"/>
</svg>
